<?xml version="1.0" encoding="UTF-8"?>
<svg width="16px" height="14px" viewBox="0 0 16 14" version="1.1" xmlns="http://www.w3.org/2000/svg" xmlns:xlink="http://www.w3.org/1999/xlink">
    <!-- Generator: Sketch 64 (93537) - https://sketch.com -->
    <title>Icon/360</title>
    <desc>Created with Sketch.</desc>
    <g id="Symbols" stroke="none" stroke-width="1" fill="none" fill-rule="evenodd">
        <g id="Nav---Mobile" transform="translate(-20.000000, -21.000000)" fill="#334652">
            <g id="Icon/Menu" transform="translate(16.000000, 16.000000)">
                <g id="menu-7" transform="translate(4.000000, 5.000000)">
                    <path d="M15,12 C15.6,12 16,12.4 16,13 C16,13.6 15.6,14 15,14 L15,14 L1,14 C0.4,14 0,13.6 0,13 C0,12.4 0.4,12 1,12 L1,12 Z M8,6 C8.6,6 9,6.4 9,7 C9,7.6 8.6,8 8,8 L8,8 L1,8 C0.4,8 0,7.6 0,7 C0,6.4 0.4,6 1,6 L1,6 Z M15,0 C15.6,0 16,0.4 16,1 C16,1.6 15.6,2 15,2 L15,2 L1,2 C0.4,2 0,1.6 0,1 C0,0.4 0.4,0 1,0 L1,0 Z" id="Combined-Shape" fill-rule="nonzero"></path>
                </g>
            </g>
        </g>
    </g>
</svg>