<?xml version="1.0" encoding="UTF-8"?>
<svg width="32px" height="30px" viewBox="0 0 32 30" version="1.1" xmlns="http://www.w3.org/2000/svg" xmlns:xlink="http://www.w3.org/1999/xlink">
    <title>Icon/Announcement</title>
    <g id="Style-Guide" stroke="none" stroke-width="1" fill="none" fill-rule="evenodd">
        <g id="Icons" transform="translate(-156.000000, -547.000000)" fill-rule="nonzero">
            <g id="Group" transform="translate(156.000000, 547.000000)">
                <g id="speaker" transform="translate(0.000000, 0.000000)">
                    <path d="M10.6616835,29.091033 C9.53940174,29.091033 8.46671304,28.4436174 7.98029913,27.3539409 L2.94768696,16.0767652 L9.20108522,15.7031235 L13.33424,24.9646748 C13.9932104,26.4402157 13.3281252,28.1773078 11.8519026,28.8362783 C11.4653565,29.0088348 11.0604591,29.091033 10.6616835,29.091033 Z" id="Path" fill="#666666"></path>
                    <rect id="Rectangle" fill="#444444" x="27.826087" y="11.1304348" width="4.17391304" height="1.39130435"></rect>
                    <polygon id="Rectangle" fill="#444444" transform="translate(28.049276, 4.869513) rotate(60.005247) translate(-28.049276, -4.869513) " points="27.3535135 2.78251783 28.7450386 2.78251783 28.7450386 6.95650861 27.3535135 6.95650861"></polygon>
                    <polygon id="Rectangle" fill="#444444" transform="translate(28.049226, 18.782579) rotate(29.999372) translate(-28.049226, -18.782579) " points="25.9622299 18.0868159 30.1362222 18.0868159 30.1362222 19.4783414 25.9622299 19.4783414"></polygon>
                    <path d="M22.2608696,9.73913043 L22.2608696,13.9130435 C23.4134678,13.9130435 24.3478261,12.9786852 24.3478261,11.826087 C24.3478261,10.6734887 23.4134678,9.73913043 22.2608696,9.73913043 Z" id="Path" fill="#666666"></path>
                    <path d="M4.86956522,6.95652174 C2.18477913,6.95652174 0,9.14130087 0,11.826087 C0,14.510873 2.18477913,16.6956522 4.86956522,16.6956522 L6.26086957,16.6956522 L6.26086957,6.95652174 L4.86956522,6.95652174 Z" id="Path" fill="#999999"></path>
                    <path d="M21.9021774,0.0869565217 C21.6820661,-0.0346434783 21.4110122,-0.0285356522 21.1963339,0.105975652 L10.2350539,6.95652174 L6.26086957,6.95652174 L6.26086957,16.6956522 L10.2350539,16.6956522 L21.1963339,23.5461983 C21.3091061,23.6168487 21.4368209,23.6521739 21.5652174,23.6521739 C21.6813843,23.6521739 21.7975513,23.6229635 21.9021774,23.5652174 C22.1236383,23.4422539 22.2608696,23.2092383 22.2608696,22.9565217 L22.2608696,0.695652174 C22.2608696,0.442935652 22.1236383,0.20992 21.9021774,0.0869565217 Z" id="Path" fill="#C6C6C6"></path>
                    <rect id="Rectangle" fill="#444444" x="5.56521739" y="6.95652174" width="1.39130435" height="9.73913043"></rect>
                </g>
            </g>
        </g>
    </g>
</svg>