<?xml version="1.0" encoding="UTF-8"?>
<svg width="38px" height="38px" viewBox="0 0 38 38" version="1.1" xmlns="http://www.w3.org/2000/svg" xmlns:xlink="http://www.w3.org/1999/xlink">
    <title>Icon/Calendar</title>
    <g id="R3" stroke="none" stroke-width="1" fill="none" fill-rule="evenodd">
        <g id="Dashboard---In-progress" transform="translate(-240.000000, -1549.000000)" fill-rule="nonzero">
            <g id="LPA-Score-Card" transform="translate(204.000000, 1485.000000)">
                <g id="LPA-Sticky-banner" transform="translate(0.000000, 36.000000)">
                    <g id="Icon/Calendar" transform="translate(36.000000, 28.000000)">
                        <g id="calendar-date-2">
                            <path d="M0,36.3478261 C0,37.2602804 0.739719565,38 1.65217391,38 L36.3478261,38 C37.2602804,38 38,37.2602804 38,36.3478261 L38,11.5652174 L0,11.5652174 L0,36.3478261 Z" id="Path" fill="#FFFFFF"></path>
                            <path d="M36.3478261,3.30434783 L1.65217391,3.30434783 C0.739719565,3.30434783 0,4.04401783 0,4.95652174 L0,11.5652174 L38,11.5652174 L38,4.95652174 C38,4.04401783 37.2602804,3.30434783 36.3478261,3.30434783 Z" id="Path" fill="#E86C60"></path>
                            <path d="M7.43478261,7.43478261 L7.43478261,0.826086957 C7.43478261,0.369855652 7.80463,0 8.26086957,0 L9.91304348,0 C10.369283,0 10.7391304,0.369855652 10.7391304,0.826086957 L10.7391304,7.43478261 C10.7391304,7.89102217 10.369283,8.26086957 9.91304348,8.26086957 L8.26086957,8.26086957 C7.80463,8.26086957 7.43478261,7.89102217 7.43478261,7.43478261 Z" id="Path" fill="#444444"></path>
                            <path d="M27.2608696,7.43478261 L27.2608696,0.826086957 C27.2608696,0.369855652 27.6307252,0 28.0869565,0 L29.7391304,0 C30.1953617,0 30.5652174,0.369855652 30.5652174,0.826086957 L30.5652174,7.43478261 C30.5652174,7.89102217 30.1953617,8.26086957 29.7391304,8.26086957 L28.0869565,8.26086957 C27.6307252,8.26086957 27.2608696,7.89102217 27.2608696,7.43478261 Z" id="Path" fill="#444444"></path>
                            <path d="M32.2173913,27.2608696 L29.7391304,27.2608696 L29.7391304,22.3043478 L32.2173913,22.3043478 C32.6739943,22.3043478 33.0434783,21.9348639 33.0434783,21.4782609 C33.0434783,21.0216578 32.6739943,20.6521739 32.2173913,20.6521739 L29.7391304,20.6521739 L29.7391304,16.5217391 C29.7391304,16.0651361 29.3696465,15.6956522 28.9130435,15.6956522 C28.4564404,15.6956522 28.0869565,16.0651361 28.0869565,16.5217391 L28.0869565,20.6521739 L23.1304348,20.6521739 L23.1304348,16.5217391 C23.1304348,16.0651361 22.7609509,15.6956522 22.3043478,15.6956522 C21.8477448,15.6956522 21.4782609,16.0651361 21.4782609,16.5217391 L21.4782609,20.6521739 L16.5217391,20.6521739 L16.5217391,16.5217391 C16.5217391,16.0651361 16.1522552,15.6956522 15.6956522,15.6956522 C15.2390491,15.6956522 14.8695652,16.0651361 14.8695652,16.5217391 L14.8695652,20.6521739 L9.91304348,20.6521739 L9.91304348,16.5217391 C9.91304348,16.0651361 9.54355957,15.6956522 9.08695652,15.6956522 C8.63035348,15.6956522 8.26086957,16.0651361 8.26086957,16.5217391 L8.26086957,20.6521739 L5.7826087,20.6521739 C5.32600565,20.6521739 4.95652174,21.0216578 4.95652174,21.4782609 C4.95652174,21.9348639 5.32600565,22.3043478 5.7826087,22.3043478 L8.26086957,22.3043478 L8.26086957,27.2608696 L5.7826087,27.2608696 C5.32600565,27.2608696 4.95652174,27.6303535 4.95652174,28.0869565 C4.95652174,28.5435596 5.32600565,28.9130435 5.7826087,28.9130435 L8.26086957,28.9130435 L8.26086957,33.0434783 C8.26086957,33.5000813 8.63035348,33.8695652 9.08695652,33.8695652 C9.54355957,33.8695652 9.91304348,33.5000813 9.91304348,33.0434783 L9.91304348,28.9130435 L14.8695652,28.9130435 L14.8695652,33.0434783 C14.8695652,33.5000813 15.2390491,33.8695652 15.6956522,33.8695652 C16.1522552,33.8695652 16.5217391,33.5000813 16.5217391,33.0434783 L16.5217391,28.9130435 L21.4782609,28.9130435 L21.4782609,33.0434783 C21.4782609,33.5000813 21.8477448,33.8695652 22.3043478,33.8695652 C22.7609509,33.8695652 23.1304348,33.5000813 23.1304348,33.0434783 L23.1304348,28.9130435 L28.0869565,28.9130435 L28.0869565,33.0434783 C28.0869565,33.5000813 28.4564404,33.8695652 28.9130435,33.8695652 C29.3696465,33.8695652 29.7391304,33.5000813 29.7391304,33.0434783 L29.7391304,28.9130435 L32.2173913,28.9130435 C32.6739943,28.9130435 33.0434783,28.5435596 33.0434783,28.0869565 C33.0434783,27.6303535 32.6739943,27.2608696 32.2173913,27.2608696 Z M9.91304348,27.2608696 L9.91304348,22.3043478 L14.8695652,22.3043478 L14.8695652,27.2608696 L9.91304348,27.2608696 Z M16.5217391,27.2608696 L16.5217391,22.3043478 L21.4782609,22.3043478 L21.4782609,27.2608696 L16.5217391,27.2608696 Z M23.1304348,27.2608696 L23.1304348,22.3043478 L28.0869565,22.3043478 L28.0869565,27.2608696 L23.1304348,27.2608696 Z" id="Shape" fill="#B3B3B3"></path>
                        </g>
                    </g>
                </g>
            </g>
        </g>
    </g>
</svg>