<?xml version="1.0" encoding="UTF-8"?>
<svg width="16px" height="14px" viewBox="0 0 16 14" version="1.1" xmlns="http://www.w3.org/2000/svg" xmlns:xlink="http://www.w3.org/1999/xlink">
    <title>Icon/Filter</title>
    <g id="R3" stroke="none" stroke-width="1" fill="none" fill-rule="evenodd">
        <g id="Connections---Mobile" transform="translate(-280.000000, -183.000000)" fill="#334652">
            <g id="Filter" transform="translate(20.000000, 178.000000)">
                <g id="Icon/Filter" transform="translate(256.000000, 0.000000)">
                    <g id="sort-tool" transform="translate(4.000000, 5.000000)">
                        <path d="M9,14 L7,14 C6.448,14 6,13.552 6,13 L6,13 C6,12.448 6.448,12 7,12 L9,12 C9.552,12 10,12.448 10,13 L10,13 C10,13.552 9.552,14 9,14 Z" id="Path" fill-rule="nonzero"></path>
                        <path d="M11,10 L5,10 C4.448,10 4,9.552 4,9 L4,9 C4,8.448 4.448,8 5,8 L11,8 C11.552,8 12,8.448 12,9 L12,9 C12,9.552 11.552,10 11,10 Z" id="Path" fill-rule="nonzero"></path>
                        <path d="M13,6 L3,6 C2.448,6 2,5.552 2,5 L2,5 C2,4.448 2.448,4 3,4 L13,4 C13.552,4 14,4.448 14,5 L14,5 C14,5.552 13.552,6 13,6 Z" id="Path" fill-rule="nonzero"></path>
                        <path d="M15,2 L1,2 C0.448,2 0,1.552 0,1 L0,1 C0,0.448 0.448,0 1,0 L15,0 C15.552,0 16,0.448 16,1 L16,1 C16,1.552 15.552,2 15,2 Z" id="Path" fill-rule="nonzero"></path>
                    </g>
                </g>
            </g>
        </g>
    </g>
</svg>