<?xml version="1.0" encoding="UTF-8"?>
<svg width="28px" height="32px" viewBox="0 0 28 32" version="1.1" xmlns="http://www.w3.org/2000/svg" xmlns:xlink="http://www.w3.org/1999/xlink">
    <title>Icon/Flag</title>
    <g id="Style-Guide" stroke="none" stroke-width="1" fill="none" fill-rule="evenodd">
        <g id="Icons" transform="translate(-324.000000, -546.000000)" fill-rule="nonzero">
            <g id="Group" transform="translate(324.000000, 546.000000)">
                <g id="flag-complex" transform="translate(0.000000, 0.000000)">
                    <path d="M17.3913043,19.4782609 L0.695652174,19.4782609 C0.311144348,19.4782609 0,19.1667826 0,18.7826087 C0,18.3984348 0.311144348,18.0869565 0.695652174,18.0869565 L17.3913043,18.0869565 C17.7758122,18.0869565 18.0869565,18.3984348 18.0869565,18.7826087 C18.0869565,19.1667826 17.7758122,19.4782609 17.3913043,19.4782609 Z" id="Path" fill="#BA66DD"></path>
                    <path d="M27.1304348,25.0434783 L9.04347826,25.0434783 C8.65897043,25.0434783 8.34782609,24.732 8.34782609,24.3478261 L8.34782609,7.65217391 C8.34782609,7.268 8.65897043,6.95652174 9.04347826,6.95652174 L27.1304348,6.95652174 C27.3539409,6.95652174 27.5638609,7.06386087 27.6949704,7.24558609 C27.8254052,7.42697043 27.8614122,7.65998609 27.79008,7.87228522 L25.0808417,16 L27.79008,24.1277148 C27.8614122,24.3400139 27.8254052,24.5730296 27.6949704,24.7544139 C27.5638609,24.9361391 27.3539409,25.0434783 27.1304348,25.0434783 Z" id="Path" fill="#D85B55"></path>
                    <path d="M9.04347826,25.0434783 C8.93070609,25.0434783 8.81793391,25.0163061 8.71535304,24.96128 C8.48912696,24.8400139 8.34782609,24.6042783 8.34782609,24.3478261 L8.34782609,7.65217391 C8.34782609,7.268 8.65897043,6.95652174 9.04347826,6.95652174 L17.3913043,6.95652174 C17.7758122,6.95652174 18.0869565,7.268 18.0869565,7.65217391 L18.0869565,18.7826087 C18.0869565,19.0152835 17.9707896,19.2323339 17.7771757,19.3614122 L9.42934957,24.9266296 C9.31318261,25.0040765 9.1786713,25.0434783 9.04347826,25.0434783 Z" id="Path" fill="#C64B4B"></path>
                    <path d="M17.3913043,19.4782609 L0.695652174,19.4782609 C0.311144348,19.4782609 0,19.1667826 0,18.7826087 L0,2.08695652 C0,1.70278261 0.311144348,1.39130435 0.695652174,1.39130435 L17.3913043,1.39130435 C17.7758122,1.39130435 18.0869565,1.70278261 18.0869565,2.08695652 L18.0869565,18.7826087 C18.0869565,19.1667826 17.7758122,19.4782609 17.3913043,19.4782609 Z" id="Path" fill="#E86C60"></path>
                    <path d="M0.695652174,32 C0.311144348,32 0,31.6885217 0,31.3043478 L0,0.695652174 C0,0.311478261 0.311144348,0 0.695652174,0 C1.08016,0 1.39130435,0.311478261 1.39130435,0.695652174 L1.39130435,31.3043478 C1.39130435,31.6885217 1.08016,32 0.695652174,32 Z" id="Path" fill="#444444"></path>
                </g>
            </g>
        </g>
    </g>
</svg>