<?xml version="1.0" encoding="UTF-8"?>
<svg width="100px" height="100px" viewBox="0 0 100 100" version="1.1" xmlns="http://www.w3.org/2000/svg" xmlns:xlink="http://www.w3.org/1999/xlink">
    <title>Icon/Pause - Alt</title>
    <g id="Welcome" stroke="none" stroke-width="1" fill="none" fill-rule="evenodd" opacity="0.25">
        <g id="Audio-LMS" transform="translate(-670.000000, -462.000000)" fill="#FFFFFF" fill-rule="nonzero">
            <g id="Icon/Pause---Alt" transform="translate(645.000000, 437.000000)">
                <path d="M75,25 C102.614237,25 125,47.3857625 125,75 C125,102.614237 102.614237,125 75,125 C47.3857625,125 25,102.614237 25,75 C25,47.3857625 47.3857625,25 75,25 Z M66.9642857,56.25 L58.9285714,56.25 L58.7455398,56.2547244 C57.2405959,56.3332101 56.25,57.3832418 56.25,58.9285714 L56.25,58.9285714 L56.25,91.0714286 L56.2547244,91.2544602 C56.3332101,92.7594041 57.3832418,93.75 58.9285714,93.75 L58.9285714,93.75 L66.9642857,93.75 L67.1473174,93.7452756 C68.6522612,93.6667899 69.6428571,92.6167582 69.6428571,91.0714286 L69.6428571,91.0714286 L69.6428571,58.9285714 L69.6381328,58.7455398 C69.5596471,57.2405959 68.5096154,56.25 66.9642857,56.25 L66.9642857,56.25 Z M91.0714286,56.25 L83.0357143,56.25 L82.8526826,56.2547244 C81.3477388,56.3332101 80.3571429,57.3832418 80.3571429,58.9285714 L80.3571429,58.9285714 L80.3571429,91.0714286 L80.3618672,91.2544602 C80.4403529,92.7594041 81.4903846,93.75 83.0357143,93.75 L83.0357143,93.75 L91.0714286,93.75 L91.2544602,93.7452756 C92.7594041,93.6667899 93.75,92.6167582 93.75,91.0714286 L93.75,91.0714286 L93.75,58.9285714 L93.7452756,58.7455398 C93.6667899,57.2405959 92.6167582,56.25 91.0714286,56.25 L91.0714286,56.25 Z" id="Fill"></path>
            </g>
        </g>
    </g>
</svg>