<?xml version="1.0" encoding="UTF-8"?>
<svg width="32px" height="31px" viewBox="0 0 32 31" version="1.1" xmlns="http://www.w3.org/2000/svg" xmlns:xlink="http://www.w3.org/1999/xlink">
    <title>Icon/Warning</title>
    <g id="Style-Guide" stroke="none" stroke-width="1" fill="none" fill-rule="evenodd">
        <g id="Icons" transform="translate(-376.000000, -547.000000)" fill-rule="nonzero">
            <g id="Group" transform="translate(376.000000, 547.000000)">
                <g id="t-warning" transform="translate(0.000000, -0.000000)">
                    <path d="M31.9206957,29.5902609 L16.6163478,0.372869565 C16.3763478,-0.0855652174 15.6236522,-0.0855652174 15.3843478,0.372869565 L0.08,29.5902609 C-0.0333913043,29.805913 -0.0250434783,30.0646957 0.100869565,30.2726957 C0.226782609,30.4806957 0.452173913,30.6086957 0.695652174,30.6086957 L31.3043478,30.6086957 C31.5478261,30.6086957 31.7732174,30.4813913 31.8991304,30.2733913 C32.0250435,30.0653913 32.0333913,29.805913 31.9206957,29.5902609 Z" id="Path" fill="#EFD358"></path>
                    <path d="M15.3043478,11.826087 C15.3043478,11.442087 15.616,11.1304348 16,11.1304348 C16.384,11.1304348 16.6956522,11.442087 16.6956522,11.826087 L16.6956522,20.8695652 C16.6956522,21.2535652 16.384,21.5652174 16,21.5652174 C15.616,21.5652174 15.3043478,21.2535652 15.3043478,20.8695652 L15.3043478,11.826087 Z M16,26.4347826 C15.2313043,26.4347826 14.6086957,25.8121739 14.6086957,25.0434783 C14.6086957,24.2747826 15.2313043,23.6521739 16,23.6521739 C16.7686957,23.6521739 17.3913043,24.2747826 17.3913043,25.0434783 C17.3913043,25.8121739 16.7686957,26.4347826 16,26.4347826 Z" id="Shape" fill="#FFFFFF"></path>
                </g>
            </g>
        </g>
    </g>
</svg>