<svg xmlns="http://www.w3.org/2000/svg" viewBox="0 0 609.18 609.18"><defs><style>.cls-1{fill:#e1e6e8;}.cls-2{fill:#f05f50;}.cls-3{fill:#183651;}.cls-4{fill:#fff;}.cls-5{opacity:0.16;}</style></defs><g id="Layer_2" data-name="Layer 2"><g id="Capa_1" data-name="Capa 1"><circle class="cls-1" cx="304.59" cy="304.59" r="304.59"/><path class="cls-2" d="M538.74,538.74,523.51,417.86C541.6,382.64,553,342.66,553,300.78,552.07,160.86,439.75,47.59,299.83,47.59S47.59,160.86,47.59,299.83,160.86,552.07,299.83,552.07c42.83,0,82.81-10.48,117.07-29.51Z"/><path class="cls-3" d="M299.83,561.58c-143.73,0-261.76-117.07-261.76-261.75S156.1,38.07,299.83,38.07c144.68,0,261.75,117.08,261.75,261.76,0,40.93-9.51,82.81-28.55,119l14.28,118a9.84,9.84,0,0,1-10.48,10.47L418.81,533C382.64,552.07,341.71,561.58,299.83,561.58Zm0-504.47c-133.26,0-242.72,109.46-242.72,242.72S166.57,542.55,299.83,542.55A248.81,248.81,0,0,0,413.1,515a12,12,0,0,1,5.71-1l108.51,13.33L514,418.81a12.09,12.09,0,0,1,1-5.71,242.91,242.91,0,0,0,27.61-113.27C542.55,166.57,434,57.11,299.83,57.11Z"/><path class="cls-4" d="M299.83,514c-118,0-214.16-96.13-214.16-214.16S181.8,85.67,299.83,85.67,514,181.8,514,299.83c0,52.35-17.13,85.66-30.46,110.41L494,494l-83.76-10.47C393.11,493.05,356.94,514,299.83,514Z"/><g class="cls-5"><rect class="cls-3" x="125.67" y="196.08" width="24.6" height="24.6"/><rect class="cls-3" x="125.67" y="284.64" width="24.6" height="24.6"/><rect class="cls-3" x="125.67" y="373.19" width="24.6" height="24.6"/><rect class="cls-3" x="445.46" y="196.08" width="24.6" height="24.6"/><rect class="cls-3" x="445.46" y="284.64" width="24.6" height="24.6"/><rect class="cls-3" x="445.46" y="373.19" width="24.6" height="24.6"/></g><path class="cls-3" d="M243.67,214.69V268.5H226.2l-15.61-30c.22,3.9.37,7.17.37,9.74V268.5H194.61V214.69h18.21l14.87,30c-.23-3.89-.38-7.17-.38-9.74V214.69Z"/><path class="cls-3" d="M289.9,252.75H265c.52,3,2.9,4.44,7.28,4.44a17.54,17.54,0,0,0,10.41-3.12l6.32,8.58-.38.31c-5,4.29-11.22,6.47-18.8,6.47q-9.36,0-15.39-5.38c-3.94-3.66-5.94-8.73-5.94-15.36s2-11.62,6.09-15.28,9.22-5.46,15.46-5.46c6,0,10.85,1.79,14.5,5.46s5.57,8.42,5.57,14.42Zm-15.24-9.21a4.83,4.83,0,0,0-9.66,0Z"/><path class="cls-3" d="M333.53,252.75h-24.9c.52,3,2.9,4.44,7.28,4.44a17.54,17.54,0,0,0,10.41-3.12l6.32,8.58-.37.31c-5,4.29-11.23,6.47-18.81,6.47q-9.36,0-15.39-5.38c-3.94-3.66-5.94-8.73-5.94-15.36s2-11.62,6.09-15.28,9.22-5.46,15.46-5.46c6,0,10.86,1.79,14.5,5.46s5.57,8.42,5.57,14.42Zm-15.24-9.21a4.83,4.83,0,0,0-9.66,0Z"/><path class="cls-3" d="M380.73,214.69V268.5H364.9l.22-4.29c-2.6,3.51-6.54,5.22-11.9,5.22a15.63,15.63,0,0,1-12.71-5.85c-3.19-4-4.75-8.88-4.75-14.89s1.56-10.92,4.75-14.81A15.47,15.47,0,0,1,353.22,228c4.69,0,8.55,1.79,10,3.28l1,1c-.07-2.11-.15-4.13-.15-6.24V214.69Zm-26.39,28.78a7,7,0,0,0-1.71,5c0,4.29,2.68,6.78,5.95,6.78s5.94-2.49,5.94-6.78C364.9,241.91,357.76,239.65,354.34,243.47Z"/><path class="cls-3" d="M243.34,294.11v55.12H226.13V328.86H211.82v20.37H194.61V294.11h17.21v20h14.31v-20Z"/><path class="cls-3" d="M290.71,333.1H265.2c.53,3,3,4.55,7.46,4.55a18,18,0,0,0,10.66-3.2l6.48,8.79-.38.32c-5.11,4.4-11.5,6.63-19.27,6.63q-9.6,0-15.76-5.51c-4-3.76-6.1-8.95-6.1-15.74s2.06-11.9,6.25-15.66,9.44-5.59,15.84-5.59c6.17,0,11.12,1.84,14.85,5.59s5.71,8.63,5.71,14.78Zm-15.61-9.43a4.81,4.81,0,0,0-5-4.79,4.86,4.86,0,0,0-4.95,4.79Z"/><path class="cls-3" d="M312.18,294.11v55.12H295.05V294.11Z"/><path class="cls-3" d="M335.41,345.24c.15,1.36.23,3.59.23,6.79v11.18H318.5V308.49h16.15l-.15,4c3-3.19,7.08-4.79,12.18-4.79a15.84,15.84,0,0,1,13,6.07c3.28,4,4.87,9,4.87,15.18S363,340.13,359.7,344.2a16,16,0,0,1-13,6C341.43,350.19,337.69,348.51,335.41,345.24Zm5.71-23.57c-3.35,0-6.09,2.64-6.09,7s2.74,6.95,6.09,6.95,6.09-2.55,6.09-6.95S344.55,321.67,341.12,321.67Z"/><path class="cls-2" d="M425.56,329.21q-3.92,3.46-14.45,8.67c-2.06,1.29-2.06,1.87-2.06,5.05v3.61H382.9v-8.66c0-7.37,1.1-10.83,7.57-14.44l8.94-5.06c.55-.43,3.44-1.87,4.13-2.45,1.79-1.16,3.44-2.74,3.44-4.77,0-3.61-3.71-5.34-11-5.34-6.88,0-13.76,2.31-20.64,6.79l-6.88-23.83q13.83-8.65,33-8.66c9.49,0,17.48,2.6,23.67,7.94s9.36,11.84,9.36,19.49C434.51,318.67,431.48,324,425.56,329.21Zm-46.52,38c0-10,6.61-15.74,16.93-15.74,10,0,16.79,5.92,16.79,15.74S406,382.78,396,382.78C385.65,382.78,379,377,379,367.19Z"/></g></g></svg>