<svg xmlns="http://www.w3.org/2000/svg" viewBox="0 0 504.12 504.12"><defs><style>.cls-1{fill:#e1e6e8;}.cls-2{fill:#f05f50;}.cls-3{fill:#183651;}.cls-4{fill:#fff;}.cls-5{opacity:0.16;}.cls-6{font-size:12px;font-family:Gibson-Bold, Gibson;font-weight:700;}</style></defs><g id="Layer_2" data-name="Layer 2"><g id="Capa_1" data-name="Capa 1"><circle class="cls-1" cx="252.06" cy="252.06" r="252.06"/><path class="cls-2" d="M445.83,445.83l-12.6-100c15-29.15,24.42-62.23,24.42-96.89-.79-115.79-93.74-209.53-209.53-209.53S39.38,133.12,39.38,248.12s93.74,208.74,208.74,208.74c35.45,0,68.53-8.66,96.89-24.42Z"/><path class="cls-3" d="M248.12,464.74c-118.94,0-216.61-96.89-216.61-216.62S129.18,31.51,248.12,31.51A216.49,216.49,0,0,1,464.74,248.12c0,33.87-7.88,68.53-23.63,98.46l11.81,97.68a8.12,8.12,0,0,1-8.66,8.66l-97.68-11.81C316.65,456.86,282.78,464.74,248.12,464.74Zm0-417.48c-110.27,0-200.86,90.59-200.86,200.86S137.85,449,248.12,449a205.81,205.81,0,0,0,93.74-22.85,10.05,10.05,0,0,1,4.72-.78l89.8,11-11-89.79a10,10,0,0,1,.79-4.73A201,201,0,0,0,449,248.12C449,137.85,359.19,47.26,248.12,47.26Z"/><path class="cls-4" d="M248.12,425.35c-97.67,0-177.23-79.55-177.23-177.23S150.45,70.89,248.12,70.89s177.23,79.56,177.23,177.23c0,43.33-14.17,70.9-25.2,91.37l8.66,69.32-69.31-8.66C325.32,408,295.39,425.35,248.12,425.35Z"/><g class="cls-5"><rect class="cls-3" x="104" y="162.27" width="20.36" height="20.36"/><rect class="cls-3" x="104" y="235.55" width="20.36" height="20.36"/><rect class="cls-3" x="104" y="308.84" width="20.36" height="20.36"/><rect class="cls-3" x="368.64" y="162.27" width="20.36" height="20.36"/><rect class="cls-3" x="368.64" y="235.55" width="20.36" height="20.36"/><rect class="cls-3" x="368.64" y="308.84" width="20.36" height="20.36"/></g><path class="cls-3" d="M176.76,182.25v44.61H162.27L149.33,202c.19,3.23.31,5.94.31,8.08v16.81H136.08V182.25h15.1l12.33,24.89c-.19-3.23-.31-5.95-.31-8.08V182.25Z"/><path class="cls-3" d="M215.09,213.8H194.44c.44,2.45,2.41,3.68,6,3.68a14.59,14.59,0,0,0,8.63-2.58l5.24,7.11-.31.26c-4.13,3.55-9.3,5.36-15.59,5.36q-7.77,0-12.76-4.46c-3.26-3-4.93-7.24-4.93-12.74s1.67-9.63,5.06-12.67a18.41,18.41,0,0,1,12.81-4.52c5,0,9,1.48,12,4.52s4.62,7,4.62,12Zm-12.63-7.63a4,4,0,0,0-8,0Z"/><path class="cls-3" d="M251.27,213.8H230.62c.43,2.45,2.4,3.68,6,3.68a14.61,14.61,0,0,0,8.63-2.58l5.24,7.11-.31.26c-4.13,3.55-9.31,5.36-15.59,5.36q-7.77,0-12.76-4.46c-3.27-3-4.93-7.24-4.93-12.74s1.66-9.63,5.05-12.67,7.64-4.52,12.82-4.52c5,0,9,1.48,12,4.52s4.62,7,4.62,12Zm-12.64-7.63a3.89,3.89,0,0,0-4-3.88,3.93,3.93,0,0,0-4,3.88Z"/><path class="cls-3" d="M290.4,182.25v44.61H277.27l.19-3.56c-2.16,2.91-5.43,4.33-9.86,4.33a12.92,12.92,0,0,1-10.54-4.85,19,19,0,0,1-3.95-12.35c0-5,1.3-9.05,3.95-12.28a12.81,12.81,0,0,1,10.54-4.91c3.88,0,7.08,1.48,8.25,2.71l.8.84c-.06-1.74-.12-3.42-.12-5.17v-9.37ZM268.52,206.1a5.88,5.88,0,0,0-1.42,4.14c0,3.56,2.22,5.63,4.93,5.63s4.93-2.07,4.93-5.63C277.27,204.81,271.35,202.94,268.52,206.1Z"/><text class="cls-6" transform="translate(403 253.36)">?</text><path class="cls-3" d="M180.36,250.61V300.3H164.85V281.93H151.94V300.3H136.43V250.61h15.51v18h12.91v-18Z"/><path class="cls-3" d="M223.05,285.75h-23c.48,2.74,2.67,4.1,6.72,4.1a16.17,16.17,0,0,0,9.61-2.88l5.83,7.93-.34.28c-4.6,4-10.36,6-17.36,6q-8.66,0-14.21-5c-3.64-3.38-5.49-8.06-5.49-14.18s1.85-10.73,5.63-14.12,8.51-5,14.27-5c5.56,0,10,1.66,13.39,5s5.14,7.78,5.14,13.32ZM209,277.25a4.46,4.46,0,0,0-8.92,0Z"/><path class="cls-3" d="M242.4,250.61V300.3H227V250.61Z"/><path class="cls-3" d="M263.34,296.7c.13,1.22.2,3.24.2,6.12V312.9H248.1V263.57h14.55l-.14,3.6c2.75-2.88,6.39-4.32,11-4.32a14.28,14.28,0,0,1,11.74,5.47c2.95,3.6,4.39,8.14,4.39,13.69s-1.44,10.08-4.39,13.75a14.41,14.41,0,0,1-11.74,5.4C268.76,301.16,265.4,299.65,263.34,296.7Zm5.14-21.25c-3,0-5.49,2.38-5.49,6.34s2.47,6.26,5.49,6.26,5.49-2.3,5.49-6.26S271.57,275.45,268.48,275.45Z"/><path class="cls-2" d="M368.85,243.46q-4.28,3.78-15.8,9.47c-2.25,1.42-2.25,2-2.25,5.53v3.94H322.2v-9.47c0-8.05,1.2-11.84,8.28-15.79l9.78-5.52c.6-.48,3.76-2.06,4.51-2.69,2-1.26,3.77-3,3.77-5.21,0-3.94-4.07-5.84-12-5.84-7.53,0-15.05,2.53-22.58,7.42l-7.52-26.05q15.12-9.48,36.12-9.47c10.38,0,19.11,2.84,25.88,8.68s10.24,12.95,10.24,21.32C378.64,231.93,375.33,237.77,368.85,243.46ZM318,285c0-10.89,7.22-17.21,18.51-17.21,11,0,18.36,6.47,18.36,17.21s-7.38,17-18.36,17C325.21,302,318,295.72,318,285Z"/></g></g></svg>