<svg xmlns="http://www.w3.org/2000/svg" viewBox="0 0 512 512"><defs><style>.cls-1{fill:#ff7c5f;opacity:0.65;}.cls-2{fill:#ccc;}.cls-3{fill:#e6e6e6;}.cls-4{fill:#f5f5f5;}</style></defs><g id="Layer_2" data-name="Layer 2"><g id="Layer_1-2" data-name="Layer 1"><circle class="cls-1" cx="256" cy="256" r="256"/><path class="cls-2" d="M105.86,346.26,244,258,105.75,165.83A15.89,15.89,0,0,0,100,178V334A15.9,15.9,0,0,0,105.86,346.26Z"/><path class="cls-2" d="M406.25,165.83,268,258l138.14,88.26A15.9,15.9,0,0,0,412,334V178A15.89,15.89,0,0,0,406.25,165.83Z"/><path class="cls-3" d="M256,242,105.65,346.08A15.82,15.82,0,0,0,116,350H396a15.84,15.84,0,0,0,10.35-3.92Z"/><path class="cls-4" d="M256,270,406.35,165.92A15.84,15.84,0,0,0,396,162H116a15.82,15.82,0,0,0-10.35,3.92Z"/></g></g></svg>