<svg xmlns="http://www.w3.org/2000/svg" xmlns:xlink="http://www.w3.org/1999/xlink" viewBox="0 0 818.88 286.35"><defs><style>.cls-1{fill:#fff;}.cls-2{fill:#eabbb9;}.cls-3{mask:url(#mask);}.cls-4{fill:#f05f50;isolation:isolate;}</style><mask id="mask" x="510.5" y="0" width="308.38" height="286.35" maskUnits="userSpaceOnUse"><g id="mask-5"><rect id="path-4" class="cls-1" x="510.5" y="39.95" width="263" height="114" rx="12"/></g></mask></defs><g id="Layer_2" data-name="Layer 2"><g id="Layer_1-2" data-name="Layer 1"><g id="R3"><g id="Dashboard---In-progress"><g id="LPA-Score-Card"><g id="Polygon-Copy-8"><g id="Mask-2" data-name="Mask"><rect id="path-1" y="39.95" width="766" height="114" rx="12"/><rect id="path-1-2" data-name="path-1" class="cls-2" x="1" y="39.95" width="766" height="114" rx="12"/></g><g class="cls-3"><path class="cls-4" d="M623.69.08l97.7,5.12a56,56,0,0,1,47,30.5l44.42,87.17a56,56,0,0,1-2.93,55.92l-53.29,82.06a56,56,0,0,1-49.89,25.42L609,281.15a56,56,0,0,1-47-30.5l-44.42-87.17a56,56,0,0,1,2.93-55.93l53.29-82A56,56,0,0,1,623.69.08Z"/></g></g></g></g></g></g></g></svg>