<svg xmlns="http://www.w3.org/2000/svg" viewBox="0 0 609.18 609.18"><defs><style>.cls-1{fill:#e1e6e8;}.cls-2{fill:#f05f50;}.cls-3{fill:#183651;}.cls-4{fill:#fff;}.cls-5{opacity:0.16;}</style></defs><g id="Layer_2" data-name="Layer 2"><g id="Capa_1" data-name="Capa 1"><circle class="cls-1" cx="304.59" cy="304.59" r="304.59"/><path class="cls-2" d="M538.74,538.74,523.51,417.86C541.6,382.64,553,342.66,553,300.78,552.07,160.86,439.75,47.59,299.83,47.59S47.59,160.86,47.59,299.83,160.86,552.07,299.83,552.07c42.83,0,82.81-10.48,117.07-29.51Z"/><path class="cls-3" d="M299.83,561.58c-143.73,0-261.76-117.07-261.76-261.75S156.1,38.07,299.83,38.07c144.68,0,261.75,117.08,261.75,261.76,0,40.93-9.51,82.81-28.55,119l14.28,118a9.84,9.84,0,0,1-10.48,10.47L418.81,533C382.64,552.07,341.71,561.58,299.83,561.58Zm0-504.47c-133.26,0-242.72,109.46-242.72,242.72S166.57,542.55,299.83,542.55A248.81,248.81,0,0,0,413.1,515a12,12,0,0,1,5.71-1l108.51,13.33L514,418.81a12.09,12.09,0,0,1,1-5.71,242.91,242.91,0,0,0,27.61-113.27C542.55,166.57,434,57.11,299.83,57.11Z"/><path class="cls-4" d="M299.83,514c-118,0-214.16-96.13-214.16-214.16S181.8,85.67,299.83,85.67,514,181.8,514,299.83c0,52.35-17.13,85.66-30.46,110.41L494,494l-83.76-10.47C393.11,493.05,356.94,514,299.83,514Z"/><g class="cls-5"><rect class="cls-3" x="125.67" y="196.08" width="24.6" height="24.6"/><rect class="cls-3" x="125.67" y="284.64" width="24.6" height="24.6"/><rect class="cls-3" x="125.67" y="373.19" width="24.6" height="24.6"/><rect class="cls-3" x="445.46" y="196.08" width="24.6" height="24.6"/><rect class="cls-3" x="445.46" y="284.64" width="24.6" height="24.6"/><rect class="cls-3" x="445.46" y="373.19" width="24.6" height="24.6"/></g><path class="cls-3" d="M217.35,222.11c-3.28,2.76-7.85,4.11-13.7,4.11h-5.28v16.09H182.25V190.67h21.4c5.85,0,10.42,1.35,13.7,4.12q5.57,4.61,5.56,13.7C222.91,214.47,221.06,219,217.35,222.11ZM200.94,203.4H198.3v10.1h2.64a6.85,6.85,0,0,0,3.93-.9,5.65,5.65,0,0,0,0-8.23A6.31,6.31,0,0,0,200.94,203.4Z"/><path class="cls-3" d="M254.66,204.14,254,219.49h-.72a9.84,9.84,0,0,0-4.63-1.13,5.68,5.68,0,0,0-5,2.47c-.93,1.28-1.43,3.45-1.43,6.51v15h-16V204.14h16L242,209c2.14-3.74,5.21-5.61,9.13-5.61a7.75,7.75,0,0,1,3.28.59Z"/><path class="cls-3" d="M294.39,227.19H270.5c.49,2.85,2.78,4.27,7,4.27a16.84,16.84,0,0,0,10-3l6.07,8.23-.36.3c-4.78,4.11-10.77,6.21-18.05,6.21q-9,0-14.76-5.16c-3.79-3.52-5.71-8.39-5.71-14.75s1.92-11.15,5.85-14.67,8.84-5.23,14.84-5.23c5.77,0,10.41,1.72,13.91,5.23s5.35,8.09,5.35,13.85Zm-14.62-8.83a4.64,4.64,0,0,0-9.27,0Z"/><path class="cls-3" d="M326.85,227l2.86,12.72-1.5,1a24.24,24.24,0,0,1-4.35,1.58,25.58,25.58,0,0,1-7.35,1,20.3,20.3,0,0,1-14.2-5.31q-5.78-5.4-5.78-14.6c0-6.13,1.93-11,5.78-14.52a20,20,0,0,1,14.2-5.38A29.54,29.54,0,0,1,328,205.64l1.36.75-2.5,12.72a12.48,12.48,0,0,0-7.85-2.62c-3.78,0-6.63,2.4-6.63,6.59s2.64,6.51,7,6.51a13.24,13.24,0,0,0,6.56-2Z"/><path class="cls-3" d="M332.7,194.79c0-4.86,3.42-8,8.56-8s8.56,3.15,8.56,8-3.35,8-8.56,8S332.7,199.65,332.7,194.79Zm16.62,9.35v38.17H333.27V204.14Z"/><path class="cls-3" d="M381.07,239.92q-4.29,3.36-11.77,3.36c-6.78,0-12.42-1.79-16.84-5.31l5.42-9.88a21.89,21.89,0,0,0,5.07,2.55,21.33,21.33,0,0,0,6.77,1.49c1.36,0,2.07-.37,2.07-1.19,0-.53-.57-1.05-1.78-1.43l-1.5-.59c-.78-.3-2.71-.83-2.78-.83-1.64-.52-3.07-1-4.28-1.49-4.5-1.65-6.78-5.17-6.78-10.48a11.33,11.33,0,0,1,4.28-9.28A17.18,17.18,0,0,1,370,203.32a27,27,0,0,1,15.41,4.42l-4.35,9.43a19.16,19.16,0,0,0-10.49-3.6c-1.36,0-2,.45-2,1.28,0,.6,1.29,1.27,3.93,2a47.33,47.33,0,0,1,5.13,1.72,16,16,0,0,1,5.21,3.37,12.5,12.5,0,0,1-1.78,18Z"/><path class="cls-3" d="M426.51,242.31h-15.2l-.35-3.37a12.45,12.45,0,0,1-9.28,4.27,16,16,0,0,1-9.84-3c-2.71-2-4.07-5.17-4.07-9.51,0-9.35,9-11.52,14.27-11.75l8.42-.37v-.38c0-2.39-2-3.59-5.92-3.59A22.05,22.05,0,0,0,393.12,218l-3.92-10.63a40,40,0,0,1,17.48-4q10.15,0,15,4.49c3.21,3,4.85,7.48,4.85,13.47ZM410.6,226.75l-3.21.22c-2.35.07-3.57,1.12-3.57,3s1.22,3,3.57,3a4.38,4.38,0,0,0,3.21-1.5Z"/><path class="cls-3" d="M297.08,266.2v54.06H281.17l.22-4.31c-2.61,3.53-6.57,5.25-11.95,5.25a15.71,15.71,0,0,1-12.77-5.87c-3.21-4-4.78-8.94-4.78-15s1.57-11,4.78-14.89a15.55,15.55,0,0,1,12.77-6c4.71,0,8.59,1.8,10,3.29l1,1c-.07-2.12-.15-4.16-.15-6.27V266.2Zm-26.52,28.91a7.1,7.1,0,0,0-1.72,5c0,4.31,2.69,6.81,6,6.81s6-2.5,6-6.81C281.17,293.54,274,291.27,270.56,295.11Z"/><path class="cls-3" d="M342.94,304.44h-25c.52,3,2.91,4.46,7.32,4.46a17.67,17.67,0,0,0,10.45-3.13l6.35,8.62-.37.31c-5,4.31-11.28,6.5-18.9,6.5q-9.4,0-15.46-5.4c-4-3.69-6-8.78-6-15.44s2-11.67,6.13-15.36,9.26-5.48,15.53-5.48c6.06,0,10.91,1.8,14.57,5.48s5.6,8.47,5.6,14.5Zm-15.31-9.25a4.86,4.86,0,0,0-9.71,0Z"/><path class="cls-3" d="M230,345.63l17.67,53.29h-18l-2-7.49h-14.5l-1.92,7.49H193.9l17.67-53.29Zm-13.33,32.44h7.51l-3.75-14.29Z"/><path class="cls-3" d="M266.42,359.53V397c0,5.72-1.32,9.81-3.9,12.36s-6.41,3.86-11.41,3.86a36.83,36.83,0,0,1-6.7-.54l-.81-.23.37-13.13a9.8,9.8,0,0,0,2.94.39c2.06,0,3-.78,3-3.63V359.53Zm-17.15-9.65c0-5,3.53-8.26,8.83-8.26s8.84,3.24,8.84,8.26-3.46,8.26-8.84,8.26S249.27,354.9,249.27,349.88Z"/><path class="cls-3" d="M312.21,359.53v39.39H296.38l-.14-3.47a13.75,13.75,0,0,1-10.31,4.4c-5.23,0-8.91-1.62-11-4.79-1.84-2.7-2.8-6.56-2.8-11.58v-24h16.56v20.86c0,3.47,1.18,5.25,3.54,5.25s3.46-1.78,3.46-5.25V359.53Z"/><path class="cls-3" d="M360.8,345.63v53.29H345.12l.22-4.24c-2.57,3.47-6.47,5.17-11.78,5.17A15.49,15.49,0,0,1,321,394.06c-3.16-3.94-4.71-8.81-4.71-14.75s1.55-10.82,4.71-14.68a15.33,15.33,0,0,1,12.59-5.87c4.64,0,8.47,1.78,9.87,3.25l1,1c-.08-2.09-.15-4.09-.15-6.18v-11.2Zm-26.13,28.5a7,7,0,0,0-1.69,4.94c0,4.25,2.65,6.72,5.89,6.72s5.89-2.47,5.89-6.72C345.12,372.59,338.06,370.35,334.67,374.13Z"/><path class="cls-3" d="M404.76,398.92H389.08l-.37-3.47a12.89,12.89,0,0,1-9.57,4.4A16.44,16.44,0,0,1,369,396.76c-2.8-2.08-4.2-5.33-4.2-9.81,0-9.65,9.28-11.89,14.73-12.12l8.68-.39v-.39c0-2.47-2.06-3.7-6.11-3.7a22.88,22.88,0,0,0-11.78,3.47l-4.05-11a41.21,41.21,0,0,1,18-4.1q10.48,0,15.46,4.64c3.31,3.09,5,7.72,5,13.9Zm-16.42-16.06-3.31.23c-2.43.08-3.68,1.16-3.68,3.09s1.25,3.09,3.68,3.09a4.48,4.48,0,0,0,3.31-1.55Z"/><path class="cls-2" d="M474.6,372.86q-4,3.51-14.67,8.79c-2.1,1.32-2.1,1.91-2.1,5.14v3.66H431.27v-8.8c0-7.47,1.12-11,7.69-14.66l9.09-5.13c.56-.44,3.49-1.91,4.19-2.49,1.82-1.18,3.49-2.79,3.49-4.84,0-3.67-3.77-5.43-11.18-5.43-7,0-14,2.35-21,6.89l-7-24.19q14-8.81,33.54-8.8c9.65,0,17.75,2.64,24.05,8.07s9.5,12,9.5,19.79C483.69,362.15,480.61,367.58,474.6,372.86Zm-47.24,38.56c0-10.12,6.71-16,17.19-16,10.21,0,17.05,6,17.05,16s-6.84,15.83-17.05,15.83C434.07,427.25,427.36,421.39,427.36,411.42Z"/></g></g></svg>