<svg xmlns="http://www.w3.org/2000/svg" viewBox="0 0 508 508"><defs><style>.cls-1{fill:#ff7c5f;opacity:0.65;}.cls-2{fill:#fff;}.cls-3{fill:#ccc;}</style></defs><g id="Layer_2" data-name="Layer 2"><g id="Layer_1-2" data-name="Layer 1"><circle class="cls-1" cx="254" cy="254" r="254"/><path class="cls-2" d="M308,185.2,288,182a95.36,95.36,0,0,0-14.8-36l12-16.4a2.57,2.57,0,0,0-.4-3.6l-17.6-17.6a3,3,0,0,0-3.6-.4l-16.4,12a95.36,95.36,0,0,0-36-14.8l-3.2-20a3,3,0,0,0-2.8-2.4H180.4a2.92,2.92,0,0,0-2.8,2.4l-3.2,20a95.36,95.36,0,0,0-36,14.8L122,108a2.57,2.57,0,0,0-3.6.4L100.8,126a3,3,0,0,0-.4,3.6l12,16.4a95.36,95.36,0,0,0-14.8,36l-20,3.2a3,3,0,0,0-2.4,2.8v24.8a2.92,2.92,0,0,0,2.4,2.8l20,3.2a95.36,95.36,0,0,0,14.8,36l-12,16.4a2.57,2.57,0,0,0,.4,3.6l17.6,17.6a3,3,0,0,0,3.6.4l16.4-12a95.36,95.36,0,0,0,36,14.8l3.2,20a3,3,0,0,0,2.8,2.4h24.8a2.92,2.92,0,0,0,2.8-2.4l3.2-20a95.36,95.36,0,0,0,36-14.8l16.4,12a2.57,2.57,0,0,0,3.6-.4l17.6-17.6a3,3,0,0,0,.4-3.6l-12-16.4a95.36,95.36,0,0,0,14.8-36l20-3.2a3,3,0,0,0,2.4-2.8V188A2.67,2.67,0,0,0,308,185.2ZM193.2,246.8a46.4,46.4,0,1,1,46.4-46.4A46.43,46.43,0,0,1,193.2,246.8Z"/><path class="cls-3" d="M382,415.2,378.8,402a60.1,60.1,0,0,0,18.4-19.2l13.2,3.2a2.2,2.2,0,0,0,2-1.2l6.4-16c.4-.8,0-1.6-.8-2.4l-11.6-7.2a67.3,67.3,0,0,0-.4-26.8l11.6-7.2a1.92,1.92,0,0,0,.8-2.4l-6.8-15.6a2.2,2.2,0,0,0-2-1.2l-13.2,4a60.1,60.1,0,0,0-19.2-18.4l3.2-13.2a2.2,2.2,0,0,0-1.2-2l-16-6.4c-.8-.4-1.6,0-2.4.8L354,282.4a67.3,67.3,0,0,0-26.8.4L320,271.2a1.92,1.92,0,0,0-2.4-.8L302,277.2a2.2,2.2,0,0,0-1.2,2l3.2,13.2a60.1,60.1,0,0,0-18.4,19.2l-13.2-3.2a2.2,2.2,0,0,0-2,1.2l-6.4,16c-.4.8,0,1.6.8,2.4l11.6,7.2a67.3,67.3,0,0,0,.4,26.8l-11.6,7.2a1.92,1.92,0,0,0-.8,2.4l6.8,15.6a2.2,2.2,0,0,0,2,1.2l13.2-3.2a60.1,60.1,0,0,0,19.2,18.4l-3.2,13.2a2.2,2.2,0,0,0,1.2,2l16,6.4c.8.4,1.6,0,2.4-.8l7.2-11.6a67.3,67.3,0,0,0,26.8-.4l7.2,11.6a1.92,1.92,0,0,0,2.4.8l15.6-6.8C382,416.8,382.4,416,382,415.2Zm-69.6-55.6A31.72,31.72,0,1,1,354,376.4,31.56,31.56,0,0,1,312.4,359.6Z"/></g></g></svg>