<svg xmlns="http://www.w3.org/2000/svg" viewBox="0 0 146.3 35.2"><defs><style>.cls-1{fill:#334652;}.cls-2{fill:#fff;}</style></defs><g id="Layer_2" data-name="Layer 2"><g id="OBJECTS"><rect class="cls-1" width="146.3" height="35.2" rx="8.8"/><path class="cls-2" d="M42.05,24a7,7,0,0,1-4.52,1.38A8.59,8.59,0,0,1,31.6,22.9l1.94-2.85a8,8,0,0,0,2.13,1.52,5.27,5.27,0,0,0,2.22.58c1.28,0,2.23-.65,2.23-1.72a1.36,1.36,0,0,0-.73-1.25,5.59,5.59,0,0,0-1.23-.59l-2.54-.94a8.16,8.16,0,0,1-2-1.21,4.18,4.18,0,0,1-1.3-3.22,4.51,4.51,0,0,1,1.74-3.65,6.52,6.52,0,0,1,4.4-1.33,7.64,7.64,0,0,1,2.93.6,6.88,6.88,0,0,1,2.37,1.45L42.1,13a5.74,5.74,0,0,0-3.72-1.69c-1.34,0-2.18.53-2.18,1.5a1.68,1.68,0,0,0,1.09,1.45l.6.24,1.28.51,1.21.43a6.31,6.31,0,0,1,2.33,1.36A4.35,4.35,0,0,1,44,20.05,4.82,4.82,0,0,1,42.05,24Z"/><path class="cls-2" d="M63,16.8a8.24,8.24,0,0,1-2.51,6.3,9,9,0,0,1-6.34,2.32,9,9,0,0,1-6.35-2.32,8.24,8.24,0,0,1-2.51-6.3,8.23,8.23,0,0,1,2.51-6.29,8.91,8.91,0,0,1,6.35-2.34,8.91,8.91,0,0,1,6.34,2.34A8.23,8.23,0,0,1,63,16.8Zm-4-.09a5.19,5.19,0,0,0-1.38-3.78,5,5,0,0,0-7,0,5.19,5.19,0,0,0-1.38,3.78,5.28,5.28,0,0,0,1.38,3.8,5,5,0,0,0,7,0A5.28,5.28,0,0,0,59,16.71Z"/><path class="cls-2" d="M78.38,25.13H73.83l-3.51-6.39H69.08v6.39H65.16V8.43h6a7.25,7.25,0,0,1,4.4,1.19,4.45,4.45,0,0,1,1.84,3.82A5,5,0,0,1,76.8,16a4.15,4.15,0,0,1-2.66,2.23ZM70.61,11.46H69.06v4.28h1.55a3.36,3.36,0,0,0,2-.46,2.13,2.13,0,0,0,0-3.39A3.51,3.51,0,0,0,70.61,11.46Z"/><path class="cls-2" d="M92.9,25.13H88.35l-3.51-6.39H83.61v6.39H79.68V8.43h6a7.25,7.25,0,0,1,4.4,1.19,4.45,4.45,0,0,1,1.84,3.82A5,5,0,0,1,91.32,16a4.15,4.15,0,0,1-2.66,2.23ZM85.13,11.46H83.58v4.28h1.55a3.36,3.36,0,0,0,2-.46A2,2,0,0,0,88,13.59a2,2,0,0,0-.84-1.7A3.51,3.51,0,0,0,85.13,11.46Z"/><path class="cls-2" d="M103.11,8.43h4.36l-5.81,10v6.75H97.74V18.38L91.93,8.43h4.36l3.41,6.66Z"/><path class="cls-2" d="M108.84,23.31a2.3,2.3,0,1,1,2.3,2.09A2.06,2.06,0,0,1,108.84,23.31Zm.27-14.88h4.07L112.81,20h-3.36Z"/></g></g></svg>