<svg xmlns="http://www.w3.org/2000/svg" viewBox="0 0 609.18 609.18"><defs><style>.cls-1{fill:#e1e6e8;}.cls-2{fill:#f05f50;}.cls-3{fill:#183651;}.cls-4{fill:#fff;}.cls-5{opacity:0.16;}</style></defs><g id="Layer_2" data-name="Layer 2"><g id="Capa_1" data-name="Capa 1"><circle class="cls-1" cx="304.59" cy="304.59" r="304.59"/><path class="cls-2" d="M538.74,538.74,523.51,417.86C541.6,382.64,553,342.66,553,300.78,552.07,160.86,439.75,47.59,299.83,47.59S47.59,160.86,47.59,299.83,160.86,552.07,299.83,552.07c42.83,0,82.81-10.48,117.07-29.51Z"/><path class="cls-3" d="M299.83,561.58c-143.73,0-261.76-117.07-261.76-261.75S156.1,38.07,299.83,38.07c144.68,0,261.75,117.08,261.75,261.76,0,40.93-9.51,82.81-28.55,119l14.28,118a9.84,9.84,0,0,1-10.48,10.47L418.81,533C382.64,552.07,341.71,561.58,299.83,561.58Zm0-504.47c-133.26,0-242.72,109.46-242.72,242.72S166.57,542.55,299.83,542.55A248.81,248.81,0,0,0,413.1,515a12,12,0,0,1,5.71-1l108.51,13.33L514,418.81a12.09,12.09,0,0,1,1-5.71,242.91,242.91,0,0,0,27.61-113.27C542.55,166.57,434,57.11,299.83,57.11Z"/><path class="cls-4" d="M299.83,514c-118,0-214.16-96.13-214.16-214.16S181.8,85.67,299.83,85.67,514,181.8,514,299.83c0,52.35-17.13,85.66-30.46,110.41L494,494l-83.76-10.47C393.11,493.05,356.94,514,299.83,514Z"/><g class="cls-5"><rect class="cls-3" x="125.67" y="196.08" width="24.6" height="24.6"/><rect class="cls-3" x="125.67" y="284.64" width="24.6" height="24.6"/><rect class="cls-3" x="125.67" y="373.19" width="24.6" height="24.6"/><rect class="cls-3" x="445.46" y="196.08" width="24.6" height="24.6"/><rect class="cls-3" x="445.46" y="284.64" width="24.6" height="24.6"/><rect class="cls-3" x="445.46" y="373.19" width="24.6" height="24.6"/></g><path class="cls-3" d="M205.44,228.17V277H189.57l-14.18-27.27c.21,3.54.34,6.52.34,8.86V277H160.88V228.17h16.54l13.5,27.27c-.2-3.54-.34-6.52-.34-8.85V228.17Z"/><path class="cls-3" d="M247.43,262.73H224.81c.47,2.7,2.63,4,6.62,4a16,16,0,0,0,9.45-2.83l5.74,7.79-.34.28c-4.52,3.9-10.19,5.88-17.08,5.88q-8.5,0-14-4.89c-3.58-3.33-5.4-7.93-5.4-13.95s1.82-10.55,5.54-13.88,8.37-5,14-5c5.47,0,9.86,1.63,13.17,5s5.06,7.65,5.06,13.1Zm-13.84-8.35a4.39,4.39,0,0,0-8.78,0Z"/><path class="cls-3" d="M278.15,262.52l2.7,12-1.42.92a22.59,22.59,0,0,1-4.12,1.49,24,24,0,0,1-6.95.92,19.18,19.18,0,0,1-13.44-5q-5.47-5.1-5.47-13.81c0-5.81,1.82-10.41,5.47-13.74a18.93,18.93,0,0,1,13.44-5.1,27.69,27.69,0,0,1,10.86,2.13l1.29.7-2.36,12a11.83,11.83,0,0,0-7.43-2.47c-3.58,0-6.28,2.26-6.28,6.23s2.5,6.16,6.62,6.16a12.62,12.62,0,0,0,6.21-1.84Z"/><path class="cls-3" d="M320.14,262.73H297.52c.47,2.7,2.63,4,6.62,4a16,16,0,0,0,9.45-2.83l5.74,7.79L319,272c-4.52,3.9-10.2,5.88-17.08,5.88q-8.51,0-14-4.89c-3.58-3.33-5.4-7.93-5.4-13.95s1.82-10.55,5.54-13.88,8.37-5,14-5c5.47,0,9.86,1.63,13.17,5s5.06,7.65,5.06,13.1Zm-13.84-8.35a4.39,4.39,0,0,0-8.78,0Z"/><path class="cls-3" d="M348.49,274.77q-4,3.19-11.14,3.19c-6.42,0-11.75-1.7-15.93-5l5.13-9.35a24.1,24.1,0,0,0,11.2,3.83c1.29,0,2-.36,2-1.13,0-.5-.54-1-1.68-1.35l-1.42-.57c-.75-.28-2.57-.78-2.64-.78-1.55-.49-2.9-.92-4.05-1.41-4.25-1.56-6.41-4.89-6.41-9.92a10.71,10.71,0,0,1,4.05-8.78A16.23,16.23,0,0,1,338,240.14a25.6,25.6,0,0,1,14.58,4.18l-4.12,8.92a18.18,18.18,0,0,0-9.93-3.4c-1.28,0-1.89.43-1.89,1.21,0,.56,1.22,1.2,3.72,1.91a47.29,47.29,0,0,1,4.86,1.63,15.28,15.28,0,0,1,4.93,3.19,11.84,11.84,0,0,1-1.69,17Z"/><path class="cls-3" d="M356.18,232.06c0-4.6,3.24-7.57,8.11-7.57s8.1,3,8.1,7.57-3.17,7.58-8.1,7.58S356.18,236.67,356.18,232.06Zm15.74,8.86V277h-15.2V240.92Z"/><path class="cls-3" d="M401.62,240.92v11.69h-7.09v9.91c0,2,.81,2.48,2.7,2.48a10.83,10.83,0,0,0,2.91-.42l.47-.08.67,12.19a38,38,0,0,1-9.45,1.2c-4.12,0-7.22-1.06-9.45-3.12-2-2-3-5.45-3-10.48V252.61h-4.73V240.92h4.73v-8.86h15.19v8.86Z"/><path class="cls-3" d="M439.43,277H425.05l-.34-3.19a11.78,11.78,0,0,1-8.78,4,15.17,15.17,0,0,1-9.32-2.83c-2.56-1.91-3.84-4.89-3.84-9,0-8.85,8.5-10.9,13.5-11.12l8-.35v-.35c0-2.27-1.89-3.41-5.61-3.41a21,21,0,0,0-10.8,3.19L404.12,244a37.94,37.94,0,0,1,16.54-3.75q9.61,0,14.18,4.25c3,2.83,4.59,7.08,4.59,12.75Zm-15.06-14.73-3,.21c-2.23.07-3.37,1.06-3.37,2.84s1.14,2.83,3.37,2.83a4.13,4.13,0,0,0,3-1.42Z"/><path class="cls-3" d="M469.13,274.77Q465.08,278,458,278c-6.41,0-11.75-1.7-15.93-5l5.13-9.35a24.09,24.09,0,0,0,11.21,3.83c1.28,0,2-.36,2-1.13,0-.5-.54-1-1.68-1.35l-1.42-.57c-.74-.28-2.57-.78-2.64-.78-1.55-.49-2.9-.92-4.05-1.41-4.25-1.56-6.41-4.89-6.41-9.92a10.71,10.71,0,0,1,4.05-8.78,16.23,16.23,0,0,1,10.47-3.33,25.6,25.6,0,0,1,14.58,4.18l-4.12,8.92a18.18,18.18,0,0,0-9.92-3.4c-1.29,0-1.9.43-1.9,1.21,0,.56,1.22,1.2,3.72,1.91a47.29,47.29,0,0,1,4.86,1.63,15.28,15.28,0,0,1,4.93,3.19,11.84,11.84,0,0,1-1.69,17Z"/><path class="cls-3" d="M205.55,305.61,223,358.18h-17.8l-2-7.39H188.91L187,358.18H170l17.43-52.57Zm-13.15,32h7.41l-3.7-14.1Z"/><path class="cls-3" d="M247.67,319.32h16.71l-15.26,39.62a32.63,32.63,0,0,1-5.52,10c-2,2.2-4.86,3.35-8.64,3.35a38.44,38.44,0,0,1-12-1.75l-1.46-.54,3.27-12.19a10.8,10.8,0,0,0,5.09,1.14c2,0,2.9-.45,3.27-2.28l-14.53-37.34h17.07l5.95,20.2Z"/><path class="cls-3" d="M305.92,319.32v38.86H290.3l-.14-3.43A13.54,13.54,0,0,1,280,359.1c-5.16,0-8.79-1.6-10.9-4.73-1.81-2.66-2.76-6.47-2.76-11.43V319.32h16.35V339.9c0,3.42,1.16,5.18,3.48,5.18s3.42-1.76,3.42-5.18V319.32Z"/><path class="cls-3" d="M353.85,305.61v52.57H338.38l.22-4.19c-2.54,3.43-6.39,5.11-11.62,5.11a15.25,15.25,0,0,1-12.42-5.72c-3.12-3.88-4.65-8.68-4.65-14.55s1.53-10.67,4.65-14.48A15.11,15.11,0,0,1,327,318.56c4.57,0,8.35,1.76,9.73,3.2l1,1c-.08-2.05-.15-4-.15-6.09V305.61Zm-25.78,28.12a6.86,6.86,0,0,0-1.67,4.87c0,4.19,2.61,6.63,5.81,6.63s5.81-2.44,5.81-6.63C338.38,332.2,331.41,330,328.07,333.73Z"/><path class="cls-3" d="M397.21,358.18H381.74l-.36-3.43a12.67,12.67,0,0,1-9.44,4.35,16.26,16.26,0,0,1-10-3.05c-2.76-2.06-4.14-5.26-4.14-9.68,0-9.52,9.15-11.73,14.53-12l8.57-.38v-.38c0-2.44-2-3.66-6-3.66a22.47,22.47,0,0,0-11.62,3.43l-4-10.82a40.63,40.63,0,0,1,17.79-4q10.35,0,15.25,4.57c3.27,3.05,4.94,7.62,4.94,13.72ZM381,342.34l-3.26.22c-2.4.08-3.63,1.15-3.63,3.05,0,2.06,1.23,3.05,3.63,3.05a4.39,4.39,0,0,0,3.26-1.53Z"/><path class="cls-2" d="M104,285.81q3.53-3.09,12.93-7.71c1.85-1.16,1.85-1.68,1.86-4.51v-3.23l23.36.06,0,7.74c0,6.58-1,9.67-6.79,12.88l-8,4.5c-.5.38-3.08,1.67-3.7,2.18-1.6,1-3.08,2.45-3.08,4.25,0,3.23,3.31,4.78,9.82,4.8,6.15,0,12.3-2,18.46-6l6.1,21.3q-12.37,7.71-29.53,7.67c-8.49,0-15.61-2.36-21.13-7.15S95.94,312,96,305.14C96,295.21,98.69,290.44,104,285.81ZM145.64,252c0,8.9-5.94,14-15.16,14-9,0-15-5.32-15-14.09s6.06-13.92,15-13.9C139.77,238,145.66,243.21,145.64,252Z"/><path class="cls-2" d="M457.34,352.41q-3.33,2.94-12.24,7.34c-1.75,1.1-1.75,1.59-1.75,4.28v3.06H421.19v-7.34c0-6.24.93-9.17,6.42-12.23l7.57-4.28c.47-.37,2.92-1.59,3.5-2.08,1.52-1,2.92-2.33,2.92-4,0-3.06-3.15-4.52-9.33-4.52-5.83,0-11.66,1.95-17.49,5.75L409,318.16q11.71-7.34,28-7.34c8.05,0,14.81,2.2,20.06,6.73s7.93,10,7.93,16.51C464.92,343.48,462.35,348,457.34,352.41Zm-39.41,32.17c0-8.44,5.59-13.33,14.34-13.33,8.51,0,14.23,5,14.23,13.33s-5.72,13.21-14.23,13.21C423.52,397.79,417.93,392.9,417.93,384.58Z"/></g></g></svg>