<?xml version="1.0" encoding="utf-8"?>
<!-- Generator: Adobe Illustrator 24.2.3, SVG Export Plug-In . SVG Version: 6.00 Build 0)  -->
<svg version="1.1" id="e3553d74-0590-491b-b28e-952d4d1eac83"
	 xmlns="http://www.w3.org/2000/svg" xmlns:xlink="http://www.w3.org/1999/xlink" x="0px" y="0px" viewBox="0 0 672.5 738.4"
	 style="enable-background:new 0 0 672.5 738.4;" xml:space="preserve">
<style type="text/css">
	.st0{fill:#3B3145;}
	.st1{opacity:0.1;}
	.st2{fill:#FFFFFF;}
	.st3{fill:#3F3D56;}
	.st4{fill:#2F2E41;}
	.st5{fill:#B167FB;}
	.st6{fill:#CCCCCC;}
</style>
<path class="st0" d="M467,149.8c-46.6-7.4-99.7-11.4-155-11.4c-50.6,0-99.4,3.3-143,9.6c0-0.7,0-1.3,0-2
	C171.5,63.7,240.2-1,322.4,1.5C402,3.8,465.6,68.2,467,147.8C467,148.5,467,149.1,467,149.8z"/>
<g class="st1">
	<path class="st2" d="M337.6,1.3C256-9.7,180.9,47.5,169.9,129.1c-0.7,5.1-1.1,10.3-1.3,15.5c0,0.7,0,1.3,0,2
		c13-1.9,26.4-3.5,40.2-4.8C212.2,70.1,266.4,11,337.6,1.3z"/>
</g>
<path class="st3" d="M532.2,161.6c-21.5-5.8-43.2-10.4-65.2-13.8c-36-5.6-72.3-9.1-108.7-10.4c-15.2-0.6-30.6-0.9-46.2-0.9
	c-12.4,0-24.7,0.2-36.8,0.6c-35.5,1-71,4-106.2,9c-26.1,3.6-51.9,8.8-77.2,15.7C32.6,178,0,199.9,0,223.4s32.6,45.4,91.8,61.8
	c41.6,11.5,93,19.4,148.9,23c23.1,1.5,47,2.3,71.3,2.3c24.4,0,48.3-0.8,71.5-2.3c50.9-3.3,98-10.1,137.4-20c0.2-0.1,0.4-0.1,0.6-0.2
	c2.7-0.7,5.3-1.4,7.9-2c0.9-0.3,1.8-0.5,2.8-0.8c0.1,0,0.1,0,0.2,0c0.9-0.2,1.8-0.5,2.6-0.7c1.7-0.5,3.5-1,5.1-1.5
	c0.1,0,0.1,0,0.2-0.1c1.5-0.4,2.9-0.9,4.3-1.3c1.2-0.4,2.3-0.7,3.5-1.1c0.8-0.3,1.7-0.5,2.5-0.8c0.6-0.2,1.2-0.4,1.8-0.6
	c0.8-0.3,1.6-0.5,2.4-0.8c0.3-0.1,0.7-0.2,1-0.3c0.8-0.2,1.5-0.5,2.2-0.8c0.8-0.3,1.6-0.6,2.4-0.9c0.7-0.2,1.3-0.5,1.9-0.7
	c0.5-0.2,1.1-0.4,1.6-0.6c1.5-0.5,2.9-1.1,4.3-1.7c0.7-0.3,1.4-0.6,2.1-0.9c0.7-0.3,1.4-0.6,2.1-0.9c1.1-0.5,2.2-0.9,3.3-1.4
	c0.5-0.2,1.1-0.5,1.6-0.7c0.4-0.2,0.8-0.4,1.2-0.5c0.3-0.1,0.6-0.2,0.8-0.4c1-0.5,2-0.9,3-1.4c3.8-1.8,7.3-3.6,10.5-5.5
	c20.5-11.7,31.2-24.7,31.2-38.2C624,199.9,591.4,178,532.2,161.6z M531.6,283.2c-41.7,11.5-93.2,19.4-149.3,23
	c-22.8,1.5-46.4,2.2-70.4,2.2c-23.9,0-47.4-0.7-70.1-2.2c-56.2-3.6-107.7-11.4-149.5-23C34.1,267.1,2,245.9,2,223.4
	c0-2,0.3-4,0.7-5.9c5.1-20.3,36.5-39.3,89.6-54c25.2-6.8,50.8-12,76.7-15.6c35.4-5,71.1-8,106.8-9c11.9-0.4,24-0.6,36.2-0.6
	c15.4,0,30.6,0.3,45.6,0.9c36.6,1.4,73.1,4.9,109.4,10.5c21.8,3.4,43.4,8,64.6,13.7c53.1,14.7,84.5,33.7,89.6,53.9
	c0.5,1.9,0.7,3.9,0.8,5.9C622,245.9,589.9,267.1,531.6,283.2L531.6,283.2z"/>
<path class="st0" d="M623.4,224.3c0,13.4-11,26-30.7,37.3c-3.3,1.9-6.8,3.7-10.5,5.5c-1,0.5-2,0.9-3,1.4c-0.3,0.1-0.6,0.3-0.8,0.4
	c-0.4,0.2-0.8,0.4-1.2,0.5c-0.5,0.2-1,0.5-1.6,0.7c-1.1,0.5-2.2,0.9-3.3,1.4c-0.7,0.3-1.4,0.6-2.1,0.9c-0.7,0.3-1.4,0.6-2.1,0.9
	c-1.4,0.6-2.9,1.1-4.3,1.7c-0.5,0.2-1.1,0.4-1.6,0.6c-0.6,0.2-1.3,0.5-1.9,0.7c-0.8,0.3-1.6,0.6-2.4,0.9c-0.7,0.3-1.5,0.5-2.2,0.8
	c-0.3,0.1-0.6,0.2-1,0.3c-0.8,0.3-1.6,0.5-2.4,0.8c-0.6,0.2-1.2,0.4-1.8,0.6c-0.8,0.3-1.7,0.5-2.5,0.8c-1.1,0.4-2.3,0.7-3.5,1.1
	c-1.4,0.4-2.9,0.9-4.3,1.3c-0.1,0-0.1,0-0.2,0.1c-1.7,0.5-3.4,1-5.1,1.5c-0.9,0.2-1.7,0.5-2.6,0.7c-0.1,0-0.1,0-0.2,0
	c-0.9,0.2-1.8,0.5-2.8,0.8c-2.6,0.7-5.2,1.4-7.9,2c-0.2,0-0.4,0.1-0.6,0.2c-38.4,9.6-85.4,16.6-137.5,19.9
	c-22.8,1.5-46.6,2.2-71,2.2c-24.6,0-48.6-0.8-71.6-2.3c-137.2-9-239.4-43-239.4-83.7c0-2.5,0.4-4.9,1.1-7.3c0.1,0.2,0.1,0.3,0.2,0.5
	C17,255,118.3,285.3,249.7,292.7c20.1,1.1,41,1.7,62.3,1.7c21.4,0,42.4-0.6,62.6-1.7c131.3-7.4,232.5-37.7,246.7-75.2
	c0.2-0.6,0.5-1.2,0.6-1.8C622.9,218.4,623.4,221.4,623.4,224.3z"/>
<path class="st3" d="M91.7,213.5c-16.6,0-34.3-3.6-34.3-10.2s17.7-10.2,34.3-10.2s34.3,3.6,34.3,10.2S108.3,213.5,91.7,213.5z
	 M91.7,195.1c-19.1,0-32.3,4.3-32.3,8.2s13.3,8.2,32.3,8.2s32.3-4.3,32.3-8.2S110.7,195.1,91.7,195.1z"/>
<path class="st3" d="M162.7,260.5c-16.6,0-34.3-3.6-34.3-10.2s17.7-10.2,34.3-10.2c16.6,0,34.3,3.6,34.3,10.2
	S179.3,260.5,162.7,260.5z M162.7,242.1c-19.1,0-32.3,4.3-32.3,8.2s13.3,8.2,32.3,8.2s32.3-4.3,32.3-8.2S181.7,242.1,162.7,242.1z"
	/>
<path class="st3" d="M531.7,213.5c-16.6,0-34.3-3.6-34.3-10.2s17.7-10.2,34.3-10.2c16.6,0,34.3,3.6,34.3,10.2
	S548.3,213.5,531.7,213.5z M531.7,195.1c-19.1,0-32.3,4.3-32.3,8.2s13.3,8.2,32.3,8.2s32.3-4.3,32.3-8.2S550.7,195.1,531.7,195.1z"
	/>
<path class="st3" d="M460.7,260.5c-16.6,0-34.3-3.6-34.3-10.2s17.7-10.2,34.3-10.2c16.6,0,34.3,3.6,34.3,10.2
	S477.3,260.5,460.7,260.5z M460.7,242.1c-19.1,0-32.3,4.3-32.3,8.2s13.3,8.2,32.3,8.2s32.3-4.3,32.3-8.2S479.7,242.1,460.7,242.1z"
	/>
<path class="st3" d="M311.7,282.5c-16.6,0-34.3-3.6-34.3-10.2s17.7-10.2,34.3-10.2c16.6,0,34.3,3.6,34.3,10.2
	S328.3,282.5,311.7,282.5z M311.7,264.1c-19.1,0-32.3,4.3-32.3,8.2s13.3,8.2,32.3,8.2s32.3-4.3,32.3-8.2S330.7,264.1,311.7,264.1z"
	/>
<circle class="st4" cx="337" cy="450.7" r="42"/>
<rect x="302.2" y="482.8" transform="matrix(0.8941 -0.4478 0.4478 0.8941 -185.8216 192.2146)" class="st4" width="22.9" height="12.8"/>
<ellipse transform="matrix(0.5505 -0.8349 0.8349 0.5505 -276.6404 472.127)" class="st4" cx="300.1" cy="492.9" rx="4" ry="10.6"/>
<rect x="353.9" y="477.7" transform="matrix(0.4478 -0.8941 0.8941 0.4478 -238.3784 592.29)" class="st4" width="12.8" height="22.9"/>
<ellipse transform="matrix(0.8349 -0.5505 0.5505 0.8349 -209.6072 287.2065)" class="st4" cx="373.9" cy="492.9" rx="10.6" ry="4"/>
<circle class="st2" cx="334" cy="440.4" r="14.4"/>
<ellipse transform="matrix(0.7071 -0.7071 0.7071 0.7071 -209.2171 363.4673)" class="st3" cx="334.1" cy="434.3" rx="4.8" ry="4.8"/>
<path class="st5" d="M370.1,405c0.6-15.6-12.8-28.7-29.9-29.4s-31.6,11.3-32.2,26.9s11.3,19.1,28.5,19.8S369.5,420.6,370.1,405z"/>
<ellipse transform="matrix(0.7588 -0.6514 0.6514 0.7588 -205.6943 358.1382)" class="st4" cx="380.7" cy="456.8" rx="6.6" ry="21"/>
<ellipse transform="matrix(0.6514 -0.7588 0.7588 0.6514 -244.2799 381.8751)" class="st4" cx="293.4" cy="456.8" rx="21" ry="6.6"/>
<path class="st2" d="M348.5,467.3c0.9,5.2-2.5,10.2-7.7,11.1s-10.2-2.5-11.1-7.7l0,0l0,0c-0.9-5.2,3.1-7,8.3-8
	S347.6,462.1,348.5,467.3z"/>
<path class="st6" d="M266,495.4c-1.1,0-2-0.9-2-2v-118c0-1.1,0.9-2,2-2s2,0.9,2,2v118C268,494.5,267.1,495.4,266,495.4z"/>
<path class="st6" d="M236,601.4c-1.1,0-2-0.9-2-2v-86c0-1.1,0.9-2,2-2s2,0.9,2,2v86C238,600.5,237.1,601.4,236,601.4z"/>
<path class="st6" d="M313,530.4c-1.1,0-2-0.9-2-2v-118c0-1.1,0.9-2,2-2s2,0.9,2,2v118C315,529.5,314.1,530.4,313,530.4z"/>
<path class="st6" d="M284,615.4c-1.1,0-2-0.9-2-2v-48c0-1.1,0.9-2,2-2s2,0.9,2,2v48C286,614.5,285.1,615.4,284,615.4z"/>
<path class="st6" d="M325,369.4c-1.1,0-2-0.9-2-2v-48c0-1.1,0.9-2,2-2s2,0.9,2,2v48C327,368.5,326.1,369.4,325,369.4z"/>
<path class="st6" d="M225,390.4c-1.1,0-2-0.9-2-2v-48c0-1.1,0.9-2,2-2s2,0.9,2,2v48C227,389.5,226.1,390.4,225,390.4z"/>
<path class="st6" d="M399,395.4c-1.1,0-2-0.9-2-2v-48c0-1.1,0.9-2,2-2s2,0.9,2,2v48C401,394.5,400.1,395.4,399,395.4z"/>
<path class="st6" d="M395,545.4c-1.1,0-2-0.9-2-2v-58c0-1.1,0.9-2,2-2s2,0.9,2,2v58C397,544.5,396.1,545.4,395,545.4z"/>
<path class="st6" d="M355,596.4c-1.1,0-2-0.9-2-2v-86c0-1.1,0.9-2,2-2s2,0.9,2,2v86C357,595.5,356.1,596.4,355,596.4z"/>
<path class="st6" d="M363,449.4c-1.1,0-2-0.9-2-2v-118c0-1.1,0.9-2,2-2s2,0.9,2,2v118C365,448.5,364.1,449.4,363,449.4z"/>
<ellipse transform="matrix(0.7667 -0.642 0.642 0.7667 -300.4449 541.1117)" class="st4" cx="594.4" cy="684" rx="6.8" ry="21.5"/>
<circle class="st4" cx="548.6" cy="676.5" r="43.1"/>
<rect x="553.7" y="710.3" class="st4" width="13.1" height="23.4"/>
<rect x="527.5" y="710.3" class="st4" width="13.1" height="23.4"/>
<ellipse class="st4" cx="555.9" cy="734" rx="10.9" ry="4.1"/>
<ellipse class="st4" cx="529.7" cy="733.5" rx="10.9" ry="4.1"/>
<path class="st6" d="M535,622.4c3.8-15.5,20.8-24.6,37.9-20.4s27.8,20.2,24,35.7c-3.8,15.5-16.6,15.5-33.7,11.3
	S531.2,637.9,535,622.4z"/>
<ellipse transform="matrix(0.4285 -0.9035 0.9035 0.4285 -307.4168 826.9941)" class="st4" cx="500.1" cy="656.5" rx="6.8" ry="21.5"/>
<circle class="st2" cx="542.1" cy="667.4" r="14.4"/>
<circle class="st3" cx="536.2" cy="662.3" r="4.8"/>
<circle class="st2" cx="542" cy="697.4" r="6"/>
<path class="st3" d="M671.5,738.4h-236c-0.6,0-1-0.4-1-1c0-0.6,0.4-1,1-1h236c0.6,0,1,0.4,1,1C672.5,737.9,672.1,738.4,671.5,738.4z
	"/>
</svg>
