<?xml version="1.0" encoding="UTF-8"?>
<svg width="16px" height="16px" viewBox="0 0 16 16" version="1.1" xmlns="http://www.w3.org/2000/svg" xmlns:xlink="http://www.w3.org/1999/xlink">
    <title>bell</title>
    <g id="Symbols" stroke="none" stroke-width="1" fill="none" fill-rule="evenodd">
        <g id="Icon/Bell/Filled" transform="translate(-4.000000, -4.000000)" fill="#334652" fill-rule="nonzero">
            <g id="bell" transform="translate(4.000000, 4.000000)">
                <path d="M10.9,13.9 C10.5,15.1 9.4,16 8,16 C6.6,16 5.5,15.1 5.1,13.9 C6.2,14 7.1,14 8,14 C8.9,14 9.8,14 10.9,13.9 Z M8,0 C10.8,0 13,2.2 13,5 L13,5 L13,6 C13,6.7 13.6,7.1 14.4,7.8 C15.2,8.4 16,9 16,10 C16,12.8 9.9,13 8,13 C6.1,13 0,12.8 0,10 C0,9 0.8,8.4 1.6,7.8 C2.4,7.1 3,6.7 3,6 L3,6 L3,5 C3,2.2 5.2,0 8,0 Z" id="Combined-Shape"></path>
            </g>
        </g>
    </g>
</svg>