<svg xmlns="http://www.w3.org/2000/svg" viewBox="0 0 1419 1704"><defs><style>.cls-1{fill:#fff;}.cls-2{opacity:0.08;}.cls-3{fill:#00aed6;}.cls-4{opacity:0.1;}.cls-5{fill:#a6d800;}</style></defs><title>bg-oc_1</title><g id="Layer_2" data-name="Layer 2"><g id="Layer_1-2" data-name="Layer 1"><rect class="cls-1" width="1418" height="1704"/><g id="Abilities" class="cls-2"><g id="Abilities---Default"><g id="Polygons"><path id="Polygon-1" class="cls-3" d="M610.25,83,439.05,273a100,100,0,0,1-95,30.86L93.62,250.66A100,100,0,0,1,19.3,183.77L0,124.44V0H634.67A100,100,0,0,1,610.25,83Z"/></g></g></g><g id="Abilities-2" data-name="Abilities" class="cls-4"><g id="Abilities---Default-2" data-name="Abilities---Default"><g id="Polygons-2" data-name="Polygons"><path id="Polygon-2" class="cls-5" d="M1419,751.07v335h0a100,100,0,0,1-28.06-42.13h0l-45.46-132a100,100,0,0,1,19.08-98.17h0Z"/></g></g></g><g id="Abilities-3" data-name="Abilities" class="cls-2"><g id="Abilities---Default-3" data-name="Abilities---Default"><g id="Polygons-3" data-name="Polygons"><path id="Polygon-3" class="cls-3" d="M718.12,1288.47,769,1347H411.53a100,100,0,0,1,75.07-64.47l137-26.62A100,100,0,0,1,718.12,1288.47Z"/></g></g></g><g id="Abilities-4" data-name="Abilities" class="cls-4"><g id="Abilities---Default-4" data-name="Abilities---Default"><g id="Polygons-4" data-name="Polygons"><path id="Polygon-4" class="cls-5" d="M.35,639l127.8,147a100,100,0,0,1,19.08,98.16L79,1082.3a100,100,0,0,1-75.47,65.61L0,1148.6V639Z"/></g></g></g></g></g></svg>