<svg xmlns="http://www.w3.org/2000/svg" viewBox="0 0 2261 2947"><defs><style>.cls-1{fill:#fff;}.cls-2{opacity:0.08;}.cls-3{fill:#00aed6;}.cls-4{opacity:0.1;}.cls-5{fill:#a6d800;}</style></defs><title>bg-oc_2</title><g id="Layer_2" data-name="Layer 2"><g id="Layer_1-2" data-name="Layer 1"><rect class="cls-1" width="2260" height="2947"/><g id="Abilities" class="cls-2"><g id="Abilities---Default"><g id="Polygons"><path id="Polygon-1" class="cls-3" d="M925,125.86,665.51,413.74a151.56,151.56,0,0,1-144.07,46.79L141.92,380A151.6,151.6,0,0,1,29.25,278.56L0,188.63V0H962A151.61,151.61,0,0,1,925,125.86Z"/></g></g></g><g id="Abilities-2" data-name="Abilities" class="cls-4"><g id="Abilities---Default-2" data-name="Abilities---Default"><g id="Polygons-2" data-name="Polygons"><path id="Polygon-2" class="cls-5" d="M2261,1300.07V1834h-.06a159.36,159.36,0,0,1-44.72-67.15h0l-72.46-210.44A159.39,159.39,0,0,1,2174.17,1400h0Z"/></g></g></g><g id="Abilities-3" data-name="Abilities" class="cls-2"><g id="Abilities---Default-3" data-name="Abilities---Default"><g id="Polygons-3" data-name="Polygons"><path id="Polygon-3" class="cls-3" d="M1415.06,2322.73l74.94,86.2H963.53A147.29,147.29,0,0,1,1074.09,2314l201.72-39.21A147.27,147.27,0,0,1,1415.06,2322.73Z"/></g></g></g><g id="Abilities-4" data-name="Abilities" class="cls-4"><g id="Abilities---Default-4" data-name="Abilities---Default"><g id="Polygons-4" data-name="Polygons"><path id="Polygon-4" class="cls-5" d="M.63,1107l231,265.72a180.74,180.74,0,0,1,34.49,177.41L142.81,1908.19A180.73,180.73,0,0,1,6.41,2026.76L0,2028V1107Z"/></g></g></g></g></g></svg>