<svg xmlns="http://www.w3.org/2000/svg" viewBox="0 0 850.39 595.27"><defs><style>.cls-1{fill:#229e45;}.cls-2{fill:#f8e509;}.cls-2,.cls-3,.cls-4,.cls-5{fill-rule:evenodd;}.cls-3{fill:#2b49a3;}.cls-4{fill:#ffffef;}.cls-5,.cls-8{fill:#fff;}.cls-6{fill:#309e3a;}.cls-7{fill:#f7ffff;}</style></defs><g id="Layer_2" data-name="Layer 2"><g id="svg378"><g id="g918"><rect id="rect552" class="cls-1" width="850.39" height="595.27"/><path id="path554" class="cls-2" d="M425.2,529.83,782.47,298,423,65.45,64.59,298.51Z"/><path id="path557" class="cls-3" d="M580.87,297.64c0-83.35-67.67-150.91-151.14-150.91S278.59,214.29,278.59,297.64s67.41,151,150.89,151.15,151.25-67.31,151.39-150.65v-.5h0Z"/><polygon id="polygon559" class="cls-4" points="380.04 388.02 375.36 385.32 370.52 387.72 371.59 382.34 367.86 378.39 373.2 377.77 375.74 372.93 377.96 377.92 383.26 378.88 379.3 382.59 380.04 388.02"/><polygon id="polygon560" class="cls-4" points="481.33 413.67 476.65 410.96 471.81 413.37 472.88 407.99 469.15 404.03 474.5 403.41 477.03 398.57 479.26 403.56 484.56 404.52 480.59 408.23 481.33 413.67"/><polygon id="polygon561" class="cls-4" points="437.69 372.7 433.64 370.37 429.46 372.44 430.39 367.8 427.16 364.38 431.78 363.85 433.97 359.66 435.89 363.98 440.47 364.81 437.04 368.01 437.69 372.7"/><polygon id="polygon562" class="cls-4" points="539.97 357.97 536 355.67 531.89 357.71 532.81 353.15 529.64 349.8 534.17 349.27 536.32 345.16 538.21 349.4 542.71 350.21 539.34 353.36 539.97 357.97"/><polygon id="polygon563" class="cls-4" points="435.83 327.3 431.14 324.6 426.3 327 427.38 321.62 423.64 317.67 428.99 317.05 431.52 312.2 433.75 317.2 439.05 318.16 435.08 321.87 435.83 327.3"/><polygon id="polygon564" class="cls-4" points="311.11 280.48 306.43 277.77 301.59 280.17 302.67 274.8 298.93 270.84 304.28 270.22 306.81 265.38 309.04 270.37 314.34 271.33 310.37 275.04 311.11 280.48"/><polygon id="polygon565" class="cls-4" points="326.11 342.76 321.42 340.05 316.58 342.45 317.66 337.08 313.92 333.12 319.27 332.5 321.8 327.66 324.03 332.65 329.33 333.61 325.36 337.32 326.11 342.76"/><polygon id="polygon566" class="cls-4" points="481.74 257.55 477.6 255.16 473.33 257.28 474.28 252.53 470.98 249.04 475.7 248.49 477.94 244.21 479.91 248.62 484.59 249.47 481.08 252.75 481.74 257.55"/><polygon id="polygon567" class="cls-4" points="473.19 298.07 469.93 296.19 466.56 297.86 467.31 294.12 464.71 291.37 468.43 290.93 470.19 287.56 471.74 291.04 475.43 291.71 472.67 294.29 473.19 298.07"/><polygon id="polygon568" class="cls-4" points="304.15 354.04 301.03 352.24 297.8 353.84 298.51 350.25 296.02 347.61 299.59 347.19 301.28 343.96 302.77 347.3 306.31 347.94 303.65 350.41 304.15 354.04"/><polygon id="polygon569" class="cls-4" points="540.84 368.39 538.29 367.04 535.66 368.24 536.25 365.56 534.21 363.58 537.12 363.27 538.5 360.85 539.71 363.35 542.6 363.83 540.44 365.68 540.84 368.39"/><polygon id="polygon570" class="cls-4" points="304.15 354.04 301.03 352.24 297.8 353.84 298.51 350.25 296.02 347.61 299.59 347.19 301.28 343.96 302.77 347.3 306.31 347.94 303.65 350.41 304.15 354.04"/><polygon id="polygon571" class="cls-4" points="304.15 354.04 301.03 352.24 297.8 353.84 298.51 350.25 296.02 347.61 299.59 347.19 301.28 343.96 302.77 347.3 306.31 347.94 303.65 350.41 304.15 354.04"/><polygon id="polygon572" class="cls-4" points="353.78 354.04 350.66 352.23 347.43 353.84 348.14 350.25 345.65 347.61 349.22 347.19 350.91 343.96 352.4 347.29 355.94 347.93 353.29 350.41 353.78 354.04"/><polygon id="polygon573" class="cls-4" points="347.62 370.55 344.49 368.74 341.26 370.35 341.98 366.75 339.48 364.12 343.05 363.7 344.74 360.47 346.23 363.8 349.77 364.44 347.12 366.92 347.62 370.55"/><polygon id="polygon574" class="cls-4" points="450.67 340.49 447.54 338.68 444.31 340.28 445.03 336.69 442.54 334.05 446.11 333.64 447.8 330.41 449.29 333.74 452.82 334.38 450.17 336.86 450.67 340.49"/><polygon id="polygon575" class="cls-4" points="420.43 340.48 417.3 338.67 414.07 340.28 414.79 336.69 412.3 334.05 415.87 333.63 417.56 330.4 419.04 333.73 422.58 334.37 419.93 336.85 420.43 340.48"/><polygon id="polygon576" class="cls-4" points="338.41 329.94 336.45 328.81 334.43 329.81 334.88 327.56 333.31 325.91 335.55 325.65 336.61 323.63 337.54 325.71 339.76 326.12 338.1 327.67 338.41 329.94"/><polygon id="polygon577" class="cls-4" points="536.99 381.45 533.86 379.65 530.63 381.25 531.35 377.66 528.85 375.02 532.42 374.61 534.11 371.37 535.6 374.71 539.14 375.35 536.49 377.82 536.99 381.45"/><polygon id="polygon578" class="cls-4" points="511.81 384.76 509.22 383.26 506.55 384.59 507.14 381.61 505.07 379.41 508.03 379.07 509.43 376.38 510.67 379.15 513.6 379.69 511.4 381.74 511.81 384.76"/><polygon id="polygon579" class="cls-4" points="523.69 384.47 521.28 383.07 518.78 384.31 519.34 381.54 517.41 379.5 520.17 379.18 521.47 376.69 522.62 379.26 525.35 379.75 523.3 381.67 523.69 384.47"/><polygon id="polygon580" class="cls-4" points="557.8 354.69 555.48 353.35 553.08 354.54 553.61 351.88 551.76 349.91 554.41 349.61 555.67 347.2 556.77 349.68 559.4 350.16 557.43 352 557.8 354.69"/><polygon id="polygon581" class="cls-4" points="511.51 401.55 508.48 399.89 505.34 401.37 506.04 398.07 503.62 395.65 507.08 395.27 508.72 392.3 510.17 395.36 513.6 395.95 511.03 398.22 511.51 401.55"/><polygon id="polygon582" class="cls-4" points="511.69 415.11 508.92 413.45 506.06 414.93 506.7 411.63 504.49 409.21 507.65 408.83 509.15 405.86 510.46 408.92 513.6 409.51 511.25 411.78 511.69 415.11"/><polygon id="polygon583" class="cls-4" points="488.81 384.46 486.49 383.12 484.09 384.31 484.62 381.64 482.77 379.68 485.42 379.38 486.68 376.97 487.78 379.45 490.41 379.93 488.44 381.77 488.81 384.46"/><polygon id="polygon584" class="cls-4" points="467.37 384.46 465.05 383.12 462.65 384.31 463.18 381.65 461.33 379.69 463.98 379.38 465.24 376.97 466.34 379.45 468.97 379.93 467 381.77 467.37 384.46"/><polygon id="polygon585" class="cls-4" points="430.97 352.63 428.65 351.29 426.25 352.48 426.78 349.81 424.93 347.85 427.58 347.54 428.83 345.14 429.94 347.62 432.57 348.09 430.6 349.93 430.97 352.63"/><polygon id="polygon586" class="cls-4" points="435.03 417.51 433.06 416.38 431.02 417.38 431.48 415.12 429.91 413.46 432.15 413.2 433.22 411.17 434.15 413.27 436.38 413.67 434.71 415.23 435.03 417.51"/><polygon id="polygon587" class="cls-4" points="380.04 312.56 375.36 309.86 370.52 312.26 371.59 306.88 367.86 302.93 373.21 302.31 375.74 297.47 377.97 302.46 383.27 303.42 379.3 307.13 380.04 312.56"/><path id="path726" class="cls-5" d="M570.91,351.94a147.18,147.18,0,0,0,6.86-23.45C497.49,258,408,221.84,294.91,229.28a147.13,147.13,0,0,0-10,24.71C418.86,241.21,517.07,300.52,570.91,351.94Z"/><path id="path790" class="cls-6" d="M534.82,312.29l2.87,1.56a4,4,0,0,0-.36,2.67,3.64,3.64,0,0,0,1.58,2,3.68,3.68,0,0,0,2.39.8,2,2,0,0,0,1.58-.87,1.46,1.46,0,0,0,.26-1,2.64,2.64,0,0,0-.58-1.27c-.25-.34-.85-1-1.81-2.11a9,9,0,0,1-2.21-3.48,4.33,4.33,0,0,1,.6-3.62,4.23,4.23,0,0,1,1.92-1.57,4.46,4.46,0,0,1,2.65-.23,8.37,8.37,0,0,1,3,1.35,7,7,0,0,1,3.12,3.77,4.86,4.86,0,0,1-.67,4l-2.85-1.76a2.84,2.84,0,0,0,.26-2,3.31,3.31,0,0,0-1.44-1.66,3.84,3.84,0,0,0-2.22-.78,1.19,1.19,0,0,0-1,.55,1.32,1.32,0,0,0-.16,1.12,9.19,9.19,0,0,0,1.93,2.65,15.81,15.81,0,0,1,2.31,3,4.53,4.53,0,0,1,.57,2.42,5.19,5.19,0,0,1-3.07,4.33,4.7,4.7,0,0,1-2.88.29,9.35,9.35,0,0,1-3.32-1.53,7.19,7.19,0,0,1-3.18-3.91A6.38,6.38,0,0,1,534.82,312.29Z"/><path id="path791" class="cls-6" d="M521.22,303.35l2.93,1.45a4.11,4.11,0,0,0-.26,2.68,4.42,4.42,0,0,0,4.08,2.64,2,2,0,0,0,1.55-.93,1.49,1.49,0,0,0,.23-1,2.7,2.7,0,0,0-.64-1.25c-.26-.33-.89-1-1.9-2a9.36,9.36,0,0,1-2.34-3.39,4.35,4.35,0,0,1,.46-3.65,4.31,4.31,0,0,1,1.84-1.64,4.54,4.54,0,0,1,2.65-.34,8.3,8.3,0,0,1,3.07,1.23,6.93,6.93,0,0,1,3.26,3.65,4.83,4.83,0,0,1-.5,4l-2.92-1.64a2.85,2.85,0,0,0,.18-2.05,3.33,3.33,0,0,0-1.5-1.59,3.78,3.78,0,0,0-2.25-.7,1.21,1.21,0,0,0-1,.6,1.28,1.28,0,0,0-.1,1.12,8.71,8.71,0,0,0,2,2.57,16.11,16.11,0,0,1,2.43,2.92,4.53,4.53,0,0,1,.66,2.4,5.14,5.14,0,0,1-2.89,4.45,4.69,4.69,0,0,1-2.88.4,9.46,9.46,0,0,1-3.37-1.39A7.26,7.26,0,0,1,520.7,308,6.4,6.4,0,0,1,521.22,303.35Z"/><path id="path792" class="cls-6" d="M504.39,298.85,513,284.67l10.48,6.41-1.46,2.4-7.62-4.67L512.49,292l7.09,4.34-1.45,2.39L511,294.35l-2.34,3.85,7.89,4.84-1.46,2.39Z"/><path id="path795" class="cls-6" d="M479.88,278.71l1.27-2.49,6.4,3.31-3,5.88a9.15,9.15,0,0,1-3.54.21,11.35,11.35,0,0,1-3.93-1.17,9.06,9.06,0,0,1-3.52-3.05,7,7,0,0,1-1.16-4.11,10.23,10.23,0,0,1,1.16-4.39,9.48,9.48,0,0,1,3.07-3.6,7.29,7.29,0,0,1,4.23-1.29,8.54,8.54,0,0,1,3.9,1.08,7.9,7.9,0,0,1,3.68,3.37,5.87,5.87,0,0,1,.35,4.22l-3.23-1a3.54,3.54,0,0,0-.3-2.32,4,4,0,0,0-1.81-1.74,4.53,4.53,0,0,0-3.74-.36,5.87,5.87,0,0,0-3,3.08,6.48,6.48,0,0,0-.87,4.55,4.39,4.39,0,0,0,2.38,2.89,5.75,5.75,0,0,0,2.05.6,7.11,7.11,0,0,0,2.08-.06l1-1.87Z"/><path id="path804" class="cls-6" d="M372.93,252.19l2.41-16.43,4.94.73,1.33,11.64,4.58-10.77,5,.73-2.41,16.44-3.07-.46,1.9-12.94-5.15,12.46-3.18-.47-1.35-13.41L376,252.64Z"/><path id="path805" class="cls-6" d="M356.21,250.25l1.55-16.54L370,234.86l-.26,2.8-8.89-.84-.34,3.67,8.27.78-.26,2.78-8.27-.78-.42,4.51,9.2.86-.26,2.79Z"/><g id="g812"><path id="path810" class="cls-6" d="M300.89,239.89a10.8,10.8,0,0,1,.87-4.24,7.8,7.8,0,0,1,1.6-2.23,6.51,6.51,0,0,1,2.18-1.44,9.17,9.17,0,0,1,3.58-.56,7.76,7.76,0,0,1,5.79,2.44,10.2,10.2,0,0,1-.32,12.63,8.68,8.68,0,0,1-11.69-.31A8.64,8.64,0,0,1,300.89,239.89Z"/><path id="path811" class="cls-7" d="M304.33,239.87a6.27,6.27,0,0,0,1.19,4.32,4.22,4.22,0,0,0,3.25,1.54,4.17,4.17,0,0,0,3.31-1.35,6.37,6.37,0,0,0,1.41-4.3,6.26,6.26,0,0,0-1.14-4.3,4.19,4.19,0,0,0-3.27-1.49,4.24,4.24,0,0,0-3.37,1.34A6.23,6.23,0,0,0,304.33,239.87Z"/></g><g id="g815"><path id="path808" class="cls-6" d="M320.51,248.48l.19-16.61,7,.08a12.16,12.16,0,0,1,3.85.5,3.79,3.79,0,0,1,1.91,1.61,4.83,4.83,0,0,1,.69,2.63,4.46,4.46,0,0,1-1.13,3.08,5.3,5.3,0,0,1-3.29,1.49,7.56,7.56,0,0,1,1.76,1.41,18.15,18.15,0,0,1,1.88,2.72l2,3.27-4,0L329,245a24.71,24.71,0,0,0-1.74-2.46,2.45,2.45,0,0,0-1-.7,5.19,5.19,0,0,0-1.68-.21h-.68l-.08,6.93Z"/><path id="path809" class="cls-8" d="M324,238.94l2.47,0a12.94,12.94,0,0,0,3-.16,1.85,1.85,0,0,0,.94-.7,2.19,2.19,0,0,0,.36-1.24,1.9,1.9,0,0,0-1.69-2q-.41-.06-2.43-.09l-2.61,0Z"/></g><g id="g818"><path id="path806" class="cls-6" d="M339.41,232.67l6.1.31a11.74,11.74,0,0,1,3.13.48,5.54,5.54,0,0,1,2.41,1.66,7,7,0,0,1,1.44,2.77,12.13,12.13,0,0,1,.35,3.94,10.93,10.93,0,0,1-.69,3.51,7.28,7.28,0,0,1-1.92,2.84,5.69,5.69,0,0,1-2.41,1.2,9.72,9.72,0,0,1-3,.2l-6.28-.32Z"/><path id="path807" class="cls-8" d="M342.6,235.65l-.55,11,2.49.12a9.34,9.34,0,0,0,2,0,3.14,3.14,0,0,0,1.37-.62,3.44,3.44,0,0,0,1-1.55,10.91,10.91,0,0,0,.5-3,10.15,10.15,0,0,0-.19-3,3.8,3.8,0,0,0-.87-1.66,3.28,3.28,0,0,0-1.5-.86,16.52,16.52,0,0,0-2.74-.29Z"/></g><g id="g824"><path id="path800" class="cls-6" d="M420.74,262.36l3.87-16.16,5.21,1.26a19.68,19.68,0,0,1,3.81,1.18,4.31,4.31,0,0,1,1.93,2.14,5.12,5.12,0,0,1,.18,3.36,5.45,5.45,0,0,1-1.13,2.38,4.5,4.5,0,0,1-1.76,1.26,4.87,4.87,0,0,1-1.86.36,19.14,19.14,0,0,1-3.42-.58l-2.12-.51L424,263.14Z"/><path id="path801" class="cls-8" d="M427.2,249.72l-1.09,4.58,1.77.43a8.79,8.79,0,0,0,2.63.37,2.22,2.22,0,0,0,1.2-.55,2.15,2.15,0,0,0,.67-1.17,2.17,2.17,0,0,0-.16-1.58,2.34,2.34,0,0,0-1.14-1,15.46,15.46,0,0,0-2.31-.67Z"/></g><g id="g827"><path id="path798" class="cls-6" d="M436.1,267l5.5-15.66,6.64,2.34a11.93,11.93,0,0,1,3.48,1.71,3.79,3.79,0,0,1,1.29,2.14,4.86,4.86,0,0,1-.18,2.71,4.49,4.49,0,0,1-2.06,2.56,5.36,5.36,0,0,1-3.6.35A7.6,7.6,0,0,1,448.4,265a18,18,0,0,1,.9,3.18l.84,3.73-3.77-1.34-1.08-4.21a23.54,23.54,0,0,0-.86-2.89,2.39,2.39,0,0,0-.72-1,5.42,5.42,0,0,0-1.52-.75l-.64-.22-2.29,6.54Z"/><path id="path799" class="cls-8" d="M442.43,259l2.33.82a12.19,12.19,0,0,0,2.9.81,1.78,1.78,0,0,0,1.12-.35,2.21,2.21,0,0,0,.73-1.06,2,2,0,0,0,0-1.42,2,2,0,0,0-1-1q-.36-.19-2.28-.87l-2.46-.87Z"/></g><g id="g830"><path id="path796" class="cls-6" d="M455.54,266.35a10.81,10.81,0,0,1,2-3.84,8.15,8.15,0,0,1,2.15-1.72,6.55,6.55,0,0,1,2.49-.78,8.94,8.94,0,0,1,3.6.44,7.71,7.71,0,0,1,4.9,3.92,10.17,10.17,0,0,1-3.72,12.06,7.7,7.7,0,0,1-6.23.43,7.85,7.85,0,0,1-4.94-3.91A8.64,8.64,0,0,1,455.54,266.35Z"/><path id="path797" class="cls-8" d="M458.86,267.27a6.25,6.25,0,0,0,0,4.48,4.26,4.26,0,0,0,2.72,2.37,4.13,4.13,0,0,0,3.55-.4,6.35,6.35,0,0,0,2.51-3.76,6.22,6.22,0,0,0,.07-4.44,4.59,4.59,0,0,0-6.34-2A6.26,6.26,0,0,0,458.86,267.27Z"/></g><g id="g833"><path id="path793" class="cls-6" d="M487.88,289.48l7.61-14.76,6.24,3.25a11.87,11.87,0,0,1,3.21,2.17,3.82,3.82,0,0,1,1,2.3,4.87,4.87,0,0,1-.55,2.66,4.41,4.41,0,0,1-2.39,2.24,5.28,5.28,0,0,1-3.61-.15,8,8,0,0,1,.95,2.06,19.91,19.91,0,0,1,.46,3.28l.31,3.81-3.55-1.84-.49-4.33a24.15,24.15,0,0,0-.45-3,2.54,2.54,0,0,0-.58-1.08,5.08,5.08,0,0,0-1.4-.95l-.61-.31L490.85,291Z"/><path id="path794" class="cls-8" d="M495.24,282.5l2.19,1.14a13.55,13.55,0,0,0,2.76,1.21,1.84,1.84,0,0,0,1.16-.19,2.22,2.22,0,0,0,.87-1,2,2,0,0,0,.22-1.4,2.08,2.08,0,0,0-.82-1.16c-.22-.16-.93-.55-2.14-1.18l-2.31-1.2Z"/></g><g id="g836"><path id="path788" class="cls-6" d="M549.29,319.8a10.64,10.64,0,0,1,3-3.1,7.7,7.7,0,0,1,2.54-1,6.58,6.58,0,0,1,2.61,0,9,9,0,0,1,3.32,1.47,7.76,7.76,0,0,1,3.57,5.17,10.17,10.17,0,0,1-7,10.48,7.71,7.71,0,0,1-6.09-1.4,7.82,7.82,0,0,1-3.6-5.17A8.65,8.65,0,0,1,549.29,319.8Z"/><path id="path789" class="cls-8" d="M552.21,321.65a6.26,6.26,0,0,0-1.32,4.27,4.28,4.28,0,0,0,1.92,3.06,4.21,4.21,0,0,0,3.52.65,6.38,6.38,0,0,0,3.49-2.87,6.25,6.25,0,0,0,1.33-4.24,4.6,4.6,0,0,0-5.5-3.71A6.22,6.22,0,0,0,552.21,321.65Z"/></g><path id="path872" class="cls-6" d="M402,255.59l2.66-11.66,8.62,2-.45,2-6.27-1.44L406,249l5.83,1.35-.45,2L405.51,251l-.73,3.17,6.49,1.49-.44,2Z"/></g></g></g></svg>