<svg id="Capa_1" enable-background="new 0 0 512 512" height="512" viewBox="0 0 512 512" width="512" xmlns="http://www.w3.org/2000/svg"><g><path d="m437.077 5.036h-362.154c-41.379 0-74.923 33.544-74.923 74.923v278.192c0 41.379 33.544 74.923 74.923 74.923h43.791v45.615c0 21.315 22.707 34.95 41.521 24.932l132.489-70.546h144.352c41.379 0 74.923-33.544 74.923-74.923v-278.193c.001-41.379-33.543-74.923-74.922-74.923z" fill="#f9f6f9"/><path d="m28.985 79.954v278.197c0 41.377 33.55 74.917 74.927 74.917h-28.995c-41.377 0-74.917-33.54-74.917-74.917v-278.197c0-41.377 33.54-74.927 74.917-74.927h28.995c-41.377 0-74.927 33.55-74.927 74.927z" fill="#dddaec"/><path d="m161.499 502.945-1.262.667c-18.815 10.018-41.529-3.616-41.529-24.925v-45.619h28.995v45.619c0 10.695 5.716 19.461 13.796 24.258z" fill="#dddaec"/><g><g><path d="m170.385 323.053c-59.009 0-107.016-48.007-107.016-107.015s48.007-107.015 107.016-107.015c21.441 0 42.137 6.324 59.847 18.289 9.962 6.73 12.582 20.261 5.853 30.222-6.73 9.961-20.258 12.584-30.223 5.853-10.487-7.084-22.755-10.829-35.478-10.829-35.003 0-63.48 28.477-63.48 63.48s28.478 63.48 63.48 63.48c12.934 0 23.804-3.84 32.307-11.414 1.661-1.478 3.248-3.117 4.719-4.871 7.725-9.211 21.455-10.416 30.667-2.69 9.211 7.726 10.415 21.455 2.69 30.666-2.823 3.366-5.893 6.531-9.122 9.407-16.478 14.678-37.663 22.437-61.26 22.437z" fill="#df75a5"/></g><g><path d="m373.158 323.053c-59.009 0-107.016-48.007-107.016-107.015s48.007-107.015 107.016-107.015c21.441 0 42.137 6.324 59.847 18.289 9.962 6.73 12.582 20.261 5.853 30.222-6.73 9.961-20.262 12.584-30.223 5.853-10.487-7.084-22.755-10.829-35.478-10.829-35.003 0-63.48 28.477-63.48 63.48s28.478 63.48 63.48 63.48c12.934 0 23.804-3.84 32.307-11.414 1.661-1.478 3.248-3.117 4.719-4.871 7.726-9.211 21.454-10.416 30.667-2.69 9.211 7.726 10.415 21.455 2.69 30.666-2.823 3.366-5.893 6.531-9.122 9.407-16.478 14.678-37.664 22.437-61.26 22.437z" fill="#df75a5"/></g></g><g><g><path d="m179.087 322.697c-2.858.242-5.757.363-8.696.363-59.01 0-107.023-48.012-107.023-107.023 0-59.01 48.012-107.013 107.023-107.013 2.939 0 5.868.121 8.766.354-54.961 4.434-98.317 50.577-98.317 106.659.001 56.063 43.317 102.196 98.247 106.66z" fill="#dd5790"/></g><g><path d="m381.862 322.697c-2.858.242-5.767.363-8.706.363-59 0-107.013-48.012-107.013-107.023 0-59.01 48.012-107.013 107.013-107.013 2.939 0 5.868.121 8.776.354-54.961 4.434-98.327 50.577-98.327 106.659 0 56.063 43.327 102.196 98.257 106.66z" fill="#dd5790"/></g></g></g></svg>