<?xml version="1.0" encoding="UTF-8"?>
<svg width="54px" height="66px" viewBox="0 0 54 66" version="1.1" xmlns="http://www.w3.org/2000/svg" xmlns:xlink="http://www.w3.org/1999/xlink">
    <title>Certificate</title>
    <defs>
        <rect id="path-1" x="0" y="0" width="22" height="24" rx="4"></rect>
        <filter x="-154.5%" y="-108.3%" width="409.1%" height="416.7%" filterUnits="objectBoundingBox" id="filter-2">
            <feOffset dx="0" dy="16" in="SourceAlpha" result="shadowOffsetOuter1"></feOffset>
            <feGaussianBlur stdDeviation="8" in="shadowOffsetOuter1" result="shadowBlurOuter1"></feGaussianBlur>
            <feComposite in="shadowBlurOuter1" in2="SourceAlpha" operator="out" result="shadowBlurOuter1"></feComposite>
            <feColorMatrix values="0 0 0 0 0   0 0 0 0 0   0 0 0 0 0  0 0 0 0.03 0" type="matrix" in="shadowBlurOuter1" result="shadowMatrixOuter1"></feColorMatrix>
            <feMorphology radius="1" operator="dilate" in="SourceAlpha" result="shadowSpreadOuter2"></feMorphology>
            <feOffset dx="0" dy="0" in="shadowSpreadOuter2" result="shadowOffsetOuter2"></feOffset>
            <feGaussianBlur stdDeviation="4" in="shadowOffsetOuter2" result="shadowBlurOuter2"></feGaussianBlur>
            <feComposite in="shadowBlurOuter2" in2="SourceAlpha" operator="out" result="shadowBlurOuter2"></feComposite>
            <feColorMatrix values="0 0 0 0 0   0 0 0 0 0   0 0 0 0 0  0 0 0 0.03 0" type="matrix" in="shadowBlurOuter2" result="shadowMatrixOuter2"></feColorMatrix>
            <feMerge>
                <feMergeNode in="shadowMatrixOuter1"></feMergeNode>
                <feMergeNode in="shadowMatrixOuter2"></feMergeNode>
            </feMerge>
        </filter>
    </defs>
    <g id="One-Faculty" stroke="none" stroke-width="1" fill="none" fill-rule="evenodd">
        <g id="Teaching-Modules-enrolled-success" transform="translate(-1111.000000, -536.000000)" fill-rule="nonzero">
            <g id="Notifications" transform="translate(1099.000000, 56.000000)">
                <g id="Today-Copy-2" transform="translate(28.000000, 486.000000)">
                    <g id="Certificate" transform="translate(0.000000, 4.000000)">
                        <rect id="Rectangle" stroke="#FFFFFF" stroke-width="4" fill="#FFFFFF" x="2" y="2" width="18" height="20" rx="4"></rect>
                        <g id="Rectangle">
                            <use fill="black" fill-opacity="1" filter="url(#filter-2)" xlink:href="#path-1"></use>
                            <rect stroke="#FFFFFF" stroke-width="3" stroke-linejoin="square" fill-opacity="0.08" fill="#334652" fill-rule="evenodd" x="1.5" y="1.5" width="19" height="21" rx="4"></rect>
                        </g>
                        <path d="M25.1428571,7.07142857 C27.4470018,7.07142857 29.5366103,8.00806423 31.0499654,9.52141931 C32.5633927,11.0348466 33.5,13.1245458 33.5,15.4285714 C33.5,17.7325971 32.5633927,19.8222962 31.0499654,21.3357235 C29.5366103,22.8490786 27.4470018,23.7857143 25.1428571,23.7857143 C22.8387124,23.7857143 20.749104,22.8490786 19.2357489,21.3357235 C17.7223216,19.8222962 16.7857143,17.7325971 16.7857143,15.4285714 C16.7857143,13.1245458 17.7223216,11.0348466 19.2357489,9.52141931 C20.749104,8.00806423 22.8387124,7.07142857 25.1428571,7.07142857 Z" id="Path-Copy-4" stroke="#FFFFFF" stroke-width="3" fill="#E86C60"></path>
                        <path d="M31.2142857,17.9285714 L31.2142857,34.4108872 L25.1428571,31.4204642 L19.0714286,34.4108872 L19.0714286,17.9285714 L31.2142857,17.9285714 Z" id="Path-Copy-2" stroke="#FFFFFF" stroke-width="3" fill="#EFD358"></path>
                        <path d="M25.1428571,8.57142857 C21.3616076,8.57142857 18.2857143,11.6476952 18.2857143,15.4285714 C18.2857143,19.2094476 21.3616076,22.2857143 25.1428571,22.2857143 C28.9241067,22.2857143 32,19.2094476 32,15.4285714 C32,11.6476952 28.9241067,8.57142857 25.1428571,8.57142857 Z" id="Path-Copy-5" fill="#E86C60"></path>
                        <circle id="Oval-Copy-4" fill="#C94949" cx="25.1428571" cy="15.4285714" r="2.85714286"></circle>
                        <circle id="Oval-Copy-6" fill="#C94949" cx="25.1428571" cy="15.4285714" r="2.85714286"></circle>
                        <rect id="Rectangle" fill="#334652" opacity="0.100000001" x="5.71428571" y="5.71428571" width="14.8571429" height="1.71428571" rx="0.857142857"></rect>
                        <rect id="Rectangle-Copy-2" fill="#334652" opacity="0.100000001" x="5.71428571" y="10.8571429" width="9.14285714" height="1.71428571" rx="0.857142857"></rect>
                        <rect id="Rectangle-Copy-4" fill="#334652" opacity="0.100000001" x="5.71428571" y="16" width="9.14285714" height="1.71428571" rx="0.857142857"></rect>
                    </g>
                </g>
            </g>
        </g>
    </g>
</svg>