<?xml version="1.0" encoding="UTF-8"?>
<svg width="17px" height="17px" viewBox="0 0 17 17" version="1.1" xmlns="http://www.w3.org/2000/svg" xmlns:xlink="http://www.w3.org/1999/xlink">
    <title>checkmark</title>
    <g id="One-Faculty" stroke="none" stroke-width="1" fill="none" fill-rule="evenodd">
        <g id="Teaching-Modules-LACF-completed" transform="translate(-372.000000, -426.000000)" fill-rule="nonzero">
            <g id="Group" transform="translate(372.000000, 422.000000)">
                <g id="checkmark" transform="translate(0.000000, 4.000000)">
                    <path d="M15.3008005,8.5769392 L14.9038711,7.44914302 L10.6223659,11.7305463 C10.204054,12.1496469 9.64675595,12.3801049 9.05467754,12.3801049 C8.46273443,12.3801049 7.90543639,12.1496469 7.48712452,11.7305463 L4.34592853,8.58952439 C3.92680467,8.17123569 3.69619858,7.61396854 3.69619858,7.02205826 C3.69619858,6.43001263 3.92680467,5.87274545 4.34592853,5.45445678 C4.7642404,5.03549147 5.32153844,4.80489816 5.91348155,4.80489816 C6.50555999,4.80489816 7.06285802,5.03549147 7.4811699,5.45445678 L9.05467754,7.02720058 L13.2705466,2.81170043 L12.9866196,2.00611243 L12.8558887,1.22420621 C12.7738774,0.723098828 12.4433961,0.307787292 11.974064,0.113325653 C11.5025666,-0.0824892157 10.976395,-0.0218637442 10.5632257,0.274497395 L8.50928871,1.76144534 L6.43234524,0.270708303 C6.01552202,-0.02335229 5.48786175,-0.0818125661 5.01920629,0.114814233 C4.55366348,0.309952487 4.22615953,0.724587408 4.14414822,1.22271767 L3.74207621,3.72581888 L1.22394973,4.14410758 C0.723626544,4.22624965 0.308291993,4.5565773 0.113142925,5.02588341 C-0.0820061422,5.49667809 -0.021377311,6.02430913 0.275000252,6.4374555 L1.76135395,8.49127866 L0.270534297,10.5679717 C-0.0228659393,10.9847718 -0.0820061422,11.5132148 0.114631588,11.9810324 C0.310457309,12.4466847 0.724303197,12.7740352 1.22246106,12.8561773 L3.72583635,13.2589036 L4.14414822,15.7760786 C4.22548287,16.2756975 4.55366348,16.6903324 5.01920629,16.8854706 C5.4885384,17.0819621 6.01701068,17.0236371 6.4376232,16.7257874 L8.49156018,15.2388395 L10.5632257,16.7257874 C10.8167029,16.9068519 11.1115918,17 11.4109467,17 C11.6008178,17 11.7915008,16.9630117 11.974064,16.8869592 C12.4442081,16.691821 12.7738774,16.2765094 12.8558887,15.7775672 L13.2586374,13.274466 L15.7759519,12.8561773 C16.2755984,12.7740352 16.6895796,12.4466847 16.8854053,11.9810324 C17.0820431,11.5132148 17.0235795,10.9847718 16.7257133,10.5628294 L15.3008005,8.5769392 Z" id="Path" fill="#FFC107"></path>
                    <path d="M9.39710326,10 C9.23147325,10 9.06584326,9.9385351 8.93966591,9.81617977 L6.18971033,7.14952267 C5.93676322,6.90423755 5.93676322,6.5076454 6.18971033,6.26236028 C6.44277591,6.01696027 6.85163795,6.01696027 7.10470353,6.26236028 L9.39710326,8.48532131 L15.8952965,2.18396384 C16.1483621,1.93867872 16.5572241,1.93867872 16.8102897,2.18396384 C17.0632368,2.42924894 17.0632368,2.82584109 16.8102897,3.07112621 L9.85454061,9.81617977 C9.72836326,9.9385351 9.56273324,10 9.39710326,10 Z" id="Path" fill="#F9F9FA"></path>
                </g>
            </g>
        </g>
    </g>
</svg>