<?xml version="1.0" encoding="UTF-8"?>
<svg width="15px" height="15px" viewBox="0 0 15 15" version="1.1" xmlns="http://www.w3.org/2000/svg" xmlns:xlink="http://www.w3.org/1999/xlink">
    <title>checked</title>
    <g id="One-Faculty" stroke="none" stroke-width="1" fill="none" fill-rule="evenodd">
        <g id="Teaching-Toolkits-Resources" transform="translate(-546.000000, -608.000000)" fill-rule="nonzero">
            <g id="checked" transform="translate(546.000000, 608.000000)">
                <path d="M13.3630317,13.5926484 C11.0647225,15.4691172 3.88838062,15.4691172 1.63696825,13.5926484 C-0.661340982,11.7161795 -0.42682367,3.69429084 1.63696825,1.5832675 C3.70076018,-0.527755834 11.2992398,-0.527755834 13.3630317,1.5832675 C15.4268237,3.69429084 15.661341,11.7162125 13.3630317,13.5926484 Z" id="Path" fill="#04BF8A"></path>
                <path d="M6.87183116,12 C6.52846418,12 6.18513169,11.8651095 5.98892691,11.5953602 L3.24212902,8.35824189 C2.84971947,7.90864914 2.9478391,7.27921298 3.4383338,6.91952614 C3.92882849,6.55983931 4.61552797,6.64977682 5.00793752,7.09936956 L6.87183116,9.30241193 L10.9920625,4.4017815 C11.384472,3.95218876 12.0711715,3.86225124 12.5616662,4.22193808 C13.0521609,4.58162492 13.1502805,5.21106108 12.757871,5.66065382 L7.75473541,11.5953602 C7.50948806,11.8201566 7.21519814,12 6.87183116,12 Z" id="Path" fill="#FFFFFF"></path>
            </g>
        </g>
    </g>
</svg>