<?xml version="1.0" encoding="UTF-8"?>
<svg width="24px" height="23px" viewBox="0 0 24 23" version="1.1" xmlns="http://www.w3.org/2000/svg" xmlns:xlink="http://www.w3.org/1999/xlink">
    <title>checkmark</title>
    <g id="One-Faculty" stroke="none" stroke-width="1" fill="none" fill-rule="evenodd">
        <g id="Teaching-Modules-enrolled-success" transform="translate(-1135.000000, -207.000000)" fill-rule="nonzero">
            <g id="checkmark" transform="translate(1135.000000, 207.000000)">
                <path d="M20.701083,11.6040942 L20.1640609,10.0782523 L14.3714362,15.8707391 C13.8054848,16.4377576 13.0514933,16.7495537 12.2504461,16.7495537 C11.4495819,16.7495537 10.6955904,16.4377576 10.1296391,15.8707391 L5.87978565,11.6211212 C5.31273573,11.0552012 5.00073926,10.3012516 5.00073926,9.50043177 C5.00073926,8.69942886 5.31273573,7.94547913 5.87978565,7.37955918 C6.44573701,6.81272376 7.19972847,6.50074457 8.00059269,6.50074457 C8.80163998,6.50074457 9.55563144,6.81272376 10.1215828,7.37955918 L12.2504461,9.50738903 L17.954269,3.80406529 L17.5701324,2.7141521 L17.3932612,1.656279 C17.2823047,0.978310179 16.835183,0.416418101 16.2002043,0.153322942 C15.562296,-0.111603056 14.8504167,-0.0295803597 14.291423,0.371378829 L11.5125671,2.38313194 L8.70258473,0.36625241 C8.13864744,-0.0315942747 7.42475413,-0.110687589 6.79069086,0.155336904 C6.16083883,0.419347483 5.71774524,0.980324141 5.60678877,1.65426508 L5.06280899,5.04081378 L1.65593198,5.60673378 C0.979024148,5.71786718 0.417100932,6.16478106 0.153075723,6.79972461 C-0.110949486,7.43668213 -0.0289222443,8.15053588 0.372059164,8.70949862 L2.38300828,11.4882005 L0.36601699,14.2978441 C-0.0309362709,14.8617501 -0.110949486,15.5767024 0.155089796,16.209632 C0.420030476,16.8396322 0.979939619,17.2825182 1.65391791,17.3936516 L5.04083741,17.9385167 L5.60678877,21.3441064 C5.71682977,22.0200613 6.16083883,22.5810379 6.79069086,22.8450485 C7.4256696,23.1108899 8.14066151,23.0319796 8.70972551,22.6290065 L11.4885814,20.6172534 L14.291423,22.6290065 C14.6343628,22.8739761 15.0333301,23 15.4383397,23 C15.695224,23 15.953207,22.949957 16.2002043,22.8470624 C16.8362816,22.5830519 17.2823047,22.0211598 17.3932612,21.3461203 L17.9381565,17.9595716 L21.3439349,17.3936516 C22.0199272,17.2825182 22.5800195,16.8396322 22.8449601,16.209632 C23.1109994,15.5767024 23.0319017,14.8617501 22.6289063,14.2908868 L20.701083,11.6040942 Z" id="Path" fill="#FFC107"></path>
                <path d="M12.2500687,14 C11.994095,14 11.7381214,13.9078027 11.54312,13.7242697 L7.29318869,9.72428401 C6.90227044,9.35635632 6.90227044,8.7614681 7.29318869,8.39354041 C7.68429004,8.0254404 8.31616774,8.0254404 8.70726909,8.39354041 L12.2500687,11.727982 L22.2927309,2.27594577 C22.6838323,1.90801808 23.31571,1.90801808 23.7068113,2.27594577 C24.0977296,2.64387341 24.0977296,3.23876163 23.7068113,3.60668932 L12.9570173,13.7242697 C12.7620159,13.9078027 12.5060423,14 12.2500687,14 Z" id="Path" fill="#607D8B"></path>
            </g>
        </g>
    </g>
</svg>