<?xml version="1.0" encoding="UTF-8"?>
<svg width="377px" height="325px" viewBox="0 0 377 325" version="1.1" xmlns="http://www.w3.org/2000/svg" xmlns:xlink="http://www.w3.org/1999/xlink">
    <title>Group 90</title>
    <defs>
        <polygon id="path-1" points="0.00406978001 0.140945368 281.649513 0.140945368 281.649513 243.436995 0.00406978001 243.436995"></polygon>
        <polygon id="path-3" points="0 0.259717813 44.7557428 0.259717813 44.7557428 54.2267535 0 54.2267535"></polygon>
        <polygon id="path-5" points="0.260233362 0.371125125 374.679839 0.371125125 374.679839 75.1853608 0.260233362 75.1853608"></polygon>
    </defs>
    <g id="Welcome" stroke="none" stroke-width="1" fill="none" fill-rule="evenodd">
        <g id="FinishLMS" transform="translate(-544.000000, -483.000000)">
            <g id="Group-90" transform="translate(544.000000, 483.000000)">
                <polygon id="Fill-1" fill="#334652" points="172.888234 0 145 68.1592406 260.111377 115 288 46.8403719"></polygon>
                <g id="Group-89" transform="translate(0.000000, 22.000000)">
                    <path d="M195.748744,0.00372132986 C211.161582,0.00372132986 223.655807,12.4996369 223.655807,27.9136953 C223.655807,43.3281413 211.161582,55.8236692 195.748744,55.8236692 C180.335906,55.8236692 167.841681,43.3281413 167.841681,27.9136953 C167.841681,12.4996369 180.335906,0.00372132986 195.748744,0.00372132986" id="Fill-2" fill="#F9C035"></path>
                    <polygon id="Fill-4" fill="#F9C035" points="239.293762 17.6329788 247.906967 21.1476974 244.392228 29.7618007 235.77941 26.2466945"></polygon>
                    <polygon id="Fill-6" fill="#F9C035" points="250.059803 22.0264351 258.673008 25.5411537 255.158269 34.155257 246.545839 30.6401508"></polygon>
                    <polygon id="Fill-8" fill="#F9C035" points="260.826271 26.4199302 269.439088 29.9346487 265.924736 38.5487521 257.311919 35.0336459"></polygon>
                    <polygon id="Fill-10" fill="#2F2E41" points="234.900725 28.4003367 243.51393 31.9150552 239.999191 40.5291585 231.386761 37.0140524"></polygon>
                    <polygon id="Fill-12" fill="#2F2E41" points="245.667154 32.7938317 254.279971 36.3085502 250.765232 44.9222659 242.152802 41.4075474"></polygon>
                    <polygon id="Fill-14" fill="#2F2E41" points="256.433234 37.187133 265.046051 40.7018515 261.531699 49.3159548 252.918882 45.8012363"></polygon>
                    <polygon id="Fill-16" fill="#FF7C5F" points="230.507689 39.1675394 239.120893 42.682258 235.606154 51.2963613 226.993724 47.7816428"></polygon>
                    <polygon id="Fill-18" fill="#FF7C5F" points="241.274156 43.5610345 249.886973 47.075753 246.372621 55.6898564 237.759804 52.1747502"></polygon>
                    <polygon id="Fill-20" fill="#FF6584" points="252.040197 47.9545296 260.653402 51.4692481 257.138662 60.0833514 248.525845 56.5682453"></polygon>
                    <path d="M206.291877,2.07216051 L185.205766,53.75523 C199.475965,59.5787236 216.482606,53.0225932 222.305105,38.7509055 C228.128379,24.4792179 220.562076,7.8956541 206.291877,2.07216051" id="Fill-22" fill="#FF7C5F"></path>
                    <g id="Group-26" transform="translate(15.116326, 58.921056)">
                        <mask id="mask-2" fill="white">
                            <use xlink:href="#path-1"></use>
                        </mask>
                        <g id="Clip-25"></g>
                        <path d="M69.3872298,0.140945368 L48.6941426,33.9666708 C60.5406908,41.6620709 63.9065927,57.5052451 56.2119953,69.353029 C48.8092592,80.7515399 33.785957,84.3701456 22.0060757,77.5918983 L0.00406978001,113.557388 L212.266353,243.437227 L281.649513,130.020397 L69.3872298,0.140945368 Z" id="Fill-24" fill="#F2F2F2" mask="url(#mask-2)"></path>
                    </g>
                    <path d="M372.15018,215.165664 C372.15018,223.875514 366.97342,226.916539 360.586579,226.916539 C360.438516,226.916539 360.290841,226.914988 360.143166,226.911887 C359.847817,226.905297 359.554405,226.891342 359.264869,226.871185 C353.501285,226.463777 349.022977,223.265759 349.022977,215.165664 C349.022977,206.782981 359.73425,196.205489 360.538516,195.422459 L360.540067,195.420908 C360.571075,195.390672 360.586579,195.375942 360.586579,195.375942 C360.586579,195.375942 372.15018,206.456202 372.15018,215.165664" id="Fill-27" fill="#FF7C5F"></path>
                    <path d="M360.165298,225.584186 L364.394381,219.673862 L360.154833,226.233093 L360.143205,226.911848 C359.847855,226.905258 359.554444,226.891303 359.264908,226.871146 L359.720723,218.157807 L359.717235,218.089971 L359.724987,218.077178 L359.76801,217.254222 L355.517609,210.67871 L359.781576,216.637101 L359.791266,216.811539 L360.135841,210.227886 L356.496682,203.43297 L360.180027,209.072335 L360.538555,195.42242 L360.540106,195.375903 L360.540106,195.421257 L360.480028,206.184816 L364.102907,201.917691 L360.465299,207.112047 L360.369562,213.006867 L363.752131,207.34967 L360.355609,213.874014 L360.30212,217.15111 L365.212601,209.277396 L360.283903,218.294644 L360.165298,225.584186 Z" id="Fill-29" fill="#3F3D56"></path>
                    <path d="M31.0625378,159.58989 C33.5733982,159.58989 35.6086758,161.62538 35.6086758,164.136502 C35.6086758,166.647625 33.5733982,168.683502 31.0625378,168.683502 C28.5516773,168.683502 26.5163997,166.647625 26.5163997,164.136502 C26.5163997,161.62538 28.5516773,159.58989 31.0625378,159.58989" id="Fill-31" fill="#FF6584"></path>
                    <line x1="66.901912" y1="213.630616" x2="66.901912" y2="161.86149" id="Stroke-33" stroke="#3F3D56" stroke-width="2"></line>
                    <path d="M66.901912,154.540743 C70.9449477,154.540743 74.2220897,157.818227 74.2220897,161.861684 C74.2220897,165.904754 70.9449477,169.182238 66.901912,169.182238 C62.8592639,169.182238 59.5817344,165.904754 59.5817344,161.861684 C59.5817344,157.818227 62.8592639,154.540743 66.901912,154.540743" id="Fill-35" fill="#334652"></path>
                    <path d="M52.4852783,190.847394 C41.9119899,207.064252 44.8088981,227.689722 44.8088981,227.689722 C44.8088981,227.689722 64.84927,222.022835 75.4229461,205.805977 C85.9962345,189.589507 83.0989388,168.963648 83.0989388,168.963648 C83.0989388,168.963648 63.0589544,174.630536 52.4852783,190.847394" id="Fill-37" fill="#334652"></path>
                    <g id="Group-41" transform="translate(0.000000, 173.274421)">
                        <mask id="mask-4" fill="white">
                            <use xlink:href="#path-3"></use>
                        </mask>
                        <g id="Clip-40"></g>
                        <path d="M44.7528126,54.2267535 C44.7528126,54.2267535 44.4950599,54.1856638 44.021415,54.0895295 C43.6438945,54.012777 43.1233502,53.903463 42.4880769,53.7526716 C36.8089896,52.4133805 21.7097182,47.8869254 11.8383699,35.9844844 C-0.51709462,21.0813336 0.00306202496,0.259717813 0.00306202496,0.259717813 C0.00306202496,0.259717813 18.8949808,3.32942731 31.3430813,16.7134227 C31.8826178,17.2882907 32.4074257,17.8844787 32.9175047,18.5015992 C43.6683131,31.4688832 44.6706418,48.9164933 44.7500994,53.2297472 C44.7609522,53.8763283 44.7528126,54.2267535 44.7528126,54.2267535" id="Fill-39" fill="#FF7C5F" mask="url(#mask-4)"></path>
                    </g>
                    <path d="M37.1325565,190.847394 C47.7062326,207.064252 44.8089368,227.689722 44.8089368,227.689722 C44.8089368,227.689722 24.7689525,222.022835 14.1952764,205.805977 C3.62160033,189.589507 6.5188961,168.963648 6.5188961,168.963648 C6.5188961,168.963648 26.5592681,174.630536 37.1325565,190.847394 Z" id="Stroke-42" stroke="#3F3D56" stroke-width="2"></path>
                    <path d="M44.7499831,226.504091 C44.4705249,226.840949 44.2244001,227.128577 44.0216863,227.364261 C43.5724601,227.876332 43.3178082,228.144577 43.3178082,228.144577 C43.3178082,228.144577 43.0085049,227.755776 42.4883483,227.027403 C39.6321379,223.045193 30.4449002,208.886695 31.1542047,192.531838 C31.1925769,191.674382 31.2557554,190.826616 31.3433526,189.987767 C31.8825015,190.562635 32.4073094,191.158823 32.9177761,191.775943 C43.6681969,204.743227 44.6705255,222.190837 44.7499831,226.504091" id="Fill-44" fill="#000000"></path>
                    <path d="M60.4278223,193.714562 C59.5921608,213.056174 45.2355273,228.144616 45.2355273,228.144616 C45.2355273,228.144616 32.2343243,211.873877 33.0699858,192.531877 C33.9060349,173.190265 48.2622808,158.101823 48.2622808,158.101823 C48.2622808,158.101823 61.2634837,174.37295 60.4278223,193.714562" id="Fill-46" fill="#FF7C5F"></path>
                    <line x1="45.2356048" y1="227.59696" x2="48.3922037" y2="158.890745" id="Stroke-48" stroke="#3F3D56" stroke-width="2"></line>
                    <g id="Group-52" transform="translate(1.550392, 225.605623)">
                        <mask id="mask-6" fill="white">
                            <use xlink:href="#path-5"></use>
                        </mask>
                        <g id="Clip-51"></g>
                        <path d="M0.260233362,0.371125125 L0.260233362,75.1853608 L33.7874687,75.1853608 C33.7874687,51.635545 47.1495254,32.5451228 63.6325221,32.5451228 C80.1155187,32.5451228 93.4775755,51.635545 93.4775755,75.1853608 L116.345863,75.1853608 C116.345863,51.635545 129.70792,32.5451228 146.190917,32.5451228 C162.673913,32.5451228 176.03597,51.635545 176.03597,75.1853608 L198.904258,75.1853608 C198.904258,51.635545 212.266314,32.5451228 228.749311,32.5451228 C245.232308,32.5451228 258.594364,51.635545 258.594364,75.1853608 L281.462652,75.1853608 C281.462652,51.635545 294.824709,32.5451228 311.307705,32.5451228 C327.790702,32.5451228 341.152759,51.635545 341.152759,75.1853608 L374.679994,75.1853608 L374.679994,0.371125125 L0.260233362,0.371125125 Z" id="Fill-50" fill="#334652" mask="url(#mask-6)"></path>
                    </g>
                    <path d="M52.9735744,97.6682015 C62.178254,97.6682015 69.6402926,105.131018 69.6402926,114.336658 C69.6402926,123.542298 62.178254,131.005115 52.9735744,131.005115 C43.7685072,131.005115 36.3068563,123.542298 36.3068563,114.336658 C36.3068563,105.131018 43.7685072,97.6682015 52.9735744,97.6682015" id="Fill-53" fill="#FF7C5F"></path>
                    <path d="M199.538058,70.7437985 C205.828388,70.7437985 210.927628,75.843571 210.927628,82.1345567 C210.927628,88.4251547 205.828388,93.5253148 199.538058,93.5253148 C193.247728,93.5253148 188.148488,88.4251547 188.148488,82.1345567 C188.148488,75.843571 193.247728,70.7437985 199.538058,70.7437985" id="Fill-55" fill="#2F2E41"></path>
                    <path d="M194.101103,87.8890506 C194.101103,87.8890506 190.391789,96.1042739 189.331321,96.3694186 C188.271628,96.6345634 198.075922,101.404455 198.075922,101.404455 C198.075922,101.404455 199.930966,91.3343818 200.72593,90.8044799 C201.520894,90.2741904 194.101103,87.8890506 194.101103,87.8890506" id="Fill-57" fill="#FFB9B9"></path>
                    <path d="M194.101103,87.8890506 C194.101103,87.8890506 190.391789,96.1042739 189.331321,96.3694186 C188.271628,96.6345634 198.075922,101.404455 198.075922,101.404455 C198.075922,101.404455 199.930966,91.3343818 200.72593,90.8044799 C201.520894,90.2741904 194.101103,87.8890506 194.101103,87.8890506" id="Fill-59" fill="#000000"></path>
                    <polygon id="Fill-61" fill="#FFB9B9" points="172.107935 155.201318 165.218378 174.547194 172.637781 177.462236 185.356813 152.286276"></polygon>
                    <path d="M196.221149,155.731646 C196.221149,155.731646 210.000261,175.077134 210.795225,175.342279 C211.589801,175.607036 217.154934,170.837144 217.154934,170.837144 C217.154934,170.837144 210.26499,154.141165 208.145604,153.346506 C206.025442,152.55146 196.221149,155.731646 196.221149,155.731646" id="Fill-63" fill="#FFB9B9"></path>
                    <path d="M164.158375,171.102056 L153.294,199.457815 C153.294,199.457815 154.088964,201.048295 153.294,201.31344 C152.499037,201.578197 150.64438,205.818575 150.64438,206.083332 C150.64438,206.348477 148.789335,206.613234 148.789335,207.408281 C148.789335,208.203327 147.199408,214.5637 147.199408,214.5637 C147.199408,214.5637 150.114146,220.923686 151.96919,219.068835 C153.823847,217.213597 154.618811,213.503897 154.618811,213.503897 L157.268819,206.613234 C157.268819,206.613234 157.003702,202.903146 158.858746,202.373244 C160.713403,201.843342 161.773484,195.218212 161.773484,195.218212 C161.773484,195.218212 164.688222,192.302783 165.218068,191.508124 C165.748303,190.713077 175.022362,176.667383 174.227786,176.402238 C173.432822,176.137093 164.158375,171.102056 164.158375,171.102056" id="Fill-65" fill="#2F2E41"></path>
                    <path d="M209.205297,174.812261 L217.154934,169.512079 C217.154934,169.512079 230.934046,194.688039 230.934046,195.218328 C230.934046,195.74823 230.403425,197.337936 230.934046,197.868225 C231.463893,198.398127 235.968558,206.878495 238.882908,207.673154 C241.798033,208.468588 242.32788,211.648387 239.943377,212.178677 C237.558098,212.708966 234.378243,214.033915 233.583667,212.178677 C233.118549,211.087087 232.58754,210.025345 231.99374,208.99849 C231.99374,208.99849 229.343731,209.793537 229.078614,209.263635 C228.772799,208.482543 228.507682,207.686722 228.284038,206.878495 C228.284038,206.878495 226.163877,203.168019 226.163877,201.843071 C226.147985,201.068569 225.597983,200.408421 224.839066,200.253365 C224.839066,200.253365 221.924329,193.362703 220.069284,192.302899 C218.214627,191.243095 216.625088,185.942526 216.625088,185.942526 L209.205297,174.812261 Z" id="Fill-67" fill="#2F2E41"></path>
                    <path d="M199.666004,78.6137134 C203.909816,78.6137134 207.350136,82.054393 207.350136,86.2990349 C207.350136,90.5432891 203.909816,93.9843563 199.666004,93.9843563 C195.421805,93.9843563 191.981484,90.5432891 191.981484,86.2990349 C191.981484,82.054393 195.421805,78.6137134 199.666004,78.6137134" id="Fill-69" fill="#FFB9B9"></path>
                    <path d="M176.877407,132.940672 C176.877407,132.940672 169.458004,157.05644 171.047931,157.05644 C172.637859,157.05644 209.470143,158.116631 210.794953,155.996636 C212.119764,153.876253 202.580587,138.771143 202.05074,138.505998 C201.520894,138.240853 176.877407,132.940672 176.877407,132.940672" id="Fill-71" fill="#2F2E41"></path>
                    <path d="M165.483185,69.8683945 L157.533936,57.6779381 C157.533936,57.6779381 159.499446,44.8901307 156.849825,47.2752706 C154.200205,49.6604104 153.361443,59.2920649 153.361443,59.2920649 L162.568448,73.3137257 L165.483185,69.8683945 Z" id="Fill-73" fill="#FFB9B9"></path>
                    <path d="M237.558253,92.1291958 L244.712926,91.599294 C244.712926,91.599294 253.19241,82.5890241 253.722256,85.5040658 C254.252103,88.4191075 246.8327,94.7790928 246.8327,94.7790928 L237.028406,95.8392842 L237.558253,92.1291958 Z" id="Fill-75" fill="#FFB9B9"></path>
                    <path d="M185.356851,94.7792866 L185.356851,92.1293897 C185.356851,92.1293897 178.467295,87.6242547 178.732412,86.8292081 C178.997142,86.0341615 178.202566,85.503872 178.202566,85.503872 C178.202566,85.503872 177.407214,84.4440682 177.407214,84.1789235 C177.407214,83.9141664 176.347521,83.6490216 176.347521,83.6490216 L169.723082,75.9637002 C169.723082,75.9637002 166.012993,68.5435235 165.21803,68.8082806 C164.423453,69.0734254 160.183518,70.6635186 160.713364,71.7233223 C161.243599,72.7835137 176.082404,95.5743332 176.082404,95.5743332 C176.082404,95.5743332 176.877368,100.609758 178.202566,100.609758 C179.526988,100.609758 185.356851,94.7792866 185.356851,94.7792866" id="Fill-77" fill="#3F3D56"></path>
                    <path d="M203.110472,97.9595119 C203.110472,97.9595119 208.940335,97.6943671 209.205452,97.9595119 C209.470182,98.2246566 213.179883,97.9595119 213.179883,97.9595119 C213.179883,97.9595119 223.249294,95.574372 224.044258,94.7793254 C224.839221,93.9842788 238.0881,90.5393352 238.617946,92.1290408 C239.148568,93.7195217 240.473378,96.8993205 239.148568,97.42961 C237.82337,97.9595119 202.050779,106.969782 202.050779,106.969782 L203.110472,97.9595119 Z" id="Fill-79" fill="#3F3D56"></path>
                    <path d="M195.553821,65.4324917 C198.15693,65.4324917 200.266626,67.5427959 200.266626,70.1457886 C200.266626,72.7491689 198.15693,74.8590854 195.553821,74.8590854 C192.9511,74.8590854 190.841016,72.7491689 190.841016,70.1457886 C190.841016,67.5427959 192.9511,65.4324917 195.553821,65.4324917" id="Fill-81" fill="#2F2E41"></path>
                    <path d="M189.270119,67.5929175 C189.270119,65.1798677 191.092218,63.1563946 193.492225,62.9048172 C193.329047,62.8881487 193.165093,62.8796207 193.001139,62.8796207 C190.398417,62.8796207 188.288333,64.9899248 188.288333,67.5929175 C188.288333,70.1959103 190.398417,72.3062144 193.001139,72.3062144 C193.165093,72.3062144 193.329047,72.2976863 193.492225,72.2806302 C191.092218,72.0290528 189.270119,70.0059674 189.270119,67.5929175" id="Fill-83" fill="#2F2E41"></path>
                    <path d="M200.862868,75.0059229 C205.200866,75.0059229 208.717931,77.116227 208.717931,79.7192198 C208.717931,82.3226001 205.200866,84.4325166 200.862868,84.4325166 C196.525258,84.4325166 193.008193,82.3226001 193.008193,79.7192198 C193.008193,77.116227 196.525258,75.0059229 200.862868,75.0059229" id="Fill-85" fill="#2F2E41"></path>
                    <path d="M191.848926,91.996701 C191.848926,91.996701 189.464035,93.851939 188.9338,94.1166961 C188.403954,94.3818408 185.224487,91.7315562 184.69464,91.7315562 C184.164406,91.7315562 177.27485,99.6820224 177.27485,99.6820224 C177.27485,99.6820224 178.555474,101.156987 177.27485,108.692292 C176.794616,111.518177 175.842287,123.600482 175.842287,125.190576 C175.842287,126.780669 170.650411,130.688065 175.420193,134.133396 C180.189587,137.57834 202.97803,141.288816 203.243147,139.168433 C203.508264,137.048438 200.593526,131.483112 201.918337,128.833215 C203.243147,126.18293 203.243147,116.377614 203.243147,116.377614 L204.833074,106.042008 L206.157885,97.8271721 C206.157885,97.8271721 199.931121,96.1045065 199.400887,96.1045065 C198.870653,96.1045065 196.486149,99.8145948 191.848926,91.996701" id="Fill-87" fill="#3F3D56"></path>
                </g>
            </g>
        </g>
    </g>
</svg>