<svg xmlns="http://www.w3.org/2000/svg" viewBox="0 0 101.64 72"><defs><style>.cls-1{fill:#bbbecc;}.cls-2{fill:#daddee;}</style></defs><g id="Layer_2" data-name="Layer 2"><g id="OBJECTS"><rect class="cls-1" x="77.01" y="1.7" width="7.37" height="41.26" transform="translate(43.68 97.43) rotate(-79.23)"/><rect class="cls-1" x="70.95" y="33.53" width="7.37" height="41.26" transform="translate(141.79 -9.05) rotate(100.77)"/><rect class="cls-2" x="63.65" y="1.7" width="11.12" height="69.87" transform="translate(8.07 -12.29) rotate(10.77)"/><rect class="cls-2" x="21.8" y="19.67" width="5.8" height="16.7" transform="translate(43.73 60.15) rotate(-169.23)"/><path class="cls-1" d="M22.72,23.34A33.67,33.67,0,0,0,0,25.09V28A30.7,30.7,0,0,1,21.91,25.9,33.73,33.73,0,0,1,34.13,32L35,31l.88-1A36.2,36.2,0,0,0,22.72,23.34Z"/><path class="cls-2" d="M40,64.06l21.6,4.11L73.67,4.51,52.08.4A22.42,22.42,0,0,0,25.87,18.23L22.14,37.86A22.41,22.41,0,0,0,40,64.06Z"/></g></g></svg>