<?xml version="1.0" encoding="UTF-8"?>
<svg width="25px" height="25px" viewBox="0 0 25 25" version="1.1" xmlns="http://www.w3.org/2000/svg" xmlns:xlink="http://www.w3.org/1999/xlink">
    <title>download</title>
    <defs>
        <filter id="filter-1">
            <feColorMatrix in="SourceGraphic" type="matrix" values="0 0 0 0 0.697690 0 0 0 0 0.000000 0 0 0 0 1.000000 0 0 0 1.000000 0"></feColorMatrix>
        </filter>
    </defs>
    <g id="One-Faculty" stroke="none" stroke-width="1" fill="none" fill-rule="evenodd">
        <g id="Teaching-Toolkits-Resources-paper" transform="translate(-338.000000, -863.000000)">
            <g id="Group-4" transform="translate(320.000000, 848.000000)">
                <g id="download" transform="translate(18.000000, 15.000000)" filter="url(#filter-1)">
                    <g>
                        <path d="M23.6366211,1.36342773 C22.7574219,0.484228516 21.5884277,0 20.3450195,0 L4.65498047,0 C2.08818359,0 0,2.08833008 0,4.65493164 L0,20.3450195 C0,22.9117676 2.08828125,25 4.65498047,25 L20.3450195,25 C22.9117676,25 25,22.9117676 25,20.3450195 L25,4.6550293 C25,3.41162109 24.5158203,2.24262695 23.6366211,1.36342773 Z M8.09887695,10.6198242 C8.38486328,10.3338379 8.84858398,10.3338379 9.13466797,10.6198242 L11.7675781,13.2527344 L11.7674805,5.4394043 C11.7674805,5.03491211 12.0954102,4.70698242 12.4999023,4.70698242 C12.9044434,4.70698242 13.2323242,5.03491211 13.2323242,5.4394043 L13.2324219,13.2525391 L15.8651367,10.6197266 C16.151123,10.3337402 16.6148926,10.3337402 16.9009277,10.6197266 C17.1869629,10.9057129 17.1869629,11.3694824 16.9009766,11.6555176 L13.0178711,15.5387207 C12.8804688,15.676123 12.6941895,15.7532715 12.4999512,15.7532715 C12.3057617,15.7532715 12.1194336,15.676123 11.9821289,15.5387207 L8.09897461,11.6556152 C7.8128418,11.3696289 7.8128418,10.9058594 8.09887695,10.6198242 Z M19.5606445,20.2929688 L5.43945313,20.2929688 C5.03500977,20.2929688 4.70703125,19.9650391 4.70703125,19.5605469 C4.70703125,19.1560547 5.03500977,18.828125 5.43945313,18.828125 L19.5605957,18.828125 C19.9650391,18.828125 20.2930176,19.1560547 20.2930176,19.5605469 C20.2930176,19.9650391 19.9650879,20.2929688 19.5606445,20.2929688 Z" id="Shape" fill="#000000" fill-rule="nonzero"></path>
                    </g>
                </g>
            </g>
        </g>
    </g>
</svg>