<?xml version="1.0" encoding="UTF-8"?>
<svg width="46px" height="46px" viewBox="0 0 46 46" version="1.1" xmlns="http://www.w3.org/2000/svg" xmlns:xlink="http://www.w3.org/1999/xlink">
    <title>speedometer copy</title>
    <g id="R3" stroke="none" stroke-width="1" fill="none" fill-rule="evenodd">
        <g id="Skills-Check---In-Progress" transform="translate(-381.000000, -456.000000)">
            <g id="Skills-Check-Tests" transform="translate(337.000000, 380.000000)">
                <g id="Card/Test/Default---Long-title-Copy" transform="translate(0.000000, 36.000000)">
                    <g id="Group-8" transform="translate(28.000000, 28.000000)">
                        <g id="speedometer-copy" transform="translate(16.000000, 12.000000)">
                            <path d="M23,46 C10.31738,46 0,35.68213 0,23 C0,10.31787 10.31738,0 23,0 C35.68262,0 46,10.31787 46,23 C46,35.68213 35.68262,46 23,46 Z" id="Path" fill="#444444" fill-rule="nonzero"></path>
                            <path d="M23,26 C21.3457452,26 20,24.6541909 20,23 C20,21.3458091 21.3457452,20 23,20 C24.6542548,20 26,21.3458091 26,23 C26,24.6541909 24.6542548,26 23,26 Z" id="Path" fill="#FFFFFF" fill-rule="nonzero" opacity="0.200000003"></path>
                            <path d="M34,33 C36.4953516,30.4910836 38,26.9212566 38,23 C38,14.7157288 31.2842712,8 23,8 C14.7157288,8 8,14.7157288 8,23 C8,26.8824754 9.47503371,30.4204382 12,33" id="Path" stroke="#FFFFFF" stroke-width="4" opacity="0.100000001" stroke-linecap="round" transform="translate(23.000000, 20.500000) scale(-1, 1) translate(-23.000000, -20.500000) "></path>
                        </g>
                    </g>
                </g>
            </g>
        </g>
    </g>
</svg>