<svg xmlns="http://www.w3.org/2000/svg" viewBox="0 0 333.03 231.19"><defs><style>.cls-1{fill:#f9c035;}.cls-2{fill:#f2f2f2;}.cls-3{fill:#3f3d56;}.cls-4{fill:#334652;}.cls-5{fill:#2f2e41;}.cls-6{fill:#fff;}.cls-7{fill:#bc8a19;}</style></defs><g id="Layer_2" data-name="Layer 2"><g id="a706cf1c-1654-439b-8fcf-310eb7aa0e00"><circle class="cls-1" cx="63.18" cy="30.61" r="19.02"/><path class="cls-2" d="M155.72,102c0,44.88-26.68,60.55-59.59,60.55S36.54,146.85,36.54,102,96.13,0,96.13,0,155.72,57.09,155.72,102Z"/><polygon class="cls-3" points="93.96 155.66 94.57 118.1 119.97 71.63 94.67 112.21 94.94 95.32 112.45 61.7 95.01 90.85 95.01 90.85 95.51 60.47 114.25 33.71 95.58 55.7 95.89 0 93.95 73.73 94.11 70.69 75.06 41.52 93.81 76.53 92.03 110.45 91.98 109.55 70.01 78.85 91.91 112.73 91.69 116.98 91.65 117.04 91.67 117.39 87.16 203.46 93.18 203.46 93.91 159 115.76 125.2 93.96 155.66"/><path class="cls-2" d="M333,120.36c0,36.73-21.84,49.56-48.78,49.56s-48.77-12.83-48.77-49.56,48.77-83.48,48.77-83.48S333,83.62,333,120.36Z"/><polygon class="cls-3" points="282.48 164.3 282.98 133.55 303.77 95.52 283.06 128.73 283.28 114.91 297.61 87.39 283.34 111.25 283.34 111.25 283.74 86.39 299.09 64.48 283.81 82.48 284.06 36.88 282.47 97.24 282.6 94.75 267 70.87 282.35 99.53 280.9 127.3 280.86 126.56 262.87 101.43 280.8 129.16 280.62 132.64 280.59 132.69 280.6 132.97 276.92 203.42 281.84 203.42 282.43 167.03 300.32 139.37 282.48 164.3"/><ellipse class="cls-4" cx="164.82" cy="202.23" rx="164.82" ry="8.33"/><ellipse class="cls-3" cx="265.23" cy="216" rx="28.23" ry="1.43"/><ellipse class="cls-3" cx="163.08" cy="229.77" rx="28.23" ry="1.43"/><ellipse class="cls-3" cx="85.58" cy="218.22" rx="64.5" ry="3.26"/><circle class="cls-5" cx="28.85" cy="168.29" r="23.48"/><rect class="cls-5" x="15.04" y="189.46" width="12.78" height="7.13" transform="translate(-171.83 212.17) rotate(-89.32)"/><rect class="cls-5" x="29.3" y="189.62" width="12.78" height="7.13" transform="translate(-157.9 226.6) rotate(-89.32)"/><ellipse class="cls-5" cx="23.73" cy="199.59" rx="2.23" ry="5.94" transform="translate(-176.13 220.96) rotate(-89.32)"/><ellipse class="cls-5" cx="38" cy="199.46" rx="2.23" ry="5.94" transform="translate(-161.9 235.1) rotate(-89.32)"/><circle class="cls-6" cx="29.52" cy="162.36" r="8.02"/><circle class="cls-3" cx="29.52" cy="162.36" r="2.67"/><path class="cls-7" d="M6.34,146.19c-1.8-8.51,4.36-17,13.76-19S38.56,130.5,40.36,139s-4.45,11.57-13.85,13.56S8.13,154.7,6.34,146.19Z"/><path class="cls-7" d="M64.67,181.39c0,16.37-9.73,22.08-21.74,22.08H42.1c-.56,0-1.11,0-1.65-.07-10.83-.77-19.25-6.78-19.25-22,0-15.75,20.13-35.63,21.64-37.1h0l.08-.08S64.67,165,64.67,181.39Z"/><path class="cls-3" d="M42.14,201l8-11.11-8,12.33,0,1.27c-.56,0-1.11,0-1.65-.07L41.31,187v-.15l.08-1.54-8-12.36,8,11.2,0,.32.65-12.37-6.84-12.77,6.92,10.6.67-25.65v0l-.12,20.23,6.81-8-6.83,9.76-.18,11.08,6.35-10.63L42.5,179l-.1,6.16,9.23-14.8-9.27,17Z"/><circle class="cls-5" cx="211.75" cy="168.04" r="23.48"/><rect class="cls-5" x="208.65" y="187.46" width="7.13" height="12.78" transform="translate(-47.58 70.9) rotate(-17.08)"/><rect class="cls-5" x="222.29" y="183.28" width="7.13" height="12.78" transform="translate(-45.75 74.72) rotate(-17.08)"/><ellipse class="cls-5" cx="216.41" cy="199.41" rx="5.94" ry="2.23" transform="matrix(0.96, -0.29, 0.29, 0.96, -49.03, 72.37)"/><ellipse class="cls-5" cx="229.96" cy="194.93" rx="5.94" ry="2.23" transform="translate(-47.12 76.16) rotate(-17.08)"/><circle class="cls-6" cx="210.57" cy="162.18" r="8.02"/><circle class="cls-3" cx="210.57" cy="162.18" r="2.67"/><path class="cls-7" d="M183.56,153.86c-4.3-7.56-1-17.54,7.31-22.29s18.6-2.48,22.91,5.08-.72,12.37-9.06,17.12S187.87,161.42,183.56,153.86Z"/><path class="cls-7" d="M169.87,178.39c0,15-8.93,20.27-20,20.27h-.76c-.51,0-1,0-1.52-.07-9.94-.71-17.67-6.22-17.67-20.2,0-14.46,18.48-32.71,19.87-34.06h0a.45.45,0,0,0,.08-.08S169.87,163.37,169.87,178.39Z"/><path class="cls-3" d="M149.2,196.37l7.29-10.2-7.31,11.32,0,1.17c-.51,0-1,0-1.52-.07l.79-15v-.11l0,0,.07-1.42-7.33-11.35,7.35,10.28,0,.3.6-11.36-6.28-11.72,6.35,9.73.62-23.55v0l-.1,18.57,6.25-7.36-6.28,9-.16,10.17,5.83-9.76-5.86,11.25-.09,5.66,8.47-13.59-8.5,15.56Z"/><path class="cls-7" d="M248.33,184.66c0,16.37-9.73,22.08-21.73,22.08h-.83c-.56,0-1.11,0-1.65-.07-10.84-.77-19.25-6.78-19.25-22,0-15.75,20.13-35.63,21.64-37.1h0l.09-.08S248.33,168.29,248.33,184.66Z"/><path class="cls-3" d="M225.81,204.24l7.95-11.11-8,12.33,0,1.27c-.56,0-1.11,0-1.65-.07l.85-16.38v-.15l.08-1.55-8-12.35,8,11.19v.33l.65-12.37-6.84-12.77,6.93,10.6.67-25.65v0l-.11,20.23,6.81-8-6.84,9.76-.18,11.08L232.55,170l-6.38,12.26-.11,6.16,9.23-14.8L226,190.54Z"/><ellipse class="cls-5" cx="202.63" cy="177.06" rx="3.69" ry="11.74" transform="translate(-44.18 284.27) rotate(-64.63)"/><ellipse class="cls-5" cx="21.64" cy="175.58" rx="3.69" ry="11.74" transform="translate(-149.38 130.34) rotate(-68.16)"/></g></g></svg>