<svg xmlns="http://www.w3.org/2000/svg" width="400" height="400" viewBox="0 0 400 400"><path fill="#323232" d="M40.3 223.4c0 2 1.5 8.5 3.5 16.1.6 2.1 1.2 4.3 1.8 6.6 1.7 6 3.5 12 5 16.6 35.2 74.5 95.2 99.3 149 99.3 86.9 0 161.4-68.3 161.4-161.4 0-59.7-32.3-112.6-82.7-139.9C255 47.5 228.1 40 199.3 40 110.8 40 39 111.8 39 200.3c0 7 .4 13.8 1.3 20.6v2.5zm89-76.6H77.6c12.4-37.2 57.9-72.4 91-76.6-18.6 20.8-33.1 53.9-39.3 76.6zM212 91c12.4 16.6 22.8 37.2 29 55.9-16.6 4.1-26.9 29-41.4 43.4l-41.4-43.4c4.1-14.5 24.8-68.3 41.4-68.3 6.2 0 10.4 8.2 12.4 12.4zm37.3 151H150c-2.1-8.3 0-55.9 0-64.1 6.2 6.2 41.4 45.5 49.7 45.5 12.4 0 45.5-45.5 49.7-49.7-.1 18.6 8.2 41.4-.1 68.3zm-6.2 26.9c-6.2 10.3-26.9 55.9-43.4 55.9-14.5 0-41.4-53.8-41.4-55.9h84.8zM164 330.5c-33.4-9.1-61.7-30.6-79.4-59.4-.3-.7-.5-1.4-.8-2.2h45.5c6.1 20.5 14.3 41 34.7 61.6zm151.5-61.6c-8.5 14.4-19.6 27.1-32.7 37.4-1.3 1-2.7 2.1-4 3.1-12.5 9.2-26.7 16.2-42 20.6 15.4-24.9 25.4-39.2 35.3-61l43.4-.1zm16-95.2c1.7 8.6 2.6 17.5 2.6 26.6 0 14.5-2.3 28.5-6.6 41.7h-49.4c0-2.1 2.1-6.2 2.1-47.6 0-8.3-2.1-14.5-4.1-20.7h55.4zM245.3 73.6c2.4.9 4.7 1.8 7 2.8 14.2 6.2 29.9 16.8 43.1 29.4 11.6 11.8 21.1 25.7 27.7 41.1h-53.2c-8.3-22.8-18.6-55.9-39.3-76.6 4.5.3 9.4 1.4 14.7 3.3zM66 180.4c.3-2.2.7-4.5 1.2-6.7h53.9c0 20.7-2.1 39.3 0 68.3H71.3c-2.1-12.4-6.2-35.2-6.2-41.4 0-3.1 1.2-12.3.9-20.2zm-22.2 59.1z"/></svg>