<?xml version="1.0" encoding="UTF-8"?>
<svg width="32px" height="32px" viewBox="0 0 32 32" version="1.1" xmlns="http://www.w3.org/2000/svg" xmlns:xlink="http://www.w3.org/1999/xlink">
    <title>Group 6</title>
    <g id="Welcome" stroke="none" stroke-width="1" fill="none" fill-rule="evenodd">
        <g id="link-LMS" transform="translate(-489.000000, -633.000000)">
            <g id="Group-5" transform="translate(468.000000, 615.000000)">
                <g id="Group-6" transform="translate(21.000000, 18.000000)">
                    <circle id="Oval" fill="#FE6A16" fill-rule="nonzero" transform="translate(16.000000, 16.000000) scale(1, -1) translate(-16.000000, -16.000000) " cx="16" cy="16" r="16"></circle>
                    <g id="Group" transform="translate(16.000000, 16.500000) scale(1, -1) translate(-16.000000, -16.500000) translate(5.000000, 6.000000)">
                        <path d="M6.3220425,11.4739825 L3.89761803,13.8460614 C2.95636571,14.7669912 2.95636571,16.2655439 3.89761803,17.1865351 C4.83893311,18.1075263 6.37055484,18.1075263 7.31180716,17.1865351 L9.73623164,14.8144561 C8.96938525,14.5541667 8.24960776,14.1248947 7.63821423,13.5267018 C7.02682071,12.9284474 6.58807588,12.2242719 6.3220425,11.4739825 Z" id="Path"></path>
                        <path d="M15.1413721,9.52601754 L17.5657966,7.1539386 C18.5070489,6.23300877 18.5070489,4.73445614 17.5657966,3.81346491 C16.6244815,2.89247368 15.0928598,2.89247368 14.1516075,3.81346491 L11.727183,6.18554386 C12.4940294,6.44583333 13.2138069,6.87510526 13.8252004,7.47329825 C14.4365939,8.07155263 14.8753388,8.77572807 15.1413721,9.52601754 L15.1413721,9.52601754 Z" id="Path"></path>
                        <ellipse id="Oval" transform="translate(10.728256, 10.500000) rotate(-45.000000) translate(-10.728256, -10.500000) " cx="10.7282556" cy="10.5" rx="1.22358571" ry="2.08416108"></ellipse>
                        <path d="M11.727183,6.18554386 L9.85710455,8.01524561 C9.55504778,8.3107807 9.34995293,8.66581579 9.24175724,9.04215789 C10.0557353,8.81815789 10.9671773,9.01882456 11.6063728,9.6442807 C12.2456312,10.2697368 12.450726,11.1615 12.2217829,11.9578421 C12.1135872,12.3341842 11.9084924,12.6891579 11.6064356,12.9847544 L9.73635715,14.8144561 L7.31193268,17.1865351 C6.37068036,18.1074649 4.83905862,18.1074649 3.89774355,17.1865351 C2.95642847,16.2655439 2.95642847,14.7669912 3.89774355,13.8460614 L6.32216802,11.4739825 C5.77052061,9.91826316 5.96136928,8.16433333 6.89471402,6.74572807 C6.56818143,6.95142982 6.25897019,7.19391228 5.97341891,7.47329825 L1.67891599,11.6750789 C-0.48587648,13.7931316 -0.485813721,17.2394035 1.67891599,19.3574561 C3.8436457,21.4755088 7.36603052,21.4755088 9.53082299,19.3574561 L13.8253259,15.1556754 C14.1108772,14.8762895 14.3587734,14.5738158 14.5689516,14.2542719 C15.5022964,12.8357281 15.6930823,11.0817982 15.1414976,9.52601754 C14.8754643,8.77572807 14.4367194,8.07149123 13.8253259,7.47329825 C13.2137441,6.87510526 12.4940294,6.44583333 11.727183,6.18554386 L11.727183,6.18554386 Z" id="Path" fill="#FFCE00" fill-rule="nonzero"></path>
                        <path d="M11.6063101,9.6442807 C12.2455684,10.2697368 12.4506632,11.1615 12.2217202,11.9579035 C12.1135245,12.3342456 11.9084296,12.6892193 11.6063728,12.9847544 L9.73629439,14.8144561 L7.31186992,17.1865351 C6.3706176,18.1074649 4.83899586,18.1074649 3.89768079,17.1865351 C3.88261874,17.1717982 3.86692911,17.1560175 3.85230638,17.1409737 L1.63573813,19.3148421 C1.6506119,19.3297632 1.66372843,19.3427193 1.67885323,19.3574561 C3.8436457,21.4755088 7.36596776,21.4755088 9.53076023,19.3574561 L13.8252632,15.1556754 C14.1108144,14.8762895 14.3587106,14.5737544 14.5688889,14.2542719 C15.5022336,12.8357281 15.6930195,11.0817368 15.1414349,9.52601754 C14.8754015,8.77572807 14.4366567,8.07149123 13.8252632,7.47329825 L11.6063101,9.6442807 Z" id="Path" fill="#FDBA12" fill-rule="nonzero"></path>
                        <path d="M11.9327172,1.64254386 L7.63821423,5.84432456 C7.35266296,6.12371053 7.1047668,6.42618421 6.8945885,6.74572807 C5.96124376,8.16427193 5.77045785,9.91820175 6.3220425,11.4739825 C6.58807588,12.2242719 7.02682071,12.9285088 7.63821423,13.5267018 C8.24967052,14.1249561 8.96938525,14.5541667 9.73623164,14.8144561 L11.6063101,12.9847544 C11.9083669,12.6892193 12.1134617,12.3341842 12.2216574,11.9578421 C11.4076794,12.1818421 10.4962373,11.9811754 9.85704179,11.3557193 C9.21778348,10.7302632 9.01268863,9.8385 9.24163172,9.04215789 C9.34982741,8.66581579 9.55492227,8.3107807 9.85697903,8.01524561 L11.7270575,6.18554386 L14.151482,3.81346491 C15.0927343,2.89253509 16.624356,2.89253509 17.5656711,3.81346491 C18.5069862,4.73445614 18.5069862,6.23300877 17.5656711,7.1539386 L15.1412466,9.52601754 C15.692894,11.0817368 15.5020454,12.8357281 14.5687006,14.2542719 C14.8952332,14.0485702 15.2044444,13.8060877 15.4899957,13.5267018 L19.7844986,9.32492105 C21.9492911,7.20686842 21.9492284,3.76059649 19.7844986,1.64254386 C17.6197689,-0.475508772 14.0975096,-0.475508772 11.9327172,1.64254386 L11.9327172,1.64254386 Z" id="Path" fill="#FFFFFF" fill-rule="nonzero"></path>
                        <g transform="translate(7.593781, 1.596491)" fill="#E9EDF5" fill-rule="nonzero" id="Path">
                            <path d="M0.0444330338,11.9302105 C0.655889317,12.5284035 1.37560405,12.9576754 2.14245044,13.2179649 L4.01252888,11.3882632 C4.31458565,11.0927281 4.5196805,10.737693 4.62787619,10.3614123 C3.81389816,10.5854123 2.90245614,10.3847456 2.26326059,9.75928947 L0.0444330338,11.9302105 Z"></path>
                            <path d="M9.9720154,2.21697368 C10.9133305,3.13796491 10.9133305,4.63651754 9.9720154,5.55744737 L7.54759093,7.92952632 C8.09923834,9.48524561 7.90838967,11.2392368 6.97504493,12.6577807 C7.30157752,12.4520789 7.61078876,12.2095965 7.89634004,11.9302105 L12.190843,7.72842982 C14.3556354,5.6104386 14.3556354,2.16410526 12.190843,0.0460526316 L9.9720154,2.21697368 Z"></path>
                        </g>
                    </g>
                </g>
            </g>
        </g>
    </g>
</svg>