<?xml version="1.0" encoding="utf-8"?>
<!-- Generator: Adobe Illustrator 24.2.3, SVG Export Plug-In . SVG Version: 6.00 Build 0)  -->
<svg version="1.1" id="Layer_1" xmlns="http://www.w3.org/2000/svg" xmlns:xlink="http://www.w3.org/1999/xlink" x="0px" y="0px"
	 viewBox="0 0 180 50" style="enable-background:new 0 0 180 50;" xml:space="preserve">
<style type="text/css">
	.st0{fill:#FF7C5F;}
</style>
<path class="st0" d="M57.6,27.5c-1.3,0-2.5-0.5-3.3-1.5c-0.9-1.2-1.3-2.7-1.2-4.2c-0.1-1.5,0.3-3,1.2-4.2c0.8-1,2-1.6,3.3-1.5
	c1.3,0,2.5,0.5,3.2,1.5c0.9,1.2,1.3,2.8,1.2,4.3c0.1,1.5-0.3,3-1.2,4.2C60,27,58.8,27.5,57.6,27.5L57.6,27.5z M65.3,21.8
	c0-3-0.8-5.2-2.5-6.6c-1.4-1.3-3.4-2-5.3-1.9c-2-0.1-3.9,0.5-5.3,1.9c-1.6,1.5-2.5,3.7-2.5,6.6c-0.2,2.5,0.7,4.9,2.5,6.6
	c1.4,1.3,3.4,2,5.3,1.9c2,0.1,3.9-0.5,5.3-1.9C64.6,26.7,65.5,24.2,65.3,21.8L65.3,21.8z M73.6,17.6c-0.9,0-1.7,0.2-2.4,0.7
	c-0.4,0.4-0.8,0.8-1.1,1.3v-1.7H67V30h3.1v-6.6c0-0.6,0.1-1.3,0.3-1.9c0.4-0.9,1.3-1.5,2.2-1.4c0.7-0.1,1.4,0.3,1.8,1
	c0.2,0.5,0.3,1,0.2,1.5V30h3.1v-8.2c0.1-1.2-0.3-2.4-1.1-3.3C75.7,17.8,74.7,17.5,73.6,17.6L73.6,17.6z M85.2,20.1
	c0.7,0,1.3,0.2,1.8,0.6c0.5,0.5,0.8,1.2,0.8,1.9h-5.3c0.1-0.7,0.4-1.3,0.8-1.9C83.9,20.3,84.5,20.1,85.2,20.1L85.2,20.1z M85.2,17.6
	c-1.6-0.1-3.1,0.6-4.1,1.7c-1.1,1.3-1.7,3-1.6,4.8c0,2.2,0.6,3.8,1.8,4.8c1.1,1,2.6,1.5,4.1,1.5c1.6,0.1,3.2-0.6,4.3-1.7
	c0.6-0.6,1-1.3,1.1-2.1h-2.9c-0.2,0.3-0.4,0.6-0.6,0.8c-0.5,0.4-1.1,0.5-1.7,0.5c-1.5,0.1-2.8-1.1-2.9-2.6c0-0.1,0-0.3,0-0.4H91
	c0-0.8,0-1.6-0.1-2.4c-0.1-0.9-0.4-1.7-0.9-2.5c-0.5-0.8-1.2-1.4-2-1.8C87.1,17.7,86.1,17.5,85.2,17.6L85.2,17.6L85.2,17.6z
	 M92.2,21.8c-0.1,2.2,0.6,4.5,2,6.2c1.4,1.5,3.4,2.4,5.5,2.2c1.7,0.1,3.3-0.5,4.6-1.6c1.2-1.1,2-2.6,2.2-4.2h-3.3
	c-0.2,0.7-0.5,1.3-0.9,1.9c-0.7,0.8-1.7,1.3-2.8,1.2c-1.1,0-2.2-0.5-2.9-1.4c-0.8-1.2-1.3-2.7-1.1-4.2c-0.1-1.5,0.3-3,1.1-4.3
	c0.7-1,1.8-1.6,3-1.5c1.1-0.1,2.1,0.4,2.8,1.1c0.4,0.6,0.7,1.2,0.9,1.9h3.3c-0.1-1.1-0.5-2.2-1.1-3.1c-2.5-3.2-7.2-3.8-10.4-1.2
	c0,0,0,0,0,0c-0.2,0.1-0.3,0.3-0.5,0.4C92.8,17,92,19.4,92.2,21.8L92.2,21.8z M115.3,25c0.1,0.8-0.3,1.6-0.9,2.1
	c-0.6,0.4-1.2,0.6-1.9,0.6c-0.4,0-0.8-0.1-1.1-0.4c-0.3-0.3-0.5-0.7-0.4-1.1c0-0.5,0.3-1,0.7-1.3c0.5-0.2,0.9-0.4,1.4-0.4l0.7-0.1
	c0.3,0,0.6-0.1,0.8-0.2c0.2-0.1,0.4-0.2,0.6-0.3L115.3,25L115.3,25z M112.3,22.7c-1,0.1-1.9,0.3-2.7,0.8c-1.1,0.7-1.8,1.9-1.7,3.2
	c-0.1,1,0.3,2,1,2.6c0.7,0.6,1.7,1,2.7,0.9c0.8,0,1.6-0.2,2.2-0.6c0.6-0.4,1-0.8,1.5-1.3c0,0.3,0,0.6,0.1,0.9c0,0.3,0.1,0.5,0.2,0.8
	h3.5v-0.5c-0.2-0.1-0.4-0.2-0.6-0.3c-0.1-0.2-0.2-0.5-0.2-0.7v-7c0.1-1.2-0.5-2.4-1.5-3c-1.1-0.6-2.3-0.8-3.5-0.8
	c-2,0-3.5,0.5-4.3,1.5c-0.6,0.7-0.9,1.6-0.9,2.5h3.1c0.1-0.4,0.2-0.7,0.4-1c0.4-0.4,1-0.6,1.6-0.5c0.5,0,1.1,0.1,1.5,0.3
	c0.4,0.2,0.6,0.6,0.5,1c0,0.4-0.3,0.8-0.7,0.9c-0.4,0.1-0.8,0.2-1.2,0.3L112.3,22.7L112.3,22.7z M134,17.6c-0.7,0-1.5,0.2-2.1,0.5
	c-0.6,0.3-1.1,0.9-1.5,1.5c-0.2-0.5-0.6-1-1-1.4c-1.4-0.8-3.2-0.8-4.6,0.1c-0.4,0.4-0.8,0.8-1.1,1.3v-1.7h-2.8V30h3.1v-7.5
	c0-0.5,0.1-1,0.2-1.5c0.4-0.6,1.1-1,1.8-0.9c0.7-0.1,1.3,0.3,1.6,0.9c0.2,0.5,0.2,1.1,0.2,1.6V30h3.1v-7.4c0-0.5,0.1-1,0.2-1.4
	c0.3-0.7,1-1.2,1.8-1.1c0.6-0.1,1.3,0.3,1.6,0.9c0.2,0.4,0.2,0.8,0.2,1.2V30h3.1v-7.7c0-0.6,0-1.2-0.1-1.8c-0.1-0.6-0.3-1.1-0.7-1.6
	c-0.4-0.4-0.8-0.8-1.4-1C135,17.7,134.5,17.6,134,17.6L134,17.6z M148.8,23.8c0.1,1-0.2,2-0.7,2.9c-0.4,0.7-1.2,1-2,1
	c-0.6,0-1.1-0.2-1.6-0.5c-0.7-0.8-1.1-1.9-1-3c0-0.8,0.1-1.6,0.3-2.3c0.3-1,1.3-1.7,2.3-1.7c0.8,0,1.6,0.4,2,1.1
	C148.6,22,148.8,22.9,148.8,23.8L148.8,23.8z M147,17.6c-0.9,0-1.7,0.2-2.4,0.7c-0.4,0.3-0.7,0.7-1,1.1v-1.6h-3.1v16.8h3.1v-6.1
	c0.3,0.4,0.6,0.8,1,1.1c0.7,0.5,1.5,0.7,2.4,0.7c1.4,0,2.8-0.6,3.6-1.7c1-1.4,1.5-3.1,1.4-4.9c0.1-1.7-0.4-3.3-1.4-4.6
	C149.7,18.1,148.4,17.6,147,17.6L147,17.6z M154.9,18v7.4c-0.1,1.1,0.1,2.2,0.5,3.2c0.6,1.3,1.8,1.9,3.6,1.9c0.6,0,1.1-0.1,1.6-0.2
	c0.5-0.2,1-0.5,1.5-0.9c0.2-0.1,0.3-0.3,0.4-0.5l0.2-0.3v1.6h2.8V18h-3.1v6.7c0,0.6-0.1,1.3-0.3,1.9c-0.4,0.9-1.3,1.4-2.2,1.3
	c-0.7,0.1-1.4-0.3-1.7-0.9c-0.2-0.5-0.3-1-0.2-1.6V18H154.9L154.9,18z M166.5,26c0,1.1,0.5,2.2,1.4,3c1.2,0.9,2.7,1.3,4.2,1.2
	c1.4,0.1,2.9-0.3,4.1-1.1c0.9-0.7,1.4-1.8,1.3-2.9c0-0.8-0.3-1.7-0.9-2.2c-0.8-0.7-1.8-1.1-2.8-1.3c-1.2-0.2-2.3-0.5-3.4-0.8
	c-0.3-0.1-0.5-0.4-0.5-0.7c0-0.3,0.2-0.6,0.5-0.7c0.5-0.2,1-0.4,1.6-0.3c0.7-0.1,1.4,0.2,1.9,0.6c0.2,0.3,0.3,0.6,0.4,0.9h3.1
	c0-1.3-0.6-2.4-1.7-3.2c-1.1-0.7-2.4-1-3.7-0.9c-1.4-0.1-2.7,0.3-3.8,1.2c-0.8,0.7-1.3,1.7-1.3,2.8c-0.1,0.8,0.3,1.6,0.8,2.1
	c0.9,0.7,1.9,1.1,3,1.2c1.2,0.2,2.3,0.5,3.4,0.9c0.4,0.2,0.6,0.8,0.3,1.2c-0.1,0.2-0.3,0.3-0.5,0.4c-0.5,0.2-1,0.3-1.6,0.3
	c-0.8,0.1-1.6-0.1-2.3-0.6c-0.3-0.3-0.4-0.7-0.4-1.2L166.5,26L166.5,26z M141.9,39.7c-0.2,0-0.3,0-0.5,0.1c-0.1,0.1-0.2,0.1-0.3,0.2
	v-1.1h-0.5V42h0.5v-0.3c0.1,0.1,0.1,0.2,0.2,0.2c0.4,0.2,0.9,0.1,1.3-0.2c0.2-0.2,0.3-0.5,0.3-0.8c0-0.3-0.1-0.6-0.3-0.8
	C142.5,39.8,142.2,39.7,141.9,39.7L141.9,39.7z M141.8,41.5c-0.2,0-0.4,0-0.5-0.2c-0.1-0.1-0.2-0.3-0.2-0.5c0-0.1,0-0.3,0.1-0.4
	c0.2-0.3,0.7-0.4,1-0.1c0.1,0,0.1,0.1,0.1,0.1c0.1,0.1,0.1,0.2,0.1,0.4c0,0.2,0,0.3-0.2,0.5C142.2,41.4,142,41.5,141.8,41.5
	L141.8,41.5z M143.1,43h0.4c0.2,0,0.5,0,0.7-0.2c0.2-0.3,0.3-0.6,0.4-0.9l0.7-2.2h-0.5l-0.6,1.7l-0.6-1.7h-0.5l0.7,2.3
	c0.2,0,0.2,0.1,0.2,0.2c0,0.1-0.1,0.2-0.2,0.2c-0.1,0-0.2,0.1-0.3,0.1h-0.5L143.1,43L143.1,43z M147.3,42.8h3.1V42H148v-3.1h-0.8
	L147.3,42.8L147.3,42.8z M152.9,39.8l0.5,1.4h-1L152.9,39.8L152.9,39.8z M151,42.8h0.8l0.3-0.8h1.6l0.2,0.8h0.8l-1.5-3.8h-0.7
	L151,42.8z M155.2,41.2c0,0.3,0.1,0.6,0.2,0.9c0.9,0.8,2.3,0.8,3.1,0c0.2-0.3,0.2-0.6,0.2-0.9v-2.3H158v2.2c0,0.2,0,0.4-0.1,0.5
	c-0.5,0.4-1.3,0.4-1.8,0c-0.1-0.2-0.1-0.4-0.1-0.5v-2.2h-0.8L155.2,41.2L155.2,41.2z M161.4,39.7c0.2,0,0.4,0,0.5,0.1
	c0.2,0.1,0.3,0.3,0.3,0.5c0,0.2-0.1,0.4-0.3,0.4c-0.2,0-0.4,0.1-0.5,0.1h-1.2v-1L161.4,39.7z M161.6,38.9h-2.1v3.8h0.8v-1.3h1.2
	c0.2,0,0.5,0,0.7,0.1c0.1,0.1,0.2,0.3,0.2,0.4v0.8h0.8V42c0-0.2,0-0.4-0.1-0.5c-0.1-0.2-0.2-0.3-0.4-0.3c0.2-0.1,0.4-0.2,0.4-0.4
	c0.1-0.2,0.1-0.4,0.1-0.6c0-0.2,0-0.3-0.1-0.4c-0.1-0.1-0.1-0.2-0.2-0.3c-0.1-0.1-0.3-0.2-0.4-0.3C162.1,39,161.8,39,161.6,38.9
	L161.6,38.9z M167,38.9h-3.4v3.8h3.5V42h-2.4v-0.8h2.1v-0.8h-2.1v-0.8h2.3C167,39.7,167,38.9,167,38.9z M169.5,39.8l0.5,1.4h-1
	L169.5,39.8L169.5,39.8z M167.6,42.8h0.8l0.3-0.8h1.6l0.3,0.8h0.8l-1.5-3.8h-0.7L167.6,42.8L167.6,42.8z M171.6,38.9v0.8h1.3v3h0.8
	v-3h1.3v-0.8L171.6,38.9z M178.9,38.9h-3.4v3.8h3.5V42h-2.4v-0.8h2.1v-0.8h-2.1v-0.8h2.3L178.9,38.9L178.9,38.9z M0.7,23.8
	c0.1,0.7,0.2,1.3,0.4,2l0.2,0.8c0.2,0.8,0.4,1.5,0.7,2.1c4.5,9.5,12.1,12.6,19,12.6c11.3,0.1,20.5-9,20.6-20.2V21
	c0-7.4-4-14.3-10.6-17.8C21.2-2.4,8.8,1,3.2,10.8C1,14.7,0.1,19.1,0.7,23.5V23.8z M12,14.1H5.4C7,9.4,12.8,4.9,17.1,4.3
	C14.7,7.2,13,10.5,12,14.1z M22.6,7c1.6,2.2,2.8,4.6,3.7,7.1c-2.1,0.5-3.4,3.7-5.3,5.5l-5.3-5.5c0.6-1.9,3.2-8.7,5.3-8.7
	C21.8,5.4,22.4,6.4,22.6,7L22.6,7z M27.4,26.2H14.7c-0.3-1,0-7.1,0-8.1c0.8,0.8,5.3,5.8,6.3,5.8c1.6,0,5.8-5.8,6.3-6.3
	C27.3,19.9,28.4,22.8,27.4,26.2L27.4,26.2z M26.6,29.6c-0.8,1.3-3.4,7.1-5.5,7.1c-1.9,0-5.3-6.8-5.3-7.1L26.6,29.6z M16.5,37.5
	c-4.2-1.1-7.9-3.9-10.2-7.6l-0.1-0.3H12C12.8,32.6,14.3,35.3,16.5,37.5L16.5,37.5z M35.8,29.6c-1.1,1.8-2.5,3.4-4.2,4.8l-0.5,0.4
	c-1.6,1.2-3.4,2.1-5.4,2.6c1.7-2.5,3.2-5.1,4.5-7.8C30.2,29.6,35.8,29.6,35.8,29.6z M37.8,17.5c0.6,2.9,0.4,5.9-0.5,8.7H31
	c0.3-2,0.4-4.1,0.3-6.1c0-0.9-0.2-1.8-0.5-2.6L37.8,17.5L37.8,17.5z M26.8,4.8l0.9,0.3c2,0.9,3.9,2.2,5.5,3.8
	c1.5,1.5,2.7,3.3,3.5,5.2H30c-1-2.9-2.4-7.1-5-9.8C25.6,4.4,26.2,4.5,26.8,4.8L26.8,4.8z M4,18.3c0.1-0.3,0.1-0.5,0.1-0.8H11
	c0,2.6-0.3,5,0,8.7H4.6c-0.3-1.6-0.8-4.5-0.8-5.3C3.8,20.5,4,19.3,4,18.3z M1.1,25.9c0.1,0.3,0.1,0.6,0.2,0.8L1.1,25.9z M177.9,14.8
	c0.2,0,0.5,0.1,0.7,0.2c0.2,0.1,0.4,0.3,0.5,0.5c0.3,0.4,0.3,1,0,1.4c-0.1,0.2-0.3,0.4-0.5,0.5c-0.4,0.2-1,0.2-1.4,0
	c-0.2-0.1-0.4-0.3-0.5-0.5c-0.3-0.4-0.3-1,0-1.4c0.1-0.2,0.3-0.4,0.5-0.5C177.4,14.8,177.6,14.8,177.9,14.8L177.9,14.8z M177.9,15
	c-0.2,0-0.4,0.1-0.6,0.1c-0.2,0.1-0.3,0.2-0.4,0.4c-0.2,0.4-0.2,0.8,0,1.1c0.1,0.2,0.2,0.3,0.4,0.4c0.3,0.2,0.8,0.2,1.1,0
	c0.2-0.1,0.3-0.2,0.4-0.4c0.2-0.4,0.2-0.8,0-1.1c-0.1-0.2-0.2-0.3-0.4-0.4C178.2,15.1,178.1,15,177.9,15L177.9,15z M177.2,16.9v-1.5
	h0.8c0.1,0,0.2,0,0.2,0.1c0.1,0,0.1,0.1,0.1,0.1c0,0.1,0.1,0.1,0.1,0.2c0,0.1,0,0.2-0.1,0.3c-0.1,0.1-0.2,0.1-0.3,0.1l0.1,0.1
	l0.1,0.1l0.1,0.2l0.2,0.3h-0.4l-0.1-0.2c0-0.1-0.1-0.2-0.2-0.3c-0.1,0-0.1-0.1-0.2-0.1h-0.1V17L177.2,16.9z M177.5,16.1h0.1
	c0.1,0,0.2,0,0.3,0c0,0,0.1,0,0.1-0.1c0,0,0-0.1,0-0.1c0,0,0-0.1,0-0.1c0,0-0.1-0.1-0.1-0.1c-0.1,0-0.2,0-0.3,0h-0.1V16.1z"/>
</svg>
