<svg xmlns="http://www.w3.org/2000/svg" viewBox="0 0 180 50"><title>logo-onecampus-white</title><path d="M57.57 27.49A4 4 0 0 1 54.31 26a6.53 6.53 0 0 1-1.21-4.24 6.53 6.53 0 0 1 1.21-4.24A4 4 0 0 1 57.57 16a4 4 0 0 1 3.25 1.5A6.61 6.61 0 0 1 62 21.77 6.6 6.6 0 0 1 60.82 26a4 4 0 0 1-3.25 1.48zm7.77-5.72q0-4.43-2.45-6.65a7.13 7.13 0 0 0-5.33-1.88 7.13 7.13 0 0 0-5.32 1.88q-2.47 2.19-2.47 6.65a8.65 8.65 0 0 0 2.46 6.65 7.13 7.13 0 0 0 5.32 1.88 7.13 7.13 0 0 0 5.33-1.88 8.68 8.68 0 0 0 2.45-6.65zM73.63 17.56a3.91 3.91 0 0 0-2.4.7 5.28 5.28 0 0 0-1.12 1.29v-1.74h-3.06V30h3.05v-6.59a4.8 4.8 0 0 1 .32-1.87 2.22 2.22 0 0 1 2.23-1.38 1.81 1.81 0 0 1 1.79.95 3.43 3.43 0 0 1 .25 1.49V30h3.05v-8.24a4 4 0 0 0-1.14-3.26 4.56 4.56 0 0 0-3-.95zM85.23 20.1a2.71 2.71 0 0 1 1.84.65 2.64 2.64 0 0 1 .82 1.89h-5.35a3.28 3.28 0 0 1 .82-1.85 2.46 2.46 0 0 1 1.86-.69zm0-2.55a5.47 5.47 0 0 0-4.13 1.67A6.65 6.65 0 0 0 79.51 24q0 3.33 1.75 4.81a6.11 6.11 0 0 0 4.07 1.48 5.53 5.53 0 0 0 4.27-1.72 3.81 3.81 0 0 0 1.11-2.11H87.8a2.5 2.5 0 0 1-.63.76 2.69 2.69 0 0 1-1.7.51 2.78 2.78 0 0 1-2.92-3.05h8.4a15.7 15.7 0 0 0-.1-2.36 5.92 5.92 0 0 0-.92-2.45 4.78 4.78 0 0 0-2-1.76 6.44 6.44 0 0 0-2.72-.56h.06zM92.16 21.81a9.08 9.08 0 0 0 2 6.21 6.9 6.9 0 0 0 5.47 2.25 6.59 6.59 0 0 0 4.6-1.63 7.13 7.13 0 0 0 2.24-4.22h-3.32a5.09 5.09 0 0 1-.87 1.88 3.33 3.33 0 0 1-2.8 1.17 3.58 3.58 0 0 1-2.9-1.4 6.52 6.52 0 0 1-1.14-4.2 7.46 7.46 0 0 1 1.08-4.33 3.42 3.42 0 0 1 3-1.53 3.37 3.37 0 0 1 2.77 1.15 5.15 5.15 0 0 1 .86 1.91h3.32a6.11 6.11 0 0 0-1.13-3.07 7.41 7.41 0 0 0-10.41-1.23q-.27.21-.51.45a9 9 0 0 0-2.26 6.58zM115.29 25a2.46 2.46 0 0 1-.9 2.13 3.29 3.29 0 0 1-1.88.58 1.72 1.72 0 0 1-1.1-.35 1.35 1.35 0 0 1-.45-1.14 1.42 1.42 0 0 1 .73-1.31 4.71 4.71 0 0 1 1.44-.43l.71-.12a5.22 5.22 0 0 0 .85-.21 3.41 3.41 0 0 0 .61-.3V25zm-3-2.31a7.44 7.44 0 0 0-2.74.77 3.44 3.44 0 0 0-1.67 3.22 3.37 3.37 0 0 0 1 2.65 3.8 3.8 0 0 0 2.65.94 4.07 4.07 0 0 0 2.25-.63 6.47 6.47 0 0 0 1.47-1.31 2.64 2.64 0 0 0 .09.88 4.77 4.77 0 0 0 .2.81h3.52v-.51a1.33 1.33 0 0 1-.55-.31 1.16 1.16 0 0 1-.22-.71v-7.05a3.17 3.17 0 0 0-1.53-3.05 7.28 7.28 0 0 0-3.5-.82q-3.05 0-4.27 1.55a4.41 4.41 0 0 0-.89 2.53h3.05a2 2 0 0 1 .45-1 2.1 2.1 0 0 1 1.6-.51 3.28 3.28 0 0 1 1.53.29 1 1 0 0 1 .52 1 1 1 0 0 1-.66.9 4.79 4.79 0 0 1-1.24.27l-1 .13zM134 17.56a4.66 4.66 0 0 0-2.11.47 3.86 3.86 0 0 0-1.5 1.48 3.45 3.45 0 0 0-1-1.37 4.58 4.58 0 0 0-4.61.09 4.88 4.88 0 0 0-1.11 1.27v-1.69h-2.81V30h3.05v-7.46a3.63 3.63 0 0 1 .25-1.53 1.83 1.83 0 0 1 1.8-.91 1.53 1.53 0 0 1 1.55.91 4.37 4.37 0 0 1 .22 1.61V30h3.05v-7.36a3.54 3.54 0 0 1 .25-1.42 1.81 1.81 0 0 1 1.8-1.12 1.58 1.58 0 0 1 1.55.87 2.72 2.72 0 0 1 .22 1.16V30h3.05v-7.73a11.56 11.56 0 0 0-.11-1.82 3.69 3.69 0 0 0-.66-1.58 3.43 3.43 0 0 0-1.36-1 4.21 4.21 0 0 0-1.53-.3zM148.83 23.82a5.09 5.09 0 0 1-.7 2.85 2.29 2.29 0 0 1-2 1 2.52 2.52 0 0 1-1.6-.53 4 4 0 0 1-1-3.05 6.74 6.74 0 0 1 .33-2.3 2.34 2.34 0 0 1 2.34-1.71 2.18 2.18 0 0 1 2 1.13 5.19 5.19 0 0 1 .63 2.59zM147 17.56a4.07 4.07 0 0 0-2.44.74 4.7 4.7 0 0 0-1 1.15v-1.64h-3.05v16.8h3.05V28.5a4.39 4.39 0 0 0 1 1.12 3.87 3.87 0 0 0 2.36.69 4.53 4.53 0 0 0 3.65-1.68 7.39 7.39 0 0 0 1.42-4.88 6.62 6.62 0 0 0-1.44-4.6 4.57 4.57 0 0 0-3.55-1.56zM154.88 18v7.4a7.53 7.53 0 0 0 .53 3.19q.94 1.89 3.65 1.89a5.09 5.09 0 0 0 1.64-.23 4.44 4.44 0 0 0 1.46-.89 2.13 2.13 0 0 0 .43-.48l.22-.33v1.65h2.81V18h-3.05v6.69a4.78 4.78 0 0 1-.32 1.9 2.28 2.28 0 0 1-2.25 1.32 1.73 1.73 0 0 1-1.74-.94 3.86 3.86 0 0 1-.25-1.58V18h-3.09zM166.54 26a4 4 0 0 0 1.36 3 6.11 6.11 0 0 0 4.19 1.22 6.28 6.28 0 0 0 4.07-1.12 3.63 3.63 0 0 0 1.33-2.9 3.05 3.05 0 0 0-.88-2.25 5.72 5.72 0 0 0-2.84-1.31 23.17 23.17 0 0 1-3.43-.83.77.77 0 0 1-.5-.74.87.87 0 0 1 .47-.71 3.05 3.05 0 0 1 1.59-.31 2.52 2.52 0 0 1 1.91.61 1.64 1.64 0 0 1 .37.92h3.05a3.93 3.93 0 0 0-1.66-3.16 6.89 6.89 0 0 0-3.74-.92 5.46 5.46 0 0 0-3.75 1.18 3.69 3.69 0 0 0-1.32 2.84 2.71 2.71 0 0 0 .84 2.14 6.74 6.74 0 0 0 3 1.24 18.9 18.9 0 0 1 3.41.92.89.89 0 0 1-.13 1.6 3.72 3.72 0 0 1-1.55.26 3.2 3.2 0 0 1-2.28-.62 2 2 0 0 1-.45-1.16h-3.05zM141.89 39.7a.92.92 0 0 0-.46.1.85.85 0 0 0-.27.23v-1.1h-.51V42h.51v-.34a.82.82 0 0 0 .24.22 1.09 1.09 0 0 0 1.27-.22 1.27 1.27 0 0 0 .27-.85 1.16 1.16 0 0 0-.29-.8 1 1 0 0 0-.77-.31zm-.07 1.78a.64.64 0 0 1-.5-.17.62.62 0 0 1-.16-.45.77.77 0 0 1 .08-.38.7.7 0 0 1 1.12 0 .79.79 0 0 1 .08.37.62.62 0 0 1-.16.46.59.59 0 0 1-.45.17zM143.13 43h.37a1.08 1.08 0 0 0 .71-.17 2.61 2.61 0 0 0 .43-.89l.72-2.25h-.5l-.57 1.69-.59-1.69h-.5l.74 2.29c.17 0 .23.09.17.2a.52.52 0 0 1-.2.21.92.92 0 0 1-.29.07h-.5V43zM147.29 42.76h3.05V42H148v-3.06h-.76v3.82zM152.91 39.82l.52 1.42h-1l.53-1.42zM151 42.76h.81l.29-.76h1.65l.21.76h.8l-1.53-3.82h-.71L151 42.76zM155.21 41.23a1.66 1.66 0 0 0 .22.93 2.33 2.33 0 0 0 3.14 0 1.69 1.69 0 0 0 .22-.93v-2.29H158v2.21a.89.89 0 0 1-.13.54 1.46 1.46 0 0 1-1.78 0 .89.89 0 0 1-.13-.54v-2.21h-.76v2.29zM161.41 39.7a1.53 1.53 0 0 1 .52.07.46.46 0 0 1 .31.46.42.42 0 0 1-.32.43 1.65 1.65 0 0 1-.53.06h-1.19v-1zm.15-.76h-2.14v3.82h.76v-1.27h1.17a1.54 1.54 0 0 1 .68.1.46.46 0 0 1 .19.42v.75h.78V42a1.12 1.12 0 0 0-.12-.55.79.79 0 0 0-.41-.33.74.74 0 0 0 .45-.38 1.46 1.46 0 0 0 .12-.58 1.08 1.08 0 0 0-.12-.44 1.32 1.32 0 0 0-.22-.35 1.09 1.09 0 0 0-.42-.29 2.23 2.23 0 0 0-.7-.11zM167 38.94h-3.35v3.82h3.46V42h-2.44v-.76h2.14v-.76h-2.14v-.78H167v-.76zM169.51 39.82l.53 1.42h-1l.53-1.42zm-1.9 2.94h.81l.29-.76h1.6l.27.76h.8l-1.53-3.82h-.71l-1.54 3.82zM171.56 38.94v.76h1.27v3.05h.76V39.7h1.27v-.76zM178.88 38.94h-3.35v3.82H179V42h-2.44v-.76h2.14v-.76h-2.14v-.78h2.33v-.76zM.68 23.84a13.6 13.6 0 0 0 .45 2l.23.83c.2.77.44 1.55.66 2.14 4.46 9.48 12.12 12.64 19 12.64a20.43 20.43 0 0 0 20.59-20.23v-.27A20.1 20.1 0 0 0 31.06 3.14 20.45 20.45 0 0 0 .68 23.5zM12 14.09H5.44C7 9.36 12.83 4.88 17.06 4.35A26.48 26.48 0 0 0 12 14.09zM22.6 7a26.12 26.12 0 0 1 3.7 7.13c-2.11.53-3.43 3.69-5.28 5.53l-5.28-5.53c.56-1.88 3.18-8.69 5.3-8.69.78 0 1.31 1 1.58 1.58zm4.76 19.23H14.67c-.26-1 0-7.13 0-8.15.79.79 5.28 5.79 6.33 5.79 1.59 0 5.8-5.79 6.33-6.32 0 2.37 1.07 5.27 0 8.7zm-.79 3.42c-.79 1.31-3.43 7.13-5.55 7.13-1.85 0-5.28-6.84-5.28-7.13zm-10.1 7.84a17.24 17.24 0 0 1-10.2-7.59l-.1-.27H12a17.31 17.31 0 0 0 4.49 7.85zm19.33-7.88a17.31 17.31 0 0 1-4.17 4.76l-.52.39a17.16 17.16 0 0 1-5.37 2.62 65.17 65.17 0 0 0 4.51-7.77h5.55zm2-12.12a17.24 17.24 0 0 1-.5 8.7H31a34.81 34.81 0 0 0 .26-6.11 7.77 7.77 0 0 0-.53-2.64h7.06zm-11-12.72l.9.31a20 20 0 0 1 5.5 3.75 17.19 17.19 0 0 1 3.53 5.23H30c-1-2.89-2.37-7.13-5-9.75a7.42 7.42 0 0 1 1.84.47zM4 18.32a3.05 3.05 0 0 0 .1-.79h6.87c0 2.64-.26 5 0 8.69H4.64c-.26-1.58-.79-4.48-.79-5.26 0-.42.15-1.62.15-2.64zM1.13 25.9q.1.42.23.83zM177.85 14.76a1.44 1.44 0 0 1 .7.18 1.32 1.32 0 0 1 .53.52 1.42 1.42 0 0 1 0 1.42 1.33 1.33 0 0 1-.52.52 1.42 1.42 0 0 1-1.41 0 1.33 1.33 0 0 1-.52-.52 1.42 1.42 0 0 1 0-1.42 1.32 1.32 0 0 1 .53-.52 1.44 1.44 0 0 1 .69-.18zm0 .28a1.16 1.16 0 0 0-.56.15 1.06 1.06 0 0 0-.42.42 1.14 1.14 0 0 0 0 1.14 1.07 1.07 0 0 0 .42.42 1.13 1.13 0 0 0 1.13 0 1.08 1.08 0 0 0 .42-.42 1.14 1.14 0 0 0 0-1.14 1.06 1.06 0 0 0-.42-.42 1.16 1.16 0 0 0-.57-.19zm-.64 1.9v-1.5h.79a.59.59 0 0 1 .24.06.38.38 0 0 1 .14.14.42.42 0 0 1 .06.22.4.4 0 0 1-.11.28.48.48 0 0 1-.3.14l.11.06.1.12.11.18.18.3h-.38l-.13-.24a1 1 0 0 0-.21-.31.34.34 0 0 0-.21-.06h-.08v.62zm.3-.85h.12a1.5 1.5 0 0 0 .33 0 .19.19 0 0 0 .1-.07.19.19 0 0 0 0-.12.18.18 0 0 0 0-.11.2.2 0 0 0-.1-.07 1.46 1.46 0 0 0-.33 0h-.12z" fill="#fff"/></svg>