<svg id="Layer_1" xmlns="http://www.w3.org/2000/svg" viewBox="0 0 420.284 107.33"><style>.st0{fill:#fff}</style><path class="st0" d="M184.258 27.426V.022h-7.58v33.059h21.436v-5.655zM388.33 0h-31.281v5.655h13.044v27.654h7.398V5.655h10.839zm-63.118 5.7V.039h-20.849V33.17h20.849v-6.051H311.38v-7.66h9.718v-5.66h-9.718V5.7zm89.701 0V.039h-20.849V33.17h20.849v-6.051h-13.832v-7.66h9.718v-5.66h-9.718V5.7zM228.528 33.071l6.853-.037L220.314.356V.114h-3.96l-.103-.047-.021.047h-.143V.42l-14.98 32.492 6.794.037 3.502-7.597h13.565l3.56 7.719zm-14.516-13.379l4.173-9.049 4.175 9.049h-8.348zm141.834 13.379l6.853-.037L347.632.356V.114h-3.96l-.103-.047-.021.047h-.143V.42l-14.98 32.492 6.794.037 3.502-7.597h13.565l3.56 7.719zM341.33 19.692l4.173-9.049 4.175 9.049h-8.348zM259.864.121v24.257c-2.471 1.977-5.678 3.206-9.225 3.206-1.023 0-2.755-.102-3.715-.292-4.289 0-3.474-7.457-3.474-7.457V.282l-7.076-.161V24.56c.787 5.448 3.854 7.788 7.244 8.437 1.327.247 3.505.155 5.933.155 3.957 0 7.651-1.121 10.313-3.471v3.57h7.1V.121h-7.1zm30.403 19.071c4.318-1.714 5.488-4.523 5.488-4.523 2.897-7.424-.901-12.028-4.516-14.052-.629-.349-2.083-.5-2.083-.5l-3.534.002h-11.72V33.25h6.603V21.275h4l8.222 11.155h6.902l-9.362-13.238zm-.646-6.78c-.333.861-.894 1.625-1.577 2.298-1.005 1.091-2.458.911-2.458.911h-5.081V5.779h5.691c3.202.881 4.598 3.582 3.425 6.633zM138.647.465h2.077V107.33h-2.077zm-78.33 15.383h-.339C71.649 9.838 85.58 4.799 102.231 1.316c0 0 .58 29.043-19.963 57.182H60.317v-42.65zm-10.202 5.631C-1.33 53.963.003 106.113.003 106.113c36.506-7.214 59.967-22.285 75.06-38.811H50.115V21.479zM295.513 49.05l-10.146 22.114h1.328l3.375-7.401.168-.371h11.212l.169.371 3.373 7.401h1.262l-10.08-22.114h-.661zm-4.837 13.346l.411-.898 4.167-9.119.574-1.262.575 1.262 4.162 9.119.41.898m-18.258 7.719h1.071V48.162h-1.175v20.075l-1.125-1.393a492.194 492.194 0 0 0-3.72-4.547 298.533 298.533 0 0 0-3.713-4.392 217.071 217.071 0 0 1-4.081-4.863 830.56 830.56 0 0 1-3.941-4.881h-1.034v21.953h1.174V50.097l1.122 1.357 15.422 18.661zm19.111 25.13c-.444-.247-1.641-.602-2.601-.888-.665-.201-1.294-.389-1.743-.55-1.745-.641-2.964-1.267-3.751-1.927-.768-.693-1.158-1.678-1.158-2.93 0-1.183.49-2.233 1.457-3.129a5.076 5.076 0 0 1 1.555-.955c.556-.216 1.201-.324 1.919-.324 1.094 0 2.112.22 3.031.663.442.213.872.431 1.267.639.16.079.332.17.518.271l-.033-1.407c-.324-.19-.85-.448-1.696-.774h-.002c-.952-.366-2.058-.555-3.28-.555-1.71 0-3.134.56-4.363 1.707-1.206 1.111-1.793 2.396-1.793 3.929 0 1.568.4 2.732 1.221 3.556.4.396.93.789 1.573 1.16.682.388 1.47.729 2.354 1.019.358.124.76.258 1.183.401 2.151.717 3.732 1.267 4.465 1.855.914.757 1.378 1.846 1.378 3.24 0 1.341-.489 2.469-1.449 3.354-1.231 1.134-4.674 1.168-5.061 1.168-.846 0-1.745-.205-2.685-.613-.452-.203-.95-.476-1.53-.826-.322-.195-.707-.45-1.15-.768v1.487c.245.173.507.334.782.477.396.203.861.42 1.441.675 1.014.478 2.169.721 3.436.721 1.682 0 4.613-.408 5.806-1.544 1.214-1.128 1.801-2.449 1.801-4.032 0-1.663-.396-2.941-1.189-3.812-.383-.437-.955-.872-1.703-1.288zm-44.501-.171h9.038v-.997h-9.038v-9.396h10.498v-.997h-11.79v21.948h12.017v-1.031h-10.725v-9.527zm23.951-.284s.628-.129.87-.237c.243-.109.782-.356.782-.356.803-.311 1.565-.836 2.255-1.546.812-.869 1.208-1.962 1.208-3.343 0-1.843-.615-3.211-1.887-4.185-.624-.487-1.386-.852-2.266-1.084h.003c-.895-.234-1.943-.354-3.121-.354h-5.432v21.948h1.289V94.877h3.654l1.1-.008 8.755 10.764h1.503l-8.713-10.843zm-2.351-.876h-3.947v-9.233h4.109c1.776 0 3.217.405 4.272 1.194 1.068.758 1.611 1.903 1.611 3.402 0 1.524-.553 2.691-1.632 3.463-1.054.779-2.538 1.174-4.413 1.174zm-17.66-23.754c-2.271-3.543-5.392-8.375-5.857-8.99l-.885-.644 1.079-.423c.753-.297 1.977-1.163 2.716-1.923.812-.87 1.209-1.964 1.209-3.337 0-1.843-.616-3.214-1.888-4.193-.629-.489-1.368-.846-2.266-1.081h.003c-.901-.235-1.953-.353-3.121-.353h-5.434V70.19h1.291v-9.78h5.414l.188.289 6.04 9.461h1.511zm-9.204-10.718h-3.947V50.21h4.109c1.778 0 3.218.406 4.269 1.197 1.072.758 1.614 1.905 1.614 3.402 0 1.521-.553 2.688-1.634 3.461-1.052.78-2.536 1.172-4.411 1.172zm58.217 46.191h1.26V83.685h-1.26v21.948zm33.905-35.285c3.234 0 5.994-1.089 8.202-3.235 2.23-2.128 3.311-4.718 3.311-7.927 0-3.204-1.084-5.804-3.311-7.951h-.002v-.003c-2.187-2.122-4.944-3.198-8.2-3.198-3.283 0-5.963 1.057-8.2 3.235-2.177 2.099-3.281 4.76-3.281 7.917 0 1.578.279 3.048.831 4.371.546 1.318 1.381 2.524 2.485 3.59 2.186 2.123 4.932 3.201 8.165 3.201zm-7.136-18.238c1.955-1.949 4.357-2.939 7.136-2.939 2.802 0 5.204.992 7.141 2.939 1.977 1.983 2.978 4.363 2.978 7.075 0 2.716-1.001 5.097-2.975 7.075 0 .003-.001.003-.003.005-1.935 1.954-4.335 2.944-7.141 2.944-2.804 0-5.216-.992-7.169-2.944-1.934-1.939-2.913-4.319-2.913-7.08 0-2.736.99-5.116 2.946-7.075zm55.462-3.06l-10.11 20.902h1.332l3.363-6.229.18-.331h11.15l.181.331 3.362 6.229h1.275L393.192 49.05h-.681zm5.062 12.449l.411.898h-10.3l.409-.898 4.165-9.119.575-1.262.575 1.262 4.165 9.119zm-26.096 33.464c-.44-.247-1.639-.601-2.602-.888-.666-.2-1.295-.384-1.742-.55-1.746-.641-2.968-1.267-3.749-1.927-.771-.692-1.161-1.68-1.161-2.929 0-1.183.489-2.234 1.456-3.13.462-.418.988-.74 1.559-.955.555-.215 1.2-.324 1.915-.324 1.09 0 2.11.221 3.038.663.508.25.911.455 1.26.639.16.079.333.173.522.274l-.032-1.408c-.33-.192-.861-.452-1.701-.776h-.002c-.952-.366-2.056-.554-3.283-.554-1.704 0-3.128.559-4.357 1.707-1.208 1.11-1.796 2.395-1.796 3.928 0 1.563.4 2.727 1.226 3.556.393.393.922.784 1.573 1.16.671.386 1.456.728 2.351 1.02.357.123.761.257 1.182.396 2.149.723 3.728 1.271 4.465 1.86.913.757 1.376 1.846 1.376 3.24 0 1.336-.486 2.47-1.446 3.355-1.23 1.133-4.675 1.167-5.062 1.167-.846 0-1.748-.205-2.687-.613-.439-.198-.94-.47-1.53-.826-.32-.193-.701-.448-1.15-.767v1.484c.248.175.511.336.785.479a25.8 25.8 0 0 0 1.439.676c1.017.478 2.172.72 3.438.72 1.682 0 4.613-.408 5.803-1.544 1.215-1.128 1.803-2.449 1.803-4.032 0-1.663-.397-2.941-1.189-3.812-.38-.438-.952-.868-1.702-1.289zm5.115-26.726l-1.124-1.393a527.133 527.133 0 0 0-3.72-4.547 275.887 275.887 0 0 0-3.716-4.392 227.959 227.959 0 0 1-4.081-4.863 797.102 797.102 0 0 1-3.941-4.881h-1.036v21.953h1.177V50.097l1.122 1.357 15.422 18.661h1.069V48.162h-1.173v20.075zm-61.704 16.474h8.395v20.922h1.289V84.682h8.397v-.997h-18.081v1.026zm7.726-35.495h-18.082v1.024h8.396v20.19h1.291V50.21h8.396v-.994zm5.485 20.973V48.974h-1.259V70.19h1.259zm18.164 24.885h8.254v-.997h-8.254v-9.396h10.493v-.997h-11.784v21.948h12.012v-1.031h-10.721v-9.527zm-8.765 10.559h1.259V83.685h-1.259v21.948zm71.735-55.292h-1.292v20.736h12.343v-1.028h-11.051V50.341zM240.942 69.402h-10.726v-8.797h8.309v-.999h-8.309V50.21h10.495v-.994h-11.788V70.43h12.019v-1.028zm-15.451 36.231h1.26V83.685h-1.26v21.948zm16.093-4.045l-.585 1.405-.585-1.405-7.475-17.903h-1.253l9.211 22.176h.207l9.245-22.176h-1.315l-7.45 17.903zm-40.08-34.1a453.007 453.007 0 0 0-3.719-4.548 241.39 241.39 0 0 0-3.715-4.391 214.897 214.897 0 0 1-4.081-4.864 836.754 836.754 0 0 1-3.941-4.881h-1.034v21.147h1.172V50.797l1.112 1.288 15.422 17.867h1.085V48.805h-1.177v20.078l-1.124-1.395zm-23.323 2.464V49.216h-1.26v20.736h1.26zm15.062 26.05c0 1.331-.184 2.533-.543 3.567a8.517 8.517 0 0 1-1.584 2.788c-1.405 1.601-3.32 2.412-5.686 2.412-2.404 0-4.35-.786-5.784-2.34-1.391-1.534-2.098-3.642-2.098-6.267V83.685h-1.292v12.614c0 2.86.857 5.205 2.544 6.972 1.728 1.786 3.886 2.652 6.594 2.652 2.746 0 4.899-.906 6.584-2.771.01-.01.018-.024.027-.037.031-.047.077-.113.138-.181l1.1-1.189v3.711h1.192V97.38l.002-.027c.012-.118.023-.237.036-.354.031-.294.061-.576.061-.863V83.685h-1.291v12.317zm22.909-26.05V50.21h8.396v-.994h-18.086v1.024h8.396v19.712h1.294zm1.445 33.819l-1.127-1.403a409.78 409.78 0 0 0-3.714-4.549 245.74 245.74 0 0 0-3.717-4.384 223.928 223.928 0 0 1-4.081-4.871 857.754 857.754 0 0 1-3.94-4.879h-1.035v21.948h1.174V85.616l1.122 1.358 15.422 18.658h1.072V83.685h-1.176v20.086z"/></svg>