<?xml version="1.0" encoding="UTF-8"?>
<svg width="62px" height="67px" viewBox="0 0 62 67" version="1.1" xmlns="http://www.w3.org/2000/svg" xmlns:xlink="http://www.w3.org/1999/xlink">
    <title>medal</title>
    <g id="One-Faculty" stroke="none" stroke-width="1" fill="none" fill-rule="evenodd">
        <g id="Teaching-Modules-completed" transform="translate(-384.000000, -735.000000)" fill-rule="nonzero">
            <g id="msg-dowloaded" transform="translate(346.000000, 710.000000)">
                <g id="medal" transform="translate(38.000000, 25.000000)">
                    <circle id="Oval" fill="#FFD15C" cx="30.5" cy="26.5" r="26.5"></circle>
                    <g id="Group" transform="translate(0.000000, 42.000000)" fill="#3B3145">
                        <path d="M9.3,0.0917107584 L0.105982906,15.8528597 L10.8367521,15.2894936 L15.7119658,24.7619048 L24.217094,10.1798942 C18.1230769,8.62081129 12.8769231,4.99168556 9.3,0.0917107584 Z" id="Path"></path>
                        <path d="M52.6470085,0.0131015369 C49.0833333,4.92617788 43.8504274,8.56840514 37.7696581,10.1536911 L46.2880342,24.7619048 L51.1632479,15.2894936 L61.8940171,15.8528597 L52.6470085,0.0131015369 Z" id="Path"></path>
                    </g>
                    <circle id="Oval" fill="#3B3145" cx="31.5" cy="25.5" r="19.5"></circle>
                    <path d="M43.686809,23.9067565 C44.3011795,23.3227622 43.9598625,22.3007723 43.1133965,22.1813189 L35.2358017,21.0664208 C34.8944848,21.0133304 34.6077786,20.8142414 34.4575991,20.5089717 L30.9215557,13.5674035 C30.5392808,12.8108655 29.4334139,12.8108655 29.0511389,13.5674035 L25.5424009,20.5089717 C25.3922214,20.8009688 25.0918625,21.0133304 24.7641983,21.0664208 L16.8866035,22.1813189 C16.0401375,22.3007723 15.6988205,23.3227622 16.313191,23.9067565 L22.0063575,29.3087035 C22.2521056,29.5476102 22.3613271,29.8794251 22.3067164,30.1979675 L20.968754,37.8164381 C20.8185745,38.6393391 21.7196512,39.2764237 22.4842012,38.8782458 L29.5289826,35.2813721 C29.8293415,35.1221009 30.1979638,35.1221009 30.4983227,35.2813721 L37.5431042,38.8782458 C38.3076541,39.2631511 39.1950781,38.6393391 39.0585514,37.8164381 L37.7069363,30.1979675 C37.6523256,29.8661525 37.761547,29.5343376 38.0072952,29.3087035 L43.686809,23.9067565 Z" id="Path" fill="#FFFFFF"></path>
                </g>
            </g>
        </g>
    </g>
</svg>