<svg xmlns="http://www.w3.org/2000/svg" height="511pt" version="1.1" viewBox="1 -4 511.99995 511" width="511pt">
<g id="surface1">
<path d="M 321.085938 78.601562 C 321.085938 116.941406 290.003906 148.023438 251.660156 148.023438 C 213.320312 148.023438 182.238281 116.941406 182.238281 78.601562 C 182.238281 40.261719 213.320312 9.179688 251.660156 9.179688 C 290.003906 9.179688 321.085938 40.261719 321.085938 78.601562 Z M 321.085938 78.601562 " style=" stroke:none;fill-rule:nonzero;fill:rgb(69.019608%,70.588235%,94.509804%);fill-opacity:1;" />
<path d="M 329.761719 434.398438 C 329.761719 472.738281 298.679688 503.820312 260.339844 503.820312 C 221.996094 503.820312 190.914062 472.738281 190.914062 434.398438 C 190.914062 396.054688 221.996094 364.972656 260.339844 364.972656 C 298.679688 364.972656 329.761719 396.054688 329.761719 434.398438 Z M 329.761719 434.398438 " style=" stroke:none;fill-rule:nonzero;fill:rgb(25.882353%,30.588235%,87.058824%);fill-opacity:1;" />
<path d="M 329.761719 252.160156 C 329.761719 290.503906 298.679688 321.585938 260.339844 321.585938 C 221.996094 321.585938 190.914062 290.503906 190.914062 252.160156 C 190.914062 213.820312 221.996094 182.738281 260.339844 182.738281 C 298.679688 182.738281 329.761719 213.820312 329.761719 252.160156 Z M 329.761719 252.160156 " style=" stroke:none;fill-rule:nonzero;fill:rgb(43.137255%,46.27451%,89.803922%);fill-opacity:1;" />
<path d="M 512 69.921875 C 512 108.265625 480.917969 139.347656 442.578125 139.347656 C 404.234375 139.347656 373.152344 108.265625 373.152344 69.921875 C 373.152344 31.582031 404.234375 0.5 442.578125 0.5 C 480.917969 0.5 512 31.582031 512 69.921875 Z M 512 69.921875 " style=" stroke:none;fill-rule:nonzero;fill:rgb(69.019608%,70.588235%,94.509804%);fill-opacity:1;" />
<path d="M 512 434.398438 C 512 472.738281 480.917969 503.820312 442.578125 503.820312 C 404.234375 503.820312 373.152344 472.738281 373.152344 434.398438 C 373.152344 396.054688 404.234375 364.972656 442.578125 364.972656 C 480.917969 364.972656 512 396.054688 512 434.398438 Z M 512 434.398438 " style=" stroke:none;fill-rule:nonzero;fill:rgb(25.882353%,30.588235%,87.058824%);fill-opacity:1;" />
<path d="M 512 252.160156 C 512 290.503906 480.917969 321.585938 442.578125 321.585938 C 404.234375 321.585938 373.152344 290.503906 373.152344 252.160156 C 373.152344 213.820312 404.234375 182.738281 442.578125 182.738281 C 480.917969 182.738281 512 213.820312 512 252.160156 Z M 512 252.160156 " style=" stroke:none;fill-rule:nonzero;fill:rgb(43.137255%,46.27451%,89.803922%);fill-opacity:1;" />
<path d="M 138.847656 78.601562 C 138.847656 116.941406 107.765625 148.023438 69.421875 148.023438 C 31.082031 148.023438 0 116.941406 0 78.601562 C 0 40.261719 31.082031 9.179688 69.421875 9.179688 C 107.765625 9.179688 138.847656 40.261719 138.847656 78.601562 Z M 138.847656 78.601562 " style=" stroke:none;fill-rule:nonzero;fill:rgb(69.019608%,70.588235%,94.509804%);fill-opacity:1;" />
<path d="M 147.527344 434.398438 C 147.527344 472.738281 116.441406 503.820312 78.101562 503.820312 C 39.761719 503.820312 8.679688 472.738281 8.679688 434.398438 C 8.679688 396.054688 39.761719 364.972656 78.101562 364.972656 C 116.441406 364.972656 147.527344 396.054688 147.527344 434.398438 Z M 147.527344 434.398438 " style=" stroke:none;fill-rule:nonzero;fill:rgb(25.882353%,30.588235%,87.058824%);fill-opacity:1;" />
<path d="M 147.527344 252.160156 C 147.527344 290.503906 116.441406 321.585938 78.101562 321.585938 C 39.761719 321.585938 8.679688 290.503906 8.679688 252.160156 C 8.679688 213.820312 39.761719 182.738281 78.101562 182.738281 C 116.441406 182.738281 147.527344 213.820312 147.527344 252.160156 Z M 147.527344 252.160156 " style=" stroke:none;fill-rule:nonzero;fill:rgb(43.137255%,46.27451%,89.803922%);fill-opacity:1;" />
</g>
</svg>