<svg xmlns="http://www.w3.org/2000/svg" viewBox="0 0 373.52 226.97"><defs><style>.cls-1{opacity:0.22;}.cls-2{fill:#ff7c5f;}.cls-3{fill:#222221;}.cls-4{fill:#b3b3b3;}.cls-5{fill:#3e3e3d;}.cls-6{fill:#6f6f6f;}.cls-7{fill:#fff;}.cls-11,.cls-8{fill:none;stroke:#425973;stroke-linecap:round;stroke-linejoin:round;}.cls-8{stroke-width:3.3px;}.cls-9{fill:#dd9ab2;}.cls-10{fill:#d6819f;}.cls-11{stroke-width:2.75px;}.cls-12{fill:#e9c2d0;}.cls-13{fill:#db9022;}.cls-14{fill:#d97865;}</style></defs><g id="Layer_2" data-name="Layer 2"><g id="OBJECTS"><g class="cls-1"><path class="cls-2" d="M200.63,28.45c-39.14,12.49-163.11-49.12-153.41,35C48.74,76,56.8,93.68,50,105.37c-4.93,8.75-14,13.88-22.71,17.28C4.47,131.92-4,149.33,1.75,174.17c15.46,67,99.58,51.07,143.75,31.22,31.41-14.77,68.45-17.31,101-4.81,25.48,10.17,41.36,31.52,71.27,25.27,26.52-5.33,30.52-30.36,22.78-53.67-4.4-14.42-7.56-20.51,1.16-34.43,7.36-13.83,20.3-24.3,21.3-40.5.22-17.54-7.85-35.21-23.44-41.86-12.77-5.43-24.34-3.24-37-6.58-28.08-7.89-46.13-51.53-81-36.52-8.68,4.1-13.57,13.55-23,16.3"/></g><g class="cls-1"><path class="cls-2" d="M186.44,22.19c3.22,0,3.22-5,0-5s-3.22,5,0,5Z"/><path class="cls-2" d="M23.5,104c3.22,0,3.23-5,0-5s-3.22,5,0,5Z"/><path class="cls-2" d="M354.19,147.86c3.22,0,3.22-5,0-5s-3.22,5,0,5Z"/><path class="cls-2" d="M167.88,16.69c3.21,0,3.22-5,0-5s-3.22,5,0,5Z"/><path class="cls-2" d="M365.19,128.75c3.22,0,3.22-5,0-5s-3.22,5,0,5Z"/><path class="cls-2" d="M4.94,120.5c3.22,0,3.22-5,0-5s-3.22,5,0,5Z"/><path class="cls-2" d="M310.19,34.56c3.22,0,3.22-5,0-5s-3.22,5,0,5Z"/><path class="cls-2" d="M183.69,5c3.22,0,3.22-5,0-5s-3.22,5,0,5Z"/><path class="cls-2" d="M371.1,144.7c3.22,0,3.23-5,0-5s-3.22,5,0,5Z"/><path class="cls-2" d="M3,100.56c3.21,0,3.22-5,0-5s-3.23,5,0,5Z"/><path class="cls-2" d="M327.38,45.56c3.21,0,3.22-5,0-5s-3.22,5,0,5Z"/><path class="cls-2" d="M326,31.81c3.22,0,3.23-5,0-5s-3.22,5,0,5Z"/><path class="cls-2" d="M47.43,19.57c3.22,0,3.22-5,0-5s-3.22,5,0,5Z"/><path class="cls-2" d="M360.38,209.19c3.21,0,3.22-5,0-5s-3.22,5,0,5Z"/><path class="cls-2" d="M2.88,214c3.22,0,3.22-5,0-5s-3.22,5,0,5Z"/><path class="cls-2" d="M63.93,14.07c3.22,0,3.22-5,0-5s-3.22,5,0,5Z"/><path class="cls-2" d="M361.07,189.94c3.21,0,3.22-5,0-5s-3.23,5,0,5Z"/><path class="cls-2" d="M19.38,223.63c3.21,0,3.22-5,0-5s-3.22,5,0,5Z"/></g><path class="cls-3" d="M97.89,131.27a12.77,12.77,0,0,1-4.22,1,3,3,0,0,1-1.21-.15c-.41-.11,0,0-.32-.12s-.65-.41-.38-.2c-1.35-1-2.15-3.23-2.88-5a30,30,0,0,0-4.19-7.5c-1.88-2.31-4.19-4.54-7.28-4.9-2.33-.27-4.65.53-7,.7a25.11,25.11,0,0,1-9.68-1.38,11.45,11.45,0,0,1-2.65-1.31,4.06,4.06,0,0,1-.77-.66c-.15-.15-.29-.3-.43-.46-.29-.33,0,.11-.25-.35s-.37-.64-.54-1,.12.31,0,0a2.34,2.34,0,0,1-.09-.24c-.08-.21-.15-.43-.22-.65-.12-.4-.21-.8-.29-1.21,0-.21-.07-.42-.11-.63a2.2,2.2,0,0,1,0-.37c-.58-5.17-.66-10.12-3-14.9-1.17-2.38-4.73-.29-3.56,2.08,2,4.1,1.93,8.07,2.42,12.54s2,8.09,6.12,10.14a27.4,27.4,0,0,0,9.31,2.35,21,21,0,0,0,5.14,0c.77-.09,1.52-.21,2.28-.33l.83-.14.34-.06.22,0a8.81,8.81,0,0,1,1.54,0,5.15,5.15,0,0,1,1,.28,10.81,10.81,0,0,1,3.15,2.74,25.58,25.58,0,0,1,4,7c1,2.48,2.09,5.17,4.42,6.73,2.82,1.9,6.47,1.06,9.42-.06a2.13,2.13,0,0,0,1.44-2.54,2.08,2.08,0,0,0-2.54-1.44Z"/><path class="cls-3" d="M54.3,86.5c0,.08-.11.15-.16.22l.26-.34a12.17,12.17,0,0,1-2.18,2.24l.34-.25A18,18,0,0,1,49.76,90a1.64,1.64,0,0,0-.59,2.25,1.68,1.68,0,0,0,2.25.6,18.21,18.21,0,0,0,3-1.8,15,15,0,0,0,2.76-2.92,1.66,1.66,0,0,0,.17-1.27,1.75,1.75,0,0,0-.76-1,1.67,1.67,0,0,0-1.27-.16,1.9,1.9,0,0,0-1,.75Z"/><path class="cls-3" d="M48.39,82.11c0,3.49.54,7,.55,10.45a1.65,1.65,0,1,0,3.3,0c0-3.49-.57-7-.55-10.45A1.66,1.66,0,0,0,50,80.46a1.68,1.68,0,0,0-1.65,1.65Z"/><path class="cls-3" d="M42.82,85.48c2.2,2.74,4.44,5.56,7.49,7.41A1.65,1.65,0,1,0,52,90c-.33-.21-.66-.42-1-.65a2,2,0,0,0-.29-.22c.07,0,.24.19.06,0l-.47-.38a24.7,24.7,0,0,1-1.81-1.74c-1.18-1.26-2.25-2.6-3.32-3.94a1.66,1.66,0,0,0-2.34,0,1.7,1.7,0,0,0,0,2.33Z"/><path class="cls-3" d="M40.07,90.43a10.29,10.29,0,0,0,11,2.62,1.65,1.65,0,1,0-.88-3.18c-.38.12-.76.23-1.14.32l-.58.1c.15,0,.19,0,0,0l-.28,0a8.52,8.52,0,0,1-1.13,0l-.56,0c.15,0,.2,0,0,0l-.34-.07a8.43,8.43,0,0,1-1.09-.31l-.14-.05c.18.07-.1,0-.13-.07s-.35-.17-.53-.27a9.32,9.32,0,0,1-1-.66c-.21-.16.17.14,0,0S43,88.68,43,88.6s-.37-.33-.54-.5a1.65,1.65,0,1,0-2.34,2.33Z"/><path class="cls-3" d="M266.6,141.51a13.68,13.68,0,0,1,.61-4.54,4.62,4.62,0,0,1,.64-1.21c-.17.24.2-.21.26-.27l.28-.27c.26-.22-.37.24.13-.08a5,5,0,0,1,.92-.5,12.46,12.46,0,0,1,1.67-.44,33.59,33.59,0,0,1,3.6-.37,75.65,75.65,0,0,0,8.78-.7,5.48,5.48,0,0,0,4.18-2.87,54,54,0,0,0,2.12-6.37,9.85,9.85,0,0,1,4-5.4,17.51,17.51,0,0,1,5.93-2c2.18-.43,4.4-.71,6.55-1.31a12.63,12.63,0,0,0,6.32-3.62c2.17-2.53,2.87-5.79,3-9.05.11-2.65-4-2.65-4.12,0a14.61,14.61,0,0,1-.68,4.1,6.89,6.89,0,0,1-1.38,2.33c-.15.17-.32.32-.49.48-.33.3,0,0-.27.22a9.38,9.38,0,0,1-1.33.8,5.45,5.45,0,0,1-1.06.43c-.52.18-1.05.33-1.58.47-4.38,1.11-9.13,1.2-13.06,3.7a13.29,13.29,0,0,0-5,5.84c-1,2.35-1.6,4.85-2.43,7.26-.15.46.14-.21,0,.09-.08.14-.17.29-.24.44s.32-.16,0,0c0,0-.11.11-.11.13-.08.23.17-.11.1-.07l-.42.24-.08,0c-.45.09-.88.22-1.34.28l-.54.06-.89.08c-.82.06-1.65.11-2.48.15-1.54.08-3.08.17-4.62.29-2.78.22-5.74.56-7.94,2.45-2.62,2.26-3.05,6-3.07,9.27,0,2.66,4.11,2.66,4.12,0Z"/><path class="cls-3" d="M305.85,97.4a12.45,12.45,0,0,0,7.2,7.2,1.65,1.65,0,0,0,1.87-2.42,1.92,1.92,0,0,0-1-.76c-.3-.12.33.15.06,0l-.25-.12-.49-.24c-.29-.16-.58-.33-.86-.51l-.44-.31c-.09-.07-.34-.28,0,0l-.21-.17c-.27-.22-.52-.46-.77-.7s-.47-.5-.69-.77l-.17-.21.14.19-.1-.14c-.1-.14-.2-.27-.29-.41a10.11,10.11,0,0,1-.53-.9c-.09-.16-.17-.32-.25-.48l-.09-.21c-.17-.36.12.31,0,0a1.81,1.81,0,0,0-.76-1,1.63,1.63,0,0,0-2.25.59,1.58,1.58,0,0,0-.17,1.27Z"/><path class="cls-3" d="M310.74,93.11v8.25a1.65,1.65,0,0,0,3.3,0V93.11a1.65,1.65,0,0,0-3.3,0Z"/><path class="cls-3" d="M316.3,93.77c-.13.39-.27.76-.42,1.14s.15-.33,0,0l-.12.26c-.08.18-.16.35-.25.52a14.47,14.47,0,0,1-1.17,1.92,1.77,1.77,0,0,1-.16.22c-.12.18.26-.32,0,0l-.35.42c-.25.29-.5.56-.76.83a24.75,24.75,0,0,1-1.87,1.67,1.66,1.66,0,0,0,0,2.33,1.7,1.7,0,0,0,2.34,0,19.59,19.59,0,0,0,3.62-3.77,17.3,17.3,0,0,0,2.3-4.66,1.66,1.66,0,0,0-1.15-2,1.69,1.69,0,0,0-2,1.15Z"/><path class="cls-3" d="M320.32,97.23c-.1.17-.21.33-.32.49l-.16.24c-.06.07-.21.32,0,0a6.1,6.1,0,0,1-.74.86c-.25.26-.51.5-.78.74l-.43.35c-.17.14.33-.24,0,0l-.23.17a15.25,15.25,0,0,1-1.85,1.13c-.32.18-.65.34-1,.49l-.45.21c-.26.11,0,.07,0,0-.05.06-.23.09-.3.12a1.81,1.81,0,0,0-1,.76,1.64,1.64,0,0,0,1.86,2.42c3.25-1.31,6.27-3.19,8.14-6.25a1.65,1.65,0,0,0-2.85-1.67Z"/><path class="cls-4" d="M286.27,201.28c0,2.88-21.61,3.72-23.94,3.72H100.65c-2.33,0-23.94-.84-23.94-3.72l19.72-29.55c0-2.89,1.89-5.23,4.22-5.23H262.33c2.33,0,4.22,2.34,4.22,5.23Z"/><polygon class="cls-5" points="148.24 194.69 106.69 194.69 113.96 177.09 151.54 177.09 148.24 194.69"/><polygon class="cls-5" points="214.74 194.69 256.29 194.69 249.02 177.09 211.44 177.09 214.74 194.69"/><polygon class="cls-5" points="260.91 194.69 275.54 194.69 263.57 177.09 252.53 177.09 260.91 194.69"/><polygon class="cls-5" points="102.07 194.69 87.44 194.69 99.42 177.09 110.45 177.09 102.07 194.69"/><polygon class="cls-5" points="211.08 194.69 151.9 194.69 155.2 177.09 207.78 177.09 211.08 194.69"/><rect class="cls-4" x="91.05" y="180.31" width="180.88" height="2.69"/><rect class="cls-4" x="89.09" y="186.91" width="184.8" height="2.69"/><path class="cls-5" d="M287.37,208.12c0,2.34-.48,4.23-2.81,4.23H78.42c-2.33,0-2.81-1.89-2.81-4.23V204.5c0-2.33.48-4.22,2.81-4.22H284.56c2.33,0,2.81,1.89,2.81,4.22Z"/><path class="cls-6" d="M220.13,206.41a2.2,2.2,0,0,1-2.2,2.2H145.05a2.2,2.2,0,0,1-2.2-2.2h0a2.21,2.21,0,0,1,2.2-2.2h72.88a2.21,2.21,0,0,1,2.2,2.2Z"/><rect class="cls-5" x="94.32" y="55.28" width="174.35" height="116.68" rx="4.23"/><path class="cls-7" d="M181.49,61.16a1.76,1.76,0,0,0,0-3.52,1.76,1.76,0,0,0,0,3.52Z"/><rect class="cls-7" x="106.52" y="64.22" width="149.94" height="100.34" rx="3.63"/><line class="cls-8" x1="159.66" y1="101.95" x2="147.22" y2="114.39"/><line class="cls-8" x1="159.66" y1="114.4" x2="147.22" y2="101.95"/><line class="cls-8" x1="215.76" y1="101.95" x2="203.32" y2="114.39"/><line class="cls-8" x1="215.76" y1="114.4" x2="203.32" y2="101.95"/><path class="cls-9" d="M210.18,129.41V141.7a4.4,4.4,0,0,1-4.4,4.4H203.4a4.4,4.4,0,0,1-4.4-4.4V129.41"/><polygon class="cls-10" points="206.52 130.05 204.59 144.35 202.66 130.05 206.52 130.05"/><line class="cls-11" x1="144.2" y1="129.4" x2="218.78" y2="129.4"/><path class="cls-12" d="M132,127.58a5.5,5.5,0,1,0-5.5-5.5,5.56,5.56,0,0,0,5.5,5.5Z"/><path class="cls-12" d="M231,127.58a5.5,5.5,0,1,0-5.5-5.5,5.56,5.56,0,0,0,5.5,5.5Z"/><path class="cls-13" d="M243.09,40.86v36.3"/><path class="cls-14" d="M240.34,40.86v36.3c0,3.54,5.5,3.55,5.5,0V40.86c0-3.54-5.5-3.54-5.5,0Z"/><path class="cls-13" d="M243.09,87.06"/><path class="cls-14" d="M243.09,91.19A4.13,4.13,0,1,0,239,87.06a4.18,4.18,0,0,0,4.12,4.13Z"/></g></g></svg>