<?xml version="1.0" encoding="UTF-8"?>
<svg width="9px" height="10px" viewBox="0 0 9 10" version="1.1" xmlns="http://www.w3.org/2000/svg" xmlns:xlink="http://www.w3.org/1999/xlink">
    <title>pdf</title>
    <g id="One-Faculty" stroke="none" stroke-width="1" fill="none" fill-rule="evenodd">
        <g id="Teaching-Toolkits-Resources-paper" transform="translate(-377.000000, -892.000000)" fill-rule="nonzero">
            <g id="Group-4" transform="translate(320.000000, 848.000000)">
                <g id="Group-3" transform="translate(18.000000, 15.000000)">
                    <g id="pdf" transform="translate(39.000000, 29.000000)">
                        <path d="M0.642852392,0 L6.10488603,0 L9,2.80375856 L9,9.37500606 C9,9.7203064 8.71201517,10 8.35714761,10 L0.642852392,10 C0.287984834,10 0,9.7203064 0,9.37500606 L0,0.624993937 C0,0.279693598 0.288018093,0 0.642852392,0 Z" id="Path" fill="#7C6362"></path>
                        <path d="M9,3 L6.66881582,3 C6.29961592,3 6,2.70068443 6,2.33185463 L6,0 L9,3 Z" id="Path" fill="#BB9B9A"></path>
                        <path d="M6.85728553,4.38437484 C6.95309922,4.38437484 7,4.28686443 7,4.19236019 C7,4.09450424 6.95108708,4 6.85728553,4 L6.31163864,4 C6.20496527,4 6.14548857,4.10317721 6.14548857,4.21706605 L6.14548857,5.78293395 C6.14548857,5.92253071 6.21354648,6 6.30563179,6 C6.39715488,6 6.4655087,5.92253071 6.4655087,5.78293395 L6.4655087,5.35315561 L6.79553037,5.35315561 C6.89791314,5.35315561 6.94910452,5.25529967 6.94910452,5.15813479 C6.94910452,5.06297403 6.89791314,4.96843524 6.79553037,4.96843524 L6.4655087,4.96843524 L6.4655087,4.38437484 C6.4655087,4.38437484 6.85728553,4.38437484 6.85728553,4.38437484 Z M5.01300498,4 L4.61377137,4 C4.50538175,4 4.42844673,4.08683333 4.42844673,4.21571846 L4.42844673,5.78428154 C4.42844673,5.9442304 4.5391148,5.9943332 4.61832829,5.9943332 L5.03729869,5.9943332 C5.53317453,5.9943332 5.86062184,5.61331007 5.86062184,5.02520689 C5.86035553,4.4034139 5.55208279,4 5.01300498,4 Z M5.03217955,5.60764327 L4.78879856,5.60764327 L4.78879856,4.38672449 L5.00815215,4.38672449 C5.34018598,4.38672449 5.4845871,4.64687894 5.4845871,5.00585684 C5.4845871,5.34182201 5.34273075,5.60764327 5.03217955,5.60764327 Z M3.56967428,4 L3.17416906,4 C3.06234696,4 3,4.08614226 3,4.21706605 L3,5.78293395 C3,5.92253071 3.07149039,6 3.16757041,6 C3.26365042,6 3.33514081,5.92253071 3.33514081,5.78293395 L3.33514081,5.32575457 L3.58307873,5.32575457 C3.88907301,5.32575457 4.14159744,5.0726145 4.14159744,4.66553791 C4.14162703,4.26716885 3.89797972,4 3.56967428,4 Z M3.56310522,4.95844923 L3.3351704,4.95844923 L3.3351704,4.36768542 L3.56310522,4.36768542 C3.70380754,4.36768542 3.79331849,4.49591403 3.79331849,4.66322282 C3.79302258,4.83022063 3.70380754,4.95844923 3.56310522,4.95844923 Z" id="Shape" fill="#FFFFFF"></path>
                    </g>
                </g>
            </g>
        </g>
    </g>
</svg>