<?xml version="1.0" encoding="utf-8"?>
<!-- Generator: Adobe Illustrator 24.2.3, SVG Export Plug-In . SVG Version: 6.00 Build 0)  -->
<svg version="1.1" id="Layer_1" xmlns="http://www.w3.org/2000/svg" xmlns:xlink="http://www.w3.org/1999/xlink" x="0px" y="0px"
	 viewBox="0 0 772 120" style="enable-background:new 0 0 772 120;" xml:space="preserve">
<style type="text/css">
	.st0{fill:#EABBB9;}
	.st1{filter:url(#Adobe_OpacityMaskFilter);}
	.st2{fill-rule:evenodd;clip-rule:evenodd;fill:#FFFFFF;}
	.st3{mask:url(#mask-5_1_);fill:#F05F50;enable-background:new    ;}
</style>
<g id="R3">
	<g id="Dashboard---In-progress" transform="translate(-201.000000, -1518.000000)">
		<g id="LPA-Score-Card" transform="translate(204.000000, 1485.000000)">
			<g id="Polygon-Copy-8" transform="translate(0.000000, 36.000000)">
				<g id="Mask">
					<g>
						<path id="path-1_1_" d="M8.5,0h742c6.6,0,12,5.4,12,12v90c0,6.6-5.4,12-12,12H8.5c-6.6,0-12-5.4-12-12V12
							C-3.5,5.4,1.9,0,8.5,0z"/>
					</g>
					<g>
						<path id="path-1_2_" class="st0" d="M9.5,0h742c6.6,0,12,5.4,12,12v90c0,6.6-5.4,12-12,12H9.5c-6.6,0-12-5.4-12-12V12
							C-2.5,5.4,2.9,0,9.5,0z"/>
					</g>
				</g>
				<g id="Mask_1_">
				</g>
				<defs>
					<filter id="Adobe_OpacityMaskFilter" filterUnits="userSpaceOnUse" x="508" y="-40" width="307.4" height="286.3">
						<feColorMatrix  type="matrix" values="1 0 0 0 0  0 1 0 0 0  0 0 1 0 0  0 0 0 1 0"/>
					</filter>
				</defs>
				<mask maskUnits="userSpaceOnUse" x="508" y="-40" width="307.4" height="286.3" id="mask-5_1_">
					<g class="st1">
						<path id="path-4_1_" class="st2" d="M519,0h239c6.6,0,12,5.4,12,12v90c0,6.6-5.4,12-12,12H519c-6.6,0-12-5.4-12-12V12
							C507,5.4,512.4,0,519,0z"/>
					</g>
				</mask>
				<path class="st3" d="M620.2-39.9l97.7,5.1c20,1,37.9,12.7,47,30.5l44.4,87.2c9.1,17.8,8,39.1-2.9,55.9l-53.3,82.1
					c-10.9,16.8-29.9,26.5-49.9,25.4l-97.7-5.1c-20-1-37.9-12.7-47-30.5l-44.4-87.2c-9.1-17.8-8-39.1,2.9-55.9l53.3-82.1
					C581.2-31.2,600.2-40.9,620.2-39.9z"/>
			</g>
		</g>
	</g>
</g>
</svg>
