<?xml version="1.0" encoding="utf-8"?>
<!-- Generator: Adobe Illustrator 24.2.3, SVG Export Plug-In . SVG Version: 6.00 Build 0)  -->
<svg version="1.1" id="_x38_aabfaf6-cc42-4c9c-9f60-e556953fcdb8"
	 xmlns="http://www.w3.org/2000/svg" xmlns:xlink="http://www.w3.org/1999/xlink" x="0px" y="0px" viewBox="0 0 1097.1 845.4"
	 style="enable-background:new 0 0 1097.1 845.4;" xml:space="preserve">
<style type="text/css">
	.st0{opacity:0.16;fill:#FF7C5F;}
	.st1{opacity:0.3;}
	.st2{opacity:0.76;fill:none;stroke:#334652;stroke-miterlimit:10;}
	.st3{fill:#334652;}
	.st4{opacity:0.25;fill:#334652;enable-background:new    ;}
	.st5{opacity:0.36;}
	.st6{fill:none;stroke:#334652;stroke-miterlimit:10;}
	.st7{fill:#FF7C5F;}
	.st8{opacity:0.1;enable-background:new    ;}
	.st9{fill:#FFD037;}
	.st10{fill:#A8A8A8;}
	.st11{opacity:0.2;enable-background:new    ;}
	.st12{fill:none;stroke:#535461;stroke-width:2;stroke-miterlimit:10;}
	.st13{fill:#6C63FF;}
	.st14{fill:url(#SVGID_1_);}
	.st15{fill:#D3899B;}
	.st16{fill:#EEC5CD;}
	.st17{fill:#3F2B3B;}
	.st18{fill:none;stroke:#3F2B3B;stroke-miterlimit:10;}
	.st19{fill:url(#SVGID_2_);}
	.st20{fill:#F1D2D7;}
	.st21{fill:#FFBEC7;}
	.st22{fill:#493545;}
	.st23{fill:#BD577A;}
	.st24{fill:#E8E8F0;}
	.st25{fill:url(#SVGID_3_);}
	.st26{fill:#EAEAF3;}
</style>
<path class="st0" d="M870.2,694.8c16,8.1,35.6,3.2,53.8,3.7c2.5,0.1,5.1,0.3,7.1,1.7s3,3.7,4.3,5.6c5.1,7.2,15.5,9.5,24.7,8.3
	s17.5-5.3,26.1-8.4c14.9-5.3,31.9-7.8,46.6-1.9c1.3,0.7,2.7,1,4.2,0.9c3.2-0.5,4.2-4.3,6.4-6.6c4.1-4,12.9-2.9,14.7-8.2
	c1-3.1-1.4-6.2-4-8.3c-10-8.1-24.4-9.4-37.5-8.1c-13.1,1.2-26,4.7-39.2,4.7c-16.4,0-32.3-5.3-48.6-7.4c-11.3-1.5-23.6-1.3-34.2,3.1
	C883.1,678.7,880.5,689.3,870.2,694.8z"/>
<path class="st0" d="M11.8,430C29.2,504.2,66,568.3,124,599.4c120.7,64.6,392.9,31.3,596.1-7c102.7-19.3,195.8-72.5,264.5-151.2
	L11.8,430z"/>
<path class="st0" d="M1077.2,80.7H965.7c-5.3,0-9.6-4.3-9.6-9.6c0-5.3,4.3-9.6,9.6-9.6l0,0H985c-5.3-0.2-9.5-4.6-9.3-9.9
	c0.2-5.1,4.2-9.2,9.3-9.3h-13.8c-5.3-0.2-9.5-4.6-9.3-9.9c0.2-5.1,4.2-9.2,9.3-9.3h58.2c-12.9-6-28-10.3-45.4-12.5
	c-158.6-20.4-215.3-6.9-235.3,7c-24.7,17.1-52.2,29.7-81.5,35.7c-97.9,20.2-280.9,44.5-446.8-7.8c-82.5-26-143.7,17.9-180.5,91.3
	h1056.6c-1.4-21.3-5.5-41-13.1-58.2C1081.7,79.9,1079.5,80.7,1077.2,80.7z"/>
<path class="st0" d="M2.4,275.1c-4.3,43.2-2.8,86.7,4.3,129.4l978.7,35.8c27.2-31.3,50.1-66.2,68-103.7L2.4,275.1z M389.5,367.5
	h-19.3c5.3,0,9.6,4.3,9.6,9.6s-4.3,9.6-9.6,9.6l0,0H258.7c-5.3,0-9.6-4.3-9.6-9.6s4.3-9.6,9.6-9.6H278c-5.3-0.2-9.5-4.6-9.3-9.9
	c0.2-5.1,4.2-9.2,9.3-9.3h-13.8c-5.3-0.2-9.5-4.6-9.3-9.9c0.2-5.1,4.2-9.2,9.3-9.3h111.5c5.3,0.2,9.5,4.6,9.3,9.9
	c-0.2,5.1-4.2,9.2-9.3,9.3h13.8c5.3,0.2,9.5,4.6,9.3,9.9C398.6,363.2,394.6,367.3,389.5,367.5L389.5,367.5z"/>
<path class="st0" d="M1096.6,137.3l-1068.5,26c-13,33.4-21.6,71.2-25.6,110.3h1075.3c7-23,12.2-46.5,15.5-70.3
	C1096.6,180.3,1097.9,158,1096.6,137.3z M219.5,222.4h-19.3c5.3,0,9.6,4.3,9.6,9.6c0,5.3-4.3,9.6-9.6,9.6c0,0,0,0,0,0H88.7
	c-5.3,0-9.6-4.3-9.6-9.6c0-5.3,4.3-9.6,9.6-9.6H108c-5.3-0.2-9.5-4.6-9.3-9.9c0.2-5.1,4.2-9.2,9.3-9.3H94.2
	c-5.3-0.2-9.5-4.6-9.3-9.9c0.2-5.1,4.2-9.2,9.3-9.3h111.5c5.3,0.2,9.5,4.6,9.3,9.9c-0.2,5.1-4.2,9.2-9.3,9.3h13.8
	c5.3,0.2,9.5,4.6,9.3,9.9C228.6,218.2,224.6,222.3,219.5,222.4z"/>
<g class="st1">
	<path class="st2" d="M583.3,593.6c0,0,28.2-69.5,80.9-95.3c22.2-10.7,40.3-28.2,51.6-50.1c5.3-10.4,9.6-21.3,12.9-32.5"/>
	<path class="st3" d="M761.8,399.3c-5.5,6.9-33.9,17-33.9,17s3.4-30,8.9-36.9c5.1-7.2,15-9,22.3-3.9c7.2,5.1,9,15,3.9,22.3
		C762.6,398.4,762.2,398.9,761.8,399.3L761.8,399.3z"/>
	<path class="st3" d="M752,454c-8.4,2.8-37.7-4.2-37.7-4.2s19.2-23.3,27.5-26.1c8.2-3.4,17.5,0.5,20.9,8.6
		c3.4,8.2-0.5,17.5-8.6,20.9C753.4,453.6,752.7,453.8,752,454z"/>
	<path class="st3" d="M699.1,518.6c-8.6-1.8-30.4-22.6-30.4-22.6s28.3-10.4,36.9-8.6c8.5,2.4,13.5,11.2,11.1,19.7
		C714.6,514.8,707.1,519.7,699.1,518.6z"/>
	<path class="st3" d="M648.1,558.5c-8.8-0.3-33.8-17.2-33.8-17.2s26.1-15.1,34.9-14.8c8.8-0.2,16.2,6.7,16.4,15.6
		c0.2,8.8-6.7,16.2-15.6,16.4C649.5,558.6,648.8,558.5,648.1,558.5z"/>
	<path class="st3" d="M687,430.3c1.1,8.7,20.2,32.1,20.2,32.1s12.6-27.4,11.5-36.1c-0.6-8.8-8.2-15.5-17-15s-15.5,8.2-15,17
		C686.8,428.9,686.9,429.6,687,430.3z"/>
	<path class="st3" d="M628,477.7c3.7,8,28.9,24.5,28.9,24.5s3.8-29.9,0.1-37.9c-4.2-7.8-13.9-10.7-21.7-6.4
		C628.2,461.7,625.1,470.2,628,477.7z"/>
	<path class="st3" d="M576.9,531.6c2.3,8.5,24.3,29.1,24.3,29.1s8.8-28.8,6.5-37.3c-2.8-8.4-11.9-12.9-20.3-10.1
		C579.8,515.8,575.3,523.7,576.9,531.6L576.9,531.6z"/>
	<path class="st4" d="M761.8,399.3c-5.5,6.9-33.9,17-33.9,17s3.4-30,8.9-36.9c5.1-7.2,15-9,22.3-3.9c7.2,5.1,9,15,3.9,22.3
		C762.6,398.4,762.2,398.9,761.8,399.3L761.8,399.3z"/>
	<path class="st4" d="M752,454c-8.4,2.8-37.7-4.2-37.7-4.2s19.2-23.3,27.5-26.1c8.2-3.4,17.5,0.5,20.9,8.6
		c3.4,8.2-0.5,17.5-8.6,20.9C753.4,453.6,752.7,453.8,752,454z"/>
	<path class="st4" d="M699.1,518.6c-8.6-1.8-30.4-22.6-30.4-22.6s28.3-10.4,36.9-8.6c8.5,2.4,13.5,11.2,11.1,19.7
		C714.6,514.8,707.1,519.7,699.1,518.6z"/>
	<path class="st4" d="M648.1,558.5c-8.8-0.3-33.8-17.2-33.8-17.2s26.1-15.1,34.9-14.8c8.8-0.2,16.2,6.7,16.4,15.6
		c0.2,8.8-6.7,16.2-15.6,16.4C649.5,558.6,648.8,558.5,648.1,558.5z"/>
	<path class="st4" d="M687,430.3c1.1,8.7,20.2,32.1,20.2,32.1s12.6-27.4,11.5-36.1c-0.6-8.8-8.2-15.5-17-15s-15.5,8.2-15,17
		C686.8,428.9,686.9,429.6,687,430.3z"/>
	<path class="st4" d="M628,477.7c3.7,8,28.9,24.5,28.9,24.5s3.8-29.9,0.1-37.9c-4.2-7.8-13.9-10.7-21.7-6.4
		C628.2,461.7,625.1,470.2,628,477.7z"/>
	<path class="st4" d="M576.9,531.6c2.3,8.5,24.3,29.1,24.3,29.1s8.8-28.8,6.5-37.3c-2.8-8.4-11.9-12.9-20.3-10.1
		C579.8,515.8,575.3,523.7,576.9,531.6L576.9,531.6z"/>
</g>
<g class="st5">
	<path class="st6" d="M604.4,488.4c0,0,3.6-74.9,44.7-116.7c17.4-17.4,28.6-40,32-64.4c1.5-11.6,2-23.3,1.4-34.9"/>
	<path class="st3" d="M708.3,245.9c-2.9,8.3-26.3,27.2-26.3,27.2s-6.7-29.4-3.8-37.7c2.4-8.5,11.2-13.5,19.7-11.1
		c8.5,2.4,13.5,11.2,11.1,19.7C708.8,244.7,708.6,245.3,708.3,245.9z"/>
	<path class="st3" d="M717.3,300.7c-7,5.4-36.9,8.6-36.9,8.6s10.3-28.3,17.3-33.7c7.3-5,17.3-3.1,22.2,4.2
		C724.4,286.4,723.3,295.3,717.3,300.7z"/>
	<path class="st3" d="M688.8,379.2c-8.7,1.2-36.2-11.3-36.2-11.3s23.2-19.2,31.9-20.4c8.8-0.6,16.5,6.1,17.1,14.9
		C702.2,370.4,696.7,377.6,688.8,379.2L688.8,379.2z"/>
	<path class="st3" d="M653.9,433.7c-8.4,2.6-37.6-5-37.6-5s19.6-22.9,28.1-25.5c8.2-3.2,17.5,0.9,20.7,9.2
		c3.2,8.2-0.9,17.5-9.2,20.7C655.3,433.3,654.6,433.6,653.9,433.7L653.9,433.7z"/>
	<path class="st3" d="M648.1,299.9c4,7.9,29.7,23.5,29.7,23.5s2.8-30-1.2-37.9c-3.5-8.1-12.9-11.9-21-8.5c-8.1,3.5-11.9,12.9-8.5,21
		C647.5,298.7,647.8,299.3,648.1,299.9L648.1,299.9z"/>
	<path class="st3" d="M608.1,364.2c6.1,6.3,35.4,13.6,35.4,13.6s-6.3-29.5-12.5-35.8c-5.7-6.7-15.8-7.6-22.6-1.9s-7.6,15.8-1.9,22.6
		C607.1,363.2,607.6,363.7,608.1,364.2L608.1,364.2z"/>
	<path class="st3" d="M577.8,432c5,7.3,32.6,19.4,32.6,19.4s-1.3-30.1-6.2-37.4c-4.5-7.6-14.3-10.2-21.9-5.8
		c-7.6,4.5-10.2,14.3-5.8,21.9C576.9,430.8,577.3,431.4,577.8,432L577.8,432z"/>
</g>
<path class="st7" d="M988.6,622.7c0,0,5.5,7.2-2.5,18s-14.7,20-12,26.8c0,0,12.1-20.1,22-20.4S999.5,634.8,988.6,622.7z"/>
<path class="st8" d="M988.6,622.7c0.5,0.7,0.9,1.5,1.1,2.3c9.6,11.3,14.7,21.8,5.5,22.1c-8.6,0.2-18.9,15.7-21.4,19.5
	c0.1,0.3,0.2,0.6,0.3,0.9c0,0,12.1-20.1,22-20.4S999.5,634.8,988.6,622.7z"/>
<path class="st9" d="M998.8,631.8c0,2.5-0.3,4.6-0.6,4.6s-0.6-2-0.6-4.6s0.3-1.3,0.7-1.3S998.8,629.3,998.8,631.8z"/>
<path class="st7" d="M1002.3,634.9c-2.2,1.2-4.2,1.9-4.3,1.6s1.5-1.5,3.7-2.7s1.3-0.3,1.5,0S1004.5,633.7,1002.3,634.9z"/>
<path class="st7" d="M959.5,622.7c0,0-5.5,7.2,2.5,18s14.7,20,12,26.8c0,0-12.1-20.1-22-20.4S948.7,634.8,959.5,622.7z"/>
<path class="st7" d="M959.5,622.7c-0.5,0.7-0.9,1.5-1.1,2.3c-9.6,11.3-14.7,21.8-5.5,22.1c8.6,0.2,18.9,15.7,21.4,19.5
	c-0.1,0.3-0.2,0.6-0.3,0.9c0,0-12.1-20.1-22-20.4S948.7,634.8,959.5,622.7z"/>
<path class="st9" d="M949.4,631.8c0,2.5,0.3,4.6,0.6,4.6s0.6-2,0.6-4.6s-0.3-1.3-0.7-1.3S949.4,629.3,949.4,631.8z"/>
<path class="st9" d="M945.9,634.9c2.2,1.2,4.2,1.9,4.3,1.6s-1.5-1.5-3.7-2.7s-1.3-0.3-1.5,0S943.6,633.7,945.9,634.9z"/>
<path class="st10" d="M951.1,666.5c0,0,15.4-0.5,20-3.8c4.6-3.3,23.6-7.2,24.8-2s23.1,26.3,5.7,26.4s-40.3-2.7-44.9-5.5
	S951.1,666.5,951.1,666.5z"/>
<path class="st11" d="M1001.9,685.4c-17.3,0.1-40.3-2.7-44.9-5.5c-3.5-2.1-4.9-9.8-5.4-13.4h-0.5c0,0,1,12.4,5.6,15.2
	s27.6,5.7,44.9,5.5c5,0,6.7-1.8,6.6-4.5C1007.5,684.4,1005.7,685.4,1001.9,685.4z"/>
<path class="st0" d="M0.8,718.5c20.7,7.5,45.9,2.9,69.4,3.5c3.2,0.1,6.6,0.3,9.2,1.6s3.9,3.4,5.6,5.2c6.6,6.7,20,8.8,31.8,7.7
	s22.6-4.9,33.7-7.7c19.2-4.9,41.2-7.2,60.1-1.8c1.7,0.6,3.6,0.9,5.4,0.9c4.1-0.4,5.4-4,8.3-6.1c5.2-3.7,16.6-2.7,18.9-7.6
	c1.4-2.8-1.8-5.8-5.1-7.7c-13-7.5-31.5-8.7-48.4-7.5s-33.6,4.3-50.7,4.3c-21.2,0-41.7-4.9-62.8-6.8c-14.6-1.4-30.4-1.2-44.1,2.9
	C17.5,703.6,14.2,713.5,0.8,718.5z"/>
<path class="st7" d="M234.6,698.9c1.8-1.5,3.2-3.5,3.8-5.8c0.5-2.3-0.5-5-2.7-5.9c-2.5-0.9-5.1,0.8-7.1,2.5s-4.3,3.7-6.9,3.3
	c2.7-2.5,4-6.2,3.2-9.8c-0.1-0.7-0.4-1.4-0.9-2c-1.4-1.5-3.8-0.8-5.5,0.3c-5.2,3.7-6.6,10.7-6.7,17.1c-0.5-2.3-0.1-4.7-0.1-7
	s-0.7-5-2.6-6.2c-1.2-0.7-2.6-1-4-1c-2.3-0.1-4.9,0.2-6.5,1.9c-2,2.1-1.5,5.7,0.3,8s4.4,3.8,6.8,5.4c1.9,1.2,3.6,2.7,4.8,4.6
	c0.1,0.3,0.3,0.5,0.4,0.8h14.6C228.8,703.5,231.9,701.4,234.6,698.9z"/>
<path class="st12" d="M118.2,714.7c0,0-14-47.7,2.6-82.8c7.1-14.7,9.2-31.3,6.1-47.3c-1.6-7.6-3.8-15-6.7-22.2"/>
<path class="st13" d="M130.6,540.2c0,5.8-10.6,22.8-10.6,22.8s-10.6-17-10.6-22.8c0-5.8,4.7-10.6,10.6-10.6
	C125.9,529.6,130.6,534.4,130.6,540.2L130.6,540.2z"/>
<path class="st13" d="M148.1,572.6c-3.2,4.9-21.3,13.4-21.3,13.4s0.3-20,3.5-24.9c3.2-4.9,9.7-6.3,14.6-3.1S151.3,567.7,148.1,572.6
	L148.1,572.6z"/>
<path class="st13" d="M147.4,627.9c-5.2,2.6-25.1,0.8-25.1,0.8s10.4-17.1,15.6-19.7c5.2-2.6,11.6-0.5,14.2,4.7
	C154.7,618.9,152.6,625.3,147.4,627.9L147.4,627.9z"/>
<path class="st13" d="M137.4,669.7c-4.7,3.5-24.6,5-24.6,5s7.3-18.6,12-22.1c4.5-3.7,11.2-3,14.9,1.5c3.7,4.5,3,11.2-1.5,14.9
	C137.9,669.2,137.6,669.4,137.4,669.7L137.4,669.7z"/>
<path class="st13" d="M104.6,587.1c4.2,4.1,23.7,8.3,23.7,8.3s-4.8-19.4-9-23.5c-4.1-4.2-10.8-4.3-15-0.2s-4.3,10.8-0.2,15
	C104.3,586.9,104.5,587,104.6,587.1L104.6,587.1z"/>
<path class="st13" d="M93.6,636.1c5.2,2.6,25.1,0.8,25.1,0.8s-10.4-17.1-15.6-19.7c-5.3-2.5-11.6-0.3-14.1,5
	C86.5,627.3,88.5,633.4,93.6,636.1z"/>
<path class="st13" d="M89.3,685.2c4.7,3.5,24.6,5,24.6,5s-7.3-18.6-12-22.1c-4.5-3.7-11.2-3-14.9,1.5c-3.7,4.5-3,11.2,1.5,14.9
	C88.8,684.7,89,684.9,89.3,685.2L89.3,685.2z"/>
<path class="st3" d="M130.6,540.2c0,5.8-10.6,22.8-10.6,22.8s-10.6-17-10.6-22.8c0-5.8,4.7-10.6,10.6-10.6
	C125.9,529.6,130.6,534.4,130.6,540.2L130.6,540.2z"/>
<path class="st3" d="M148.1,572.6c-3.2,4.9-21.3,13.4-21.3,13.4s0.3-20,3.5-24.9c3.2-4.9,9.7-6.3,14.6-3.1S151.3,567.7,148.1,572.6
	L148.1,572.6z"/>
<path class="st3" d="M147.4,627.9c-5.2,2.6-25.1,0.8-25.1,0.8s10.4-17.1,15.6-19.7c5.2-2.6,11.6-0.5,14.2,4.7
	C154.7,618.9,152.6,625.3,147.4,627.9L147.4,627.9z"/>
<path class="st3" d="M137.4,669.7c-4.7,3.5-24.6,5-24.6,5s7.3-18.6,12-22.1c4.5-3.7,11.2-3,14.9,1.5c3.7,4.5,3,11.2-1.5,14.9
	C137.9,669.2,137.6,669.4,137.4,669.7L137.4,669.7z"/>
<path class="st3" d="M104.6,587.1c4.2,4.1,23.7,8.3,23.7,8.3s-4.8-19.4-9-23.5c-4.1-4.2-10.8-4.3-15-0.2s-4.3,10.8-0.2,15
	C104.3,586.9,104.5,587,104.6,587.1L104.6,587.1z"/>
<path class="st3" d="M93.6,636.1c5.2,2.6,25.1,0.8,25.1,0.8s-10.4-17.1-15.6-19.7c-5.3-2.5-11.6-0.3-14.1,5
	C86.5,627.3,88.5,633.4,93.6,636.1z"/>
<path class="st3" d="M89.3,685.2c4.7,3.5,24.6,5,24.6,5s-7.3-18.6-12-22.1c-4.5-3.7-11.2-3-14.9,1.5c-3.7,4.5-3,11.2,1.5,14.9
	C88.8,684.7,89,684.9,89.3,685.2L89.3,685.2z"/>
<path class="st10" d="M85,711.7c0,0,17.1-3.4,21.7-7.9s25.1-12.5,27.4-6.8s30.8,24.9,11.4,28.3s-45.6,4.5-51.3,2.3
	S85,711.7,85,711.7z"/>
<path class="st11" d="M145.5,723.2c-19.4,3.4-45.6,4.5-51.3,2.3c-4.3-1.7-7.4-10-8.6-13.9l-0.6,0.1c0,0,3.4,13.6,9.1,15.9
	s31.9,1.1,51.3-2.3c5.6-1,7.2-3.3,6.6-6.2C151.6,721,149.6,722.4,145.5,723.2z"/>
<path class="st0" d="M343.8,813.2c39.3,13.2,87.3,5.2,131.9,6.1c6.1,0.1,12.6,0.5,17.5,2.8s7.3,6,10.7,9.2
	c12.5,11.8,38.1,15.6,60.5,13.6s42.9-8.6,64-13.7c36.5-8.7,78.3-12.7,114.3-3.2c3.3,0.9,6.8,1.9,10.3,1.5
	c7.9-0.8,10.2-7.1,15.8-10.7c10-6.5,31.6-4.8,36-13.3c2.6-5-3.3-10.2-9.8-13.6c-24.6-13.2-59.8-15.3-92.1-13.3s-63.9,7.6-96.3,7.6
	c-40.3,0-79.3-8.6-119.3-12.1c-27.7-2.5-57.9-2.1-83.8,5C375.4,786.9,369.2,804.4,343.8,813.2z"/>
<linearGradient id="SVGID_1_" gradientUnits="userSpaceOnUse" x1="710.5177" y1="1.8003" x2="710.5177" y2="132.8841" gradientTransform="matrix(1 0 0 -1 -51.45 818.69)">
	<stop  offset="0" style="stop-color:#808080;stop-opacity:0.25"/>
	<stop  offset="0.54" style="stop-color:#808080;stop-opacity:0.12"/>
	<stop  offset="1" style="stop-color:#808080;stop-opacity:0.1"/>
</linearGradient>
<path class="st14" d="M709.9,712.5c0.2-1.9,0.5-3.8,0.9-5.7c1.5-8.2-0.8-16.1-2-19.3l0,0c-0.3-1-0.6-1.6-0.6-1.6
	c-6.1-1.7-30,16.9-38.7,23.9c-3,0-6.3,0.1-9.9,0.4c-1.6,0.1-3.1,0.2-4.7,0.1c-1.4,0-3.4,0-5.7,0c-8.1-6.5-33.1-26.1-39.3-24.4
	c0,0-0.2,0.6-0.6,1.6l0,0c-1.2,3.2-3.5,11.1-2,19.3c0.3,1.9,0.7,3.8,0.9,5.7c0.5,4.2,2.2,12.2,8.6,17.6c1.3,9.9,6.5,22.9,10.4,30.8
	c0.3,1.5,0.7,3,1.3,4.4c-1.6,6.2-3.5,14.4-3,17.1c0,0-8.5-2-9.3,8.1c0,0.1,0,0.2,0,0.3c-3.1,1.4-6.9,4.6-2.6,11.3
	c0.5,0.8,1.3,1.5,2.2,1.8c0.8,0.3,1.5,0.3,1.4-0.8l5.3,6c0,0,9.6,1.1,9.7-4.5l0.6,0.1c1.3,0.2,2.6,0.3,4,0.5l0.7,2.2
	c0,0-7.2-0.2-5.2,4.3c0,0,1.8,1.7,2.4,1.1c0,0-0.9,2.9,2.8,2.9c0,0,4,2.1,5.6,0.6s4.8-3.8,5.1-4.7c0.1-0.2,0.1-2.5,0.1-5.6h0.6
	c8,0.2,16.5-0.1,24.3-0.5h0.6c0,3.4,0,5.9,0.1,6.1c0.3,0.9,3.6,3.2,5.1,4.7s5.6-0.6,5.6-0.6c3.7,0,2.8-2.9,2.8-2.9
	c0.6,0.6,2.4-1.1,2.4-1.1c2-4.4-5.2-4.3-5.2-4.3l0.8-2.8l4-0.3l0.6-0.1c-0.4,6,9.7,4.9,9.7,4.9l5.3-6c-0.1,1.1,0.7,1.1,1.4,0.8
	c0.9-0.3,1.7-1,2.2-1.8c6.5-10.1-5.5-12.3-5.5-12.3c-0.4-0.1-0.7-0.2-1.1-0.2c0-0.2,0-0.4,0-0.5l0,0c0.1-1.3,0.2-2.7,0.1-4
	c-0.5-1.8-3.4-4.7-7.1-5.2c-2.4-0.3-2.5-11.5-2.2-19.2c0.3-1.5,0.4-2.9,0.4-4.4c0-2.4-0.3-4.8-1-7.1c4.8-8.1,8.6-16.5,9-19.1
	C707.7,724.7,709.5,716.7,709.9,712.5z"/>
<path class="st15" d="M700.7,789.7L700.7,789.7c-0.4,5.3-1.4,13.7-1.4,13.7s-4.2,0.5-10.8,1.1l-4.4,0.4c-3.4,0.3-7.2,0.5-11.3,0.8
	c-7.5,0.4-15.7,0.7-23.4,0.5c-3.9-0.1-7.6-0.3-11.1-0.6c-1.5-0.2-3-0.3-4.5-0.5c-8.9-1.3-15.2-3.8-15.8-8.3
	c-0.3-1.9-0.3-3.8-0.2-5.7c0.8-10,9-8,9-8c-0.5-2.8,1.5-11.3,3-17.5c1-3.9,1.9-6.9,1.9-6.9l57.2-3.8h0.2c1.6,0,2.8,1.3,2.8,2.8
	c0,0,0,0.1,0,0.1c-0.3,6.9-0.8,22.6,2,22.9c3.6,0.5,6.5,3.3,6.9,5.1C700.9,787,700.9,788.4,700.7,789.7z"/>
<path class="st15" d="M652.1,714.3c0,0-21.6,26-32,18.8c-0.2-0.2-0.5-0.3-0.7-0.5c-7-5.3-8.8-13.8-9.3-18.2
	c-0.2-1.9-0.5-3.7-0.8-5.6c-1.5-8.1,0.8-15.8,1.9-19l0,0c0.3-1,0.6-1.5,0.6-1.5C618.9,686.4,652.1,714.3,652.1,714.3z"/>
<path class="st16" d="M640.5,716.7c0,0-6.8,4.8-16.4,12.6c-1.5,1.2-3.1,2.3-4.7,3.3c-7-5.3-8.8-13.8-9.3-18.2
	c-0.2-1.9-0.5-3.7-0.8-5.6c-1.5-8.1,0.8-15.8,1.9-19l0,0C624.5,690.8,640.5,716.7,640.5,716.7z"/>
<path class="st8" d="M633.1,714.2c0,0-3.6,2.6-8.8,6.7c-0.8,0.7-1.6,1.3-2.5,1.8c-3.7-2.8-4.7-7.4-5-9.7c-0.1-1-0.3-2-0.5-3
	c-0.5-3.4-0.2-6.9,1-10.1l0,0C624.6,700.3,633.1,714.2,633.1,714.2z"/>
<path class="st15" d="M666.1,714.3c0,0,21.6,26,32,18.8l0.7-0.5c7-5.3,8.8-13.8,9.3-18.2c0.2-1.9,0.5-3.7,0.8-5.6
	c1.4-8.1-0.8-15.8-1.9-19l0,0c-0.3-1-0.6-1.5-0.6-1.5C699.3,686.4,666.1,714.3,666.1,714.3z"/>
<path class="st16" d="M677.7,716.7c0,0,6.8,4.8,16.4,12.6c1.5,1.2,3.1,2.3,4.7,3.3c7-5.3,8.8-13.8,9.3-18.2c0.2-1.9,0.5-3.7,0.8-5.6
	c1.4-8.1-0.8-15.8-1.9-19l0,0C693.6,690.8,677.7,716.7,677.7,716.7z"/>
<path class="st8" d="M685.1,714.2c0,0,3.6,2.5,8.7,6.7c0.8,0.6,1.6,1.2,2.5,1.7c3.7-2.8,4.7-7.3,4.9-9.6c0.1-1,0.3-2,0.4-3
	c0.5-3.4,0.2-6.8-1-10.1l0,0C693.6,700.4,685.1,714.2,685.1,714.2z"/>
<path class="st8" d="M689,754.8c-2.7,4.3-5.6,8.2-8.3,10.5c-8.6,7.6-45.6,4.6-48,4.2c-0.5-0.1-1.5-1.6-2.9-4c1-3.9,1.9-6.9,1.9-6.9
	L689,754.8z"/>
<path class="st15" d="M659.7,712.2c-1.5,0.1-3,0.1-4.5,0.1c-7.7-0.1-33.7,0.2-36.6,10.7c-3.4,12.3,11.8,45.5,14.2,45.9
	s39.4,3.4,48-4.2s19.8-31.4,19.2-33.6C699.9,731.1,710.5,708.6,659.7,712.2z"/>
<path class="st8" d="M658.8,732.2c0,0-19-2.9-28,15.8c-3.6,7.4-3,16.2,1.7,23c3,4.2,7.3,7.3,13.4,4.8
	C659.4,770.3,658.8,732.2,658.8,732.2z"/>
<path class="st8" d="M658.2,731c0,0-19-2.9-28,15.8c-3.6,7.4-3,16.2,1.7,23c3,4.2,7.3,7.3,13.4,4.8C658.8,769.1,658.2,731,658.2,731
	z"/>
<path class="st16" d="M658.2,731.6c0,0-19-2.9-28,15.8c-3.6,7.4-3,16.2,1.7,23c3,4.2,7.3,7.3,13.4,4.8
	C658.8,769.7,658.2,731.6,658.2,731.6z"/>
<path class="st17" d="M637.7,748c0,0-2.6,2.4-1.6,3S637.7,748,637.7,748z"/>
<path class="st17" d="M640.5,751.1c0,0-1.4,3.1-0.4,3.5s1.6-2.2,1.6-2.2L640.5,751.1z"/>
<path class="st17" d="M634.2,755.8c0,0-1.4,3.7,0,3.7S634.2,755.8,634.2,755.8z"/>
<path class="st18" d="M632.5,765.7c0,0,2.8,7.1,10,6.6"/>
<path class="st18" d="M639,767.8c0,0,2.9,2.8,6,0.8"/>
<path class="st8" d="M661.2,732.2c0,0,19-2.9,28,15.8c3.6,7.4,3,16.2-1.7,23c-3,4.2-7.3,7.3-13.4,4.8
	C660.6,770.3,661.2,732.2,661.2,732.2z"/>
<path class="st8" d="M661.8,731c0,0,19-2.9,28,15.8c3.6,7.4,3,16.2-1.7,23c-3,4.2-7.3,7.3-13.4,4.8C661.2,769.1,661.8,731,661.8,731
	z"/>
<path class="st16" d="M661.8,731.6c0,0,19-2.9,28,15.8c3.6,7.4,3,16.2-1.7,23c-3,4.2-7.3,7.3-13.4,4.8
	C661.2,769.7,661.8,731.6,661.8,731.6z"/>
<path class="st17" d="M682.4,748c0,0,2.6,2.4,1.6,3S682.4,748,682.4,748z"/>
<path class="st17" d="M679.5,751.1c0,0,1.4,3.1,0.4,3.5s-1.6-2.2-1.6-2.2L679.5,751.1z"/>
<path class="st17" d="M685.9,755.8c0,0,1.4,3.7,0,3.7S685.9,755.8,685.9,755.8z"/>
<path class="st18" d="M687.5,765.7c0,0-2.8,7.1-10,6.6"/>
<path class="st18" d="M681.1,767.8c0,0-2.9,2.8-6,0.8"/>
<path class="st17" d="M651,785.9c0.5-0.1,10-4.2,19.8,0H651z"/>
<path class="st8" d="M633.8,805c-8.9-1.3-15.2-3.8-15.8-8.3c-0.3-1.9-0.3-3.8-0.2-5.7c1.1-0.6,2.2-1,3.4-1.2c1.6-0.5,3.6-0.2,7.8,1
	s3.9,6.2,4.8,12.6C633.9,803.9,633.9,804.4,633.8,805z"/>
<path class="st15" d="M620.6,790.4c0,0-11.5,2.1-5.3,12.1c0.5,0.8,1.2,1.4,2.1,1.8c0.7,0.3,1.4,0.3,1.4-0.8l5.1,5.8
	c0,0,10.2,1.2,9.3-5.2s-0.6-11.4-4.8-12.6S622.2,789.9,620.6,790.4z"/>
<path class="st18" d="M623.4,797.1c0,0,2.5,5.6,5.8,0.9"/>
<path class="st18" d="M617.8,799.3c0,0,1.3,5.3,6.1,1.3"/>
<path class="st8" d="M700.7,789.7L700.7,789.7c-0.4,5.3-1.4,13.7-1.4,13.7s-4.2,0.5-10.8,1.1c0-0.4,0-0.7,0-1.1
	c0.9-6.4,0.6-11.4,4.8-12.6C697.2,789.7,699.2,789.4,700.7,789.7z"/>
<path class="st15" d="M701.8,790.4c0,0,11.5,2.1,5.3,12.1c-0.5,0.8-1.3,1.4-2.1,1.8c-0.7,0.3-1.4,0.3-1.4-0.8l-5.1,5.8
	c0,0-10.2,1.2-9.3-5.2s0.6-11.4,4.8-12.6S700.2,789.9,701.8,790.4z"/>
<path class="st18" d="M699,797.1c0,0-2.5,5.6-5.8,0.9"/>
<path class="st18" d="M704.6,799.3c0,0-1.3,5.3-6.1,1.3"/>
<path class="st8" d="M649.4,806.2c-3.9-0.1-7.6-0.3-11.1-0.6l-3.5-11.6c-1.2-3.9,1.1-8,5-9.2s8,1.1,9.2,5c0.2,0.7,0.3,1.3,0.3,2
	C649.4,796.3,649.4,802,649.4,806.2z"/>
<path class="st15" d="M634.2,793.9l4.1,13.7c0,0-6.9-0.2-5,4.2c0,0,1.7,1.7,2.3,1c0,0-0.9,2.8,2.7,2.8c0,0,3.9,2.1,5.4,0.6
	s4.7-3.8,5-4.7c0.2-0.6,0.1-12.1,0.1-20c0-4.1-3.3-7.3-7.4-7.3l0,0c-4.1-0.1-7.4,3.2-7.5,7.3C633.9,792.3,634,793.1,634.2,793.9z"/>
<path class="st18" d="M639.7,811.2c0,0-3,2.9-1.4,4.5"/>
<path class="st18" d="M638.4,809.4c0,0-2.8,0.9-2.8,3.5"/>
<path class="st8" d="M687.7,791.8c0,0.7-0.1,1.4-0.3,2.1l-3.3,11c-3.4,0.3-7.2,0.5-11.3,0.8c0-4.1,0-9.6,0.1-14
	c0-4.1,3.3-7.4,7.4-7.4S687.7,787.6,687.7,791.8L687.7,791.8L687.7,791.8z"/>
<path class="st15" d="M688,793.9l-4.1,13.7c0,0,6.9-0.2,5,4.2c0,0-1.7,1.7-2.3,1c0,0,0.9,2.8-2.7,2.8c0,0-3.9,2.1-5.4,0.6
	s-4.7-3.8-5-4.7c-0.2-0.6-0.1-12.1-0.1-20c0-4.1,3.3-7.3,7.4-7.3l0,0c4.1-0.1,7.4,3.2,7.5,7.3C688.3,792.3,688.2,793.1,688,793.9z"
	/>
<path class="st18" d="M682.5,811.2c0,0,3,2.9,1.4,4.5"/>
<path class="st18" d="M683.8,809.4c0,0,2.8,0.9,2.8,3.5"/>
<path class="st8" d="M658.2,728.6c0,0-14.1-0.5-14.5,10.5s22,6.3,22,6.3s9.5-1.3,7.8-7.9S668.5,729.2,658.2,728.6z"/>
<path class="st8" d="M658.2,727.4c0,0-14.1-0.5-14.5,10.5s22,6.3,22,6.3s9.5-1.3,7.8-7.9S668.5,728,658.2,727.4z"/>
<path class="st17" d="M658.2,728c0,0-14.1-0.5-14.5,10.5s22,6.3,22,6.3s9.5-1.3,7.8-7.9S668.5,728.6,658.2,728z"/>
<path class="st8" d="M626.8,783c0,0,4.7,1.7,5.7,4.9"/>
<path class="st8" d="M693.9,780.7c0,0-3.4,1.4-3.2,7.3"/>
<ellipse transform="matrix(0.866 -0.5 0.5 0.866 -318.2893 421.1874)" class="st16" cx="626.8" cy="804.5" rx="2.2" ry="3.6"/>
<ellipse transform="matrix(0.4983 -0.867 0.867 0.4983 -344.2146 1008.2863)" class="st16" cx="699.1" cy="801.6" rx="3.7" ry="2.2"/>
<linearGradient id="SVGID_2_" gradientUnits="userSpaceOnUse" x1="527.4855" y1="-4.6743" x2="527.4855" y2="639.7418" gradientTransform="matrix(1 0 0 -1 -51.45 818.69)">
	<stop  offset="0" style="stop-color:#808080;stop-opacity:0.25"/>
	<stop  offset="0.54" style="stop-color:#808080;stop-opacity:0.12"/>
	<stop  offset="1" style="stop-color:#808080;stop-opacity:0.1"/>
</linearGradient>
<path class="st19" d="M630.9,406.1c-3.2-1.1-22.4-15.9-23.8-22.6s10.1-69.2,10.1-69.2s-1.1,0-2.8-0.2v-1l2.4-82.1
	c0,0,9.7-55.1-8.7-51.9s-6.9,51.9-6.9,51.9s-2.1,24.7-3.6,32.1c-1.4,7.1-7.8,36.3-3.5,45.3c0.2,0.3,0.3,0.6,0.5,0.9l0,0
	c0,0,0.7,31.1-7.2,35.3c-7.6,4-10.7,24.4-11,26.2l-0.4-0.2l0,0c-2.3-1.4-4.3-3.2-5.9-5.2c-0.2-0.2-0.3-0.4-0.4-0.7
	c10.7-11.7,10.4-29.8-0.8-41.1l-0.8-0.7c0.6-0.6,1.1-1.4,1.3-2.2c1.4-4.2-3.4-7.6-6-10.2c-5.8-6.2-11-13.8-19.1-17.2
	c2.3,1.3,4.5,2.9,6.4,4.8c-2.4-2.1-5.2-3.8-8.3-4.9c-8.5-3-18.2-0.5-25.6,4.5s-12.9,12.4-17.9,19.7l-2.4,3.6
	c-2.1-2.4-4.4-4.6-6.9-6.6c-4.7-3.5-14.1-15.2-14.1-15.2s-29.2-29.7-31.4-37.8s-31.4-56.9-37.9-48.4s22.4,45.5,22.4,45.5
	s5.4,13.4,9.8,18S475,327,475,327l2.7,5.5l0.5,1l-0.3-0.2v6.7l3,0.3c-1.3,1.2-2.6,2.5-3.6,3.9c-1.6,2.4-2.8,5-3.6,7.8
	c-4.7,15.6-2.8,32.7,3.3,47.9c1.3,3.1,2.7,6.2,3.1,9.6c0.5,4.7-1,9.3-1.9,13.9c-1.3,6.5-1.2,13.5,2,19.3
	c4.3,7.7,14.1,11.6,22.9,10.2c4-0.7,7.9-2.3,11.1-4.7c4.1-2.9,7.5-6.8,9.7-11.3c1.7-3.4,2.7-7,4.3-10.4c0.3-0.6,0.7-1.3,1-1.9
	c3.7,4.2,7.1,8,7.1,8s7.9,38.1,1.1,48.7c-3.6,5.3-8.1,10.1-13.1,14.1c-1.3,1-2.4,2.2-3.5,3.5c-0.7,0.5-1.1,0.8-1.1,0.8
	s-0.2,0.5-0.4,1.3c-1.6,2.4-2.8,5-3.4,7.8c-0.2,0.7-0.3,1.5-0.3,2.2c0.5,1-3.5,5-2.3,6.7c-10,11.5-11.9,28.9-11.9,28.9L483,573.7
	c-9.4,24.2-23.5,26.7-23.5,26.7s-33-21.7-33.9-22.8s-13.5-6.3-13.5-6.3c-1.5-2.6-3.8-4.6-6.5-5.8c-4.3-1.8-4.7-8.3-4.7-8.3
	c-0.5-15.4-9.8-16.6-9.8-16.6c-7.4-0.6-13.1,0.7-17.5,3l-1.3,0.1c-6.4,0.5-14.1,1.1-22.5,1.6c-23.5,1.5-29,16.4-29,16.4
	s-2.9,3.2,0.9,6.6s28,0.1,29-0.1c-1.8,0.2-3.7,0.1-5.5-0.4c3.8-0.1,9.1-0.3,13.5-0.3h1.1c-0.3,2.3-0.4,4.7-0.4,7
	c0,4.4,12.5,7.2,12.5,7.2l37.9,33c0,0,23.8,10.4,39,25.4s28.5,2.1,28.5,2.1c16-3.9,62.2-58.5,62.2-58.6l0,0c0,1.7,1,54.8,2.8,65.4
	l0,0c0.1,0.5,0.2,1.1,0.4,1.6c2.2,4.6-0.7,17.1-2,22.4s-0.9,13.4-0.9,13.4s-17.3,64.9-15.8,70.6s-9.4,32.1-9.4,32.1v22.1
	c0,0,0.7,0,1.9-0.1c-0.2,0.3-0.5,0.7-0.7,1.1c0,0.1-0.1,0.2-0.1,0.2c0,0,11.5,2.5,19.3,1.8s21.1,5.9,21.1,5.9s4.5,2.1,18.4,3
	s13.9-6,13.9-6c-1.6-9.4-23.5-12.5-24.2-12.6c-1.8-1.1-3.4-2.3-4.8-3.3l-0.3-0.2c0.1-0.2,0.2-0.4,0.2-0.6
	c2.3-9.4-10.6-13.4-10.6-13.4v-2.3c8.5-4.2,10.1-33.4,10.1-33.4s12.6-36,14.4-42s0-15,0-15l1.3-7.8c0,0,2.7-5.3,2.7-6.4
	c0.4-2.7,1.4-5.3,3.1-7.4c2-2.3-2.2-7.8-2.2-7.8l3.6-9.2v-10.1l8.5-36.5c0,0,8.8-42.5,5.8-56.5s3.6-21,3.6-21
	c-0.6,0.3-1.2,0.6-1.9,0.8c0.9-1.9,1.6-3.9,2.2-5.9l19,2.3c0,0.2,0,0.3,0,0.3h6.8c0,0-2.2-26.1-2.2-36.7s7.2-48.4,7.2-48.4
	S634.1,407.2,630.9,406.1z M546.6,375.1c0,0.1,0,0.3,0,0.4c0,1-0.1,2.1-0.2,3.2l-0.4,0.6l-0.7-0.6l-0.9,1.3l0,0
	c-0.3-1.7,0.2-3.4,1.5-4.6C546.2,375.3,546.4,375.2,546.6,375.1L546.6,375.1z M609.7,497.4h0.4l-0.7,1.7
	C609.5,498.6,609.6,498,609.7,497.4L609.7,497.4z M540.4,809.8l-2.6-0.6l1.4-0.2l1.3,0.8l0.2,0.1L540.4,809.8z M566.8,806.1
	c-0.9-0.5-1.7-1-2.6-1.5C564.5,804.8,565.7,805.4,566.8,806.1z"/>
<polygon class="st20" points="616,471 599.5,514.1 597.2,512.2 587.9,526.5 616,530 "/>
<polygon class="st8" points="616,471 599.5,514.1 595.3,513 587.9,526.5 616,530 "/>
<polygon class="st20" points="590.1,498.6 616,498.6 625.5,420.2 590.1,420.2 "/>
<polygon class="st8" points="590.1,498.6 616,498.6 625.5,420.2 590.1,420.2 "/>
<path class="st21" d="M539.4,438.8l5.6-1l12.9-2.1c0,0,38.7-8.7,46.7-9.4c5-0.4,10.5-2.5,14-4c2.1-0.9,3.4-1.6,3.4-1.6L608,395.3
	l-21.6-16c0,0-13.7-2.9-19.5-10.9c-2.6-3.5-3.3-8-1.8-12.1c3.5-10.9-21.1,10.5-21.1,10.5s0.2,5.1,0,11.6c0,1.3-0.1,2.6-0.2,4
	c-0.1,0.9-0.1,1.8-0.2,2.7c-0.6,6.5-1.8,13.2-4.3,17.1C533.5,412,539.4,438.8,539.4,438.8z"/>
<path class="st8" d="M544.1,378.9h0.5c1,0,1.8-2.1,2.7-2.2c7.7-0.7,14.7-2.4,19.6-7.8c-2.6-3.5-3.3-8-1.8-12.1
	c3.5-10.9-21,10.4-21,10.4S544.4,372.3,544.1,378.9z"/>
<path class="st21" d="M514.2,347.9c0,16.5,13.5,30,30,30c1,0,1.9,0,2.9-0.1c16.5-1.6,28.5-16.3,26.9-32.7s-16.3-28.5-32.7-26.9
	C525.9,319.6,514.2,332.5,514.2,347.9L514.2,347.9z"/>
<path class="st8" d="M514.2,347.9c0,16.5,13.5,30,30,30c1,0,1.9,0,2.9-0.1c0.5-0.2,1-0.6,1.4-1c0.7-1.1,0.9-2.4,0.5-3.6
	c-1.2-5.9-6.5-10-8.4-15.7c-1.7-5-0.4-10.7,2.2-15.3s6.4-8.4,10.2-12.2c0.6-0.7,1.4-1.3,2.3-1.7c3.2-1,8,1.8,10.5-1.1
	c-11.5-11.9-30.5-12.2-42.4-0.7C517.6,332.1,514.3,339.8,514.2,347.9L514.2,347.9z"/>
<path class="st22" d="M554.2,327.7c-0.9,0.4-1.7,0.9-2.3,1.7c-3.8,3.7-7.6,7.5-10.1,12.2s-3.8,10.3-2.2,15.3
	c1.9,5.7,7.2,9.9,8.4,15.7c0.4,1.2,0.2,2.6-0.5,3.6c-1,1.2-2.9,1.3-4.2,2.3c-1.7,1.2-2,3.6-1.5,5.6c0.7,1.9,1.6,3.8,2.8,5.5
	c2.8,5,4,11.4,1,16.2c-1.4,2-3.1,3.7-5,5.2c-3.2,2.8-6.1,5.9-8.7,9.1c-2.3,2.7-4.2,5.7-5.8,8.9c-1.6,3.3-2.6,6.9-4.2,10.2
	c-3.7,7.8-11.1,14-19.6,15.4s-17.9-2.5-22.1-10.1c-3.2-5.7-3.2-12.6-2-19c0.9-4.5,2.4-9.1,1.9-13.7c-0.4-3.3-1.8-6.4-3-9.4
	c-5.9-15-7.8-31.8-3.2-47.3c0.7-2.7,1.9-5.3,3.5-7.7c1.7-2,3.5-4,5.5-5.7c6.2-6.1,10.8-13.6,15.7-20.9s10.1-14.5,17.2-19.4
	s16.6-7.5,24.7-4.5c8.6,3.1,13.8,11.1,19.8,17.5c2.4,2.6,7.1,6,5.7,10.1C563.8,330.5,557.9,326.5,554.2,327.7z"/>
<path class="st8" d="M500.5,453.2c8.5-1.4,15.9-7.6,19.6-15.4c1.6-3.3,2.6-6.9,4.2-10.2c1.6-3.2,3.5-6.2,5.8-8.9
	c2.7-3.3,5.6-6.3,8.7-9.1c1.9-1.5,3.6-3.2,5-5.2c3-4.8,1.8-11.2-0.9-16.2c-1.1-1.7-2.1-3.6-2.8-5.5c-0.5-2-0.2-4.4,1.5-5.6
	c1.3-0.9,3.2-1,4.2-2.3c0.7-1.1,0.9-2.4,0.5-3.6c-1.2-5.9-6.5-10-8.4-15.7c-1.7-5-0.4-10.7,2.2-15.3s6.4-8.4,10.1-12.2
	c0.6-0.7,1.4-1.3,2.3-1.7c3.7-1.2,9.7,2.9,11.6-3c1.3-4.2-3.3-7.5-5.7-10.1c-5.1-5.5-9.8-12.2-16.4-16c7.8,3.4,12.9,10.9,18.5,17
	c2.4,2.6,7.1,5.9,5.7,10.1c-1.9,5.9-7.9,1.9-11.6,3c-0.9,0.4-1.7,0.9-2.3,1.7c-3.8,3.7-7.5,7.5-10.1,12.2s-3.8,10.3-2.2,15.3
	c1.9,5.7,7.2,9.9,8.4,15.7c0.4,1.2,0.2,2.6-0.5,3.6c-1,1.2-2.9,1.3-4.2,2.3c-1.7,1.2-2,3.6-1.5,5.6c0.7,1.9,1.6,3.8,2.8,5.5
	c2.8,5,4,11.4,0.9,16.2c-1.4,2-3.1,3.7-5,5.2c-3.2,2.8-6.1,5.9-8.7,9.1c-2.3,2.7-4.2,5.7-5.8,8.9c-1.6,3.3-2.6,6.9-4.2,10.2
	c-3.7,7.8-11.1,14-19.6,15.4c-5,0.8-10.2-0.1-14.6-2.7C491.9,453.3,496.3,453.8,500.5,453.2z"/>
<path class="st21" d="M532.3,802.7l5.2,3.5l0.8,0.5l0.2,0.1l6.2,4.1l14.4,2.4l12.7-0.9c0,0,3.7-7.7-2.1-7.5
	c-1.8-0.1-3.6-0.6-5.3-1.5l-0.8-0.4l0,0c-0.8-0.4-1.7-0.9-2.5-1.5l0,0l0,0c-1.7-1.1-3.3-2.2-4.6-3.3c-1.9-1.5-3.2-2.6-3.2-2.6
	L532.3,802.7z"/>
<path class="st8" d="M537.5,806.2l0.8,0.5l0.2,0.1l6.2,4.1l14.4,2.4l12.7-0.9c0,0,3.7-7.7-2.1-7.5c-1.8-0.1-3.6-0.6-5.3-1.5
	c0.9,0.5,1.6,1.4,2,2.4c0.2,2-9.4,5.5-9.4,5.5l-13.6-3.6c0,0-2.3-0.7-5.5-1.5l-0.3-0.1L537.5,806.2z"/>
<path class="st23" d="M514.3,809.5c0,0,11.1,2.4,18.6,1.7s20.4,5.8,20.4,5.8s4.4,2,17.8,2.9s13.4-5.9,13.4-5.9
	c-1.5-9.2-22.7-12.3-23.4-12.4l0,0l0,0l0,0c0.3,0.1,1.3,0.7,2.5,1.5l0,0c1.5,1,3.1,2.3,3.2,3.3c0.2,2-9.4,5.5-9.4,5.5l-13.6-3.6
	c0,0-2.3-0.7-5.5-1.5l-0.3-0.1c-4.7-1.3-9.4-2.3-14.2-3c-5.8-0.6-8.8,4.4-9.5,5.5C514.4,809.4,514.3,809.5,514.3,809.5z"/>
<path class="st21" d="M338.8,563.8l5.9,4.5c0,0,1.7-0.1,4.3-0.2h0.8c3.7-0.1,8.7-0.3,13-0.3c4,0,7.3,0.1,8.3,0.5
	c3,1,8.2-16.9,8.2-16.9l-5.9-1.4l-2-0.5l-1.4-0.3l-4.8-1.1l-14.6,1.7l-10.3,6.6L338.8,563.8z"/>
<path class="st8" d="M338.8,563.8l5.9,4.5c0,0,1.7-0.1,4.3-0.2c-1.2-0.5-2.1-1.3-2.7-2.5c-3.8-10.6,15.1-15.1,15.1-15.1l8.8-0.4
	l1.7-0.1l1.4-0.1l-2-0.5l-1.4-0.3l-4.8-1.1l-14.6,1.7l-10.3,6.6L338.8,563.8z"/>
<path class="st23" d="M327.2,568.6c3.6,3.3,27,0.1,28-0.1c-1.8,0.2-3.6,0.1-5.3-0.4c-3.3-0.9-4.1-2.9-4.1-2.9
	c-3.8-10.6,15.1-15.2,15.1-15.2l8.9-0.4l1.7-0.1l21.5-0.9l1-5.9c0,0-7,0.7-17.9,1.5c-6.2,0.5-13.6,1.1-21.8,1.6
	c-22.6,1.5-28,16.2-28,16.2S323.5,565.2,327.2,568.6z"/>
<path class="st21" d="M590.1,312.1c0.1,0.3,0.3,0.6,0.5,0.9l5.2,7.7l13.6,1.4l0.2-5.4l2.3-81c0,0,9.4-54.3-8.3-51.2
	s-6.6,51.2-6.6,51.2s-2,24.4-3.5,31.7C592.1,274.5,585.9,303.2,590.1,312.1z"/>
<path class="st21" d="M559.6,513.3l3.9,6.6l8.7,14.8c0,0,15.7,5.8,19.7,1.4c2.2-2.4,4.6-10.7,6.2-17.7c1.4-5.7,2.3-10.5,2.3-10.5
	L559.6,513.3z"/>
<path class="st8" d="M559.6,513.3l3.9,6.6c0.2-0.2,0.5-0.4,0.7-0.7c4.4-5.6,23.6-1.2,33.9-0.8c1.4-5.7,2.3-10.5,2.3-10.5
	L559.6,513.3z"/>
<path class="st8" d="M362.9,567.9c4,0,7.3,0.1,8.3,0.5c3,1,8.2-16.9,8.2-16.9l-7.9-1.9l21.5-0.9l1-5.9c0,0-7,0.7-17.9,1.5
	c-2.3,1.3-4.3,3-6,5l-0.3,0.4C365.2,555.3,363.5,562.5,362.9,567.9z"/>
<path class="st8" d="M532.3,802.7l6,4c9-1.6,17.2-4.2,18.2-8.2c0-0.1,0-0.1,0-0.2c-1.9-1.5-3.2-2.6-3.2-2.6L532.3,802.7z"/>
<path class="st8" d="M514.5,809.3c7.9-0.4,15.9-1.2,23.7-2.5c-4.7-1.3-9.4-2.3-14.2-3C518.1,803.1,515.1,808.1,514.5,809.3z"/>
<path class="st3" d="M363.5,574.8c0,4.3,12,7.1,12,7.1l36.6,32.6c0,0,23,10.3,37.6,25.1s27.5,2.1,27.5,2.1
	c15.5-3.8,60.1-57.8,60.1-57.8s1,61.6,3.1,66.2s-0.7,16.9-1.9,22.1s-0.9,13.2-0.9,13.2s-16.7,63.9-15.3,69.5s-9.1,31.7-9.1,31.7
	v21.8c0,0,40.9-1.6,43.2-10.8s-10.3-13.2-10.3-13.2V782c8.2-4.2,9.8-32.9,9.8-32.9s12.2-35.5,13.9-41.4s0-14.8,0-14.8l1.2-7.7
	c0,0,2.6-5.2,2.6-6.3c0.4-2.7,1.4-5.2,3-7.3c1.9-2.3-2.1-7.7-2.1-7.7l3.5-9v-9.9l8.2-36c0,0,8.5-42,5.6-55.7s3.5-20.7,3.5-20.7
	c-14,7.3-21-9-23.3-16c-0.6-1.8-0.9-3-0.9-3s-19.2-7.1-37.1-5.4c-3.6,0.3-7.2,1.1-10.6,2.3c-19.8,7.1-23,36.7-23,36.7L482.8,574
	c-9,23.8-22.6,26.3-22.6,26.3s-31.9-21.4-32.7-22.5s-13.1-6.3-13.1-6.3c-1.4-2.5-3.6-4.5-6.3-5.8c-4.2-1.7-4.5-8.2-4.5-8.2
	c-0.5-15.2-9.4-16.4-9.4-16.4C363.4,538.6,363.5,570.4,363.5,574.8z"/>
<rect x="540.8" y="431.3" class="st20" width="18.8" height="58.3"/>
<rect x="539.1" y="428.9" class="st8" width="18.8" height="58.3"/>
<path class="st8" d="M590.1,312c0,0,0,0.1,0,0.1c0.1,0.3,0.3,0.6,0.5,0.9l5.2,7.7l13.6,1.4l0.2-5.4
	C605.3,316.4,595.7,315.2,590.1,312z"/>
<path class="st20" d="M590.6,313.1c0,0,0.7,30.6-7,34.8s-10.6,26-10.6,26s23.2,15.3,28.4,22s17.1,22.7,14.6,26.6s6,21.2,6,21.2
	s-15.3,31.4-11.8,43.2c3.5,11.8,3.8,43.2,3.8,43.2h6.6c0,0-2.1-25.8-2.1-36.2s7-47.7,7-47.7s3.1-36.6,0-37.6s-21.6-15.7-23-22.3
	s9.8-68.3,9.8-68.3S597.9,317.2,590.6,313.1z"/>
<path class="st8" d="M540.5,425.9c0.6,4.3,2.2,8.3,4.5,11.9l12.9-2.1c0,0,38.7-8.7,46.7-9.4c5-0.4,10.5-2.5,14-4
	c-3.1-10.9-9-20.7-17.3-28.3l-4.9-4.5c-7.2-6.7-15.6-12.1-24.7-15.8c0.6,0.5,41.1,35.1,32.2,41.9s-32.8-9.8-32.8-9.8l-27.2-23.4
	l-1-0.9l-1.6,2.4c0.8,0.3,1.6,0.7,2.3,1.1c9.2,5.1,16.1,13.6,19.1,23.8C568.3,427.6,540.5,425.9,540.5,425.9z"/>
<path class="st8" d="M532.1,513c0,0,25.8,14.3,32,6.3c1.4-1.8,4.2-2.5,7.8-2.7c-0.6-1.8-0.9-3-0.9-3s-19.2-7.1-37.1-5.4
	C532.8,511.1,532.1,513,532.1,513z"/>
<path class="st24" d="M544,381.5l28.2,24.2c0,0,23.8,16.6,32.8,9.8s-32.2-41.9-32.2-41.9l0,0c9.1,3.8,17.5,9.1,24.7,15.8l4.9,4.5
	c12.9,12,15.8,12,16.2,29.5c0.1,4.3-1.4,10.5-2.5,11.7c-4.2,4.1-7.1,33.9-6.5,37.3s-7.8,33.5-5,41.9s-34.1-4.2-40.4,3.8
	s-32-6.3-32-6.3s14.3-36.6,17.8-39s7.7-21.2,0-30s-8.4-17-8.4-17s27.9,1.7,22.3-17.1c-3.2-11-11-20.1-21.4-24.9L544,381.5z"/>
<path class="st8" d="M581.5,443.1c0,0-10.8,20.4-24.8,25.7c-0.4,0.2-0.9,0.3-1.3,0.5C540.8,473.7,582.6,449.4,581.5,443.1z"/>
<path class="st21" d="M430.4,262.9c0,0,5.2,13.2,9.4,17.8s35.2,49.8,35.2,49.8l2.6,5.4l2.2,4.7l19.8-2.1l1.4-8l-0.8-0.9
	c-2-2.4-7.4-8.8-11.1-11.6c-4.5-3.5-13.6-15-13.6-15s-28.2-29.3-30.3-37.3s-30.3-56.1-36.6-47.7S430.4,262.9,430.4,262.9z"/>
<path class="st8" d="M477.6,335.9l2.2,4.7l19.8-2.1l1.4-8l-0.8-0.9C498.2,330.6,482.3,338.2,477.6,335.9z"/>
<path class="st8" d="M550.9,388.3c0,0-4.9-7.7-7.7-5.6s-3.9-6.3-5.4-4.9s-6.2,5.3-8.2-0.2c-1.5-4.3-18-31.6-24.7-42.6l-2.8-4.6
	c0,0-18.8,9.4-23.3,6.3v6.6l3.8,0.4l20.5,38.3c0,0,6.5,10.2,6,13.8s8.3,19.2,9.7,20.3s16.4,18.5,16.4,18.5s7.7,37.6,1,48.1
	s-18.1,18.1-18.1,18.1s-3.5,10.1-3,11.1s-4,5.6-1.9,7s4.9,11.2,4.9,11.2s9.8-15.7,15-18.1s12-34.5,12-34.5s1.9-18.9,2.1-31.1
	S546.7,388.3,550.9,388.3z"/>
<path class="st20" d="M549.9,388.3c0,0-4.9-7.7-7.7-5.6s-3.9-6.3-5.4-4.9s-6.2,5.3-8.2-0.2c-1.5-4.3-18-31.6-24.7-42.6
	c-1.7-2.8-2.8-4.6-2.8-4.6s-18.8,9.4-23.3,6.3v6.6l3.8,0.4l20.5,38.3c0,0,6.5,10.2,6,13.8s8.3,19.2,9.7,20.3s16.4,18.5,16.4,18.5
	s7.7,37.6,1,48.1c-3.5,5.2-7.8,9.9-12.6,13.9c-4.1,3.4-6.9,8-8.2,13.2c-0.2,0.7-0.3,1.4-0.2,2.2c0.5,1-4,5.6-1.9,7
	s4.9,11.2,4.9,11.2s9.8-15.7,15-18.1s12-34.5,12-34.5s1.9-18.9,2.1-31.1S545.7,388.3,549.9,388.3z"/>
<path class="st8" d="M502.2,546.7c0,0,14.6,2.8,20.5,7s-22.3-6.6-22.3-6.6L502.2,546.7z"/>
<path class="st8" d="M537.3,583.8c0,0,15.3,12.7,12.5,24.2s-9.8,40.4-9.8,40.4L537.3,583.8z"/>
<path class="st8" d="M403.9,559.4c0,0-21.5,2.3-20.1,5.1s20.1-2.6,20.1-2.6V559.4z"/>
<path class="st8" d="M569,665.2c0,0,1.4,1.7-6.6,0s-2.1-7.1-2.1-7.1L569,665.2z"/>
<path class="st8" d="M566.2,689.2c0,0-11,1.7-16.8,0S566.2,689.2,566.2,689.2z"/>
<path class="st8" d="M543.8,783.2c0,0-1.9-2.1-11.5,1.8s-13.4,4-16.2,2.8S543.8,783.2,543.8,783.2z"/>
<path class="st8" d="M554.4,556.4l-13.6,18.9C540.8,575.3,548.1,558.8,554.4,556.4z"/>
<path class="st8" d="M527.9,382.7c0,0-0.6,6.3-9.3,8.7s-10.4,4.4-10.4,4.4"/>
<path class="st8" d="M505.2,337.2c0,0-11.5,8.2-23.6,6.5"/>
<path class="st8" d="M514,512.8c0,0,3.4,2.1,11.5-7.2"/>
<path class="st8" d="M598.2,414.6c0.3-1.7-0.8-3.3-2-4.6l-2.3-2.7c-0.4-0.6-0.9-1.1-1.5-1.5c-1.3-1-3.1-1.4-4.5-2.3"/>
<linearGradient id="SVGID_3_" gradientUnits="userSpaceOnUse" x1="465.67" y1="677.4952" x2="652.9899" y2="677.4952" gradientTransform="matrix(1 0 0 -1 -51.45 818.69)">
	<stop  offset="0" style="stop-color:#808080;stop-opacity:0.25"/>
	<stop  offset="0.54" style="stop-color:#808080;stop-opacity:0.12"/>
	<stop  offset="1" style="stop-color:#808080;stop-opacity:0.1"/>
</linearGradient>
<path class="st25" d="M582.3,48.6h-149c-10.5-0.1-19.1,8.4-19.2,18.9c0,0,0,0,0,0v147.3c0.1,10.5,8.6,19,19.2,18.9c0,0,0,0,0,0h149
	c10.5,0.1,19.1-8.4,19.2-18.9c0,0,0,0,0,0V67.6C601.5,57,592.9,48.5,582.3,48.6C582.4,48.6,582.3,48.6,582.3,48.6z"/>
<path class="st7" d="M434.5,48.6h147.3c10.5,0,19,8.5,19,18.9v147.3c0,10.5-8.5,18.9-19,18.9H434.5c-10.5,0-19-8.5-19-18.9V67.6
	C415.6,57.1,424.1,48.6,434.5,48.6z"/>
<path class="st26" d="M476.3,166.9c-6.1,0-11,4.9-11,11c0,6.1,4.9,11,11,11c6.1,0,11-4.9,11-11c0-2.9-1.2-5.7-3.2-7.8
	C482.1,168,479.3,166.9,476.3,166.9z"/>
<path class="st26" d="M473.9,143.7c0-6.8-5.5-12.3-12.2-12.3c-6.8,0-12.3,5.5-12.3,12.2s5.5,12.3,12.2,12.3c3.3,0,6.4-1.3,8.7-3.6
	C472.6,150.1,473.9,146.9,473.9,143.7z"/>
<path class="st26" d="M544.9,115.5c3.4,0,6.1-2.8,6.1-6.2c0-3.4-2.8-6.1-6.2-6.1c-3.4,0-6.1,2.8-6.1,6.2c0,1.6,0.7,3.2,1.8,4.3
	C541.7,114.9,543.3,115.5,544.9,115.5z"/>
<path class="st26" d="M476.3,95.9c-7.4,0-13.4,6-13.4,13.5c0,7.4,6,13.4,13.5,13.4s13.4-6,13.4-13.5c0-3.6-1.4-7-3.9-9.5
	C483.4,97.3,479.9,95.8,476.3,95.9z"/>
<path class="st26" d="M564.8,138.4c-2.9-2.9-7.6-2.9-10.5-0.1s-2.9,7.6-0.1,10.5c2.9,2.9,7.6,2.9,10.5,0.1c1.4-1.4,2.2-3.3,2.2-5.3
	C567,141.7,566.2,139.8,564.8,138.4z"/>
<path class="st26" d="M544.9,169.4c-4.8-0.1-8.7,3.8-8.7,8.5c-0.1,4.8,3.8,8.7,8.5,8.7c4.8,0.1,8.7-3.8,8.7-8.5
	c0-2.3-0.9-4.5-2.5-6.2C549.3,170.3,547.2,169.3,544.9,169.4z"/>
<path class="st26" d="M510.6,182.8c-5.4,0-9.8,4.4-9.8,9.8c0,5.4,4.4,9.8,9.8,9.8c5.4,0,9.8-4.4,9.8-9.8c0-2.6-1-5.1-2.9-6.9
	C515.7,183.8,513.2,182.8,510.6,182.8z"/>
<path class="st26" d="M510.6,80c-8.1,0-14.6,6.6-14.5,14.7s6.6,14.6,14.7,14.5c8.1,0,14.6-6.6,14.5-14.7c0-3.8-1.6-7.5-4.3-10.3
	C518.3,81.5,514.5,79.9,510.6,80z"/>
</svg>
