<svg enable-background="new 0 0 32 32" height="512" viewBox="0 0 32 32" width="512" xmlns="http://www.w3.org/2000/svg"><path d="m26 32h-20c-3.314 0-6-2.686-6-6v-20c0-3.314 2.686-6 6-6h20c3.314 0 6 2.686 6 6v20c0 3.314-2.686 6-6 6z" fill="#f5e6fe"/><path d="m16 8c-4.413 0-8 3.587-8 8s3.587 8 8 8 8-3.587 8-8-3.587-8-8-8zm4.54 12.667h-9.08c-.16 0-.313-.08-.407-.213-.093-.127-.12-.3-.067-.453.747-2.12 2.76-3.547 5.013-3.547s4.268 1.426 5.014 3.546c.053.153.027.327-.067.453-.093.134-.246.214-.406.214zm-8.307-7.747c-.233-.147-.3-.453-.153-.687.147-.233.453-.307.687-.153l1.833 1.167c.147.087.233.247.233.42s-.087.333-.233.42l-1.833 1.167c-.08.053-.173.08-.267.08-.167 0-.327-.08-.42-.233-.147-.233-.08-.54.153-.687l1.167-.747zm7.534 1.493c.233.147.3.453.153.687-.093.153-.253.233-.42.233-.093 0-.187-.027-.267-.08l-1.833-1.166c-.147-.087-.233-.247-.233-.42s.087-.333.233-.42l1.833-1.167c.233-.153.54-.08.687.153s.08.54-.153.687l-1.167.747z" fill="#be63f9"/></svg>