<svg xmlns="http://www.w3.org/2000/svg" viewBox="0 0 512 512"><defs><style>.cls-1,.cls-2{fill:#ff7c5f;}.cls-1{opacity:0.23;}</style></defs><g id="Layer_2" data-name="Layer 2"><g id="Layer_1-2" data-name="Layer 1"><path class="cls-1" d="M416,512H96A96,96,0,0,1,0,416V96A96,96,0,0,1,96,0H416a96,96,0,0,1,96,96V416A96,96,0,0,1,416,512Z"/><path class="cls-2" d="M256,128A128,128,0,1,0,384,256,128.11,128.11,0,0,0,256,128Zm72.64,202.67H183.36A8.08,8.08,0,0,1,175.78,320a85.07,85.07,0,0,1,160.43,0,8.1,8.1,0,0,1-7.57,10.67Zm-132.91-124a8,8,0,0,1-2.45-11,7.85,7.85,0,0,1,11-2.45L233.6,212a7.92,7.92,0,0,1,0,13.44l-29.33,18.67a7.87,7.87,0,0,1-11-2.44,8,8,0,0,1,2.45-11l18.67-12Zm120.54,23.89a8,8,0,0,1,2.45,11,7.86,7.86,0,0,1-11,2.45L278.4,225.39a7.92,7.92,0,0,1,0-13.44l29.33-18.67a7.86,7.86,0,0,1,11,2.45,8,8,0,0,1-2.45,11L297.6,218.67Z"/></g></g></svg>