<?xml version="1.0" encoding="utf-8"?>
<!-- Generator: Adobe Illustrator 24.2.1, SVG Export Plug-In . SVG Version: 6.00 Build 0)  -->
<svg version="1.1" id="Layer_1" xmlns="http://www.w3.org/2000/svg" xmlns:xlink="http://www.w3.org/1999/xlink" x="0px" y="0px"
	 viewBox="0 0 63.9 76" style="enable-background:new 0 0 63.9 76;" xml:space="preserve">
<style type="text/css">
	.st0{fill-rule:evenodd;clip-rule:evenodd;fill:#FFFFFF;}
	.st1{fill:#D8D8D8;}
	.st2{filter:url(#Adobe_OpacityMaskFilter);}
	.st3{opacity:0.1;mask:url(#mask-2_1_);fill:#334652;enable-background:new    ;}
	.st4{fill:none;stroke:#FFFFFF;stroke-width:4;stroke-linecap:square;stroke-linejoin:round;}
	.st5{opacity:0.5;}
	.st6{fill:#334652;}
</style>
<g>
	<g>
		<path id="path-4_3_" class="st0" d="M61,10.2v41.1c0,2.7-1.4,5.3-3.7,6.7l-21,13.4c-2.6,1.7-6,1.7-8.6,0L6.7,58
			C4.4,56.6,3,54,3,51.3V10.2c0-4.4,3.6-8,8-8h42C57.4,2.2,61,5.8,61,10.2z"/>
	</g>
	<g>
		<path id="path-1_7_" class="st0" d="M61,10.2v41.1c0,2.7-1.4,5.3-3.7,6.7l-21,13.4c-2.6,1.7-6,1.7-8.6,0L6.7,58
			C4.4,56.6,3,54,3,51.3V10.2c0-4.4,3.6-8,8-8h42C57.4,2.2,61,5.8,61,10.2z"/>
	</g>
	<g id="Style-Guide_1_">
		<g id="Badges_1_" transform="translate(-408.000000, -566.000000)">
			<g id="Group-Copy-13_1_" transform="translate(343.000000, 568.000000)">
				<g id="Badge_x2F_XLarge_1_" transform="translate(74.000000, 0.000000)">
					<g id="Badge_x2F_Shield_1_">
						<g id="Badge_x2F_Shield_x2F_Grayscale_1_">
							<g id="Rectangle-Copy-3_1_" transform="translate(3.000000, 4.000000)">
								<g id="Mask_1_">
									<g>
										<path id="path-1_6_" d="M49,4.2v41.1c0,2.7-1.4,5.3-3.7,6.7l-21,13.4c-2.6,1.7-6,1.7-8.6,0L-5.3,52C-7.6,50.6-9,48-9,45.3
											V4.2c0-4.4,3.6-8,8-8h42C45.4-3.8,49-0.2,49,4.2z"/>
									</g>
									<g>
										<path id="path-1_5_" class="st1" d="M49,4.2v41.1c0,2.7-1.4,5.3-3.7,6.7l-21,13.4c-2.6,1.7-6,1.7-8.6,0L-5.3,52
											C-7.6,50.6-9,48-9,45.3V4.2c0-4.4,3.6-8,8-8h42C45.4-3.8,49-0.2,49,4.2z"/>
									</g>
								</g>
								<defs>
									<filter id="Adobe_OpacityMaskFilter" filterUnits="userSpaceOnUse" x="10.2" y="-3.8" width="20" height="71.6">
										<feColorMatrix  type="matrix" values="1 0 0 0 0  0 1 0 0 0  0 0 1 0 0  0 0 0 1 0"/>
									</filter>
								</defs>
								<mask maskUnits="userSpaceOnUse" x="10.2" y="-3.8" width="20" height="71.6" id="mask-2_1_">
									<g class="st2">
										<path id="path-1_3_" class="st0" d="M49,4.2v41.1c0,2.7-1.4,5.3-3.7,6.7l-21,13.4c-2.6,1.7-6,1.7-8.6,0L-5.3,52
											C-7.6,50.6-9,48-9,45.3V4.2c0-4.4,3.6-8,8-8h42C45.4-3.8,49-0.2,49,4.2z"/>
									</g>
								</mask>
								<path id="Rectangle-Copy_1_" class="st3" d="M10.2-3.8h20v66.1l-5.2,3.9c-2.8,2.1-6.7,2.1-9.6,0l-5.2-3.9l0,0V-3.8z"/>
							</g>
							<g id="Bdr-Copy-3_1_">
								<path id="path-4_2_" class="st4" d="M52,8.2v41.1c0,2.7-1.4,5.3-3.7,6.7l-21,13.4c-2.6,1.7-6,1.7-8.6,0L-2.3,56
									C-4.6,54.6-6,52-6,49.3V8.2c0-4.4,3.6-8,8-8h42C48.4,0.2,52,3.8,52,8.2z"/>
							</g>
						</g>
					</g>
					<g id="Badge_x2F_Icon_x2F_Internationality_1_" transform="translate(8.000000, 9.000000)" class="st5">
						<path id="Combined-Shape_1_" class="st6" d="M-0.8,12.3c1.2,0,2.2,1,2.2,2.2l0,0v5.8c-1.7,1.8-1.7,4.7,0.1,6.4l0,0l3.9,3.9
							C5.7,31,6.1,31.1,6.5,31s0.7-0.4,0.8-0.8s0-0.8-0.3-1.1l0,0l-3.9-3.9c-0.4-0.4-0.7-1.1-0.7-1.7s0.3-1.2,0.7-1.7
							c0.9-0.9,2.4-0.9,3.4,0l0,0l5.2,5.2c0.6,0.6,1,1.5,1,2.4l0,0v8.8h-9v-3.4l-5.9-6.9C-2.7,27.3-3,26.5-3,25.7l0,0V14.6
							C-3,13.3-2,12.3-0.8,12.3z M30.7,12.3c1.2,0,2.3,1,2.3,2.2v11.1c0,0.8-0.3,1.6-0.8,2.2l-5.9,6.9v3.4h-9v-8.8l0,0
							c0-0.9,0.4-1.7,1-2.4l5.2-5.2c0.9-0.9,2.4-0.9,3.4,0c0.4,0.4,0.7,1.1,0.7,1.7s-0.3,1.2-0.7,1.7l-3.9,3.9
							c-0.3,0.3-0.4,0.7-0.3,1.1s0.4,0.7,0.8,0.8s0.8,0,1.1-0.3l3.9-3.9c1.8-1.8,1.8-4.6,0.1-6.4v-5.8
							C28.5,13.3,29.5,12.3,30.7,12.3z M15,2.2c5,0,9,4,9,9c0,5-4,9-9,9c-5,0-9-4-9-9S10,2.2,15,2.2z M14.4,4.4
							c-1.1,0.1-2.2,0.5-3.1,1.1C12,6.5,12.8,8.1,12,9c-0.7,0.9-2.8,1.2-2.8,2.1c0,0.7,0.9,1.5,1.5,2.2c0.6,0.9,0.6,2.1-0.1,2.9
							c1.2,1,2.8,1.6,4.4,1.6c3.7,0,6.7-3,6.7-6.8c0-1.4-0.4-2.8-1.1-3.9c-1.1,0.2-2.2,0.4-3.4,0.3c-0.8,0-0.9-0.6-1.5-1.5
							C15.2,5.6,14.8,5,14.4,4.4z M17.4,9.7c0.6-0.1,1.2,0.1,1.7,0.5s0.7,1,0.8,1.6c0.1,2.2-2.8,5-4.3,4.4c-1.2-0.6-0.3-1.6-0.7-4.4
							C14.9,10.6,16.1,9.7,17.4,9.7z"/>
					</g>
				</g>
			</g>
		</g>
	</g>
</g>
</svg>
