<?xml version="1.0" encoding="UTF-8"?>
<svg width="66px" height="67px" viewBox="0 0 66 67" version="1.1" xmlns="http://www.w3.org/2000/svg" xmlns:xlink="http://www.w3.org/1999/xlink">
    <!-- Generator: Sketch 51.1 (57501) - http://www.bohemiancoding.com/sketch -->
    <title>stamp-data-scientist@3x</title>
    <desc>Created with Sketch.</desc>
    <defs>
        <path d="M29.4596966,59.2910786 L27.1024461,60.2746468 C25.5671141,60.9152676 23.7955527,60.5387106 22.6535211,59.3289986 L20.9001188,57.4716842 C20.1669313,56.6950456 19.1535977,56.2438804 18.0858445,56.2186885 L15.5323358,56.1584426 C13.8691763,56.1192031 12.4039339,55.0546422 11.8526703,53.4850091 L11.0062955,51.0750951 C10.6523827,50.0673862 9.91016176,49.2430664 8.94496715,48.7857581 L6.63672515,47.6921152 C5.13331347,46.9798001 4.22774388,45.4113076 4.36256679,43.7531574 L4.56956525,41.2073397 C4.65612195,40.1428025 4.31335049,39.0878604 3.61760539,38.2775085 L1.95374603,36.3395694 C0.870035758,35.0773446 0.680720164,33.276127 1.47831748,31.8161688 L2.70289731,29.5746425 C3.21495708,28.6373452 3.33090337,27.5341899 3.02490841,26.5109116 L2.29312811,24.0637635 C1.81650259,22.4698791 2.37617537,20.7473834 3.69863527,19.7380573 L5.7290555,18.1884026 C6.57807855,17.5404123 7.13269441,16.5797895 7.26935892,15.5205188 L7.59618913,12.987296 C7.80906124,11.337349 9.02094989,9.99141032 10.639607,9.60723793 L13.1247896,9.01740424 C14.1639721,8.77076446 15.0613594,8.11877441 15.6170529,7.20666897 L16.9459817,5.02538857 C17.8115439,3.60466994 19.4661019,2.86801327 21.1010757,3.1754215 L23.6113099,3.64739641 C24.6609678,3.84475337 25.7459602,3.61413113 26.6245981,3.00690223 L28.7258416,1.55472747 C30.0944304,0.608892293 31.9055696,0.608892293 33.2741584,1.55472747 L35.3754019,3.00690223 C36.2540398,3.61413113 37.3390322,3.84475337 38.3886901,3.64739641 L40.8989243,3.1754215 C42.5338981,2.86801327 44.1884561,3.60466994 45.0540183,5.02538857 L46.3829471,7.20666897 C46.9386406,8.11877441 47.8360279,8.77076446 48.8752104,9.01740424 L51.360393,9.60723793 C52.9790501,9.99141032 54.1909388,11.337349 54.4038109,12.987296 L54.7306411,15.5205188 C54.8673056,16.5797895 55.4219215,17.5404123 56.2709445,18.1884026 L58.3013647,19.7380573 C59.6238246,20.7473834 60.1834974,22.4698791 59.7068719,24.0637635 L58.9750916,26.5109116 C58.6690966,27.5341899 58.7850429,28.6373452 59.2971027,29.5746425 L60.5216825,31.8161688 C61.3192798,33.276127 61.1299642,35.0773446 60.046254,36.3395694 L58.3823946,38.2775085 C57.6866495,39.0878604 57.3438781,40.1428025 57.4304347,41.2073397 L57.6374332,43.7531574 C57.7722561,45.4113076 56.8666865,46.9798001 55.3632749,47.6921152 L53.0550328,48.7857581 C52.0898382,49.2430664 51.3476173,50.0673862 50.9937045,51.0750951 L50.1473297,53.4850091 C49.5960661,55.0546422 48.1308237,56.1192031 46.4676642,56.1584426 L43.9141555,56.2186885 C42.8464023,56.2438804 41.8330687,56.6950456 41.0998812,57.4716842 L39.3464789,59.3289986 C38.2044473,60.5387106 36.4328859,60.9152676 34.8975539,60.2746468 L32.5403034,59.2910786 C31.5546159,58.8797982 30.4453841,58.8797982 29.4596966,59.2910786 Z" id="path-1"></path>
        <filter x="-8.5%" y="-5.2%" width="117.0%" height="117.1%" filterUnits="objectBoundingBox" id="filter-2">
            <feMorphology radius="1.1" operator="dilate" in="SourceAlpha" result="shadowSpreadOuter1"></feMorphology>
            <feOffset dx="0" dy="2" in="shadowSpreadOuter1" result="shadowOffsetOuter1"></feOffset>
            <feGaussianBlur stdDeviation="1" in="shadowOffsetOuter1" result="shadowBlurOuter1"></feGaussianBlur>
            <feComposite in="shadowBlurOuter1" in2="SourceAlpha" operator="out" result="shadowBlurOuter1"></feComposite>
            <feColorMatrix values="0 0 0 0 0.37254902   0 0 0 0 0.376470588   0 0 0 0 0.384313725  0 0 0 1 0" type="matrix" in="shadowBlurOuter1"></feColorMatrix>
        </filter>
        <circle id="path-3" cx="31" cy="31" r="20"></circle>
    </defs>
    <g id="Current" stroke="none" stroke-width="1" fill="none" fill-rule="evenodd">
        <g id="Future-of-Work-Stamps" transform="translate(-901.000000, -56.000000)">
            <g id="stamp-data-scientist" transform="translate(903.000000, 57.000000)">
                <g id="stamp-pathfinder">
                    <g id="Background">
                        <g id="Star">
                            <use fill="black" fill-opacity="1" filter="url(#filter-2)" xlink:href="#path-1"></use>
                            <use stroke="#CDD2D8" stroke-width="2.2" fill="#FFFFFF" fill-rule="evenodd" xlink:href="#path-1"></use>
                        </g>
                        <circle id="Oval" stroke="#186DB3" cx="31" cy="31" r="23"></circle>
                        <mask id="mask-4" fill="white">
                            <use xlink:href="#path-3"></use>
                        </mask>
                        <use id="Oval-4" stroke="#323E56" stroke-width="2" xlink:href="#path-3"></use>
                    </g>
                </g>
                <polygon id="Rectangle-18" fill="#323E56" points="16 38 24 38 24 49 21 48.2666667 17 46.8 16 45.3333333"></polygon>
                <polygon id="Rectangle-18" fill="#323E56" transform="translate(42.000000, 38.500000) scale(-1, 1) translate(-42.000000, -38.500000) " points="38 28 46 28 46 49 43 48 39 45.0625 38 43.4375"></polygon>
                <rect id="Rectangle-18" fill="#323E56" x="27" y="33" width="8" height="17"></rect>
                <g id="Group-23" transform="translate(28.036089, 25.533012) rotate(-23.000000) translate(-28.036089, -25.533012) translate(13.036089, 18.033012)" fill="#323E56">
                    <g id="Group-24" transform="translate(15.000000, 7.500000) rotate(-5.000000) translate(-15.000000, -7.500000) translate(1.000000, 2.000000)">
                        <path d="M21.1050485,6.95043153 L0.723421577,6.95043153 L0.723421577,4.45043153 L21.1050485,4.45043153 L21.1050485,1.51926206 C21.1050485,0.966977311 21.5527637,0.51926206 22.1050485,0.51926206 C22.370265,0.51926206 22.6246189,0.624618901 22.8121553,0.812155279 L26.7928932,4.79289322 C27.1834175,5.18341751 27.1834175,5.81658249 26.7928932,6.20710678 L22.8121553,10.1878447 C22.421631,10.578369 21.788466,10.578369 21.3979417,10.1878447 C21.2104053,10.0003083 21.1050485,9.74595443 21.1050485,9.48073794 L21.1050485,6.95043153 Z" id="Combined-Shape"></path>
                    </g>
                </g>
            </g>
        </g>
    </g>
</svg>