<?xml version="1.0" encoding="utf-8"?>
<!-- Generator: Adobe Illustrator 24.2.1, SVG Export Plug-In . SVG Version: 6.00 Build 0)  -->
<svg version="1.1" id="Layer_1" xmlns="http://www.w3.org/2000/svg" xmlns:xlink="http://www.w3.org/1999/xlink" x="0px" y="0px"
	 viewBox="0 0 63.9 76" style="enable-background:new 0 0 63.9 76;" xml:space="preserve">
<style type="text/css">
	.st0{fill-rule:evenodd;clip-rule:evenodd;fill:#FFFFFF;}
	.st1{fill:#503F8C;}
	.st2{filter:url(#Adobe_OpacityMaskFilter);}
	.st3{opacity:0.2346;mask:url(#mask-2_1_);fill:#FFFFFF;enable-background:new    ;}
	.st4{fill:none;stroke:#FFFFFF;stroke-width:4;stroke-linecap:square;stroke-linejoin:round;}
	.st5{fill:#FFFFFF;}
</style>
<g>
	<g>
		<path id="path-4_3_" class="st0" d="M61,10.2v41.1c0,2.7-1.4,5.3-3.7,6.7l-21,13.4c-2.6,1.7-6,1.7-8.6,0L6.7,58
			C4.4,56.6,3,54,3,51.3V10.2c0-4.4,3.6-8,8-8h42C57.4,2.2,61,5.8,61,10.2z"/>
	</g>
	<g>
		<path id="path-1_7_" class="st0" d="M61,10.2v41.1c0,2.7-1.4,5.3-3.7,6.7l-21,13.4c-2.6,1.7-6,1.7-8.6,0L6.7,58
			C4.4,56.6,3,54,3,51.3V10.2c0-4.4,3.6-8,8-8h42C57.4,2.2,61,5.8,61,10.2z"/>
	</g>
	<g id="Style-Guide_1_">
		<g id="Badges_1_" transform="translate(-508.000000, -353.000000)">
			<g id="Group-Copy-8_1_" transform="translate(529.000000, 359.000000)">
				<g id="Badge_x2F_XLarge_1_">
					<g id="Badge_x2F_Shield_1_">
						<g id="Badge_x2F_Shield_x2F_Purple_1_">
							<g id="Rectangle-Copy-5_1_" transform="translate(3.000000, 4.000000)">
								<g id="Mask_1_">
									<g>
										<path id="path-1_6_" d="M37,0.2v41.1c0,2.7-1.4,5.3-3.7,6.7l-21,13.4c-2.6,1.7-6,1.7-8.6,0l-21-13.4
											c-2.3-1.5-3.7-4-3.7-6.7V0.2c0-4.4,3.6-8,8-8h42C33.4-7.8,37-4.2,37,0.2z"/>
									</g>
									<g>
										<path id="path-1_5_" class="st1" d="M37,0.2v41.1c0,2.7-1.4,5.3-3.7,6.7l-21,13.4c-2.6,1.7-6,1.7-8.6,0l-21-13.4
											c-2.3-1.5-3.7-4-3.7-6.7V0.2c0-4.4,3.6-8,8-8h42C33.4-7.8,37-4.2,37,0.2z"/>
									</g>
								</g>
								<defs>
									<filter id="Adobe_OpacityMaskFilter" filterUnits="userSpaceOnUse" x="-1.8" y="-7.8" width="20" height="71.6">
										<feColorMatrix  type="matrix" values="1 0 0 0 0  0 1 0 0 0  0 0 1 0 0  0 0 0 1 0"/>
									</filter>
								</defs>
								<mask maskUnits="userSpaceOnUse" x="-1.8" y="-7.8" width="20" height="71.6" id="mask-2_1_">
									<g class="st2">
										<path id="path-1_3_" class="st0" d="M37,0.2v41.1c0,2.7-1.4,5.3-3.7,6.7l-21,13.4c-2.6,1.7-6,1.7-8.6,0l-21-13.4
											c-2.3-1.5-3.7-4-3.7-6.7V0.2c0-4.4,3.6-8,8-8h42C33.4-7.8,37-4.2,37,0.2z"/>
									</g>
								</mask>
								<path id="Rectangle-Copy_1_" class="st3" d="M-1.8-7.8h20v66.1l-5.2,3.9c-2.8,2.1-6.7,2.1-9.6,0l-5.2-3.9l0,0V-7.8z"/>
							</g>
							<g id="Bdr-Copy-5_1_">
								<path id="path-4_2_" class="st4" d="M40,4.2v41.1c0,2.7-1.4,5.3-3.7,6.7l-21,13.4c-2.6,1.7-6,1.7-8.6,0l-21-13.4
									c-2.3-1.5-3.7-4-3.7-6.7V4.2c0-4.4,3.6-8,8-8h42C36.4-3.8,40-0.2,40,4.2z"/>
							</g>
						</g>
					</g>
					<g id="Badge_x2F_Icon_x2F_Achiever_1_" transform="translate(8.000000, 9.000000)">
						<path id="Combined-Shape_1_" class="st5" d="M3,11.4c6.8,0,12.4,5.5,12.4,12.4c0,6.8-5.5,12.4-12.4,12.4S-9.4,30.6-9.4,23.8
							S-3.9,11.4,3,11.4z M3,18.3l-1.8,3.7l-4,0.6L0,25.3l-0.7,4L3,27.5l3.6,1.9l-0.7-4l2.9-2.8l-4-0.6L3,18.3z M-3.8,0.2
							c0.5,0,0.9,0.3,1,0.7l0,0l3.5,8.5c-4.1,0.6-7.7,2.9-9.9,6.3l0,0l-5.8-14c-0.1-0.3-0.1-0.7,0.1-1.1c0.2-0.3,0.6-0.5,0.9-0.5
							l0,0H-3.8z M19.8,0.2c0.4,0,0.7,0.2,0.9,0.5C21,1,21,1.4,20.9,1.7l0,0l-5.8,14c-2.3-3.4-5.9-5.7-9.9-6.3l0,0l3.5-8.5
							c0.2-0.4,0.6-0.7,1-0.7l0,0H19.8z"/>
					</g>
				</g>
			</g>
		</g>
	</g>
</g>
</svg>
