<?xml version="1.0" encoding="utf-8"?>
<!-- Generator: Adobe Illustrator 24.2.1, SVG Export Plug-In . SVG Version: 6.00 Build 0)  -->
<svg version="1.1" id="Layer_1" xmlns="http://www.w3.org/2000/svg" xmlns:xlink="http://www.w3.org/1999/xlink" x="0px" y="0px"
	 viewBox="0 0 63.9 76" style="enable-background:new 0 0 63.9 76;" xml:space="preserve">
<style type="text/css">
	.st0{fill-rule:evenodd;clip-rule:evenodd;fill:#FFFFFF;}
	.st1{fill:#11BFAE;}
	.st2{filter:url(#Adobe_OpacityMaskFilter);}
	.st3{opacity:0.1515;mask:url(#mask-2_1_);fill-rule:evenodd;clip-rule:evenodd;fill:#FFFFFF;enable-background:new    ;}
	.st4{fill:none;stroke:#FFFFFF;stroke-width:4;stroke-linecap:square;stroke-linejoin:round;}
	.st5{fill:#FFFFFF;}
</style>
<g>
	<g>
		<path id="path-4_3_" class="st0" d="M61,10.2v41.1c0,2.7-1.4,5.3-3.7,6.7l-21,13.4c-2.6,1.7-6,1.7-8.6,0L6.7,58
			C4.4,56.6,3,54,3,51.3V10.2c0-4.4,3.6-8,8-8h42C57.4,2.2,61,5.8,61,10.2z"/>
	</g>
	<g>
		<path id="path-1_7_" class="st0" d="M61,10.2v41.1c0,2.7-1.4,5.3-3.7,6.7l-21,13.4c-2.6,1.7-6,1.7-8.6,0L6.7,58
			C4.4,56.6,3,54,3,51.3V10.2c0-4.4,3.6-8,8-8h42C57.4,2.2,61,5.8,61,10.2z"/>
	</g>
	<g id="Style-Guide_1_">
		<g id="Badges_1_" transform="translate(-706.000000, -357.000000)">
			<g id="Group-Copy-9_1_" transform="translate(715.000000, 359.000000)">
				<g id="Badge_x2F_XLarge_1_">
					<g id="Badge_x2F_Shield_1_">
						<g id="Badge_x2F_Shield_x2F_Green_1_">
							<g id="Rectangle-Copy-4_1_" transform="translate(3.000000, 4.000000)">
								<g id="Mask_1_">
									<g>
										<path id="path-1_6_" d="M49,4.2v41.1c0,2.7-1.4,5.3-3.7,6.7l-21,13.4c-2.6,1.7-6,1.7-8.6,0L-5.3,52C-7.6,50.6-9,48-9,45.3
											V4.2c0-4.4,3.6-8,8-8h42C45.4-3.8,49-0.2,49,4.2z"/>
									</g>
									<g>
										<path id="path-1_5_" class="st1" d="M49,4.2v41.1c0,2.7-1.4,5.3-3.7,6.7l-21,13.4c-2.6,1.7-6,1.7-8.6,0L-5.3,52
											C-7.6,50.6-9,48-9,45.3V4.2c0-4.4,3.6-8,8-8h42C45.4-3.8,49-0.2,49,4.2z"/>
									</g>
								</g>
								<defs>
									<filter id="Adobe_OpacityMaskFilter" filterUnits="userSpaceOnUse" x="10.2" y="-3.8" width="20" height="71.6">
										<feColorMatrix  type="matrix" values="1 0 0 0 0  0 1 0 0 0  0 0 1 0 0  0 0 0 1 0"/>
									</filter>
								</defs>
								<mask maskUnits="userSpaceOnUse" x="10.2" y="-3.8" width="20" height="71.6" id="mask-2_1_">
									<g class="st2">
										<path id="path-1_3_" class="st0" d="M49,4.2v41.1c0,2.7-1.4,5.3-3.7,6.7l-21,13.4c-2.6,1.7-6,1.7-8.6,0L-5.3,52
											C-7.6,50.6-9,48-9,45.3V4.2c0-4.4,3.6-8,8-8h42C45.4-3.8,49-0.2,49,4.2z"/>
									</g>
								</mask>
								<path id="Rectangle-Copy_1_" class="st3" d="M10.2-3.8h20v66.1l-5.2,3.9c-2.8,2.1-6.7,2.1-9.6,0l-5.2-3.9l0,0V-3.8z"/>
							</g>
							<g id="Bdr-Copy-4_1_">
								<path id="path-4_2_" class="st4" d="M52,8.2v41.1c0,2.7-1.4,5.3-3.7,6.7l-21,13.4c-2.6,1.7-6,1.7-8.6,0L-2.3,56
									C-4.6,54.6-6,52-6,49.3V8.2c0-4.4,3.6-8,8-8h42C48.4,0.2,52,3.8,52,8.2z"/>
							</g>
						</g>
					</g>
					<g id="Badge_x2F_Icon_x2F_AI-Pioneer_1_" transform="translate(8.000000, 9.000000)">
						<path id="Combined-Shape_1_" class="st5" d="M7.2,5.6c0.8-2.3,3.2-3.7,5.7-3.3s4.3,2.5,4.3,5l0,0v3.9h5.2l2.4-2.3
							c-0.5-1.2,0-2.7,1.1-3.4c1.1-0.7,2.6-0.6,3.6,0.4c1,0.9,1.1,2.4,0.4,3.5s-2.2,1.6-3.5,1.1l0,0l-2.7,2.7
							c-0.2,0.2-0.5,0.3-0.8,0.3l0,0h-5.7v13.5h5.7c0.3,0,0.6,0.1,0.8,0.3l0,0l2.7,2.7c0.3-0.1,0.7-0.2,1-0.2c1.2,0,2.4,0.8,2.7,2
							c0.4,1.2-0.1,2.4-1.1,3.1c-1,0.7-2.4,0.6-3.4-0.1s-1.3-2.1-0.9-3.2l0,0l-2.4-2.3h-5.2v1.1c0,3.1-1.8,5.8-4.6,7.1
							c-2.8,1.3-6.1,0.9-8.5-1.1s-3.4-5.1-2.5-8.1c-1.6-1-2.6-2.8-2.6-4.7c0-1,0.3-2,0.8-2.9l0,0l0.3,0.2c1.6,1.5,3.7,2.4,5.8,2.6
							c0.4,2.1,2,3.8,4.2,4.3c0.1,0,0.2,0,0.3,0c0.6,0,1.1-0.4,1.1-1s-0.3-1.1-0.8-1.2c-1.3-0.3-2.3-1.4-2.5-2.8
							c-0.2-1.3,0.5-2.7,1.7-3.4c0.5-0.3,0.7-1,0.4-1.5c-0.3-0.5-1-0.7-1.5-0.4c-1.4,0.8-2.4,2.1-2.7,3.6c-1.7-0.2-3.4-1-4.6-2.2
							l0,0h0c-2.3-2.2-3-5.6-1.7-8.6s4.1-4.9,7.4-4.9C7,5.6,7.1,5.6,7.2,5.6z M28.6,17.3c1.4,0,2.6,1,2.8,2.4s-0.7,2.7-2,3.1
							c-1.4,0.4-2.8-0.3-3.4-1.6l0,0h-6.5V19h6.5C26.4,18,27.4,17.3,28.6,17.3z"/>
					</g>
				</g>
			</g>
		</g>
	</g>
</g>
</svg>
