<?xml version="1.0" encoding="utf-8"?>
<!-- Generator: Adobe Illustrator 24.2.1, SVG Export Plug-In . SVG Version: 6.00 Build 0)  -->
<svg version="1.1" id="Layer_1" xmlns="http://www.w3.org/2000/svg" xmlns:xlink="http://www.w3.org/1999/xlink" x="0px" y="0px"
	 viewBox="0 0 63.9 76" style="enable-background:new 0 0 63.9 76;" xml:space="preserve">
<style type="text/css">
	.st0{fill-rule:evenodd;clip-rule:evenodd;fill:#FFFFFF;}
	.st1{fill:#D8D8D8;}
	.st2{filter:url(#Adobe_OpacityMaskFilter);}
	.st3{opacity:0.1;mask:url(#mask-2_1_);fill:#334652;enable-background:new    ;}
	.st4{fill:none;stroke:#FFFFFF;stroke-width:4;stroke-linecap:square;stroke-linejoin:round;}
	.st5{opacity:0.5;}
	.st6{fill:#334652;}
</style>
<g>
	<g>
		<path id="path-4_3_" class="st0" d="M61,10.2v41.1c0,2.7-1.4,5.3-3.7,6.7l-21,13.4c-2.6,1.7-6,1.7-8.6,0L6.7,58
			C4.4,56.6,3,54,3,51.3V10.2c0-4.4,3.6-8,8-8h42C57.4,2.2,61,5.8,61,10.2z"/>
	</g>
	<g>
		<path id="path-1_7_" class="st0" d="M61,10.2v41.1c0,2.7-1.4,5.3-3.7,6.7l-21,13.4c-2.6,1.7-6,1.7-8.6,0L6.7,58
			C4.4,56.6,3,54,3,51.3V10.2c0-4.4,3.6-8,8-8h42C57.4,2.2,61,5.8,61,10.2z"/>
	</g>
	<g id="Style-Guide_1_">
		<g id="Badges_1_" transform="translate(-221.000000, -167.000000)">
			<g id="Group_1_" transform="translate(156.000000, 169.000000)">
				<g id="Badge_x2F_XLarge_1_" transform="translate(74.000000, 0.000000)">
					<g id="Badge_x2F_Shield_1_">
						<g id="Badge_x2F_Shield_x2F_Grayscale_1_">
							<g id="Rectangle-Copy-3_1_" transform="translate(3.000000, 4.000000)">
								<g id="Mask_1_">
									<g>
										<path id="path-1_6_" d="M49,4.2v41.1c0,2.7-1.4,5.3-3.7,6.7l-21,13.4c-2.6,1.7-6,1.7-8.6,0L-5.3,52C-7.6,50.6-9,48-9,45.3
											V4.2c0-4.4,3.6-8,8-8h42C45.4-3.8,49-0.2,49,4.2z"/>
									</g>
									<g>
										<path id="path-1_5_" class="st1" d="M49,4.2v41.1c0,2.7-1.4,5.3-3.7,6.7l-21,13.4c-2.6,1.7-6,1.7-8.6,0L-5.3,52
											C-7.6,50.6-9,48-9,45.3V4.2c0-4.4,3.6-8,8-8h42C45.4-3.8,49-0.2,49,4.2z"/>
									</g>
								</g>
								<defs>
									<filter id="Adobe_OpacityMaskFilter" filterUnits="userSpaceOnUse" x="10.2" y="-3.8" width="20" height="71.6">
										<feColorMatrix  type="matrix" values="1 0 0 0 0  0 1 0 0 0  0 0 1 0 0  0 0 0 1 0"/>
									</filter>
								</defs>
								<mask maskUnits="userSpaceOnUse" x="10.2" y="-3.8" width="20" height="71.6" id="mask-2_1_">
									<g class="st2">
										<path id="path-1_3_" class="st0" d="M49,4.2v41.1c0,2.7-1.4,5.3-3.7,6.7l-21,13.4c-2.6,1.7-6,1.7-8.6,0L-5.3,52
											C-7.6,50.6-9,48-9,45.3V4.2c0-4.4,3.6-8,8-8h42C45.4-3.8,49-0.2,49,4.2z"/>
									</g>
								</mask>
								<path id="Rectangle-Copy_1_" class="st3" d="M10.2-3.8h20v66.1l-5.2,3.9c-2.8,2.1-6.7,2.1-9.6,0l-5.2-3.9l0,0V-3.8z"/>
							</g>
							<g id="Bdr-Copy-3_1_">
								<path id="path-4_2_" class="st4" d="M52,8.2v41.1c0,2.7-1.4,5.3-3.7,6.7l-21,13.4c-2.6,1.7-6,1.7-8.6,0L-2.3,56
									C-4.6,54.6-6,52-6,49.3V8.2c0-4.4,3.6-8,8-8h42C48.4,0.2,52,3.8,52,8.2z"/>
							</g>
						</g>
					</g>
					<g id="Badge_x2F_Icon_x2F_Communicator-Interview-Essentials_1_" transform="translate(8.000000, 9.000000)" class="st5">
						<path id="Combined-Shape_1_" class="st6" d="M3.7,4.2v8.7L7.8,17c0.5,0.5,0.8,1.3,0.6,2.1c-0.2,0.8-0.7,1.4-1.4,1.7l-3.3,1.4
							v1.5c0,0.4-0.2,0.8-0.6,1L0.4,26c-0.4,0.2-0.6,0.6-0.6,1s0.2,0.8,0.6,1l2.7,1.4c0.4,0.2,0.6,0.6,0.6,1v2.3
							c0,1.9-1.5,3.4-3.4,3.4H-3v-2.3h3.4c0.6,0,1.1-0.5,1.1-1.1v-1.6l-2.1-1.1c-1.2-0.6-1.9-1.8-1.9-3.1c0-1.3,0.7-2.5,1.9-3.1
							l2.1-1.1v-1.6c0-0.5,0.3-0.9,0.7-1.1l4-1.6l-4.4-4.5c-0.2-0.2-0.3-0.5-0.3-0.8V4.2H3.7z M28.5,7.6c2.5,0,4.5,2.1,4.5,4.6l0,0
							v12.6c0,2.5-2,4.6-4.5,4.6l0,0H5.9l5.7-7.3v-9.9c0-2.5,2-4.6,4.5-4.6l0,0H28.5z M27.3,20.2H17.2v2.3h10.1V20.2z M27.3,14.5
							H17.2v2.3h10.1V14.5z"/>
					</g>
				</g>
			</g>
		</g>
	</g>
</g>
</svg>
