<?xml version="1.0" encoding="utf-8"?>
<!-- Generator: Adobe Illustrator 24.2.1, SVG Export Plug-In . SVG Version: 6.00 Build 0)  -->
<svg version="1.1" id="Layer_1" xmlns="http://www.w3.org/2000/svg" xmlns:xlink="http://www.w3.org/1999/xlink" x="0px" y="0px"
	 viewBox="0 0 63.9 76" style="enable-background:new 0 0 63.9 76;" xml:space="preserve">
<style type="text/css">
	.st0{fill-rule:evenodd;clip-rule:evenodd;fill:#FFFFFF;}
	.st1{fill:#FFFFFF;}
	.st2{fill:#F2C53D;fill-opacity:0.8;}
	.st3{filter:url(#Adobe_OpacityMaskFilter);}
	.st4{opacity:0.15;mask:url(#mask-2_1_);fill:#FFFFFF;enable-background:new    ;}
	.st5{fill:none;stroke:#FFFFFF;stroke-width:4;stroke-linecap:square;stroke-linejoin:round;}
</style>
<g>
	<g>
		<path id="path-4_3_" class="st0" d="M61,10.2v41.1c0,2.7-1.4,5.3-3.7,6.7l-21,13.4c-2.6,1.7-6,1.7-8.6,0L6.7,58
			C4.4,56.6,3,54,3,51.3V10.2c0-4.4,3.6-8,8-8h42C57.4,2.2,61,5.8,61,10.2z"/>
	</g>
	<g>
		<path id="path-1_11_" class="st0" d="M61,10.2v41.1c0,2.7-1.4,5.3-3.7,6.7l-21,13.4c-2.6,1.7-6,1.7-8.6,0L6.7,58
			C4.4,56.6,3,54,3,51.3V10.2c0-4.4,3.6-8,8-8h42C57.4,2.2,61,5.8,61,10.2z"/>
	</g>
	<g id="Style-Guide_1_">
		<g id="Badges_1_" transform="translate(-334.000000, -167.000000)">
			<g id="Group-Copy_1_" transform="translate(343.000000, 169.000000)">
				<g id="Badge_x2F_XLarge_1_">
					<g id="Badge_x2F_Shield_1_">
						<g id="Badge_x2F_Shield_x2F_Gold_1_">
							<g id="Rectangle-Copy-2_1_" transform="translate(3.000000, 4.000000)">
								<g id="Mask_1_">
									<g>
										<path id="path-1_10_" d="M49,4.2v41.1c0,2.7-1.4,5.3-3.7,6.7l-21,13.4c-2.6,1.7-6,1.7-8.6,0L-5.3,52
											C-7.6,50.6-9,48-9,45.3V4.2c0-4.4,3.6-8,8-8h42C45.4-3.8,49-0.2,49,4.2z"/>
									</g>
									<g>
										<path id="path-1_9_" class="st1" d="M49,4.2v41.1c0,2.7-1.4,5.3-3.7,6.7l-21,13.4c-2.6,1.7-6,1.7-8.6,0L-5.3,52
											C-7.6,50.6-9,48-9,45.3V4.2c0-4.4,3.6-8,8-8h42C45.4-3.8,49-0.2,49,4.2z"/>
									</g>
									<g>
										<path id="path-1_7_" class="st2" d="M49,4.2v41.1c0,2.7-1.4,5.3-3.7,6.7l-21,13.4c-2.6,1.7-6,1.7-8.6,0L-5.3,52
											C-7.6,50.6-9,48-9,45.3V4.2c0-4.4,3.6-8,8-8h42C45.4-3.8,49-0.2,49,4.2z"/>
									</g>
								</g>
								<defs>
									<filter id="Adobe_OpacityMaskFilter" filterUnits="userSpaceOnUse" x="10.2" y="-3.8" width="20" height="71.6">
										<feColorMatrix  type="matrix" values="1 0 0 0 0  0 1 0 0 0  0 0 1 0 0  0 0 0 1 0"/>
									</filter>
								</defs>
								<mask maskUnits="userSpaceOnUse" x="10.2" y="-3.8" width="20" height="71.6" id="mask-2_1_">
									<g class="st3">
										<path id="path-1_4_" class="st0" d="M49,4.2v41.1c0,2.7-1.4,5.3-3.7,6.7l-21,13.4c-2.6,1.7-6,1.7-8.6,0L-5.3,52
											C-7.6,50.6-9,48-9,45.3V4.2c0-4.4,3.6-8,8-8h42C45.4-3.8,49-0.2,49,4.2z"/>
									</g>
								</mask>
								<path id="Rectangle-Copy_1_" class="st4" d="M10.2-3.8h20v66.1l-5.2,3.9c-2.8,2.1-6.7,2.1-9.6,0l-5.2-3.9l0,0V-3.8z"/>
							</g>
							<g id="Bdr-Copy-2_1_">
								<path id="path-4_2_" class="st5" d="M52,8.2v41.1c0,2.7-1.4,5.3-3.7,6.7l-21,13.4c-2.6,1.7-6,1.7-8.6,0L-2.3,56
									C-4.6,54.6-6,52-6,49.3V8.2c0-4.4,3.6-8,8-8h42C48.4,0.2,52,3.8,52,8.2z"/>
							</g>
						</g>
					</g>
					<g id="Badge_x2F_Icon_x2F_Design-Thinker_1_" transform="translate(8.000000, 9.000000)">
						<path id="Combined-Shape_1_" class="st1" d="M19,23.2c0.6,0,1,0.4,1,1v13c0,0.6-0.4,1-1,1H6c-0.6,0-1-0.4-1-1v-13
							c0-0.6,0.4-1,1-1H19z M25,4.2c4.4,0,8,3.8,8,8.5s-3.6,8.5-8,8.5s-8-3.8-8-8.5S20.5,4.2,25,4.2z M5,3.2c0.3,0,0.5,0.1,0.7,0.4
							l0,0l7.2,12.4c0.1,0.3,0.2,0.6,0,0.8c-0.1,0.3-0.4,0.4-0.7,0.4l0,0H-2.2c-0.3,0-0.6-0.2-0.7-0.4c-0.1-0.3-0.1-0.6,0-0.8l0,0
							L4.3,3.6C4.4,3.3,4.7,3.2,5,3.2z"/>
					</g>
				</g>
			</g>
		</g>
	</g>
</g>
</svg>
