<?xml version="1.0" encoding="utf-8"?>
<!-- Generator: Adobe Illustrator 24.2.1, SVG Export Plug-In . SVG Version: 6.00 Build 0)  -->
<svg version="1.1" id="Layer_1" xmlns="http://www.w3.org/2000/svg" xmlns:xlink="http://www.w3.org/1999/xlink" x="0px" y="0px"
	 viewBox="0 0 63.9 76" style="enable-background:new 0 0 63.9 76;" xml:space="preserve">
<style type="text/css">
	.st0{fill-rule:evenodd;clip-rule:evenodd;fill:#FFFFFF;}
	.st1{fill:#177FBF;}
	.st2{filter:url(#Adobe_OpacityMaskFilter);}
	.st3{opacity:0.1;mask:url(#mask-2_1_);fill:#FFFFFF;enable-background:new    ;}
	.st4{fill:none;stroke:#FFFFFF;stroke-width:4;stroke-linecap:square;stroke-linejoin:round;}
	.st5{fill:#FFFFFF;}
</style>
<g>
	<g>
		<path id="path-4_3_" class="st0" d="M61,10.5v41.1c0,2.7-1.4,5.3-3.7,6.7l-21,13.4c-2.6,1.7-6,1.7-8.6,0l-21-13.4
			c-2.3-1.5-3.7-4-3.7-6.7V10.5c0-4.4,3.6-8,8-8h42C57.4,2.5,61,6.1,61,10.5z"/>
	</g>
	<g>
		<path id="path-1_7_" class="st0" d="M61.2,10.5v41.1c0,2.7-1.4,5.3-3.7,6.8L36.2,71.8c-2.6,1.7-6,1.7-8.6,0L6.5,58.4
			c-2.3-1.5-3.7-4-3.7-6.8V10.5c0-4.4,3.6-8,8-8h42.4C57.6,2.5,61.2,6.1,61.2,10.5z"/>
	</g>
	<g id="Style-Guide_1_">
		<g id="Badges_1_" transform="translate(-1066.000000, -353.000000)">
			<g id="Group-Copy-11_1_" transform="translate(1087.000000, 359.000000)">
				<g id="Badge_x2F_XLarge_1_">
					<g id="Badge_x2F_Shield_1_">
						<g id="Badge_x2F_Shield_x2F_Blue_1_">
							<g id="Rectangle-Copy_1_" transform="translate(2.810811, 3.636364)">
								<g id="Mask_1_">
									<g>
										<path id="path-1_6_" d="M37.3,0.9V42c0,2.7-1.4,5.3-3.7,6.8L12.4,62.2c-2.6,1.7-6,1.7-8.6,0l-21.2-13.4
											c-2.3-1.5-3.7-4-3.7-6.8V0.9c0-4.4,3.6-8,8-8h42.4C33.8-7.1,37.3-3.5,37.3,0.9z"/>
									</g>
									<g>
										<path id="path-1_5_" class="st1" d="M37.3,0.9V42c0,2.7-1.4,5.3-3.7,6.8L12.4,62.2c-2.6,1.7-6,1.7-8.6,0l-21.2-13.4
											c-2.3-1.5-3.7-4-3.7-6.8V0.9c0-4.4,3.6-8,8-8h42.4C33.8-7.1,37.3-3.5,37.3,0.9z"/>
									</g>
								</g>
								<defs>
									<filter id="Adobe_OpacityMaskFilter" filterUnits="userSpaceOnUse" x="-1.8" y="-7.5" width="20" height="71.6">
										<feColorMatrix  type="matrix" values="1 0 0 0 0  0 1 0 0 0  0 0 1 0 0  0 0 0 1 0"/>
									</filter>
								</defs>
								<mask maskUnits="userSpaceOnUse" x="-1.8" y="-7.5" width="20" height="71.6" id="mask-2_1_">
									<g class="st2">
										<path id="path-1_3_" class="st0" d="M37.3,0.9V42c0,2.7-1.4,5.3-3.7,6.8L12.4,62.2c-2.6,1.7-6,1.7-8.6,0l-21.2-13.4
											c-2.3-1.5-3.7-4-3.7-6.8V0.9c0-4.4,3.6-8,8-8h42.4C33.8-7.1,37.3-3.5,37.3,0.9z"/>
									</g>
								</mask>
								<path class="st3" d="M-1.8-7.5h20v66.1l-5.2,3.9c-2.8,2.1-6.7,2.1-9.6,0l-5.2-3.9l0,0V-7.5z"/>
							</g>
							<g id="Bdr_1_">
								<path id="path-4_2_" class="st4" d="M40,4.5v41.1c0,2.7-1.4,5.3-3.7,6.7l-21,13.4c-2.6,1.7-6,1.7-8.6,0l-21-13.4
									c-2.3-1.5-3.7-4-3.7-6.7V4.5c0-4.4,3.6-8,8-8h42C36.4-3.5,40,0.1,40,4.5z"/>
							</g>
						</g>
					</g>
					<g id="Badge_x2F_Icon_x2F_Presentation-Skills-Challenge-Commenter_1_" transform="translate(8.000000, 9.000000)">
						<path id="Combined-Shape_1_" class="st5" d="M15,19.9v3.4h-3.6v10.1c0,0.6-0.5,1.1-1.2,1.1l0,0H-4.2c-0.7,0-1.2-0.5-1.2-1.1
							l0,0V23.3H-9v-3.4H15z M6.6,7.5c2,0,3.6,1.5,3.6,3.4v6.8H-4.2v-6.8c0-1.9,1.6-3.4,3.6-3.4H6.6z M3-1.5c2.2,0,4.1,1.7,4.2,3.7
							l0,0.2c0,2.1-1.8,3.8-4,3.9L3,6.4c-2.2,0-4.1-1.7-4.2-3.7l0-0.2c0-2.1,1.8-3.8,4-3.9L3-1.5z"/>
					</g>
				</g>
			</g>
		</g>
	</g>
</g>
</svg>
