<svg id="Capa_1" enable-background="new 0 0 512 512" height="512" viewBox="0 0 512 512" width="512" xmlns="http://www.w3.org/2000/svg"><g><g><path d="m254.069 128.966c0 71.112 57.854 128.965 128.965 128.965l17.852-126.398-17.851-131.533c-71.111 0-128.966 57.854-128.966 128.966z" fill="#7d89e5"/><path d="m383.035 0v257.932c71.111 0 128.965-57.853 128.965-128.965 0-71.113-57.854-128.967-128.965-128.967z" fill="#706bef"/></g><g><path d="m345.282 81.895v5.71c0 17.331 11.824 31.946 27.827 36.219-16.003 4.273-27.827 18.888-27.827 36.219v5.71h37.753l3.966-41.929-3.966-41.929z" fill="#daf2fe"/><path d="m420.257 87.604v-5.71h-37.222v83.857h37.222v-5.71c0-17.331-11.824-31.946-27.826-36.219 16.002-4.271 27.826-18.887 27.826-36.218z" fill="#b2dcfd"/></g><g><path d="m345.282 50.117v31.778h37.753l13.874-15.889-13.874-15.889z" fill="#706bef"/><path d="m383.035 50.117h37.222v31.778h-37.222z" fill="#6260d0"/><path d="m345.282 197.53h37.753l10.775-15.889-10.775-15.889h-37.753z" fill="#706bef"/></g><path d="m383.035 165.752h37.222v31.778h-37.222z" fill="#6260d0"/><g><g><g><path d="m0 512 145.571-153.883-35.552-167.842-110.019-190.275z" fill="#173b4d"/></g></g><path d="m361.025 360.122-361.025-360.122 145.571 358.117z" fill="#103040"/></g></g></svg>