<?xml version="1.0" encoding="UTF-8"?>
<svg width="107px" height="107px" viewBox="0 0 107 107" version="1.1" xmlns="http://www.w3.org/2000/svg" xmlns:xlink="http://www.w3.org/1999/xlink">
    <title>wait</title>
    <g id="Symbols" stroke="none" stroke-width="1" fill="none" fill-rule="evenodd">
        <g id="Modal/Badge/Large" transform="translate(-122.000000, -35.000000)" fill-rule="nonzero">
            <g id="wait" transform="translate(122.000000, 35.000000)">
                <g id="Group" transform="translate(53.000000, 0.000000)">
                    <path d="M0.0144418605,26.9928837 C0.0144418605,41.8767907 12.1234186,53.9855581 27.0071163,53.9855581 L30.7435814,27.5301628 L27.0073256,1.18974598e-14 C12.1236279,1.18974598e-14 0.0144418605,12.1089767 0.0144418605,26.9928837 L0.0144418605,26.9928837 Z" id="Path" fill="#7D89E5"></path>
                    <path d="M27.0073256,0 L27.0073256,53.9857674 C41.8910233,53.9857674 54,41.877 54,26.993093 C54,12.1089767 41.8910233,0 27.0073256,0 L27.0073256,0 Z" id="Path" fill="#706BEF"></path>
                </g>
                <g id="Group" transform="translate(72.000000, 17.000000)">
                    <path d="M0.0593684211,0.189529412 L0.0593684211,1.39870588 C0.0593684211,5.0688 2.54863158,8.16374118 5.91768421,9.06861176 C2.54863158,9.97348235 0.0593684211,13.0684235 0.0593684211,16.7385176 L0.0593684211,17.9476941 L8.00736842,17.9476941 L8.84231579,9.06861176 L8.00736842,0.189529412 L0.0593684211,0.189529412 Z" id="Path" fill="#DAF2FE"></path>
                    <path d="M15.8435789,1.39849412 L15.8435789,0.189317647 L8.00736842,0.189317647 L8.00736842,17.9472706 L15.8435789,17.9472706 L15.8435789,16.7380941 C15.8435789,13.068 13.3543158,9.97305882 9.98547368,9.06818824 C13.3543158,8.16374118 15.8435789,5.06858824 15.8435789,1.39849412 Z" id="Path" fill="#B2DCFD"></path>
                </g>
                <g id="Group" transform="translate(72.000000, 11.000000)">
                    <polygon id="Path" fill="#706BEF" points="0.0593684211 0.0245067568 0.0593684211 6.68070946 8.00736842 6.68070946 10.9282105 3.35260811 8.00736842 0.0245067568"></polygon>
                    <polygon id="Path" fill="#6260D0" points="8.00736842 0.0245067568 15.8435789 0.0245067568 15.8435789 6.68070946 8.00736842 6.68070946"></polygon>
                    <polygon id="Path" fill="#706BEF" points="0.0593684211 30.9015541 8.00736842 30.9015541 10.2757895 27.5734527 8.00736842 24.2453514 0.0593684211 24.2453514"></polygon>
                </g>
                <polygon id="Path" fill="#6260D0" points="80 35 88 35 88 42 80 42"></polygon>
                <g id="Group">
                    <polygon id="Path" fill="#173B4D" points="0 107 30.5618674 74.8408574 23.0979116 39.764502 0 -1.18793864e-14"></polygon>
                    <polygon id="Path" fill="#103040" points="75.7953039 75.2598711 0 0 30.5618674 74.8408574"></polygon>
                </g>
            </g>
        </g>
    </g>
</svg>