<?xml version="1.0" encoding="UTF-8"?>
<svg width="29px" height="27px" viewBox="0 0 29 27" version="1.1" xmlns="http://www.w3.org/2000/svg" xmlns:xlink="http://www.w3.org/1999/xlink">
    <title>warning</title>
    <g id="One-Faculty" stroke="none" stroke-width="1" fill="none" fill-rule="evenodd">
        <g id="Teaching-Modules-LACF-pending-error" transform="translate(-373.000000, -413.000000)" fill-rule="nonzero">
            <g id="Group" transform="translate(373.000000, 405.000000)">
                <g id="warning" transform="translate(0.000000, 8.000000)">
                    <path d="M26.7303475,27 L2.26981886,27 C0.52058705,27 -0.569857884,24.9910901 0.312772669,23.3890868 L12.5430087,1.19056649 C13.4168033,-0.395415005 15.5817205,-0.398295334 16.457101,1.19056649 L28.687337,23.3891468 C29.5691746,24.9896499 28.4811652,27 26.7303475,27 Z" id="Path" fill="#FF6B6B"></path>
                    <path d="M14.6988795,2.17344592 L2.94572338,23.4760356 C2.81721143,23.7090238 2.97468076,24 3.23012617,24 L26.7364928,24 C26.9914484,24 27.1496797,23.7094269 27.0208956,23.4760356 L15.2676851,2.17344592 C15.1404795,1.94287623 14.8268471,1.94149419 14.6988795,2.17344592 Z" id="Path" fill="#EE5253"></path>
                    <g id="Group" transform="translate(13.533333, 10.000000)" fill="#E4EAF8">
                        <path d="M1.45831842,9.68362304 C2.21995,9.68362304 2.86336842,10.2054031 2.86336842,10.8229319 C2.86336842,11.432356 2.21995,11.9472251 1.45831842,11.9472251 C0.674478947,11.9472251 0.0367842105,11.4428482 0.0367842105,10.8229319 C0.0367842105,10.2053403 0.687757895,9.68362304 1.45831842,9.68362304 Z" id="Path"></path>
                        <path d="M1.45831842,7.92464921 C0.669976316,7.92464921 0.119434211,7.61032461 0.119434211,7.16029319 L0.119434211,0.805507853 C0.119434211,0.429172775 0.657460526,0.0261989529 1.45831842,0.0261989529 C2.18034211,0.0261989529 2.81376316,0.390408377 2.81376316,0.805507853 L2.81376316,7.16029319 C2.81376316,7.6031623 2.24376053,7.92464921 1.45831842,7.92464921 Z" id="Path"></path>
                    </g>
                    <path d="M1.42249073,23.3891725 L13.1796005,1.19111881 C13.4771123,0.629407859 13.9499515,0.238532402 14.5,0.0798180044 C13.5829621,-0.184745995 12.5751025,0.214110186 12.0576692,1.19111881 L0.300559492,23.3891725 C-0.547164236,24.9895776 0.498809996,27 2.18189742,27 L3.30382866,27 C1.62215692,27 0.574059157,24.9909578 1.42249073,23.3891725 Z" id="Path" fill="#EE5253"></path>
                    <path d="M3.09348398,23.4760355 L14.5,2.6743761 L14.2252915,2.17344558 C14.0986486,1.9424152 13.7869372,1.94195452 13.6599697,2.17344558 L1.97879931,23.4760355 C1.85102037,23.7090238 2.00757933,24 2.26146019,24 L3.37614486,24 C3.12269678,24 2.96548865,23.7094845 3.09348398,23.4760355 Z" id="Path" fill="#E24951"></path>
                    <g id="Group" transform="translate(12.566667, 10.000000)" fill="#D8DCE5">
                        <path d="M1.35894,10.8229319 C1.35894,10.437801 1.57283111,10.0900524 1.89157333,9.88272251 C1.70146222,9.75763351 1.47358667,9.68362304 1.23153333,9.68362304 C0.580837778,9.68362304 0.0311266667,10.2054031 0.0311266667,10.8229319 C0.0311266667,11.442911 0.569624444,11.947288 1.23153333,11.947288 C1.47165333,11.947288 1.69772444,11.8754136 1.88693333,11.7537801 C1.56851333,11.5513508 1.35894,11.2096963 1.35894,10.8229319 Z" id="Path"></path>
                        <path d="M1.42873333,7.16029319 L1.42873333,0.805507853 C1.42873333,0.573298429 1.60208889,0.331287958 1.89337778,0.179748691 C1.70358889,0.0843769634 1.47378,0.0261989529 1.23146889,0.0261989529 C0.555188889,0.0261989529 0.100855556,0.429172775 0.100855556,0.805507853 L0.100855556,7.16029319 C0.100855556,7.61032461 0.565757778,7.92464921 1.23146889,7.92464921 C1.48499333,7.92464921 1.71151556,7.87740314 1.89518222,7.79465969 C1.60505333,7.66203141 1.42873333,7.43698429 1.42873333,7.16029319 Z" id="Path"></path>
                    </g>
                </g>
            </g>
        </g>
    </g>
</svg>