<?xml version="1.0" encoding="UTF-8"?>
<svg width="27px" height="24px" viewBox="0 0 27 24" version="1.1" xmlns="http://www.w3.org/2000/svg" xmlns:xlink="http://www.w3.org/1999/xlink">
    <title>warning</title>
    <g id="One-Faculty" stroke="none" stroke-width="1" fill="none" fill-rule="evenodd">
        <g id="Teaching-Modules-LACF-pending-error" transform="translate(-1129.000000, -206.000000)" fill-rule="nonzero">
            <g id="Notifications" transform="translate(1097.000000, 56.000000)">
                <g id="Today" transform="translate(23.000000, 102.000000)">
                    <g id="Group-3" transform="translate(0.000000, 31.000000)">
                        <g id="warning" transform="translate(9.000000, 17.000000)">
                            <path d="M24.8868752,24 L2.11327963,24 C0.484684495,24 -0.53055734,22.2143023 0.29120214,20.7902994 L11.6779736,1.05828132 C12.4915065,-0.351480004 14.5071191,-0.354040297 15.3221286,1.05828132 L26.7089,20.7903527 C27.5299212,22.2130222 26.5169469,24 24.8868752,24 Z" id="Path" fill="#FF6B6B"></path>
                            <path d="M14.2292784,1.15767811 L3.04351605,20.5236687 C2.92120812,20.7354762 3.07107548,21 3.31418905,21 L25.6857656,21 C25.9284129,21 26.0790055,20.7358426 25.9564386,20.5236687 L14.7706244,1.15767811 C14.6495598,0.948069298 14.3510683,0.946812901 14.2292784,1.15767811 Z" id="Path" fill="#EE5253"></path>
                            <g id="Group" transform="translate(12.000000, 9.000000)" fill="#E4EAF8">
                                <path d="M1.50860526,8.87665445 C2.2965,8.87665445 2.96210526,9.35495288 2.96210526,9.92102094 C2.96210526,10.4796597 2.2965,10.951623 1.50860526,10.951623 C0.697736842,10.951623 0.0380526316,10.4892775 0.0380526316,9.92102094 C0.0380526316,9.35489529 0.711473684,8.87665445 1.50860526,8.87665445 Z" id="Path"></path>
                                <path d="M1.50860526,7.26426178 C0.693078947,7.26426178 0.123552632,6.97613089 0.123552632,6.56360209 L0.123552632,0.738382199 C0.123552632,0.393408377 0.680131579,0.0240157068 1.50860526,0.0240157068 C2.25552632,0.0240157068 2.91078947,0.357874346 2.91078947,0.738382199 L2.91078947,6.56360209 C2.91078947,6.96956545 2.32113158,7.26426178 1.50860526,7.26426178 Z" id="Path"></path>
                            </g>
                            <path d="M1.37343932,20.7903755 L12.7251315,1.05877228 C13.0123843,0.559473652 13.4689187,0.212028802 14,0.0709493373 C13.1145841,-0.164218662 12.1414783,0.190320166 11.6418875,1.05877228 L0.290195372,20.7903755 C-0.528296504,22.2129579 0.481609651,24 2.10665958,24 L3.18990353,24 C1.56622047,24 0.554264014,22.2141847 1.37343932,20.7903755 Z" id="Path" fill="#EE5253"></path>
                            <path d="M3.10783616,20.5236687 L14,1.61306918 L13.7376789,1.1576778 C13.6167467,0.947650185 13.3190912,0.947231386 13.1978491,1.1576778 L2.04341579,20.5236687 C1.92139876,20.7354762 2.07089804,21 2.31333069,21 L3.37775106,21 C3.13573168,21 2.9856125,20.735895 3.10783616,20.5236687 Z" id="Path" fill="#E24951"></path>
                            <g id="Group" transform="translate(12.000000, 9.000000)" fill="#D8DCE5">
                                <path d="M1.4058,9.92102094 C1.4058,9.56798429 1.62706667,9.24921466 1.9568,9.0591623 C1.76013333,8.94449738 1.5244,8.87665445 1.274,8.87665445 C0.600866667,8.87665445 0.0322,9.35495288 0.0322,9.92102094 C0.0322,10.4893351 0.589266667,10.9516806 1.274,10.9516806 C1.5224,10.9516806 1.75626667,10.8857958 1.952,10.7742984 C1.6226,10.5887382 1.4058,10.275555 1.4058,9.92102094 Z" id="Path"></path>
                                <path d="M1.478,6.56360209 L1.478,0.738382199 C1.478,0.52552356 1.65733333,0.303680628 1.95866667,0.164769634 C1.76233333,0.0773455497 1.5246,0.0240157068 1.27393333,0.0240157068 C0.574333333,0.0240157068 0.104333333,0.393408377 0.104333333,0.738382199 L0.104333333,6.56360209 C0.104333333,6.97613089 0.585266667,7.26426178 1.27393333,7.26426178 C1.5362,7.26426178 1.77053333,7.22095288 1.96053333,7.14510471 C1.6604,7.0235288 1.478,6.8172356 1.478,6.56360209 Z" id="Path"></path>
                            </g>
                        </g>
                    </g>
                </g>
            </g>
        </g>
    </g>
</svg>