<?xml version="1.0" encoding="UTF-8"?>
<svg width="217px" height="48px" viewBox="0 0 217 48" version="1.1" xmlns="http://www.w3.org/2000/svg" xmlns:xlink="http://www.w3.org/1999/xlink">
    <title>logo2</title>
    <defs>
        <linearGradient x1="33.9838465%" y1="188.223571%" x2="131.914446%" y2="289.753571%" id="linearGradient-1">
            <stop stop-color="#B2F2F6" offset="0%"></stop>
            <stop stop-color="#30ACCE" offset="90%"></stop>
        </linearGradient>
        <linearGradient x1="70.3173747%" y1="102.115302%" x2="168.27465%" y2="0.32455516%" id="linearGradient-2">
            <stop stop-color="#E86A8C" offset="8%"></stop>
            <stop stop-color="#E82A8C" offset="87%"></stop>
        </linearGradient>
        <linearGradient x1="49.8571429%" y1="100.349406%" x2="49.8571429%" y2="-9.69796493e-16%" id="linearGradient-3">
            <stop stop-color="#FAED7D" offset="11%"></stop>
            <stop stop-color="#F0B018" offset="84%"></stop>
        </linearGradient>
    </defs>
    <g id="Symbols" stroke="none" stroke-width="1" fill="none" fill-rule="evenodd">
        <g id="footer-LMS" transform="translate(-116.000000, -61.000000)" fill-rule="nonzero">
            <g id="logo2" transform="translate(116.000000, 61.000000)">
                <path d="M48,24 L48,48 L47.1278908,48 C34.2884101,47.9056369 23.9444292,37.2098359 24,24.0857143 L24,24.0857143 L48,24 Z" id="Path" fill="url(#linearGradient-1)"></path>
                <path d="M23.9161468,0 L24,23.9145907 L0.00122223656,24 L0.00122223656,24 C-0.129170931,10.8901716 10.190049,0.150131019 23.0608445,0 L23.9161468,0 Z" id="Path" fill="url(#linearGradient-2)"></path>
                <polygon id="Rectangle" fill="url(#linearGradient-3)" transform="translate(36.227897, 12.245514) rotate(-90.180000) translate(-36.227897, -12.245514) " points="24.4003165 0.154124515 48.055489 0.154112758 48.0554769 24.3369034 24.4003045 24.3369152"></polygon>
                <polygon id="Path" fill="#000000" points="63 11.9833333 63 16 53 16 53 1 57.8833333 1 57.8833333 11.9833333"></polygon>
                <path d="M75.8483657,12.1376029 L68.6805187,12.1376029 C68.8284789,12.9874246 69.5189595,13.4210071 70.7848408,13.4210071 C71.8457218,13.4466588 72.8890216,13.132195 73.7769237,12.5191555 L75.5853254,14.9992474 L75.4866853,15.0859639 C73.9573505,16.3824514 72.0388821,17.0591277 70.0779201,16.9937269 C68.4746512,17.0656773 66.9017747,16.5166906 65.6555558,15.4501732 C64.5095274,14.2941393 63.9075639,12.6620918 64.0115542,10.9929451 C63.9074031,9.33209947 64.5243667,7.71132492 65.6884358,6.58774689 C66.9385361,5.50068044 68.5250175,4.93868011 70.1436801,5.00950659 C71.6905089,4.91824762 73.2071518,5.48698825 74.3523242,6.58774689 C75.4520316,7.65402819 76.0529861,9.17556451 75.9963258,10.7501389 L75.8483657,12.1376029 Z M71.4588814,9.51876458 C71.4504585,9.14450127 71.2990277,8.7897112 71.0389808,8.53497155 C70.7789339,8.28023191 70.4323419,8.14716328 70.0779201,8.16598718 C69.3393577,8.13656038 68.7160453,8.73996826 68.6805187,9.51876458 L71.4588814,9.51876458 Z" id="Shape" fill="#000000"></path>
                <path d="M87.9896171,16.7372462 L83.2895014,16.7372462 L83.1707259,15.7150016 C82.433202,16.5340357 81.3927792,16.9992242 80.3031463,16.997139 C79.2227215,17.0337504 78.1589354,16.7181928 77.2658874,16.0961775 C76.3965237,15.4248606 75.9230096,14.3467602 76.0102608,13.2373577 C76.0102608,10.4305163 78.7930008,9.77212146 80.4219217,9.77212146 L83.0180146,9.66816437 L83.0180146,9.47757638 C83.0180146,8.74987678 82.4071692,8.40335315 81.1854785,8.40335315 C79.9430323,8.41609062 78.7257769,8.76268413 77.6561497,9.40827165 L76.4514269,6.22025434 C78.142496,5.42280081 79.9845621,5.01466826 81.8472276,5.02474785 C83.5011999,4.8816733 85.1491792,5.36246591 86.4794716,6.37618997 C87.5327854,7.43428097 88.0838811,8.90749898 87.9896171,10.4131902 L87.9896171,16.7372462 Z M83.0689183,12.0418512 L82.0678106,12.0418512 C81.3381898,12.0418512 80.9648954,12.3883748 80.9648954,12.9428126 C80.9648954,13.4972504 81.3381898,13.843774 82.0678106,13.843774 C82.447753,13.8394939 82.8094528,13.6767354 83.0689183,13.3932933 L83.0689183,12.0418512 Z" id="Shape" fill="#000000"></path>
                <path d="M99,5.26089771 L98.775,9.56949682 L98.55,9.56949682 C98.0980022,9.36130342 97.5998908,9.25586084 97.0961538,9.26173974 C96.475474,9.211711 95.8739533,9.47771788 95.5211538,9.9582426 C95.1688359,10.5087457 95.0113426,11.1493393 95.0711538,11.7885873 L95.0711538,16 L90,16 L90,5.26089771 L95.0711538,5.26089771 L95.0711538,6.62150795 C95.6228237,5.61509691 96.7357,4.98768307 97.9442308,5.00173385 C98.2985413,4.98924211 98.6518627,5.04435257 98.9826923,5.16371126 L99,5.26089771 Z" id="Path" fill="#000000"></path>
                <path d="M111.950413,17 L107.107438,17 L107.107438,11.2737061 C107.107438,9.91701494 106.909091,9.24747904 105.966942,9.24747904 C105.024793,9.24747904 104.859504,9.91701494 104.859504,11.2737061 L104.859504,17 L100,17 L100,5.28312173 L104.842975,5.28312173 L104.842975,6.76314846 C105.503285,5.63753173 106.672345,4.96753995 107.917355,5.00121188 C110.92562,5.00121188 112,6.76314846 112,10.0403505 L111.950413,17 Z" id="Path" fill="#000000"></path>
                <path d="M114,2.30903572 C114.144223,0.993734022 115.220142,0 116.5,0 C117.779858,0 118.855777,0.993734022 119,2.30903572 C118.855777,3.62433742 117.779858,4.61807145 116.5,4.61807145 C115.220142,4.61807145 114.144223,3.62433742 114,2.30903572 L114,2.30903572 Z M118.807692,5.01076354 L118.807692,16 L114.176282,16 L114.176282,4.97761351 L118.807692,5.01076354 Z" id="Shape" fill="#000000"></path>
                <path d="M131.933884,17 L127.090909,17 L127.090909,11.2737061 C127.090909,9.91701494 126.909091,9.24747904 125.950413,9.24747904 C124.991736,9.24747904 124.842975,9.91701494 124.842975,11.2737061 L124.842975,17 L120,17 L120,5.28312173 L124.842975,5.28312173 L124.842975,6.76314846 C125.503285,5.63753173 126.672345,4.96753995 127.917355,5.00121188 C130.92562,5.00121188 132,6.76314846 132,10.0403505 L131.933884,17 Z" id="Path" fill="#000000"></path>
                <path d="M146.991908,5.19808514 L146.991908,14.5270436 C147.089109,16.451949 146.306043,18.3085701 144.888515,19.514113 C143.370284,20.5985224 141.554321,21.1140187 139.728629,20.9788467 C137.718645,20.9998068 135.747182,20.3934359 134.059327,19.2351161 L135.883363,16.0615265 C136.986006,16.754514 138.234369,17.1441246 139.515003,17.1949514 C140.314832,17.2838471 141.115975,17.0400634 141.749858,16.5148964 C142.087379,16.1565228 142.261316,15.660092 142.226408,15.1547866 L142.226408,14.9804135 C141.401654,15.8611189 140.254378,16.3136639 139.087751,16.2184622 C137.752914,16.2733428 136.454232,15.7510602 135.488977,14.7711659 C134.457206,13.6773787 133.91847,12.1656304 134.010028,10.6210872 C133.91847,9.07654393 134.457206,7.56479559 135.488977,6.47100844 C136.439466,5.49794768 137.718159,4.97027973 139.038453,5.00627478 C140.223907,4.93751072 141.375902,5.43671763 142.17711,6.36638461 L142.06208,5.19808514 L146.991908,5.19808514 Z M140.533834,8.92966852 C139.626278,8.92966852 138.890558,9.71036328 138.890558,10.6733991 C138.890558,11.6364349 139.626278,12.4171296 140.533834,12.4171296 C141.44139,12.4171296 142.17711,11.6364349 142.17711,10.6733991 C142.17711,9.71036328 141.44139,8.92966852 140.533834,8.92966852 Z" id="Shape" fill="#000000"></path>
                <path d="M162.032204,15.6694986 C160.764316,16.604286 159.2428,17.0689178 157.702344,16.991726 C155.646829,17.0094588 153.642964,16.3063777 152,14.9909871 L154.124082,11.146089 C154.737748,11.6956397 155.441149,12.1202559 156.199147,12.3987255 C156.783705,12.6458232 157.401372,12.7926282 158.029126,12.8336688 C158.748046,12.8336688 159.107506,12.6074983 159.107506,12.1725551 C159.107506,11.7376118 158.666351,11.5462368 158.045465,11.3722595 L155.921383,10.6415549 C155.200523,10.3698914 154.522819,9.98268423 153.911674,9.4933048 C153.010412,8.66281074 152.516611,7.4380917 152.571868,6.17033858 C152.537986,4.7103714 153.14141,3.31610084 154.205778,2.39503141 C155.475835,1.37915082 157.049889,0.890563832 158.633672,1.02061082 C160.524706,1.00737947 162.365427,1.66887396 163.862183,2.89956555 L162.032204,6.51829316 C161.509701,6.03940717 160.90486,5.67307808 160.251243,5.43963397 C159.73223,5.2073276 159.17951,5.07196542 158.617333,5.0394862 C157.833057,5.0394862 157.424579,5.23086122 157.424579,5.66580444 C157.424579,6.10074766 158.094482,6.29212268 158.437603,6.39650906 L159.189202,6.64007726 L160.169547,6.97063411 C161.052105,7.24395348 161.878137,7.6925839 162.604072,8.29286151 C163.553303,9.15705784 164.067353,10.4449547 163.992895,11.7724073 C163.944473,13.3255365 163.219691,14.7661191 162.032204,15.6694986 L162.032204,15.6694986 Z" id="Path" fill="#000000"></path>
                <path d="M176.897124,12.1577629 L169.709753,12.1577629 C169.858116,13.0102338 170.550477,13.4451679 171.803322,13.4451679 C172.867092,13.4708996 173.913234,13.1554555 174.803555,12.5405049 L176.633367,15.0283281 L176.517973,15.115315 C174.979904,16.4033748 173.056657,17.0696639 171.094475,16.9942304 C169.488114,17.0568545 167.914053,16.5072389 166.660065,15.4458649 C165.510915,14.2862273 164.907312,12.6490921 165.011586,10.974742 C164.914203,9.31652247 165.539452,7.70210243 166.70952,6.590606 C167.958732,5.50421938 169.542947,4.94072236 171.160415,5.00744576 C172.699974,4.92729013 174.206488,5.49690427 175.347553,6.590606 C176.452134,7.65882146 177.055105,9.18606203 176.996033,10.7659737 L176.897124,12.1577629 Z M172.495683,9.495966 C172.487419,9.11733968 172.333308,8.75861792 172.068901,8.50255431 C171.804495,8.24649069 171.452629,8.11520065 171.094475,8.13897151 C170.740275,8.12487 170.395295,8.25997433 170.135555,8.5145137 C169.875814,8.76905307 169.722629,9.12213844 169.709753,9.495966 L172.495683,9.495966 Z" id="Shape" fill="#000000"></path>
                <path d="M187,5.26089771 L186.775,9.56949682 L186.55,9.56949682 C186.091905,9.36112134 185.588145,9.25573762 185.078846,9.26173974 C184.458166,9.211711 183.856646,9.47771788 183.503846,9.9582426 C183.170024,10.5151171 183.019489,11.1518974 183.071154,11.7885873 L183.071154,16 L178,16 L178,5.26089771 L183.071154,5.26089771 L183.071154,6.62150795 C183.622824,5.61509691 184.7357,4.98768307 185.944231,5.00173385 C186.298541,4.98924211 186.651863,5.04435257 186.982692,5.16371126 L187,5.26089771 Z" id="Path" fill="#000000"></path>
                <path d="M188,2.30903572 C188.144223,0.993734022 189.220142,0 190.5,0 C191.779858,0 192.855777,0.993734022 193,2.30903572 C192.855777,3.62433742 191.779858,4.61807145 190.5,4.61807145 C189.220142,4.61807145 188.144223,3.62433742 188,2.30903572 Z M192.807692,5.01076354 L192.807692,16 L188.128205,16 L188.128205,4.97761351 L192.807692,5.01076354 Z" id="Shape" fill="#000000"></path>
                <path d="M205.93001,12.1371471 L198.72138,12.1371471 C198.870524,12.9871396 199.549958,13.4208093 200.825969,13.4208093 C201.895339,13.4464661 202.946987,13.1319391 203.841993,12.5187764 L205.61515,15.0340604 L205.515721,15.1207943 C203.969556,16.4051094 202.036187,17.0694614 200.063677,16.9942472 C198.470116,17.0492353 196.911014,16.5011173 195.672213,15.4503832 C194.517014,14.294117 193.910234,12.6617415 194.015056,10.9922592 C193.894289,9.33550679 194.504872,7.71207539 195.672213,6.58617552 C196.928,5.50294734 198.520554,4.94108857 200.146535,5.00761798 C201.689383,4.92656239 203.199088,5.49498133 204.33914,6.58617552 C205.447647,7.65267115 206.05341,9.17451332 205.996296,10.7494042 L205.93001,12.1371471 Z M201.521974,9.4830888 C201.509116,9.10720607 201.352828,8.75241172 201.088087,8.49810811 C200.823346,8.2438045 200.472256,8.11122457 200.113392,8.13003949 C199.756134,8.1112118 199.406768,8.24430717 199.144641,8.49909803 C198.882513,8.75388888 198.729871,9.10875026 198.72138,9.4830888 L201.521974,9.4830888 Z" id="Shape" fill="#000000"></path>
                <path d="M215.580886,15.9732936 C214.543094,16.7052456 213.305608,17.0625685 212.056299,16.9910147 C210.247407,17.0602367 208.468125,16.4957268 207,15.3868102 L208.647003,12.4371439 C209.120123,12.7548816 209.629102,13.009827 210.162246,13.1961223 C210.811338,13.4543348 211.49472,13.6056262 212.18806,13.6446096 C212.59981,13.6446096 212.813921,13.5238631 212.813921,13.2823699 C212.813921,13.0408767 212.64922,12.9718787 212.28688,12.8511321 L211.825719,12.678637 C211.595139,12.5923895 211.018687,12.4371439 210.985747,12.4371439 C210.508117,12.2818983 210.079896,12.1439022 209.717555,11.9886566 C208.418532,11.5726289 207.569585,10.2676227 207.675271,8.8492456 C207.657043,7.75731855 208.133539,6.72083525 208.959934,6.05482483 C209.917839,5.33480181 211.07541,4.96503356 212.25394,5.00260467 C213.881914,4.96494206 215.484881,5.42662043 216.865548,6.33081701 L215.564416,9.15973679 C214.636517,8.49011564 213.544839,8.11299182 212.41864,8.07301761 C212.006889,8.07301761 211.825719,8.21101369 211.825719,8.46975636 C211.825719,8.72849902 212.20453,8.8492456 212.995091,9.07348924 C213.522132,9.20762914 214.039478,9.38055374 214.543274,9.59097457 C215.117644,9.81349508 215.643943,10.1536019 216.091457,10.5914462 C216.706481,11.2678747 217.033333,12.1765808 216.997309,13.1098748 C217.006386,14.2509475 216.476133,15.3228992 215.580886,15.9732936 L215.580886,15.9732936 Z" id="Path" fill="#000000"></path>
                <path d="M61.6721194,31.2572394 C60.7296226,31.9770181 59.5717613,32.3215066 58.4073878,32.2285668 L56.8892875,32.2285668 L56.8892875,37 L54,37 L54,24.0148854 L58.4400351,24.0148854 C59.6044087,23.9219457 60.7622699,24.2664341 61.7047668,24.9862129 C62.579977,25.7491771 63.0581445,26.8991765 62.9943358,28.0876445 C63.0503897,29.3014639 62.5615672,30.4732608 61.6721194,31.2572394 L61.6721194,31.2572394 Z M59.4357782,26.7755004 C59.0163169,26.5030981 58.5244614,26.3777172 58.0319436,26.4176429 L56.8892875,26.4176429 L56.8892875,29.8258094 L58.0319436,29.8258094 C58.5244614,29.8657351 59.0163169,29.7403541 59.4357782,29.4679519 C59.8402133,29.1391973 60.060689,28.6213324 60.0234299,28.0876445 C60.0444356,27.5763514 59.8250698,27.0865383 59.4357782,26.7755004 L59.4357782,26.7755004 Z" id="Shape" fill="#000000"></path>
                <polygon id="Path" fill="#000000" points="68 24 68 37 65 37 65 24"></polygon>
                <path d="M77.9917695,36.7856092 L75.1162819,36.7856092 L75.1162819,35.7762506 L74.5652903,36.307492 C73.9404813,36.7463543 73.2039594,36.9865254 72.4474163,36.9981058 C71.5867039,37.0257111 70.7425326,36.7508938 70.0540464,36.2189518 C69.3513388,35.6807794 68.9570894,34.8166871 69.0037186,33.9169058 C68.9789088,33.3023473 69.1820093,32.70104 69.5719287,32.2346414 C70.3652814,31.3724264 71.4837016,30.9071692 72.6368196,30.9596621 L74.9957525,30.8711219 L74.9957525,30.6586253 C74.9957525,29.6315587 74.34145,29.1180253 73.0672818,29.1180253 C72.0599582,29.1481771 71.0765329,29.4406261 70.2090128,29.9680115 L69.3825253,27.9847104 C70.6236241,27.3486798 71.9905704,27.0154056 73.3772146,27.0107679 C74.6202342,26.9278802 75.848495,27.3257827 76.8209123,28.1263748 C77.6400543,28.9871415 78.0656033,30.1649301 77.9917695,31.3669472 L77.9917695,36.7856092 Z M74.978534,32.5710943 L73.4805256,32.6596345 C72.4990717,32.6596345 71.9997356,33.0846276 71.9997356,33.8283656 C71.9997356,34.5721035 72.5851642,35.0148046 73.4116516,35.0148046 C74.0402441,35.0055156 74.6249792,34.6817062 74.978534,34.1471104 L74.978534,32.5710943 Z" id="Shape" fill="#000000"></path>
                <path d="M85,27.5110566 L85,29.782965 L83.0748663,29.782965 L83.0748663,33.1139584 C83.0437589,33.5126477 83.1277155,33.9119464 83.315508,34.2584536 C83.4993202,34.4328549 83.745104,34.5138589 83.9893048,34.4805198 C84.2408533,34.4806054 84.4905212,34.4343722 84.7272727,34.3438637 L84.8395722,34.3438637 L84.9839572,36.7011821 C84.3239795,36.8863367 83.6450301,36.9838751 82.9625668,36.9915764 C82.1724995,37.0565221 81.3963069,36.7434639 80.8449198,36.1374755 C80.3660595,35.3221197 80.1518813,34.361899 80.2352941,33.4043527 L80.2352941,29.817129 L79,29.817129 L79,27.5110566 L80.2352941,27.5110566 L80.2352941,25 L83.0748663,25 L83.0748663,27.5110566 L85,27.5110566 Z" id="Path" fill="#000000"></path>
                <path d="M92,23.192523 L91.8363636,25.2511688 C91.4518362,25.1481825 91.0546456,25.0914711 90.6545455,25.0824273 C89.8909091,25.0824273 89.4727273,25.4705327 89.4727273,26.2804917 L89.4727273,26.8710869 L91.6,26.8710869 L91.6,29.1153483 L89.4,29.1153483 L89.4,36 L86.2545455,36 L86.2545455,29.1659708 L85,29.1659708 L85,26.9217093 L86.2545455,26.9217093 L86.2545455,26.4154849 C86.1718462,25.5295379 86.4581467,24.6478664 87.0545455,23.9518595 C87.7909368,23.289246 88.7946006,22.9460698 89.8181818,23.0069074 C90.4657005,23.0084129 91.1114004,23.0706003 91.7454545,23.192523 L92,23.192523 Z" id="Path" fill="#000000"></path>
                <path d="M93.4009876,35.6515186 C92.4564516,34.7189463 91.945579,33.3900284 92.0046041,32.0191471 C91.9497014,30.6438575 92.4594943,29.3112794 93.4009876,28.3690567 C94.3945005,27.437499 95.6861293,26.948982 97.0083118,27.0047026 C98.3258817,26.9462016 99.6132753,27.435371 100.599012,28.3690567 C101.540506,29.3112794 102.050299,30.6438575 101.995396,32.0191471 C102.054421,33.3900284 101.543548,34.7189463 100.599012,35.6515186 C98.4961494,37.4494938 95.5038506,37.4494938 93.4009876,35.6515186 L93.4009876,35.6515186 Z M94.9636073,31.9482716 C94.8623135,32.7932596 95.2283873,33.6245066 95.9029722,34.0812957 C96.5775571,34.5380848 97.4390665,34.5380848 98.1136514,34.0812957 C98.7882363,33.6245066 99.1543101,32.7932596 99.0530163,31.9482716 C99.1543101,31.1032836 98.7882363,30.2720366 98.1136514,29.8152475 C97.4390665,29.3584584 96.5775571,29.3584584 95.9029722,29.8152475 C95.2283873,30.2720366 94.8623135,31.1032836 94.9636073,31.9482716 L94.9636073,31.9482716 Z" id="Shape" fill="#000000"></path>
                <path d="M109,27.1167718 L108.836512,29.7719064 L108.705722,29.7719064 C108.381032,29.6104552 108.021677,29.5316494 107.659401,29.5424503 C107.139066,29.5372531 106.64734,29.7806885 106.33515,30.1980391 C105.985532,30.7489724 105.824808,31.3992359 105.877384,32.0500775 L105.877384,36 L103,36 L103,27.1167718 L105.877384,27.1167718 L105.877384,28.4279494 L105.877384,28.4279494 C106.253548,27.5528798 107.117704,26.9904177 108.06812,27.0020437 C108.345283,26.9903088 108.622266,27.0291834 108.885559,27.1167718 L109,27.1167718 Z" id="Path" fill="#000000"></path>
                <path d="M125,36 L122.081272,36 L122.081272,31.1717381 C122.081272,29.9442138 121.685512,29.3222682 120.893993,29.3222682 C120.102473,29.3222682 119.442874,30.1569847 119.442874,31.4499769 L119.442874,36 L116.540636,36 L116.540636,31.1717381 C116.540636,29.9442138 116.144876,29.3222682 115.353357,29.3222682 C114.561837,29.3222682 113.902238,30.1569847 113.902238,31.4499769 L113.902238,36 L111,36 L111,27.1290916 L113.902238,27.1290916 L113.902238,28.4384508 L113.902238,28.4384508 C114.419983,27.5679987 115.357412,27.0283453 116.375736,27.0145227 C117.534199,26.8909859 118.628739,27.5657535 119.030624,28.6512217 C119.589481,27.6105299 120.695884,26.9757609 121.883392,27.0145227 C123.944641,27.0145227 124.98351,28.2420469 124.98351,30.6970954 L125,36 Z" id="Path" fill="#000000"></path>
            </g>
        </g>
    </g>
</svg>