<?xml version="1.0" encoding="UTF-8"?>
<svg width="129px" height="29px" viewBox="0 0 129 29" version="1.1" xmlns="http://www.w3.org/2000/svg" xmlns:xlink="http://www.w3.org/1999/xlink">
    <title>logo-white</title>
    <defs>
        <linearGradient x1="29.7281211%" y1="172.934506%" x2="127.658721%" y2="270.11141%" id="linearGradient-1">
            <stop stop-color="#B2F2F6" offset="0%"></stop>
            <stop stop-color="#30ACCE" offset="90%"></stop>
        </linearGradient>
        <linearGradient x1="81.1994201%" y1="88.9413058%" x2="179.156695%" y2="-9.10486454%" id="linearGradient-2">
            <stop stop-color="#E86A8C" offset="8%"></stop>
            <stop stop-color="#E82A8C" offset="87%"></stop>
        </linearGradient>
        <linearGradient x1="37.4285714%" y1="100.349406%" x2="37.4285714%" y2="-5.71985971e-13%" id="linearGradient-3">
            <stop stop-color="#FAED7D" offset="11%"></stop>
            <stop stop-color="#F0B018" offset="84%"></stop>
        </linearGradient>
    </defs>
    <g id="Symbols" stroke="none" stroke-width="1" fill="none" fill-rule="evenodd">
        <g id="Nav-LMS" transform="translate(-126.000000, -26.000000)" fill-rule="nonzero">
            <g id="logo-white" transform="translate(126.000000, 26.000000)">
                <path d="M28.62,14.22 L28.62,28.22 L28.1,28.22 C20.444388,28.1649549 14.2767317,21.9257376 14.309866,14.27 L14.309866,14.27 L28.62,14.22 Z" id="Path" fill="url(#linearGradient-1)"></path>
                <path d="M14.26,0.27 L14.31,14.27 L2.17599376e-16,14.32 L2.17599376e-16,14.32 C-0.0777508857,6.64528797 6.07539737,0.357889201 13.75,0.27 L14.26,0.27 Z" id="Path" fill="url(#linearGradient-2)"></path>
                <rect id="Rectangle" fill="url(#linearGradient-3)" transform="translate(21.437609, 7.247345) rotate(-90.180000) translate(-21.437609, -7.247345) " x="14.4376086" y="0.0923450007" width="14" height="14.31"></rect>
                <polygon id="Path" fill="#FFFFFF" points="37.47 7.24 37.47 9.65 31.47 9.65 31.47 0.65 34.4 0.65 34.4 7.24"></polygon>
                <path d="M44.91,7 L40.55,7 C40.64,7.49 41.06,7.74 41.83,7.74 C42.4753041,7.75479054 43.1099141,7.5734734 43.65,7.22 L44.75,8.65 L44.69,8.7 C43.7597486,9.44754375 42.5927981,9.83770955 41.4,9.8 C40.4247766,9.84148601 39.46804,9.52494491 38.71,8.91 C38.0129031,8.24344065 37.6467456,7.30241589 37.71,6.34 C37.6466478,5.38237048 38.0219295,4.44784559 38.73,3.8 C39.4904009,3.17320668 40.455413,2.84916205 41.44,2.89 C42.3808925,2.83738085 43.3034238,3.16531189 44,3.8 C44.6689211,4.41480877 45.0344648,5.29211374 45,6.2 L44.91,7 Z M42.24,5.49 C42.2348766,5.27420294 42.1427655,5.06963399 41.9845863,4.92275327 C41.826407,4.77587254 41.6155848,4.6991463 41.4,4.71 C40.9507533,4.69303275 40.5716098,5.04095263 40.55,5.49 L42.24,5.49 Z" id="Shape" fill="#FFFFFF"></path>
                <path d="M52.32,9.65 L49.55,9.65 L49.48,9.06 C49.0453424,9.53271474 48.4321721,9.8012035 47.79,9.8 C47.1532547,9.82113073 46.5263153,9.63900309 46,9.28 C45.4876429,8.89254188 45.2085787,8.27030415 45.26,7.63 C45.26,6.01 46.9,5.63 47.86,5.63 L49.39,5.57 L49.39,5.46 C49.39,5.04 49.03,4.84 48.31,4.84 C47.5777678,4.84735157 46.8603818,5.04739191 46.23,5.42 L45.52,3.58 C46.5166268,3.11974074 47.6022433,2.88418245 48.7,2.89 C49.6747639,2.80742291 50.6459959,3.08491777 51.43,3.67 C52.0507675,4.2806891 52.3755542,5.13097343 52.32,6 L52.32,9.65 Z M49.42,6.94 L48.83,6.94 C48.4,6.94 48.18,7.14 48.18,7.46 C48.18,7.78 48.4,7.98 48.83,7.98 C49.053918,7.9775297 49.2670847,7.88359181 49.42,7.72 L49.42,6.94 Z" id="Shape" fill="#FFFFFF"></path>
                <path d="M58.49,3 L58.36,5.66 L58.23,5.66 C57.9688457,5.53146763 57.681048,5.46637055 57.39,5.47 C57.031385,5.43911376 56.6838397,5.60333843 56.48,5.9 C56.2764385,6.23986413 56.1854424,6.6353474 56.22,7.03 L56.22,9.63 L53.29,9.63 L53.29,3 L56.22,3 L56.22,3.84 C56.5387426,3.21867198 57.1817378,2.83132547 57.88,2.84 C58.0847127,2.83228797 58.288854,2.86631152 58.48,2.94 L58.49,3 Z" id="Path" fill="#FFFFFF"></path>
                <path d="M66.23,9.65 L63.3,9.65 L63.3,6.4 C63.3,5.63 63.18,5.25 62.61,5.25 C62.04,5.25 61.94,5.63 61.94,6.4 L61.94,9.65 L59,9.65 L59,3 L61.93,3 L61.93,3.84 C62.3294877,3.20114799 63.0367689,2.82088925 63.79,2.84 C65.61,2.84 66.26,3.84 66.26,5.7 L66.23,9.65 Z" id="Path" fill="#FFFFFF"></path>
                <path d="M67.12,1.39 C67.2099951,0.596455306 67.8813685,-0.00308193987 68.68,-0.00308193987 C69.4786315,-0.00308193987 70.1500049,0.596455306 70.24,1.39 C70.1500049,2.18354469 69.4786315,2.78308194 68.68,2.78308194 C67.8813685,2.78308194 67.2099951,2.18354469 67.12,1.39 L67.12,1.39 Z M70.12,3.02 L70.12,9.65 L67.23,9.65 L67.23,3 L70.12,3.02 Z" id="Shape" fill="#FFFFFF"></path>
                <path d="M78.41,9.65 L75.48,9.65 L75.48,6.4 C75.48,5.63 75.37,5.25 74.79,5.25 C74.21,5.25 74.12,5.63 74.12,6.4 L74.12,9.65 L71.19,9.65 L71.19,3 L74.12,3 L74.12,3.84 C74.5194877,3.20114799 75.2267689,2.82088925 75.98,2.84 C77.8,2.84 78.45,3.84 78.45,5.7 L78.41,9.65 Z" id="Path" fill="#FFFFFF"></path>
                <path d="M87,3 L87,8.35 C87.0591507,9.45390074 86.5826234,10.5186415 85.72,11.21 C84.7960951,11.8318905 83.691008,12.1275189 82.58,12.05 C81.3568434,12.0620203 80.1571284,11.7142768 79.13,11.05 L80.24,9.23 C80.9110032,9.62741661 81.6706826,9.85085172 82.45,9.88 C82.9367287,9.93098021 83.4242568,9.79117437 83.81,9.49 C84.0153951,9.28447877 84.1212431,8.99978413 84.1,8.71 L84.1,8.61 C83.5981037,9.11506961 82.8999397,9.37459652 82.19,9.32 C81.3776973,9.35147305 80.587397,9.05195281 80,8.49 C79.3721256,7.86273156 79.0442828,6.99576944 79.1,6.11 C79.0442828,5.22423056 79.3721256,4.35726844 80,3.73 C80.5784113,3.1719661 81.3565478,2.86935745 82.16,2.89 C82.8813972,2.85056497 83.5824326,3.1368517 84.07,3.67 L84,3 L87,3 Z M83.07,5.14 C82.5177153,5.14 82.07,5.58771525 82.07,6.14 C82.07,6.69228475 82.5177153,7.14 83.07,7.14 C83.6222847,7.14 84.07,6.69228475 84.07,6.14 C84.07,5.58771525 83.6222847,5.14 83.07,5.14 Z" id="Shape" fill="#FFFFFF"></path>
                <path d="M96.14,9 C95.3640158,9.5373043 94.4328037,9.80436892 93.49,9.76 C92.231965,9.77019261 91.0055415,9.36607027 90,8.61 L91.3,6.4 C91.6755812,6.71587492 92.1060833,6.95993907 92.57,7.12 C92.9277663,7.26202869 93.3057964,7.34641042 93.69,7.37 C94.13,7.37 94.35,7.24 94.35,6.99 C94.35,6.74 94.08,6.63 93.7,6.53 L92.4,6.11 C91.958813,5.95385115 91.5440385,5.73128926 91.17,5.45 C90.6184016,4.97264226 90.3161808,4.26868886 90.35,3.54 C90.3292628,2.70082887 90.6985759,1.89941935 91.35,1.37 C92.1273121,0.786084367 93.0906786,0.505250592 94.06,0.58 C95.2173676,0.572394781 96.343942,0.952613653 97.26,1.66 L96.14,3.74 C95.8202131,3.46474224 95.4500325,3.2541808 95.05,3.12 C94.7323489,2.98647317 94.3940684,2.90866865 94.05,2.89 C93.57,2.89 93.32,3 93.32,3.25 C93.32,3.5 93.73,3.61 93.94,3.67 L94.4,3.81 L95,4 C95.5401511,4.1571006 96.0457066,4.41496784 96.49,4.76 C97.0709568,5.2567294 97.3855703,5.9969966 97.34,6.76 C97.3103638,7.65271952 96.8667768,8.48074862 96.14,9 L96.14,9 Z" id="Path" fill="#FFFFFF"></path>
                <path d="M104.88,7 L100.52,7 C100.61,7.49 101.03,7.74 101.79,7.74 C102.435304,7.75479054 103.069914,7.5734734 103.61,7.22 L104.72,8.65 L104.65,8.7 C103.716977,9.44037638 102.550298,9.82335914 101.36,9.78 C100.38555,9.81599631 99.4306936,9.50007742 98.67,8.89 C97.9729031,8.22344065 97.6067456,7.28241589 97.67,6.32 C97.6109257,5.36685592 97.9902143,4.4388878 98.7,3.8 C99.4577968,3.17554532 100.418813,2.85164741 101.4,2.89 C102.333927,2.84392657 103.247808,3.17134059 103.94,3.8 C104.61006,4.41400991 104.975834,5.2918673 104.94,6.2 L104.88,7 Z M102.21,5.47 C102.204987,5.25236571 102.1115,5.04617256 101.951106,4.89898728 C101.790712,4.75180199 101.577263,4.67633652 101.36,4.69 C101.145135,4.68189446 100.935864,4.75955238 100.7783,4.90586153 C100.620736,5.05217068 100.527811,5.25512404 100.52,5.47 L102.21,5.47 Z" id="Shape" fill="#FFFFFF"></path>
                <path d="M110.79,3 L110.66,5.66 L110.53,5.66 C110.265323,5.53135522 109.974261,5.46629447 109.68,5.47 C109.321385,5.43911376 108.97384,5.60333843 108.77,5.9 C108.577125,6.24379763 108.490149,6.63692673 108.52,7.03 L108.52,9.63 L105.59,9.63 L105.59,3 L108.52,3 L108.52,3.84 C108.838743,3.21867198 109.481738,2.83132547 110.18,2.84 C110.384713,2.83228797 110.588854,2.86631152 110.78,2.94 L110.79,3 Z" id="Path" fill="#FFFFFF"></path>
                <path d="M111.21,1.39 C111.299995,0.596455306 111.971368,-0.00308193987 112.77,-0.00308193987 C113.568632,-0.00308193987 114.240005,0.596455306 114.33,1.39 C114.240005,2.18354469 113.568632,2.78308194 112.77,2.78308194 C111.971368,2.78308194 111.299995,2.18354469 111.21,1.39 Z M114.21,3.02 L114.21,9.65 L111.29,9.65 L111.29,3 L114.21,3.02 Z" id="Shape" fill="#FFFFFF"></path>
                <path d="M122.19,7 L117.84,7 C117.93,7.49 118.34,7.74 119.11,7.74 C119.755304,7.75479054 120.389914,7.5734734 120.93,7.22 L122,8.67 L121.94,8.72 C121.006977,9.46037638 119.840298,9.84335914 118.65,9.8 C117.688376,9.83169933 116.747546,9.51572261 116,8.91 C115.302903,8.24344065 114.936746,7.30241589 115,6.34 C114.927124,5.38492256 115.295576,4.44905387 116,3.8 C116.757797,3.17554532 117.718813,2.85164741 118.7,2.89 C119.631022,2.84327342 120.542043,3.17095311 121.23,3.8 C121.898921,4.41480877 122.264465,5.29211374 122.23,6.2 L122.19,7 Z M119.53,5.47 C119.522241,5.25331275 119.42793,5.04878244 119.268174,4.9021826 C119.108417,4.75558276 118.896555,4.67915366 118.68,4.69 C118.464415,4.6791463 118.253593,4.75587254 118.095414,4.90275327 C117.937235,5.04963399 117.845123,5.25420294 117.84,5.47 L119.53,5.47 Z" id="Shape" fill="#FFFFFF"></path>
                <path d="M127.65,9.23 C127.019891,9.65433206 126.268535,9.86148159 125.51,9.82 C124.411706,9.86012983 123.331392,9.5328684 122.44,8.89 L123.44,7.18 C123.727261,7.36420102 124.036295,7.51199963 124.36,7.62 C124.754105,7.76969264 125.16903,7.85740027 125.59,7.88 C125.84,7.88 125.97,7.81 125.97,7.67 C125.97,7.53 125.87,7.49 125.65,7.42 L125.37,7.32 C125.23,7.27 124.88,7.18 124.86,7.18 C124.57,7.09 124.31,7.01 124.09,6.92 C123.301281,6.6788177 122.785831,5.92227092 122.85,5.1 C122.838933,4.46698087 123.128244,3.86610394 123.63,3.48 C124.211605,3.06258351 124.91444,2.84821903 125.63,2.87 C126.618447,2.84816599 127.591709,3.11581321 128.43,3.64 L127.64,5.28 C127.076613,4.89180282 126.413787,4.67317411 125.73,4.65 C125.48,4.65 125.37,4.73 125.37,4.88 C125.37,5.03 125.6,5.1 126.08,5.23 C126.4,5.30776447 126.714113,5.40801345 127.02,5.53 C127.368736,5.65900105 127.688286,5.85617 127.96,6.11 C128.33342,6.50214359 128.531873,7.02894465 128.51,7.57 C128.515511,8.23151018 128.193561,8.85294907 127.65,9.23 L127.65,9.23 Z" id="Path" fill="#FFFFFF"></path>
                <path d="M36.6,18.25 C36.0226191,18.6723847 35.3133043,18.8745395 34.6,18.82 L33.67,18.82 L33.67,21.62 L31.9,21.62 L31.9,14 L34.62,14 C35.3333043,13.9454605 36.0426191,14.1476153 36.62,14.57 C37.1561606,15.0177271 37.4490897,15.6925764 37.41,16.39 C37.444339,17.1023005 37.1448826,17.7899412 36.6,18.25 L36.6,18.25 Z M35.23,15.62 C34.9730347,15.4601474 34.6717202,15.3865706 34.37,15.41 L33.67,15.41 L33.67,17.41 L34.37,17.41 C34.6717202,17.4334294 34.9730347,17.3598526 35.23,17.2 C35.4777601,17.0070783 35.6128252,16.7031818 35.59,16.39 C35.6028682,16.08996 35.4684831,15.8025251 35.23,15.62 L35.23,15.62 Z" id="Shape" fill="#FFFFFF"></path>
                <polygon id="Path" fill="#FFFFFF" points="40 14 40 21.59 38.19 21.59 38.19 14"></polygon>
                <path d="M46,21.62 L44.33,21.62 L44.33,21.05 L44.01,21.35 C43.647129,21.5978321 43.2193784,21.7334604 42.78,21.74 C42.2801232,21.7555891 41.7898529,21.6003957 41.39,21.3 C40.9818878,20.996086 40.7529191,20.50812 40.78,20 C40.7655912,19.6529496 40.8835461,19.3133823 41.11,19.05 C41.5707563,18.5630942 42.2203024,18.3003565 42.89,18.33 L44.26,18.28 L44.26,18.16 C44.26,17.58 43.88,17.29 43.14,17.29 C42.5549756,17.3070272 41.9838306,17.4721775 41.48,17.77 L41,16.65 C41.7207943,16.290824 42.5146771,16.102619 43.32,16.1 C44.0419098,16.0531921 44.7552482,16.2778936 45.32,16.73 C45.795734,17.2160879 46.0428805,17.8812029 46,18.56 L46,21.62 Z M44.25,19.24 L43.38,19.29 C42.81,19.29 42.52,19.53 42.52,19.95 C42.52,20.37 42.86,20.62 43.34,20.62 C43.7050683,20.6147543 44.0446656,20.4318943 44.25,20.13 L44.25,19.24 Z" id="Shape" fill="#FFFFFF"></path>
                <path d="M50.34,16.21 L50.34,17.54 L49.14,17.54 L49.14,19.49 C49.1206097,19.7233971 49.1729427,19.9571509 49.29,20.16 C49.4045763,20.2620964 49.5577815,20.3095171 49.71,20.29 C49.8667986,20.2900501 50.0224249,20.2629847 50.17,20.21 L50.24,20.21 L50.33,21.59 C49.9186139,21.6983915 49.4954021,21.7554915 49.07,21.76 C48.5775247,21.7980199 48.093698,21.6147522 47.75,21.26 C47.4515104,20.7826818 47.318006,20.2205581 47.37,19.66 L47.37,17.56 L46.6,17.56 L46.6,16.21 L47.37,16.21 L47.37,14.74 L49.14,14.74 L49.14,16.21 L50.34,16.21 Z" id="Path" fill="#FFFFFF"></path>
                <path d="M54.43,14 L54.34,15.22 C54.1285099,15.158968 53.9100551,15.1253596 53.69,15.12 C53.27,15.12 53.04,15.35 53.04,15.83 L53.04,16.18 L54.21,16.18 L54.21,17.51 L53,17.51 L53,21.59 L51.27,21.59 L51.27,17.54 L50.58,17.54 L50.58,16.21 L51.27,16.21 L51.27,15.91 C51.2245154,15.3849678 51.3819807,14.8624693 51.71,14.45 C52.1150152,14.0573203 52.6670303,13.8539463 53.23,13.89 C53.5861353,13.8908922 53.9412702,13.9277459 54.29,14 L54.43,14 Z" id="Path" fill="#FFFFFF"></path>
                <path d="M55.11,21 C54.5418106,20.4736845 54.2344932,19.7236837 54.27,18.95 C54.2369731,18.1738284 54.543641,17.4217618 55.11,16.89 C55.7076516,16.3642571 56.4846359,16.088553 57.28,16.12 C58.0725894,16.0869838 58.847026,16.3630561 59.44,16.89 C60.006359,17.4217618 60.3130269,18.1738284 60.28,18.95 C60.3155068,19.7236837 60.0081894,20.4736845 59.44,21 C58.1750145,22.0147225 56.3749855,22.0147225 55.11,21 L55.11,21 Z M56.05,18.91 C55.9890663,19.3868855 56.2092794,19.856016 56.6150786,20.1138139 C57.0208778,20.3716118 57.5391222,20.3716118 57.9449214,20.1138139 C58.3507206,19.856016 58.5709337,19.3868855 58.51,18.91 C58.5709337,18.4331145 58.3507206,17.963984 57.9449214,17.7061861 C57.5391222,17.4483882 57.0208778,17.4483882 56.6150786,17.7061861 C56.2092794,17.963984 55.9890663,18.4331145 56.05,18.91 L56.05,18.91 Z" id="Shape" fill="#FFFFFF"></path>
                <path d="M64.81,16.2 L64.71,17.82 L64.63,17.82 C64.4313977,17.7214924 64.2115924,17.67341 63.99,17.68 C63.6717285,17.676829 63.3709566,17.8253583 63.18,18.08 C62.9661506,18.4161456 62.8678406,18.8128965 62.9,19.21 L62.9,21.62 L61.14,21.62 L61.14,16.2 L62.9,16.2 L62.9,17 L62.9,17 C63.1300866,16.4660863 63.6586625,16.1229065 64.24,16.13 C64.4095316,16.12284 64.5789526,16.146559 64.74,16.2 L64.81,16.2 Z" id="Path" fill="#FFFFFF"></path>
                <path d="M73.89,21.62 L72.12,21.62 L72.12,18.67 C72.12,17.92 71.88,17.54 71.4,17.54 C70.92,17.54 70.52,18.05 70.52,18.84 L70.52,21.62 L68.76,21.62 L68.76,18.67 C68.76,17.92 68.52,17.54 68.04,17.54 C67.56,17.54 67.16,18.05 67.16,18.84 L67.16,21.62 L65.4,21.62 L65.4,16.2 L67.16,16.2 L67.16,17 L67.16,17 C67.4739754,16.4681661 68.0424593,16.1384454 68.66,16.13 C69.3625251,16.0545208 70.0262854,16.4667943 70.27,17.13 C70.6089069,16.494152 71.2798614,16.1063171 72,16.13 C73.25,16.13 73.88,16.88 73.88,18.38 L73.89,21.62 Z" id="Path" fill="#FFFFFF"></path>
            </g>
        </g>
    </g>
</svg>