<?xml version="1.0" encoding="UTF-8"?>
<svg width="27px" height="27px" viewBox="0 0 27 27" version="1.1" xmlns="http://www.w3.org/2000/svg" xmlns:xlink="http://www.w3.org/1999/xlink">
    <title>notification</title>
    <g id="Symbols" stroke="none" stroke-width="1" fill="none" fill-rule="evenodd">
        <g id="Nav-LMS" transform="translate(-1003.000000, -23.000000)" fill-rule="nonzero">
            <g id="notification" transform="translate(1003.000000, 23.000000)">
                <path d="M12.7719067,1 C9.46240324,1.36792858 6.65052188,3.74857138 5.71095358,7.08333578 L4.49839526,15.9468072 L3.97783032,15.9468072 C2.88552408,15.9468072 2,16.8541651 2,17.9734036 C2,19.0926421 2.88552408,20 3.97783032,20 L8.5968058,20 L8.83829889,18.9670438 C7.83079212,18.9734783 7.19180459,17.9734036 7.38973596,16.991467 L8.61045283,8.19193468 C8.73703397,7.16987144 9.02381937,6.17288734 9.48341769,5.25651111 C10.3245395,3.57935058 11.5347244,2.44177135 13,1.78621808 C12.9239524,1.5241285 12.8462731,1.26264689 12.7719067,1 Z" id="Path" fill="#F2E8C6"></path>
                <path d="M16.0469333,15.8004211 L7.87119997,15.8004211 C7.31027357,15.8004211 6.85558092,15.3484198 6.85558092,14.7908137 C6.85558092,14.2332075 7.31027357,13.7812063 7.87119997,13.7812063 L16.0469333,13.7812063 C16.6078597,13.7812063 17.0625524,14.2332075 17.0625524,14.7908137 C17.0625524,15.3484198 16.6078597,15.8004211 16.0469333,15.8004211 Z M26,17.9710769 C26,16.4116878 24.8082726,15.1237317 23.2826605,14.9598724 L23.1933875,14.4239224 C23.1017279,13.8738378 22.5790396,13.501848 22.0254256,13.5928641 C21.4720656,13.6839811 21.0977592,14.2037775 21.1894188,14.7539125 L21.4165112,16.1168825 C21.49771,16.6041695 21.9216294,16.96152 22.4184702,16.96152 L22.9530921,16.96152 C23.5131044,16.96152 23.9687111,17.4144299 23.9687111,17.9711274 C23.9687111,18.5278249 23.5131044,18.9807348 22.9530921,18.9807348 L3.04695871,18.9807348 C2.48694637,18.9807348 2.03133966,18.5278249 2.03133966,17.9711274 C2.03133966,17.4144299 2.48694637,16.96152 3.04695871,16.96152 L3.58158058,16.96152 C4.08801902,16.96152 4.51706728,16.5906408 4.58734812,16.0920462 L5.68076359,8.33790815 C5.97534389,6.24903049 7.13391132,4.39821825 8.85944809,3.26013834 C9.9615471,2.53327151 11.142966,2.11468829 12.3708494,2.01604965 C12.9299477,1.97112213 13.3465546,1.48418849 13.3013596,0.928399629 C13.2561645,0.37261077 12.7665854,-0.0419844988 12.2072332,0.00339735266 C10.6326174,0.129901157 9.12843479,0.659541185 7.73642733,1.57757717 C5.52679574,3.03494542 4.0443474,5.39682091 3.66917772,8.05764114 L2.69550374,14.962346 C1.18040324,15.1360994 0,16.4192094 0,17.9711779 C0,19.6412704 1.36682012,21 3.04685715,21 L22.9529905,21 C24.6331799,21 26,19.6411694 26,17.9710769 Z" id="Shape" fill="#C4AA00"></path>
                <path d="M15.0081913,12.7118644 C14.8997775,12.7118644 14.79017,12.6960406 14.6827872,12.6632325 C14.2306291,12.5250377 13.9230769,12.117574 13.9230769,11.6568368 L13.9233482,6.41276613 C13.9079381,4.71022731 14.5815359,3.10331717 15.8203179,1.88746667 C17.0604564,0.670350267 18.7087472,0 20.461545,0 C22.2261174,0 23.8766872,0.666183325 25.1091749,1.87580978 C26.3452438,3.08897023 27.0166169,4.70210441 26.9996875,6.41809349 C26.982975,8.10902817 26.291254,9.69325748 25.0519294,10.8789372 C23.8165116,12.0609247 22.1786389,12.7118644 20.4397863,12.7118644 C20.4378871,12.7118644 20.4358252,12.7118644 20.4339803,12.7118644 C19.4619462,12.7118644 18.4839433,12.477197 17.5278076,12.0144554 C16.9971879,11.7576346 16.3630379,11.843769 15.9237939,12.2249651 L15.8982369,12.2605687 C15.6914477,12.5486152 15.3562223,12.7118644 15.0081913,12.7118644 L15.0081913,12.7118644 Z M20.4104781,10.5762712 L20.4125941,10.5762712 C22.8113034,10.5764294 24.7799704,8.69099432 24.8028669,6.37243868 C24.8142067,5.22386757 24.3659882,4.14528561 23.5406825,3.33532067 C22.719012,2.52883672 21.6161808,2.08474576 20.4353821,2.08474576 C19.2663572,2.08474576 18.1658049,2.53300337 17.3364841,3.34697673 C16.5071634,4.16089736 16.0566661,5.23536541 16.0678974,6.37243868 C16.0678974,6.37581419 16.0677888,9.81714991 16.0677888,9.81714991 C16.8592924,9.64426034 17.7066808,9.73102158 18.469211,10.1000601 C19.1220874,10.4160398 19.7747469,10.5762712 20.4089046,10.5762712 L20.4104781,10.5762712 Z M16.4267075,24.2115986 C16.4950229,23.6312964 16.065339,23.1070996 15.4669656,23.0408413 C14.8686468,22.974583 14.3281752,23.3913282 14.2598598,23.9716833 C14.1985776,24.4922843 13.7501928,24.8848634 13.2169181,24.8848634 C12.6836434,24.8848634 12.2352586,24.4922843 12.1739765,23.9716833 C12.105661,23.3913282 11.5649169,22.9744772 10.9668706,23.0408413 C10.3684972,23.1070996 9.93886784,23.6312964 10.0071287,24.2115986 C10.1942465,25.8012693 11.574131,27 13.2168636,27 C14.8595962,27 16.2395897,25.8012693 16.4267075,24.2115986 L16.4267075,24.2115986 Z" id="Shape" fill="#E85B8C"></path>
            </g>
        </g>
    </g>
</svg>