<?xml version="1.0" encoding="UTF-8"?>
<svg width="28px" height="28px" viewBox="0 0 28 28" version="1.1" xmlns="http://www.w3.org/2000/svg" xmlns:xlink="http://www.w3.org/1999/xlink">
    <title>settings</title>
    <g id="Symbols" stroke="none" stroke-width="1" fill="none" fill-rule="evenodd">
        <g id="Nav-LMS" transform="translate(-1122.000000, -22.000000)" fill-rule="nonzero">
            <g id="settings" transform="translate(1136.000000, 36.000000) scale(1, -1) translate(-1136.000000, -36.000000) translate(1122.000000, 22.000000)">
                <path d="M1.0989011,7 L13.9010989,7 C14.508022,7 15,6.32845 15,5.5 C15,4.67155 14.508022,4 13.9010989,4 L1.0989011,4 C0.491978022,4 0,4.67155 0,5.5 C0,6.32845 0.491978022,7 1.0989011,7 Z" id="Path" fill="#C4AA00"></path>
                <path d="M20.3165829,9 C22.1453467,9 23.6331658,7.58336842 23.6331658,5.84210526 L23.6331658,5.57894737 L26.8944724,5.57894737 C27.5050553,5.57894737 28,5.10768421 28,4.52631579 C28,3.94494737 27.5050553,3.47368421 26.8944724,3.47368421 L23.6331658,3.47368421 L23.6331658,3.15789474 C23.6331658,1.41663158 22.1453467,0 20.3165829,0 C18.4878191,0 17,1.41663158 17,3.15789474 L17,5.84210526 C17,7.58336842 18.4878191,9 20.3165829,9 Z M19.2110553,3.15789474 C19.2110553,2.57747368 19.706995,2.10526316 20.3165829,2.10526316 C20.9261709,2.10526316 21.4221106,2.57747368 21.4221106,3.15789474 L21.4221106,5.84210526 C21.4221106,6.42252632 20.9261709,6.89473684 20.3165829,6.89473684 C19.706995,6.89473684 19.2110553,6.42252632 19.2110553,5.84210526 L19.2110553,3.15789474 Z" id="Shape" fill="#C4AA00"></path>
                <path d="M13.9009137,22 L1.09908629,22 C0.492060933,22 0,22.67155 0,23.5 C0,24.32845 0.492060933,25 1.09908629,25 L13.9009137,25 C14.5079391,25 15,24.32845 15,23.5 C15,22.67155 14.5079391,22 13.9009137,22 Z" id="Path" fill="#C4AA00"></path>
                <path d="M1.03092784,15 L3.96907216,15 C4.53845361,15 5,14.32845 5,13.5 C5,12.67155 4.53845361,12 3.96907216,12 L1.03092784,12 C0.461546392,12 0,12.67155 0,13.5 C0,14.32845 0.461546392,15 1.03092784,15 Z" id="Path" fill="#E85B8C"></path>
                <path d="M26.9333333,12.4994302 L14.4,12.4994302 L14.4,12.1395349 C14.4,10.4083953 12.96448,9 11.2,9 C9.43552,9 8,10.4083953 8,12.1395349 L8,14.8604651 C8,16.5916047 9.43552,18 11.2,18 C12.96448,18 14.4,16.5916047 14.4,14.8604651 L14.4,14.5924535 L26.9333333,14.5924535 C27.5224533,14.5924535 28,14.1239302 28,13.5459419 C28,12.9680058 27.5224533,12.4994302 26.9333333,12.4994302 Z M12.2666667,14.8604651 C12.2666667,15.4375116 11.78816,15.9069767 11.2,15.9069767 C10.61184,15.9069767 10.1333333,15.4375116 10.1333333,14.8604651 L10.1333333,12.1395349 C10.1333333,11.5624884 10.61184,11.0930233 11.2,11.0930233 C11.78816,11.0930233 12.2666667,11.5624884 12.2666667,12.1395349 L12.2666667,14.8604651 Z" id="Shape" fill="#E85B8C"></path>
                <path d="M26.8947279,22.4736842 L23.6316329,22.4736842 L23.6316329,22.1578947 C23.6316329,20.4166316 22.1441576,19 20.3158164,19 C18.4874753,19 17,20.4166316 17,22.1578947 L17,24.8421053 C17,26.5833684 18.4874753,28 20.3158164,28 C22.1441576,28 23.6316329,26.5833684 23.6316329,24.8421053 L23.6316329,24.5789474 L26.8947279,24.5789474 C27.5051697,24.5789474 28,24.1076842 28,23.5263158 C28,22.9449474 27.5051697,22.4736842 26.8947279,22.4736842 Z M21.4210886,24.8421053 C21.4210886,25.4225263 20.9252635,25.8947368 20.3158164,25.8947368 C19.7063694,25.8947368 19.2105443,25.4225263 19.2105443,24.8421053 L19.2105443,22.1578947 C19.2105443,21.5774737 19.7063694,21.1052632 20.3158164,21.1052632 C20.9252635,21.1052632 21.4210886,21.5774737 21.4210886,22.1578947 L21.4210886,24.8421053 Z" id="Shape" fill="#C4AA00"></path>
            </g>
        </g>
    </g>
</svg>