<?xml version="1.0" encoding="UTF-8"?>
<svg width="550px" height="501px" viewBox="0 0 550 501" version="1.1" xmlns="http://www.w3.org/2000/svg" xmlns:xlink="http://www.w3.org/1999/xlink">
    <title>mask</title>
    <defs>
        <rect id="path-1" x="0" y="0" width="560" height="501"></rect>
    </defs>
    <g id="mask" stroke="none" stroke-width="1" fill="none" fill-rule="evenodd">
        <mask id="mask-2" fill="white">
            <use xlink:href="#path-1"></use>
        </mask>
        <g id="Rectangle"></g>
        <path d="M12.2922556,204.29445 L103.755582,45.8753225 C120.145256,17.4875741 150.434623,-7.95807864e-13 183.213971,-7.95807864e-13 L366.140623,-7.95807864e-13 C398.919972,-7.95807864e-13 429.209339,17.4875741 445.599013,45.8753225 L556.926936,238.700942 C561.024355,245.797879 561.024355,254.541666 556.926936,261.638603 L445.599013,454.464223 C429.209339,482.851971 398.919972,500.339546 366.140623,500.339546 L183.213971,500.339546 C150.434623,500.339546 120.145256,482.851971 103.755582,454.464223 L12.2922556,296.045095 C-4.09741854,267.657347 -4.09741854,232.682199 12.2922556,204.29445 Z" id="Mask-Copy-4" fill="#000000" fill-rule="nonzero" mask="url(#mask-2)"></path>
        <path d="M105.292256,204.29445 L196.755582,45.8753225 C213.145256,17.4875741 243.434623,1.13686838e-13 276.213971,1.13686838e-13 L459.140623,1.13686838e-13 C491.919972,1.13686838e-13 522.209339,17.4875741 538.599013,45.8753225 L649.926936,238.700942 C654.024355,245.797879 654.024355,254.541666 649.926936,261.638603 L538.599013,454.464223 C522.209339,482.851971 491.919972,500.339546 459.140623,500.339546 L276.213971,500.339546 C243.434623,500.339546 213.145256,482.851971 196.755582,454.464223 L105.292256,296.045095 C88.9025815,267.657347 88.9025815,232.682199 105.292256,204.29445 Z" id="Mask-Copy" fill="#333333" fill-rule="nonzero" mask="url(#mask-2)"></path>
        <path d="M199.292256,204.29445 L290.755582,45.8753225 C307.145256,17.4875741 337.434623,1.13686838e-13 370.213971,1.13686838e-13 L553.140623,1.13686838e-13 C585.919972,1.13686838e-13 616.209339,17.4875741 632.599013,45.8753225 L743.926936,238.700942 C748.024355,245.797879 748.024355,254.541666 743.926936,261.638603 L632.599013,454.464223 C616.209339,482.851971 585.919972,500.339546 553.140623,500.339546 L370.213971,500.339546 C337.434623,500.339546 307.145256,482.851971 290.755582,454.464223 L199.292256,296.045095 C182.902581,267.657347 182.902581,232.682199 199.292256,204.29445 Z" id="Mask-Copy-2" fill="#4d4d4d" fill-rule="nonzero" mask="url(#mask-2)"></path>
        <path d="M292.292256,204.29445 L383.755582,45.8753225 C400.145256,17.4875741 430.434623,1.13686838e-13 463.213971,1.13686838e-13 L646.140623,1.13686838e-13 C678.919972,1.13686838e-13 709.209339,17.4875741 725.599013,45.8753225 L836.926936,238.700942 C841.024355,245.797879 841.024355,254.541666 836.926936,261.638603 L725.599013,454.464223 C709.209339,482.851971 678.919972,500.339546 646.140623,500.339546 L463.213971,500.339546 C430.434623,500.339546 400.145256,482.851971 383.755582,454.464223 L292.292256,296.045095 C275.902581,267.657347 275.902581,232.682199 292.292256,204.29445 Z" id="Mask-Copy-3" fill="#666666" fill-rule="nonzero" mask="url(#mask-2)"></path>
    </g>
</svg>