<?xml version="1.0" encoding="utf-8"?>
<!-- Generator: Adobe Illustrator 24.2.1, SVG Export Plug-In . SVG Version: 6.00 Build 0)  -->
<svg version="1.1" id="Layer_1" xmlns="http://www.w3.org/2000/svg" xmlns:xlink="http://www.w3.org/1999/xlink" x="0px" y="0px"
	 viewBox="0 0 550 501" style="enable-background:new 0 0 550 501;" xml:space="preserve">
<style type="text/css">
	.st0{filter:url(#Adobe_OpacityMaskFilter);}
	.st1{fill-rule:evenodd;clip-rule:evenodd;fill:#FFFFFF;}
	.st2{opacity:0.2;mask:url(#mask-2_1_);fill:#F9C035;enable-background:new    ;}
	.st3{filter:url(#Adobe_OpacityMaskFilter_1_);}
	.st4{opacity:0.3;mask:url(#mask-2_2_);fill:#F9C035;enable-background:new    ;}
	.st5{filter:url(#Adobe_OpacityMaskFilter_2_);}
	.st6{opacity:0.4;mask:url(#mask-2_3_);fill:#F9C035;enable-background:new    ;}
</style>
<g id="mask-copy">
	<g id="Rectangle">
	</g>
	<defs>
		<filter id="Adobe_OpacityMaskFilter" filterUnits="userSpaceOnUse" x="93" y="-18.8" width="602" height="537.9">
			<feColorMatrix  type="matrix" values="1 0 0 0 0  0 1 0 0 0  0 0 1 0 0  0 0 0 1 0"/>
		</filter>
	</defs>
	<mask maskUnits="userSpaceOnUse" x="93" y="-18.8" width="602" height="537.9" id="mask-2_1_">
		<g class="st0">
			<rect id="path-1_1_" class="st1" width="560" height="501"/>
		</g>
	</mask>
	<path id="Mask-Copy" class="st2" d="M106.2,200.9l98.3-170.3C222.2,0,254.7-18.8,290-18.8h196.6c35.2,0,67.8,18.8,85.4,49.3
		l119.7,207.3c4.4,7.6,4.4,17,0,24.7L572,469.8c-17.6,30.5-50.2,49.3-85.4,49.3H290c-35.2,0-67.8-18.8-85.4-49.3l-98.3-170.3
		C88.6,269,88.6,231.4,106.2,200.9z"/>
	<defs>
		<filter id="Adobe_OpacityMaskFilter_1_" filterUnits="userSpaceOnUse" x="187" y="0" width="560" height="500.3">
			<feColorMatrix  type="matrix" values="1 0 0 0 0  0 1 0 0 0  0 0 1 0 0  0 0 0 1 0"/>
		</filter>
	</defs>
	<mask maskUnits="userSpaceOnUse" x="187" y="0" width="560" height="500.3" id="mask-2_2_">
		<g class="st3">
			<rect id="path-1_2_" class="st1" width="560" height="501"/>
		</g>
	</mask>
	<path id="Mask-Copy-2" class="st4" d="M199.3,204.3l91.5-158.4C307.1,17.5,337.4,0,370.2,0h182.9c32.8,0,63.1,17.5,79.5,45.9
		l111.3,192.8c4.1,7.1,4.1,15.8,0,22.9L632.6,454.5c-16.4,28.4-46.7,45.9-79.5,45.9H370.2c-32.8,0-63.1-17.5-79.5-45.9L199.3,296
		C182.9,267.7,182.9,232.7,199.3,204.3z"/>
	<defs>
		<filter id="Adobe_OpacityMaskFilter_2_" filterUnits="userSpaceOnUse" x="280" y="0" width="560" height="500.3">
			<feColorMatrix  type="matrix" values="1 0 0 0 0  0 1 0 0 0  0 0 1 0 0  0 0 0 1 0"/>
		</filter>
	</defs>
	<mask maskUnits="userSpaceOnUse" x="280" y="0" width="560" height="500.3" id="mask-2_3_">
		<g class="st5">
			<rect id="path-1_3_" class="st1" width="560" height="501"/>
		</g>
	</mask>
	<path id="Mask-Copy-3" class="st6" d="M292.3,204.3l91.5-158.4C400.1,17.5,430.4,0,463.2,0h182.9c32.8,0,63.1,17.5,79.5,45.9
		l111.3,192.8c4.1,7.1,4.1,15.8,0,22.9L725.6,454.5c-16.4,28.4-46.7,45.9-79.5,45.9H463.2c-32.8,0-63.1-17.5-79.5-45.9L292.3,296
		C275.9,267.7,275.9,232.7,292.3,204.3z"/>
</g>
</svg>
