<?xml version="1.0" encoding="UTF-8"?>
<svg width="550px" height="501px" viewBox="0 0 550 501" version="1.1" xmlns="http://www.w3.org/2000/svg" xmlns:xlink="http://www.w3.org/1999/xlink">
    <title>mask</title>
    <defs>
        <rect id="path-1" x="0" y="0" width="560" height="501"></rect>
    </defs>
    <g id="mask" stroke="none" stroke-width="1" fill="none" fill-rule="evenodd">
        <mask id="mask-2" fill="white">
            <use xlink:href="#path-1"></use>
        </mask>
        <g id="Rectangle"></g>
        <path d="M106.214175,200.853801 L204.53725,30.5532387 C222.15615,0.0364092426 254.717219,-18.762733 289.955019,-18.762733 L486.60117,-18.762733 C521.838969,-18.762733 554.400039,0.0364092426 572.018939,30.5532387 L691.696456,237.84078 C696.101181,245.469987 696.101181,254.869558 691.696456,262.498766 L572.018939,469.786307 C554.400039,500.303136 521.838969,519.102279 486.60117,519.102279 L289.955019,519.102279 C254.717219,519.102279 222.15615,500.303136 204.53725,469.786307 L106.214175,299.485745 C88.5952751,268.968915 88.5952751,231.370631 106.214175,200.853801 Z" id="Mask-Copy" fill="#84C470" fill-rule="nonzero" opacity="0.2" style="mix-blend-mode: multiply;" mask="url(#mask-2)"></path>
        <path d="M199.292256,204.29445 L290.755582,45.8753225 C307.145256,17.4875741 337.434623,1.13686838e-13 370.213971,1.13686838e-13 L553.140623,1.13686838e-13 C585.919972,1.13686838e-13 616.209339,17.4875741 632.599013,45.8753225 L743.926936,238.700942 C748.024355,245.797879 748.024355,254.541666 743.926936,261.638603 L632.599013,454.464223 C616.209339,482.851971 585.919972,500.339546 553.140623,500.339546 L370.213971,500.339546 C337.434623,500.339546 307.145256,482.851971 290.755582,454.464223 L199.292256,296.045095 C182.902581,267.657347 182.902581,232.682199 199.292256,204.29445 Z" id="Mask-Copy-2" fill="#84C470" fill-rule="nonzero" opacity="0.3" style="mix-blend-mode: multiply;" mask="url(#mask-2)"></path>
        <path d="M292.292256,204.29445 L383.755582,45.8753225 C400.145256,17.4875741 430.434623,1.13686838e-13 463.213971,1.13686838e-13 L646.140623,1.13686838e-13 C678.919972,1.13686838e-13 709.209339,17.4875741 725.599013,45.8753225 L836.926936,238.700942 C841.024355,245.797879 841.024355,254.541666 836.926936,261.638603 L725.599013,454.464223 C709.209339,482.851971 678.919972,500.339546 646.140623,500.339546 L463.213971,500.339546 C430.434623,500.339546 400.145256,482.851971 383.755582,454.464223 L292.292256,296.045095 C275.902581,267.657347 275.902581,232.682199 292.292256,204.29445 Z" id="Mask-Copy-3" fill="#84C470" fill-rule="nonzero" opacity="0.4" style="mix-blend-mode: multiply;" mask="url(#mask-2)"></path>
    </g>
</svg>