<svg aria-hidden="true" style="position: absolute; width: 0; height: 0; overflow: hidden;" version="1.1" xmlns="http://www.w3.org/2000/svg" xmlns:xlink="http://www.w3.org/1999/xlink">
<defs>
<symbol id="oc-Pattern" viewBox="0 0 32 32">
<path d="M9.333 1.333v29.333h-8v-29.333h8zM30.667 12v18.667h-8v-18.667h8zM20 22.667v8h-8v-8h8zM6.667 4h-2.667v24h2.667v-24zM28 14.667h-2.667v13.333h2.667v-13.333zM17.333 25.333h-2.667v2.667h2.667v-2.667zM20 12v8h-8v-8h8zM17.333 14.667h-2.667v2.667h2.667v-2.667zM30.667 1.333v8h-18.667v-8h18.667zM28 4h-13.333v2.667h13.333v-2.667z"></path>
</symbol>
<symbol id="oc-Synthesis" viewBox="0 0 32 32">
<path d="M12 0c2.209 0 4 1.791 4 4 0 0.073-0.002 0.146-0.006 0.218l9.038 3.768c0.732-0.81 1.791-1.319 2.968-1.319 2.209 0 4 1.791 4 4 0 1.954-1.402 3.582-3.255 3.931l-1.52 9.877c1.255 0.675 2.108 2 2.108 3.525 0 2.209-1.791 4-4 4s-4-1.791-4-4c0-1.954 1.402-3.582 3.255-3.931l1.516-9.857-10.422 9.555c0.176 0.413 0.284 0.861 0.312 1.331l0.007 0.235c0 2.209-1.791 4-4 4s-4-1.791-4-4c0-2.209 1.791-4 4-4 0.679 0 1.318 0.169 1.878 0.468l10.44-9.568c-0.205-0.481-0.318-1.011-0.318-1.566 0-0.074 0.002-0.147 0.006-0.219l-9.038-3.766c-0.732 0.81-1.791 1.319-2.968 1.319-0.339 0-0.668-0.042-0.983-0.122l-3.815 5.725c0.501 0.668 0.798 1.498 0.798 2.397 0 2.209-1.791 4-4 4s-4-1.791-4-4c0-2.209 1.791-4 4-4 0.339 0 0.668 0.042 0.983 0.122l3.815-5.725c-0.501-0.668-0.798-1.498-0.798-2.397 0-2.209 1.791-4 4-4zM25.333 26.667c-0.736 0-1.333 0.597-1.333 1.333s0.597 1.333 1.333 1.333c0.736 0 1.333-0.597 1.333-1.333s-0.597-1.333-1.333-1.333zM12 24c-0.736 0-1.333 0.597-1.333 1.333s0.597 1.333 1.333 1.333c0.736 0 1.333-0.597 1.333-1.333s-0.597-1.333-1.333-1.333zM4 14.667c-0.736 0-1.333 0.597-1.333 1.333s0.597 1.333 1.333 1.333c0.736 0 1.333-0.597 1.333-1.333s-0.597-1.333-1.333-1.333zM28 9.333c-0.736 0-1.333 0.597-1.333 1.333s0.597 1.333 1.333 1.333c0.736 0 1.333-0.597 1.333-1.333s-0.597-1.333-1.333-1.333zM12 2.667c-0.736 0-1.333 0.597-1.333 1.333s0.597 1.333 1.333 1.333c0.736 0 1.333-0.597 1.333-1.333s-0.597-1.333-1.333-1.333z"></path>
</symbol>
<symbol id="oc-Holistic" viewBox="0 0 32 32">
<path d="M16 0c3.439 0 6.444 3.189 8.063 7.936 4.748 1.62 7.937 4.625 7.937 8.064 0 5.155-7.164 9.333-16 9.333-0.492 0-0.976-0.016-1.455-0.042-0.653-0.036-1.241-0.068-1.776-0.102l-0.54-2.692c0.71 0.052 1.539 0.091 2.559 0.14 0.399 0.019 0.802 0.030 1.212 0.030 7.364 0 13.333-2.984 13.333-6.667 0-1.978-1.723-3.755-4.46-4.976 0.298 1.566 0.46 3.239 0.46 4.976 0 0.492-0.016 0.976-0.042 1.455-0.036 0.653-0.068 1.241-0.102 1.776l-2.692 0.54c0.052-0.709 0.091-1.539 0.14-2.559 0.019-0.399 0.030-0.802 0.030-1.212 0-2.144-0.253-4.17-0.703-5.965-1.794-0.449-3.82-0.702-5.964-0.702s-4.17 0.253-5.965 0.703c-0.449 1.794-0.702 3.82-0.702 5.964 0 7.364 2.984 13.333 6.667 13.333 1.549-0.114 2.961-1.010 3.817-2.424 0.306-0.506 0.576-0.957 0.814-1.367l2.546 0.851c-0.476 0.757-1.075 1.625-1.833 2.698-1.198 1.697-3.174 2.773-5.343 2.909-5.155 0-9.333-7.164-9.333-16 0-1.737 0.161-3.41 0.46-4.976-2.737 1.221-4.46 2.997-4.46 4.976 0.114 1.549 1.010 2.961 2.424 3.817 0.506 0.306 0.957 0.576 1.367 0.814l-0.851 2.546c-0.757-0.476-1.625-1.075-2.698-1.833-1.697-1.198-2.773-3.174-2.909-5.343 0-3.439 3.189-6.444 7.936-8.063 1.62-4.748 4.625-7.937 8.064-7.937zM16 13.333c1.473 0 2.667 1.194 2.667 2.667s-1.194 2.667-2.667 2.667c-1.473 0-2.667-1.194-2.667-2.667s1.194-2.667 2.667-2.667zM16 2.667c-1.978 0-3.755 1.723-4.976 4.46 1.566-0.298 3.239-0.46 4.976-0.46s3.41 0.161 4.976 0.46c-1.221-2.737-2.997-4.46-4.976-4.46z"></path>
</symbol>
<symbol id="oc-Bulb" viewBox="0 0 32 32">
<path d="M21.84 29.333v2.667h-11.667v-2.667h11.667zM16 0c7.342 0 13.333 5.348 13.333 11.994 0 4.59-2.889 8.676-7.294 10.689v0l-0.206 0.090v3.893h-11.667v-3.892l-0.206-0.090c-4.289-1.96-7.14-5.886-7.288-10.328v0l-0.006-0.361c0-6.646 5.991-11.994 13.333-11.994zM16 2.566c-5.912 0-10.667 4.244-10.667 9.428 0 3.849 2.644 7.281 6.636 8.724v0l0.864 0.313v3.069h6.333v-3.069l0.864-0.313c3.992-1.443 6.636-4.875 6.636-8.724 0-5.184-4.755-9.428-10.667-9.428zM22.071 9.246l1.813 1.955-4.884 4.53-3.001-2.784-2.999 2.784-4.884-4.53 1.813-1.955 3.071 2.847 3-2.781 3 2.781 3.071-2.847z"></path>
</symbol>
<symbol id="oc-Star" viewBox="0 0 32 32">
<path d="M20 11.868l-4-11.868-4 11.868h-12l9.78 7.909-3.844 12.223 10.064-7.554 10.064 7.554-3.844-12.223 9.78-7.909z"></path>
</symbol>
<symbol id="oc-Play" viewBox="0 0 32 32">
<path d="M27.248 14.4l-20.042-14c-1.403-1-3.207 0-3.207 1.6v27.999c0 1.6 1.804 2.6 3.207 1.6l20.042-14c1.002-0.8 1.002-2.4 0-3.2z"></path>
</symbol>
<symbol id="oc-List" viewBox="0 0 32 32">
<path d="M32 25.6v6.4h-32v-6.4h32zM32 12.8v6.4h-32v-6.4h32zM32 0v6.4h-32v-6.4h32z"></path>
</symbol>
<symbol id="oc-Grid" viewBox="0 0 32 32">
<path d="M8 24v8h-8v-8h8zM20 24v8h-8v-8h8zM32 24v8h-8v-8h8zM8 12v8h-8v-8h8zM20 12v8h-8v-8h8zM32 12v8h-8v-8h8zM8 0v8h-8v-8h8zM20 0v8h-8v-8h8zM32 0v8h-8v-8h8z"></path>
</symbol>
<symbol id="oc-Close" viewBox="0 0 32 32">
<path d="M31.314 0.686c-0.914-0.914-2.286-0.914-3.2 0l-12.114 12.114-12.114-12.114c-0.914-0.914-2.286-0.914-3.2 0s-0.914 2.286 0 3.2l12.114 12.114-12.114 12.114c-0.914 0.914-0.914 2.286 0 3.2 0.457 0.457 0.914 0.686 1.6 0.686s1.143-0.229 1.6-0.686l12.114-12.114 12.114 12.114c0.457 0.457 1.143 0.686 1.6 0.686s1.143-0.229 1.6-0.686c0.914-0.914 0.914-2.286 0-3.2l-12.114-12.114 12.114-12.114c0.914-0.914 0.914-2.286 0-3.2z"></path>
</symbol>
<symbol id="oc-Caret---Down" viewBox="0 0 32 32">
<path d="M0 6.667l16 18.667 16-18.667z"></path>
</symbol>
<symbol id="oc-Arrow---Left" viewBox="0 0 32 32">
<path d="M13.4 29.333l2.8-2.786-8.6-8.557h24.4v-3.98h-24.4l8.6-8.557-2.8-2.786-13.4 13.333z"></path>
</symbol>
<symbol id="oc-Ability" viewBox="0 0 32 32">
<path d="M26.667 0c2.946 0 5.333 2.388 5.333 5.333v21.333c0 2.946-2.388 5.333-5.333 5.333h-21.333c-2.946 0-5.333-2.388-5.333-5.333v-21.333c0-2.946 2.388-5.333 5.333-5.333h21.333zM24.889 2.667h-17.778c-2.373 0-4.311 1.859-4.438 4.201l-0.007 0.244v17.778c0 2.373 1.859 4.311 4.201 4.438l0.244 0.007h17.778c2.373 0 4.311-1.859 4.438-4.201l0.007-0.244v-17.778c0-2.455-1.99-4.444-4.444-4.444zM16 20.571c0.582 0 1.063 0.436 1.134 1l0.009 0.143c0 0.631-0.512 1.143-1.143 1.143h-8c-0.582 0-1.063-0.436-1.134-1l-0.009-0.143c0-0.631 0.512-1.143 1.143-1.143h8zM24 14.857c0.582 0 1.063 0.436 1.134 1l0.009 0.143c0 0.631-0.512 1.143-1.143 1.143h-16c-0.582 0-1.063-0.436-1.134-1l-0.009-0.143c0-0.631 0.512-1.143 1.143-1.143h16zM24 9.143c0.582 0 1.063 0.436 1.134 1l0.009 0.143c0 0.631-0.512 1.143-1.143 1.143h-16c-0.582 0-1.063-0.436-1.134-1l-0.009-0.143c0-0.631 0.512-1.143 1.143-1.143h16z"></path>
</symbol>
<symbol id="oc-search" viewBox="0 0 32 32">
<path d="M23.477 23.311c-0.379-0.384-0.991-0.386-1.373-0.008-1.971 1.525-4.431 2.432-7.102 2.432-6.47 0-11.715-5.318-11.715-11.878s5.245-11.877 11.715-11.877c6.47 0 11.715 5.318 11.715 11.878 0.001 1.622-0.325 3.227-0.958 4.708-0.074 0.145-0.12 0.31-0.12 0.487 0 0.547 0.437 0.99 0.976 0.99 0.442 0 0.814-0.297 0.935-0.705 0.723-1.68 1.12-3.533 1.12-5.48 0-7.654-6.12-13.858-13.669-13.858s-13.669 6.204-13.669 13.858c0 7.654 6.12 13.858 13.669 13.858 2.852 0 5.499-0.886 7.69-2.401l6.307 6.394c0.381 0.387 1 0.387 1.381 0 0.183-0.183 0.286-0.436 0.286-0.7s-0.103-0.517-0.286-0.7l-6.904-7z"></path>
</symbol>
<symbol id="oc-bubble" viewBox="0 0 32 32">
<path d="M16 2c8.836 0 16 5.82 16 13s-7.164 13-16 13c-0.848 0-1.682-0.054-2.494-0.158-3.436 3.436-7.54 4.054-11.506 4.144v-0.842c2.142-1.050 4-2.96 4-5.144 0-0.304-0.024-0.604-0.068-0.896-3.618-2.384-5.932-6.024-5.932-10.104 0-7.18 7.164-13 16-13z"></path>
</symbol>
<symbol id="oc-bell" viewBox="0 0 32 32">
<path d="M8.922 28.235l3.062 0.007v0.276h0.035c0.143 0.875 0.834 3.482 3.981 3.482 3.051 0 3.793-2.512 3.966-3.482h0.050v-0.258l10.090 0.023c0.82 0 1.59-0.8 1.757-1.271s0.402-1.475-0.803-2.259-2.309-0.878-4.417-3.859c-2.108-2.98-0.803-7.718-0.803-7.718s0.87-4.424-1.807-7.529c-2.677-3.106-6.024-3.482-6.024-3.482 0-2.196-2.008-2.165-2.008-2.165-1.841 0.031-1.908 2.071-1.908 2.071-2.142 0.22-4.384 1.6-6.124 3.577s-2.309 5.145-1.707 7.529c0.602 2.384 0.335 5.051-0.803 7.529s-4.15 3.827-4.819 4.235c-0.669 0.408-0.77 1.412-0.502 2.259s1.472 1.035 2.209 1.035c0.736 0 1.171-0.125 1.406-0.565s0.050-0.941-0.226-1.106c-0.463-0.276-0.979-0.212-0.979-0.212s2.376-0.282 4.919-4.8c2.543-4.518 0.803-8.753 0.803-8.753s-1.238-3.608 1.707-6.4c2.945-2.792 6.024-2.635 6.024-2.635s2.845-0.345 6.024 2.635c3.179 2.98 1.205 7.624 1.205 7.624s-0.954 4.518 1.305 7.718c2.421 3.429 4.97 4.659 4.97 4.659l-6.425-0.015v-0.032l-3.062 0.007-1.205-0.007c0 0-0.803 0.184-0.803 1.010v0.778c0 0-0.134 1.977-2.008 1.977s-2.008-2.165-2.008-2.165v-0.565c0-0.847-0.803-1.035-0.803-1.035l-1.205 0.007-3.062-0.007v0.047c0 0-0.954-0.047-0.954 0.894s0.954 0.988 0.954 0.988v-0.047h-0z"></path>
</symbol>
<symbol id="oc-passport" viewBox="0 0 32 32">
<path d="M25.875 24.978c-0.82 1.122-1.913 1.978-3.137 2.497 0.148-0.228 0.291-0.462 0.422-0.706 0.68-1.276 1.697-2.318 2.941-3.016 0.24-0.135 0.469-0.283 0.694-0.436-0.257 0.634-0.566 1.181-0.934 1.682l0.015-0.021zM12.48 29.396c0.269-0.055 0.537-0.117 0.803-0.197 0.622-0.193 1.338-0.304 2.079-0.304s1.457 0.111 2.13 0.318l-0.051-0.014c0.266 0.080 0.534 0.143 0.803 0.197-0.89 0.381-1.863 0.585-2.881 0.585s-1.992-0.204-2.882-0.585zM4.848 24.98c-0.354-0.48-0.662-1.027-0.901-1.611l-0.018-0.051c0.224 0.153 0.453 0.301 0.694 0.436 1.243 0.697 2.26 1.74 2.94 3.015 0.131 0.245 0.273 0.479 0.422 0.708-1.223-0.52-2.317-1.375-3.137-2.497zM2.062 12.8c0.053 0.275 0.115 0.55 0.193 0.823 0.19 0.639 0.299 1.373 0.299 2.132s-0.109 1.494-0.313 2.187l0.014-0.055c-0.078 0.273-0.14 0.548-0.193 0.823-0.371-0.913-0.57-1.911-0.57-2.956s0.199-2.042 0.57-2.955zM4.848 6.531c0.82-1.122 1.913-1.977 3.137-2.497-0.148 0.228-0.291 0.462-0.422 0.707-0.681 1.275-1.697 2.318-2.94 3.016-0.241 0.135-0.47 0.283-0.694 0.436 0.257-0.635 0.566-1.182 0.934-1.683l-0.015 0.021zM18.243 2.115c-0.269 0.055-0.537 0.117-0.802 0.197-0.622 0.193-1.338 0.304-2.079 0.304s-1.457-0.111-2.131-0.318l0.051 0.014c-0.266-0.080-0.534-0.142-0.803-0.197 0.89-0.381 1.864-0.585 2.882-0.585s1.992 0.204 2.882 0.585zM25.875 6.531c0.354 0.48 0.663 1.028 0.901 1.612l0.018 0.051c-0.224-0.153-0.454-0.301-0.695-0.436-1.244-0.698-2.26-1.741-2.94-3.016-0.131-0.245-0.274-0.479-0.422-0.708 1.224 0.519 2.318 1.375 3.137 2.497zM25.384 22.411c-1.494 0.838-2.716 2.091-3.533 3.624-0.41 0.768-0.927 1.44-1.527 2.001-0.101 0.006-0.222 0.010-0.343 0.011h-0.003c-0.706 0-1.418-0.106-2.117-0.317-0.748-0.233-1.607-0.367-2.498-0.368h-0c-0.891 0-1.751 0.135-2.56 0.384l0.062-0.016c-0.699 0.21-1.412 0.317-2.117 0.317-0.124-0.001-0.245-0.005-0.365-0.012l0.019 0.001c-0.6-0.561-1.118-1.233-1.527-2.002-0.817-1.533-2.039-2.786-3.533-3.624-0.748-0.419-1.401-0.948-1.948-1.563-0.006-0.11-0.009-0.24-0.009-0.369 0-0.77 0.111-1.514 0.317-2.217l-0.014 0.056c0.228-0.768 0.359-1.65 0.359-2.562s-0.131-1.795-0.376-2.628l0.017 0.066c-0.193-0.647-0.303-1.391-0.303-2.161 0-0.13 0.003-0.259 0.009-0.388l-0.001 0.018c0.547-0.614 1.2-1.143 1.948-1.563 1.494-0.838 2.716-2.091 3.533-3.624 0.41-0.768 0.927-1.44 1.527-2.001 0.115-0.006 0.23-0.011 0.346-0.011 0.706 0 1.418 0.107 2.118 0.317 1.624 0.488 3.372 0.488 4.997 0 0.7-0.21 1.412-0.317 2.118-0.317 0.115 0 0.23 0.005 0.346 0.011 0.601 0.562 1.117 1.233 1.527 2.001 0.817 1.532 2.039 2.786 3.534 3.624 0.748 0.42 1.401 0.949 1.948 1.563 0.006 0.11 0.009 0.239 0.009 0.369 0 0.77-0.111 1.514-0.318 2.218l0.014-0.056c-0.228 0.768-0.359 1.65-0.359 2.562s0.131 1.795 0.376 2.628l-0.017-0.066c0.193 0.647 0.303 1.39 0.303 2.159 0 0.131-0.003 0.261-0.010 0.39l0.001-0.018c-0.547 0.614-1.2 1.143-1.948 1.563zM28.661 18.71c-0.053-0.275-0.115-0.55-0.193-0.823-0.19-0.639-0.299-1.373-0.299-2.132s0.109-1.494 0.313-2.187l-0.014 0.055c0.078-0.273 0.14-0.548 0.193-0.823 0.371 0.913 0.57 1.911 0.57 2.955s-0.199 2.043-0.57 2.955zM30.723 15.755c0-2.145-0.696-4.13-1.942-5.71-0.184-1.683-0.799-3.194-1.731-4.456l0.018 0.025c-1.488-2.038-3.734-3.348-6.14-3.623-1.541-1.277-3.476-1.99-5.567-1.99s-4.026 0.714-5.567 1.99c-2.406 0.276-4.652 1.586-6.14 3.624-0.914 1.237-1.529 2.748-1.709 4.39l-0.004 0.041c-1.246 1.581-1.942 3.566-1.942 5.71s0.696 4.13 1.942 5.711c0.169 1.584 0.747 3.108 1.713 4.431 1.489 2.038 3.734 3.348 6.14 3.624 1.541 1.277 3.476 1.99 5.567 1.99s4.025-0.713 5.566-1.99c2.407-0.277 4.652-1.586 6.141-3.625 0.914-1.237 1.529-2.747 1.709-4.388l0.004-0.041c1.246-1.581 1.942-3.566 1.942-5.711z"></path>
</symbol>
<symbol id="oc-logo" viewBox="0 0 32 32">
<path d="M25.821 25.875c-1.125-0.803-2.344-1.483-3.653-1.992 0.938-2.24 1.486-4.73 1.554-7.368h6.189c-0.134 3.651-1.666 6.949-4.090 9.36v0zM2.091 16.517h6.189c0.064 2.637 0.616 5.126 1.552 7.366-1.309 0.51-2.526 1.189-3.653 1.994-2.424-2.413-3.954-5.71-4.088-9.36v0zM5.61 6.746c1.176 0.914 2.464 1.688 3.856 2.267-0.722 2-1.128 4.186-1.186 6.472h-6.189c0.123-3.35 1.429-6.395 3.518-8.739zM16.517 15.483v-5.186c1.722-0.051 3.426-0.363 5.053-0.928 0.68 1.888 1.062 3.954 1.118 6.115l-6.171-0.002zM21.202 23.53c-1.483-0.478-3.058-0.746-4.685-0.794v-6.219h6.171c-0.064 2.514-0.594 4.885-1.486 7.013v0zM21.754 24.826c1.174 0.454 2.272 1.051 3.293 1.755-1.925 1.648-4.259 2.736-6.757 3.15 1.387-1.382 2.565-3.038 3.464-4.906v0zM16.517 29.909v-6.139c1.477 0.046 2.91 0.277 4.262 0.701-1.054 2.154-2.493 4.010-4.208 5.438-0.018 0-0.037 0-0.054 0v0zM13.712 29.731c-2.498-0.414-4.834-1.502-6.757-3.15 1.018-0.706 2.117-1.301 3.291-1.755 0.901 1.867 2.078 3.523 3.466 4.906v0zM15.485 16.517v6.219c-1.629 0.048-3.202 0.315-4.686 0.794-0.893-2.128-1.421-4.499-1.486-7.013h6.173zM10.432 9.37c1.627 0.563 3.331 0.875 5.053 0.928v5.186h-6.173c0.056-2.162 0.44-4.227 1.12-6.114v0zM9.854 8.064c-1.275-0.533-2.458-1.234-3.538-2.062 1.989-1.926 4.546-3.258 7.395-3.731-1.6 1.597-2.917 3.565-3.858 5.794v0zM15.485 2.091v7.173c-1.629-0.053-3.194-0.344-4.664-0.846 1.074-2.533 2.664-4.704 4.61-6.323l0.054-0.003zM18.29 2.269c2.848 0.474 5.405 1.805 7.395 3.731-1.082 0.829-2.262 1.531-3.539 2.062-0.939-2.227-2.258-4.195-3.856-5.794v0zM16.57 2.094c1.947 1.619 3.536 3.79 4.61 6.323-1.472 0.502-3.035 0.794-4.664 0.846v-7.173l0.054 0.003zM15.429 29.907c-1.715-1.429-3.154-3.283-4.206-5.438 1.35-0.422 2.782-0.653 4.262-0.701v6.141c-0.019 0-0.037 0-0.056-0.002v0zM29.91 15.483h-6.189c-0.058-2.285-0.466-4.47-1.186-6.47 1.392-0.579 2.682-1.354 3.856-2.267 2.088 2.344 3.395 5.389 3.518 8.738v0zM16 0c-8.837 0-16 7.163-16 16 0 8.838 7.163 16 16 16 8.838 0 16-7.162 16-16 0-8.837-7.162-16-16-16v0z"></path>
</symbol>
<symbol id="oc-chevron-right" viewBox="0 0 80 80">
<path d="M25.303 75c-1.345 0-2.692-0.51-3.725-1.53-2.085-2.058-2.106-5.415-0.046-7.5l25.726-26.052-25.717-25.876c-2.062-2.078-2.052-5.435 0.024-7.5 2.080-2.065 5.435-2.054 7.501 0.024l29.418 29.603c2.051 2.064 2.055 5.394 0.011 7.465l-29.421 29.791c-1.035 1.050-2.404 1.576-3.772 1.576z"></path>
</symbol>
<symbol id="oc-chevron-left" viewBox="0 0 32 32">
<path d="M22.54 32c0.615 0 1.231-0.233 1.703-0.699 0.953-0.941 0.963-2.475 0.021-3.429l-11.76-11.909 11.756-11.829c0.943-0.95 0.938-2.485-0.011-3.429-0.951-0.944-2.485-0.939-3.429 0.011l-13.448 13.533c-0.938 0.944-0.939 2.466-0.005 3.413l13.45 13.619c0.473 0.48 1.099 0.72 1.724 0.72l-0-0z"></path>
</symbol>
</defs>
</svg>
