<svg aria-hidden="true" style="position: absolute; width: 0; height: 0; overflow: hidden;" version="1.1" xmlns="http://www.w3.org/2000/svg" xmlns:xlink="http://www.w3.org/1999/xlink">
<defs>
<symbol id="oc-Pattern" viewBox="0 0 32 32">
<title>Pattern</title>
<path d="M9.333 1.333v29.333h-8v-29.333h8zM30.667 12v18.667h-8v-18.667h8zM20 22.667v8h-8v-8h8zM6.667 4h-2.667v24h2.667v-24zM28 14.667h-2.667v13.333h2.667v-13.333zM17.333 25.333h-2.667v2.667h2.667v-2.667zM20 12v8h-8v-8h8zM17.333 14.667h-2.667v2.667h2.667v-2.667zM30.667 1.333v8h-18.667v-8h18.667zM28 4h-13.333v2.667h13.333v-2.667z"></path>
</symbol>
<symbol id="oc-Synthesis" viewBox="0 0 32 32">
<title>Synthesis</title>
<path d="M12 0c2.209 0 4 1.791 4 4 0 0.073-0.002 0.146-0.006 0.218l9.038 3.768c0.732-0.81 1.791-1.319 2.968-1.319 2.209 0 4 1.791 4 4 0 1.954-1.402 3.582-3.255 3.931l-1.52 9.877c1.255 0.675 2.108 2 2.108 3.525 0 2.209-1.791 4-4 4s-4-1.791-4-4c0-1.954 1.402-3.582 3.255-3.931l1.516-9.857-10.422 9.555c0.176 0.413 0.284 0.861 0.312 1.331l0.007 0.235c0 2.209-1.791 4-4 4s-4-1.791-4-4c0-2.209 1.791-4 4-4 0.679 0 1.318 0.169 1.878 0.468l10.44-9.568c-0.205-0.481-0.318-1.011-0.318-1.566 0-0.074 0.002-0.147 0.006-0.219l-9.038-3.766c-0.732 0.81-1.791 1.319-2.968 1.319-0.339 0-0.668-0.042-0.983-0.122l-3.815 5.725c0.501 0.668 0.798 1.498 0.798 2.397 0 2.209-1.791 4-4 4s-4-1.791-4-4c0-2.209 1.791-4 4-4 0.339 0 0.668 0.042 0.983 0.122l3.815-5.725c-0.501-0.668-0.798-1.498-0.798-2.397 0-2.209 1.791-4 4-4zM25.333 26.667c-0.736 0-1.333 0.597-1.333 1.333s0.597 1.333 1.333 1.333c0.736 0 1.333-0.597 1.333-1.333s-0.597-1.333-1.333-1.333zM12 24c-0.736 0-1.333 0.597-1.333 1.333s0.597 1.333 1.333 1.333c0.736 0 1.333-0.597 1.333-1.333s-0.597-1.333-1.333-1.333zM4 14.667c-0.736 0-1.333 0.597-1.333 1.333s0.597 1.333 1.333 1.333c0.736 0 1.333-0.597 1.333-1.333s-0.597-1.333-1.333-1.333zM28 9.333c-0.736 0-1.333 0.597-1.333 1.333s0.597 1.333 1.333 1.333c0.736 0 1.333-0.597 1.333-1.333s-0.597-1.333-1.333-1.333zM12 2.667c-0.736 0-1.333 0.597-1.333 1.333s0.597 1.333 1.333 1.333c0.736 0 1.333-0.597 1.333-1.333s-0.597-1.333-1.333-1.333z"></path>
</symbol>
<symbol id="oc-Holistic" viewBox="0 0 32 32">
<title>Holistic</title>
<path d="M16 0c3.439 0 6.444 3.189 8.063 7.936 4.748 1.62 7.937 4.625 7.937 8.064 0 5.155-7.164 9.333-16 9.333-0.492 0-0.976-0.016-1.455-0.042-0.653-0.036-1.241-0.068-1.776-0.102l-0.54-2.692c0.71 0.052 1.539 0.091 2.559 0.14 0.399 0.019 0.802 0.030 1.212 0.030 7.364 0 13.333-2.984 13.333-6.667 0-1.978-1.723-3.755-4.46-4.976 0.298 1.566 0.46 3.239 0.46 4.976 0 0.492-0.016 0.976-0.042 1.455-0.036 0.653-0.068 1.241-0.102 1.776l-2.692 0.54c0.052-0.709 0.091-1.539 0.14-2.559 0.019-0.399 0.030-0.802 0.030-1.212 0-2.144-0.253-4.17-0.703-5.965-1.794-0.449-3.82-0.702-5.964-0.702s-4.17 0.253-5.965 0.703c-0.449 1.794-0.702 3.82-0.702 5.964 0 7.364 2.984 13.333 6.667 13.333 1.549-0.114 2.961-1.010 3.817-2.424 0.306-0.506 0.576-0.957 0.814-1.367l2.546 0.851c-0.476 0.757-1.075 1.625-1.833 2.698-1.198 1.697-3.174 2.773-5.343 2.909-5.155 0-9.333-7.164-9.333-16 0-1.737 0.161-3.41 0.46-4.976-2.737 1.221-4.46 2.997-4.46 4.976 0.114 1.549 1.010 2.961 2.424 3.817 0.506 0.306 0.957 0.576 1.367 0.814l-0.851 2.546c-0.757-0.476-1.625-1.075-2.698-1.833-1.697-1.198-2.773-3.174-2.909-5.343 0-3.439 3.189-6.444 7.936-8.063 1.62-4.748 4.625-7.937 8.064-7.937zM16 13.333c1.473 0 2.667 1.194 2.667 2.667s-1.194 2.667-2.667 2.667c-1.473 0-2.667-1.194-2.667-2.667s1.194-2.667 2.667-2.667zM16 2.667c-1.978 0-3.755 1.723-4.976 4.46 1.566-0.298 3.239-0.46 4.976-0.46s3.41 0.161 4.976 0.46c-1.221-2.737-2.997-4.46-4.976-4.46z"></path>
</symbol>
<symbol id="oc-Bulb" viewBox="0 0 32 32">
<title>Bulb</title>
<path d="M21.84 29.333v2.667h-11.667v-2.667h11.667zM16 0c7.342 0 13.333 5.348 13.333 11.994 0 4.59-2.889 8.676-7.294 10.689v0l-0.206 0.090v3.893h-11.667v-3.892l-0.206-0.090c-4.289-1.96-7.14-5.886-7.288-10.328v0l-0.006-0.361c0-6.646 5.991-11.994 13.333-11.994zM16 2.566c-5.912 0-10.667 4.244-10.667 9.428 0 3.849 2.644 7.281 6.636 8.724v0l0.864 0.313v3.069h6.333v-3.069l0.864-0.313c3.992-1.443 6.636-4.875 6.636-8.724 0-5.184-4.755-9.428-10.667-9.428zM22.071 9.246l1.813 1.955-4.884 4.53-3.001-2.784-2.999 2.784-4.884-4.53 1.813-1.955 3.071 2.847 3-2.781 3 2.781 3.071-2.847z"></path>
</symbol>
<symbol id="oc-Star" viewBox="0 0 32 32">
<title>Star</title>
<path d="M20 11.868l-4-11.868-4 11.868h-12l9.78 7.909-3.844 12.223 10.064-7.554 10.064 7.554-3.844-12.223 9.78-7.909z"></path>
</symbol>
<symbol id="oc-Play" viewBox="0 0 32 32">
<title>Play</title>
<path d="M27.248 14.4l-20.042-14c-1.403-1-3.207 0-3.207 1.6v27.999c0 1.6 1.804 2.6 3.207 1.6l20.042-14c1.002-0.8 1.002-2.4 0-3.2z"></path>
</symbol>
<symbol id="oc-List" viewBox="0 0 32 32">
<title>List</title>
<path d="M32 25.6v6.4h-32v-6.4h32zM32 12.8v6.4h-32v-6.4h32zM32 0v6.4h-32v-6.4h32z"></path>
</symbol>
<symbol id="oc-Grid" viewBox="0 0 32 32">
<title>Grid</title>
<path d="M8 24v8h-8v-8h8zM20 24v8h-8v-8h8zM32 24v8h-8v-8h8zM8 12v8h-8v-8h8zM20 12v8h-8v-8h8zM32 12v8h-8v-8h8zM8 0v8h-8v-8h8zM20 0v8h-8v-8h8zM32 0v8h-8v-8h8z"></path>
</symbol>
<symbol id="oc-Close" viewBox="0 0 32 32">
<title>Close</title>
<path d="M31.314 0.686c-0.914-0.914-2.286-0.914-3.2 0l-12.114 12.114-12.114-12.114c-0.914-0.914-2.286-0.914-3.2 0s-0.914 2.286 0 3.2l12.114 12.114-12.114 12.114c-0.914 0.914-0.914 2.286 0 3.2 0.457 0.457 0.914 0.686 1.6 0.686s1.143-0.229 1.6-0.686l12.114-12.114 12.114 12.114c0.457 0.457 1.143 0.686 1.6 0.686s1.143-0.229 1.6-0.686c0.914-0.914 0.914-2.286 0-3.2l-12.114-12.114 12.114-12.114c0.914-0.914 0.914-2.286 0-3.2z"></path>
</symbol>
<symbol id="oc-Caret---Down" viewBox="0 0 32 32">
<title>Caret---Down</title>
<path d="M0 6.667l16 18.667 16-18.667z"></path>
</symbol>
<symbol id="oc-Arrow---Left" viewBox="0 0 32 32">
<title>Arrow---Left</title>
<path d="M13.4 29.333l2.8-2.786-8.6-8.557h24.4v-3.98h-24.4l8.6-8.557-2.8-2.786-13.4 13.333z"></path>
</symbol>
<symbol id="oc-Ability" viewBox="0 0 32 32">
<title>Ability</title>
<path d="M26.667 0c2.946 0 5.333 2.388 5.333 5.333v21.333c0 2.946-2.388 5.333-5.333 5.333h-21.333c-2.946 0-5.333-2.388-5.333-5.333v-21.333c0-2.946 2.388-5.333 5.333-5.333h21.333zM24.889 2.667h-17.778c-2.373 0-4.311 1.859-4.438 4.201l-0.007 0.244v17.778c0 2.373 1.859 4.311 4.201 4.438l0.244 0.007h17.778c2.373 0 4.311-1.859 4.438-4.201l0.007-0.244v-17.778c0-2.455-1.99-4.444-4.444-4.444zM16 20.571c0.582 0 1.063 0.436 1.134 1l0.009 0.143c0 0.631-0.512 1.143-1.143 1.143h-8c-0.582 0-1.063-0.436-1.134-1l-0.009-0.143c0-0.631 0.512-1.143 1.143-1.143h8zM24 14.857c0.582 0 1.063 0.436 1.134 1l0.009 0.143c0 0.631-0.512 1.143-1.143 1.143h-16c-0.582 0-1.063-0.436-1.134-1l-0.009-0.143c0-0.631 0.512-1.143 1.143-1.143h16zM24 9.143c0.582 0 1.063 0.436 1.134 1l0.009 0.143c0 0.631-0.512 1.143-1.143 1.143h-16c-0.582 0-1.063-0.436-1.134-1l-0.009-0.143c0-0.631 0.512-1.143 1.143-1.143h16z"></path>
</symbol>
<symbol id="oc-search" viewBox="0 0 32 32">
<title>search</title>
<path d="M31.008 27.232l-7.58-6.446c-0.784-0.706-1.622-1.028-2.298-0.998 1.79-2.096 2.87-4.814 2.87-7.786 0-6.628-5.372-12-12-12s-12 5.372-12 12 5.372 12 12 12c2.972 0 5.69-1.080 7.786-2.87-0.032 0.676 0.292 1.514 0.998 2.298l6.446 7.58c1.104 1.226 2.906 1.33 4.006 0.23s0.996-2.904-0.23-4.006zM12 20c-4.418 0-8-3.582-8-8s3.582-8 8-8 8 3.582 8 8-3.582 8-8 8z"></path>
</symbol>
<symbol id="oc-bubble" viewBox="0 0 32 32">
<title>bubble</title>
<path d="M16 2c8.836 0 16 5.82 16 13s-7.164 13-16 13c-0.848 0-1.682-0.054-2.494-0.158-3.436 3.436-7.54 4.054-11.506 4.144v-0.842c2.142-1.050 4-2.96 4-5.144 0-0.304-0.024-0.604-0.068-0.896-3.618-2.384-5.932-6.024-5.932-10.104 0-7.18 7.164-13 16-13z"></path>
</symbol>
<symbol id="oc-bell" viewBox="0 0 32 32">
<title>bell</title>
<path d="M32.046 25c0-9-8-7-8-14 0-0.58-0.056-1.076-0.158-1.498-0.526-3.532-2.88-6.366-5.93-7.23 0.028-0.124 0.042-0.25 0.042-0.382 0-1.040-0.9-1.89-2-1.89s-2 0.85-2 1.89c0 0.13 0.014 0.258 0.042 0.382-3.42 0.968-5.966 4.416-6.040 8.546-0.002 0.060-0.002 0.12-0.002 0.182 0 7-8 5-8 14 0 2.382 5.33 4.374 12.468 4.878 0.672 1.262 2.002 2.122 3.532 2.122s2.86-0.86 3.532-2.122c7.136-0.502 12.468-2.496 12.468-4.878 0-0.008 0-0.014 0-0.022l0.048 0.022zM25.82 26.69c-1.694 0.452-3.692 0.778-5.836 0.958-0.178-2.044-1.894-3.648-3.984-3.648s-3.806 1.604-3.984 3.648c-2.144-0.18-4.142-0.506-5.836-0.958-2.332-0.622-3.448-1.318-3.856-1.69 0.408-0.372 1.524-1.068 3.856-1.69 2.712-0.724 6.2-1.122 9.82-1.122s7.108 0.398 9.82 1.122c2.332 0.622 3.448 1.318 3.856 1.69-0.408 0.372-1.524 1.068-3.856 1.69z"></path>
</symbol>
</defs>
</svg>
